%TF.GenerationSoftware,KiCad,Pcbnew,(5.0.2)-1*%
%TF.CreationDate,2020-12-10T22:03:50+01:00*%
%TF.ProjectId,canduino,63616e64-7569-46e6-9f2e-6b696361645f,rev?*%
%TF.SameCoordinates,Original*%
%TF.FileFunction,Soldermask,Bot*%
%TF.FilePolarity,Negative*%
%FSLAX46Y46*%
G04 Gerber Fmt 4.6, Leading zero omitted, Abs format (unit mm)*
G04 Created by KiCad (PCBNEW (5.0.2)-1) date 10.12.2020 22:03:50*
%MOMM*%
%LPD*%
G01*
G04 APERTURE LIST*
%ADD10C,0.200000*%
%ADD11C,0.100000*%
G04 APERTURE END LIST*
D10*
X76708000Y-63500000D02*
X101092000Y-63500000D01*
X76708000Y-107188000D02*
X76708000Y-63500000D01*
X101092000Y-107188000D02*
X76708000Y-107188000D01*
X101092000Y-63500000D02*
X101092000Y-107188000D01*
D11*
G36*
X91779106Y-104772993D02*
X91831127Y-104788774D01*
X91831130Y-104788776D01*
X91831131Y-104788776D01*
X91879079Y-104814404D01*
X91894990Y-104827462D01*
X91921107Y-104848895D01*
X91942802Y-104875332D01*
X91955596Y-104890921D01*
X91981224Y-104938868D01*
X91981226Y-104938872D01*
X91997007Y-104990893D01*
X92001000Y-105031440D01*
X92001000Y-106058560D01*
X91997007Y-106099107D01*
X91981226Y-106151128D01*
X91981224Y-106151131D01*
X91981224Y-106151132D01*
X91955596Y-106199079D01*
X91942037Y-106215600D01*
X91921106Y-106241106D01*
X91895600Y-106262037D01*
X91879079Y-106275596D01*
X91831132Y-106301224D01*
X91831128Y-106301226D01*
X91779107Y-106317007D01*
X91725000Y-106322335D01*
X91670894Y-106317007D01*
X91618873Y-106301226D01*
X91618869Y-106301224D01*
X91570922Y-106275596D01*
X91554401Y-106262037D01*
X91528895Y-106241106D01*
X91507964Y-106215600D01*
X91494405Y-106199079D01*
X91468777Y-106151132D01*
X91468777Y-106151131D01*
X91468775Y-106151128D01*
X91452994Y-106099107D01*
X91449001Y-106058559D01*
X91449000Y-105031441D01*
X91452993Y-104990894D01*
X91468774Y-104938873D01*
X91468777Y-104938868D01*
X91494404Y-104890921D01*
X91507462Y-104875010D01*
X91528895Y-104848893D01*
X91555332Y-104827198D01*
X91570921Y-104814404D01*
X91618868Y-104788776D01*
X91618869Y-104788776D01*
X91618872Y-104788774D01*
X91670893Y-104772993D01*
X91725000Y-104767665D01*
X91779106Y-104772993D01*
X91779106Y-104772993D01*
G37*
G36*
X86129106Y-104772993D02*
X86181127Y-104788774D01*
X86181130Y-104788776D01*
X86181131Y-104788776D01*
X86229079Y-104814404D01*
X86244990Y-104827462D01*
X86271107Y-104848895D01*
X86292802Y-104875332D01*
X86305596Y-104890921D01*
X86331224Y-104938868D01*
X86331226Y-104938872D01*
X86347007Y-104990893D01*
X86351000Y-105031440D01*
X86351000Y-106058560D01*
X86347007Y-106099107D01*
X86331226Y-106151128D01*
X86331224Y-106151131D01*
X86331224Y-106151132D01*
X86305596Y-106199079D01*
X86292037Y-106215600D01*
X86271106Y-106241106D01*
X86245600Y-106262037D01*
X86229079Y-106275596D01*
X86181132Y-106301224D01*
X86181128Y-106301226D01*
X86129107Y-106317007D01*
X86075000Y-106322335D01*
X86020894Y-106317007D01*
X85968873Y-106301226D01*
X85968869Y-106301224D01*
X85920922Y-106275596D01*
X85904401Y-106262037D01*
X85878895Y-106241106D01*
X85857964Y-106215600D01*
X85844405Y-106199079D01*
X85818777Y-106151132D01*
X85818777Y-106151131D01*
X85818775Y-106151128D01*
X85802994Y-106099107D01*
X85799001Y-106058559D01*
X85799000Y-105031441D01*
X85802993Y-104990894D01*
X85818774Y-104938873D01*
X85818777Y-104938868D01*
X85844404Y-104890921D01*
X85857462Y-104875010D01*
X85878895Y-104848893D01*
X85905332Y-104827198D01*
X85920921Y-104814404D01*
X85968868Y-104788776D01*
X85968869Y-104788776D01*
X85968872Y-104788774D01*
X86020893Y-104772993D01*
X86075000Y-104767665D01*
X86129106Y-104772993D01*
X86129106Y-104772993D01*
G37*
G36*
X94310466Y-104543565D02*
X94349137Y-104555296D01*
X94384779Y-104574348D01*
X94416017Y-104599983D01*
X94441652Y-104631221D01*
X94460704Y-104666863D01*
X94472435Y-104705534D01*
X94477000Y-104751888D01*
X94477000Y-105403112D01*
X94472435Y-105449466D01*
X94460704Y-105488137D01*
X94441652Y-105523779D01*
X94416017Y-105555017D01*
X94384779Y-105580652D01*
X94349137Y-105599704D01*
X94310466Y-105611435D01*
X94264112Y-105616000D01*
X93187888Y-105616000D01*
X93141534Y-105611435D01*
X93102863Y-105599704D01*
X93067221Y-105580652D01*
X93035983Y-105555017D01*
X93010348Y-105523779D01*
X92991296Y-105488137D01*
X92979565Y-105449466D01*
X92975000Y-105403112D01*
X92975000Y-104751888D01*
X92979565Y-104705534D01*
X92991296Y-104666863D01*
X93010348Y-104631221D01*
X93035983Y-104599983D01*
X93067221Y-104574348D01*
X93102863Y-104555296D01*
X93141534Y-104543565D01*
X93187888Y-104539000D01*
X94264112Y-104539000D01*
X94310466Y-104543565D01*
X94310466Y-104543565D01*
G37*
G36*
X96391591Y-104443085D02*
X96425569Y-104453393D01*
X96456887Y-104470133D01*
X96484339Y-104492661D01*
X96506867Y-104520113D01*
X96523607Y-104551431D01*
X96533915Y-104585409D01*
X96538000Y-104626890D01*
X96538000Y-105228110D01*
X96533915Y-105269591D01*
X96523607Y-105303569D01*
X96506867Y-105334887D01*
X96484339Y-105362339D01*
X96456887Y-105384867D01*
X96425569Y-105401607D01*
X96391591Y-105411915D01*
X96350110Y-105416000D01*
X95673890Y-105416000D01*
X95632409Y-105411915D01*
X95598431Y-105401607D01*
X95567113Y-105384867D01*
X95539661Y-105362339D01*
X95517133Y-105334887D01*
X95500393Y-105303569D01*
X95490085Y-105269591D01*
X95486000Y-105228110D01*
X95486000Y-104626890D01*
X95490085Y-104585409D01*
X95500393Y-104551431D01*
X95517133Y-104520113D01*
X95539661Y-104492661D01*
X95567113Y-104470133D01*
X95598431Y-104453393D01*
X95632409Y-104443085D01*
X95673890Y-104439000D01*
X96350110Y-104439000D01*
X96391591Y-104443085D01*
X96391591Y-104443085D01*
G37*
G36*
X78850443Y-103245519D02*
X78916627Y-103252037D01*
X79026267Y-103285296D01*
X79086467Y-103303557D01*
X79192867Y-103360430D01*
X79242991Y-103387222D01*
X79278729Y-103416552D01*
X79380186Y-103499814D01*
X79459738Y-103596750D01*
X79492778Y-103637009D01*
X79492779Y-103637011D01*
X79576443Y-103793533D01*
X79590842Y-103841000D01*
X79627963Y-103963373D01*
X79645359Y-104140000D01*
X79627963Y-104316627D01*
X79593616Y-104429853D01*
X79576443Y-104486467D01*
X79506210Y-104617861D01*
X79492778Y-104642991D01*
X79463448Y-104678729D01*
X79380186Y-104780186D01*
X79278729Y-104863448D01*
X79242991Y-104892778D01*
X79242989Y-104892779D01*
X79086467Y-104976443D01*
X79038824Y-104990895D01*
X78916627Y-105027963D01*
X78850442Y-105034482D01*
X78784260Y-105041000D01*
X78695740Y-105041000D01*
X78629557Y-105034481D01*
X78563373Y-105027963D01*
X78441176Y-104990895D01*
X78393533Y-104976443D01*
X78237011Y-104892779D01*
X78237009Y-104892778D01*
X78201271Y-104863448D01*
X78099814Y-104780186D01*
X78016552Y-104678729D01*
X77987222Y-104642991D01*
X77973790Y-104617861D01*
X77903557Y-104486467D01*
X77886384Y-104429853D01*
X77852037Y-104316627D01*
X77834641Y-104140000D01*
X77852037Y-103963373D01*
X77889158Y-103841000D01*
X77903557Y-103793533D01*
X77987221Y-103637011D01*
X77987222Y-103637009D01*
X78020262Y-103596750D01*
X78099814Y-103499814D01*
X78201271Y-103416552D01*
X78237009Y-103387222D01*
X78287133Y-103360430D01*
X78393533Y-103303557D01*
X78453733Y-103285296D01*
X78563373Y-103252037D01*
X78629558Y-103245518D01*
X78695740Y-103239000D01*
X78784260Y-103239000D01*
X78850443Y-103245519D01*
X78850443Y-103245519D01*
G37*
G36*
X99961000Y-105041000D02*
X98159000Y-105041000D01*
X98159000Y-103239000D01*
X99961000Y-103239000D01*
X99961000Y-105041000D01*
X99961000Y-105041000D01*
G37*
G36*
X83134466Y-103273565D02*
X83173137Y-103285296D01*
X83208779Y-103304348D01*
X83240017Y-103329983D01*
X83265652Y-103361221D01*
X83284704Y-103396863D01*
X83296435Y-103435534D01*
X83301000Y-103481888D01*
X83301000Y-104133112D01*
X83296435Y-104179466D01*
X83284704Y-104218137D01*
X83265652Y-104253779D01*
X83240017Y-104285017D01*
X83208779Y-104310652D01*
X83173137Y-104329704D01*
X83134466Y-104341435D01*
X83088112Y-104346000D01*
X82011888Y-104346000D01*
X81965534Y-104341435D01*
X81926863Y-104329704D01*
X81891221Y-104310652D01*
X81859983Y-104285017D01*
X81834348Y-104253779D01*
X81815296Y-104218137D01*
X81803565Y-104179466D01*
X81799000Y-104133112D01*
X81799000Y-103481888D01*
X81803565Y-103435534D01*
X81815296Y-103396863D01*
X81834348Y-103361221D01*
X81859983Y-103329983D01*
X81891221Y-103304348D01*
X81926863Y-103285296D01*
X81965534Y-103273565D01*
X82011888Y-103269000D01*
X83088112Y-103269000D01*
X83134466Y-103273565D01*
X83134466Y-103273565D01*
G37*
G36*
X96391591Y-102868085D02*
X96425569Y-102878393D01*
X96456887Y-102895133D01*
X96484339Y-102917661D01*
X96506867Y-102945113D01*
X96523607Y-102976431D01*
X96533915Y-103010409D01*
X96538000Y-103051890D01*
X96538000Y-103653110D01*
X96533915Y-103694591D01*
X96523607Y-103728569D01*
X96506867Y-103759887D01*
X96484339Y-103787339D01*
X96456887Y-103809867D01*
X96425569Y-103826607D01*
X96391591Y-103836915D01*
X96350110Y-103841000D01*
X95673890Y-103841000D01*
X95632409Y-103836915D01*
X95598431Y-103826607D01*
X95567113Y-103809867D01*
X95539661Y-103787339D01*
X95517133Y-103759887D01*
X95500393Y-103728569D01*
X95490085Y-103694591D01*
X95486000Y-103653110D01*
X95486000Y-103051890D01*
X95490085Y-103010409D01*
X95500393Y-102976431D01*
X95517133Y-102945113D01*
X95539661Y-102917661D01*
X95567113Y-102895133D01*
X95598431Y-102878393D01*
X95632409Y-102868085D01*
X95673890Y-102864000D01*
X96350110Y-102864000D01*
X96391591Y-102868085D01*
X96391591Y-102868085D01*
G37*
G36*
X90952383Y-103057489D02*
X91016261Y-103083948D01*
X91073750Y-103122361D01*
X91122639Y-103171250D01*
X91161052Y-103228739D01*
X91187511Y-103292617D01*
X91201000Y-103360430D01*
X91201000Y-103429570D01*
X91187511Y-103497383D01*
X91161052Y-103561261D01*
X91122639Y-103618750D01*
X91073750Y-103667639D01*
X91031869Y-103695623D01*
X91016261Y-103706052D01*
X90952383Y-103732511D01*
X90884570Y-103746000D01*
X90815430Y-103746000D01*
X90747617Y-103732511D01*
X90683739Y-103706052D01*
X90668131Y-103695623D01*
X90626250Y-103667639D01*
X90577361Y-103618750D01*
X90538948Y-103561261D01*
X90512489Y-103497383D01*
X90499000Y-103429570D01*
X90499000Y-103360430D01*
X90512489Y-103292617D01*
X90538948Y-103228739D01*
X90577361Y-103171250D01*
X90626250Y-103122361D01*
X90683739Y-103083948D01*
X90747617Y-103057489D01*
X90815430Y-103044000D01*
X90884570Y-103044000D01*
X90952383Y-103057489D01*
X90952383Y-103057489D01*
G37*
G36*
X87052383Y-103057489D02*
X87116261Y-103083948D01*
X87173750Y-103122361D01*
X87222639Y-103171250D01*
X87261052Y-103228739D01*
X87287511Y-103292617D01*
X87301000Y-103360430D01*
X87301000Y-103429570D01*
X87287511Y-103497383D01*
X87261052Y-103561261D01*
X87222639Y-103618750D01*
X87173750Y-103667639D01*
X87131869Y-103695623D01*
X87116261Y-103706052D01*
X87052383Y-103732511D01*
X86984570Y-103746000D01*
X86915430Y-103746000D01*
X86847617Y-103732511D01*
X86783739Y-103706052D01*
X86768131Y-103695623D01*
X86726250Y-103667639D01*
X86677361Y-103618750D01*
X86638948Y-103561261D01*
X86612489Y-103497383D01*
X86599000Y-103429570D01*
X86599000Y-103360430D01*
X86612489Y-103292617D01*
X86638948Y-103228739D01*
X86677361Y-103171250D01*
X86726250Y-103122361D01*
X86783739Y-103083948D01*
X86847617Y-103057489D01*
X86915430Y-103044000D01*
X86984570Y-103044000D01*
X87052383Y-103057489D01*
X87052383Y-103057489D01*
G37*
G36*
X94310466Y-102668565D02*
X94349137Y-102680296D01*
X94384779Y-102699348D01*
X94416017Y-102724983D01*
X94441652Y-102756221D01*
X94460704Y-102791863D01*
X94472435Y-102830534D01*
X94477000Y-102876888D01*
X94477000Y-103528112D01*
X94472435Y-103574466D01*
X94460704Y-103613137D01*
X94441652Y-103648779D01*
X94416017Y-103680017D01*
X94384779Y-103705652D01*
X94349137Y-103724704D01*
X94310466Y-103736435D01*
X94264112Y-103741000D01*
X93187888Y-103741000D01*
X93141534Y-103736435D01*
X93102863Y-103724704D01*
X93067221Y-103705652D01*
X93035983Y-103680017D01*
X93010348Y-103648779D01*
X92991296Y-103613137D01*
X92979565Y-103574466D01*
X92975000Y-103528112D01*
X92975000Y-102876888D01*
X92979565Y-102830534D01*
X92991296Y-102791863D01*
X93010348Y-102756221D01*
X93035983Y-102724983D01*
X93067221Y-102699348D01*
X93102863Y-102680296D01*
X93141534Y-102668565D01*
X93187888Y-102664000D01*
X94264112Y-102664000D01*
X94310466Y-102668565D01*
X94310466Y-102668565D01*
G37*
G36*
X99170443Y-100705519D02*
X99236627Y-100712037D01*
X99349853Y-100746384D01*
X99406467Y-100763557D01*
X99484524Y-100805280D01*
X99562991Y-100847222D01*
X99598729Y-100876552D01*
X99700186Y-100959814D01*
X99750399Y-101021000D01*
X99812778Y-101097009D01*
X99812779Y-101097011D01*
X99896443Y-101253533D01*
X99896443Y-101253534D01*
X99947963Y-101423373D01*
X99965359Y-101600000D01*
X99947963Y-101776627D01*
X99913616Y-101889853D01*
X99896443Y-101946467D01*
X99822348Y-102085087D01*
X99812778Y-102102991D01*
X99783448Y-102138729D01*
X99700186Y-102240186D01*
X99621859Y-102304466D01*
X99562991Y-102352778D01*
X99562989Y-102352779D01*
X99406467Y-102436443D01*
X99360110Y-102450505D01*
X99236627Y-102487963D01*
X99170442Y-102494482D01*
X99104260Y-102501000D01*
X99015740Y-102501000D01*
X98949558Y-102494482D01*
X98883373Y-102487963D01*
X98759890Y-102450505D01*
X98713533Y-102436443D01*
X98557011Y-102352779D01*
X98557009Y-102352778D01*
X98498141Y-102304466D01*
X98419814Y-102240186D01*
X98336552Y-102138729D01*
X98307222Y-102102991D01*
X98297652Y-102085087D01*
X98223557Y-101946467D01*
X98206384Y-101889853D01*
X98172037Y-101776627D01*
X98154641Y-101600000D01*
X98172037Y-101423373D01*
X98223557Y-101253534D01*
X98223557Y-101253533D01*
X98307221Y-101097011D01*
X98307222Y-101097009D01*
X98369601Y-101021000D01*
X98419814Y-100959814D01*
X98521271Y-100876552D01*
X98557009Y-100847222D01*
X98635476Y-100805280D01*
X98713533Y-100763557D01*
X98770147Y-100746384D01*
X98883373Y-100712037D01*
X98949557Y-100705519D01*
X99015740Y-100699000D01*
X99104260Y-100699000D01*
X99170443Y-100705519D01*
X99170443Y-100705519D01*
G37*
G36*
X78850443Y-100705519D02*
X78916627Y-100712037D01*
X79029853Y-100746384D01*
X79086467Y-100763557D01*
X79164524Y-100805280D01*
X79242991Y-100847222D01*
X79278729Y-100876552D01*
X79380186Y-100959814D01*
X79430399Y-101021000D01*
X79492778Y-101097009D01*
X79492779Y-101097011D01*
X79576443Y-101253533D01*
X79576443Y-101253534D01*
X79627963Y-101423373D01*
X79645359Y-101600000D01*
X79627963Y-101776627D01*
X79593616Y-101889853D01*
X79576443Y-101946467D01*
X79502348Y-102085087D01*
X79492778Y-102102991D01*
X79463448Y-102138729D01*
X79380186Y-102240186D01*
X79301859Y-102304466D01*
X79242991Y-102352778D01*
X79242989Y-102352779D01*
X79086467Y-102436443D01*
X79040110Y-102450505D01*
X78916627Y-102487963D01*
X78850442Y-102494482D01*
X78784260Y-102501000D01*
X78695740Y-102501000D01*
X78629558Y-102494482D01*
X78563373Y-102487963D01*
X78439890Y-102450505D01*
X78393533Y-102436443D01*
X78237011Y-102352779D01*
X78237009Y-102352778D01*
X78178141Y-102304466D01*
X78099814Y-102240186D01*
X78016552Y-102138729D01*
X77987222Y-102102991D01*
X77977652Y-102085087D01*
X77903557Y-101946467D01*
X77886384Y-101889853D01*
X77852037Y-101776627D01*
X77834641Y-101600000D01*
X77852037Y-101423373D01*
X77903557Y-101253534D01*
X77903557Y-101253533D01*
X77987221Y-101097011D01*
X77987222Y-101097009D01*
X78049601Y-101021000D01*
X78099814Y-100959814D01*
X78201271Y-100876552D01*
X78237009Y-100847222D01*
X78315476Y-100805280D01*
X78393533Y-100763557D01*
X78450147Y-100746384D01*
X78563373Y-100712037D01*
X78629557Y-100705519D01*
X78695740Y-100699000D01*
X78784260Y-100699000D01*
X78850443Y-100705519D01*
X78850443Y-100705519D01*
G37*
G36*
X83134466Y-101398565D02*
X83173137Y-101410296D01*
X83208779Y-101429348D01*
X83240017Y-101454983D01*
X83265652Y-101486221D01*
X83284704Y-101521863D01*
X83296435Y-101560534D01*
X83301000Y-101606888D01*
X83301000Y-102258112D01*
X83296435Y-102304466D01*
X83284704Y-102343137D01*
X83265652Y-102378779D01*
X83240017Y-102410017D01*
X83208779Y-102435652D01*
X83173137Y-102454704D01*
X83134466Y-102466435D01*
X83088112Y-102471000D01*
X82011888Y-102471000D01*
X81965534Y-102466435D01*
X81926863Y-102454704D01*
X81891221Y-102435652D01*
X81859983Y-102410017D01*
X81834348Y-102378779D01*
X81815296Y-102343137D01*
X81803565Y-102304466D01*
X81799000Y-102258112D01*
X81799000Y-101606888D01*
X81803565Y-101560534D01*
X81815296Y-101521863D01*
X81834348Y-101486221D01*
X81859983Y-101454983D01*
X81891221Y-101429348D01*
X81926863Y-101410296D01*
X81965534Y-101398565D01*
X82011888Y-101394000D01*
X83088112Y-101394000D01*
X83134466Y-101398565D01*
X83134466Y-101398565D01*
G37*
G36*
X96391591Y-100658585D02*
X96425569Y-100668893D01*
X96456887Y-100685633D01*
X96484339Y-100708161D01*
X96506867Y-100735613D01*
X96523607Y-100766931D01*
X96533915Y-100800909D01*
X96538000Y-100842390D01*
X96538000Y-101443610D01*
X96533915Y-101485091D01*
X96523607Y-101519069D01*
X96506867Y-101550387D01*
X96484339Y-101577839D01*
X96456887Y-101600367D01*
X96425569Y-101617107D01*
X96391591Y-101627415D01*
X96350110Y-101631500D01*
X95673890Y-101631500D01*
X95632409Y-101627415D01*
X95598431Y-101617107D01*
X95567113Y-101600367D01*
X95539661Y-101577839D01*
X95517133Y-101550387D01*
X95500393Y-101519069D01*
X95490085Y-101485091D01*
X95486000Y-101443610D01*
X95486000Y-100842390D01*
X95490085Y-100800909D01*
X95500393Y-100766931D01*
X95517133Y-100735613D01*
X95539661Y-100708161D01*
X95567113Y-100685633D01*
X95598431Y-100668893D01*
X95632409Y-100658585D01*
X95673890Y-100654500D01*
X96350110Y-100654500D01*
X96391591Y-100658585D01*
X96391591Y-100658585D01*
G37*
G36*
X93426000Y-101021000D02*
X91574000Y-101021000D01*
X91574000Y-92019000D01*
X93426000Y-92019000D01*
X93426000Y-101021000D01*
X93426000Y-101021000D01*
G37*
G36*
X86226000Y-101021000D02*
X84374000Y-101021000D01*
X84374000Y-92019000D01*
X86226000Y-92019000D01*
X86226000Y-101021000D01*
X86226000Y-101021000D01*
G37*
G36*
X96391591Y-99083585D02*
X96425569Y-99093893D01*
X96456887Y-99110633D01*
X96484339Y-99133161D01*
X96506867Y-99160613D01*
X96523607Y-99191931D01*
X96533915Y-99225909D01*
X96538000Y-99267390D01*
X96538000Y-99868610D01*
X96533915Y-99910091D01*
X96523607Y-99944069D01*
X96506867Y-99975387D01*
X96484339Y-100002839D01*
X96456887Y-100025367D01*
X96425569Y-100042107D01*
X96391591Y-100052415D01*
X96350110Y-100056500D01*
X95673890Y-100056500D01*
X95632409Y-100052415D01*
X95598431Y-100042107D01*
X95567113Y-100025367D01*
X95539661Y-100002839D01*
X95517133Y-99975387D01*
X95500393Y-99944069D01*
X95490085Y-99910091D01*
X95486000Y-99868610D01*
X95486000Y-99267390D01*
X95490085Y-99225909D01*
X95500393Y-99191931D01*
X95517133Y-99160613D01*
X95539661Y-99133161D01*
X95567113Y-99110633D01*
X95598431Y-99093893D01*
X95632409Y-99083585D01*
X95673890Y-99079500D01*
X96350110Y-99079500D01*
X96391591Y-99083585D01*
X96391591Y-99083585D01*
G37*
G36*
X99170443Y-98165519D02*
X99236627Y-98172037D01*
X99333526Y-98201431D01*
X99406467Y-98223557D01*
X99522538Y-98285599D01*
X99562991Y-98307222D01*
X99594706Y-98333250D01*
X99700186Y-98419814D01*
X99781585Y-98519000D01*
X99812778Y-98557009D01*
X99812779Y-98557011D01*
X99896443Y-98713533D01*
X99896443Y-98713534D01*
X99947963Y-98883373D01*
X99965359Y-99060000D01*
X99947963Y-99236627D01*
X99913616Y-99349853D01*
X99896443Y-99406467D01*
X99822348Y-99545087D01*
X99812778Y-99562991D01*
X99783448Y-99598729D01*
X99700186Y-99700186D01*
X99598729Y-99783448D01*
X99562991Y-99812778D01*
X99562989Y-99812779D01*
X99406467Y-99896443D01*
X99349853Y-99913616D01*
X99236627Y-99947963D01*
X99170443Y-99954481D01*
X99104260Y-99961000D01*
X99015740Y-99961000D01*
X98949557Y-99954481D01*
X98883373Y-99947963D01*
X98770147Y-99913616D01*
X98713533Y-99896443D01*
X98557011Y-99812779D01*
X98557009Y-99812778D01*
X98521271Y-99783448D01*
X98419814Y-99700186D01*
X98336552Y-99598729D01*
X98307222Y-99562991D01*
X98297652Y-99545087D01*
X98223557Y-99406467D01*
X98206384Y-99349853D01*
X98172037Y-99236627D01*
X98154641Y-99060000D01*
X98172037Y-98883373D01*
X98223557Y-98713534D01*
X98223557Y-98713533D01*
X98307221Y-98557011D01*
X98307222Y-98557009D01*
X98338415Y-98519000D01*
X98419814Y-98419814D01*
X98525294Y-98333250D01*
X98557009Y-98307222D01*
X98597462Y-98285599D01*
X98713533Y-98223557D01*
X98786474Y-98201431D01*
X98883373Y-98172037D01*
X98949557Y-98165519D01*
X99015740Y-98159000D01*
X99104260Y-98159000D01*
X99170443Y-98165519D01*
X99170443Y-98165519D01*
G37*
G36*
X78850443Y-98165519D02*
X78916627Y-98172037D01*
X79013526Y-98201431D01*
X79086467Y-98223557D01*
X79202538Y-98285599D01*
X79242991Y-98307222D01*
X79274706Y-98333250D01*
X79380186Y-98419814D01*
X79461585Y-98519000D01*
X79492778Y-98557009D01*
X79492779Y-98557011D01*
X79576443Y-98713533D01*
X79576443Y-98713534D01*
X79627963Y-98883373D01*
X79645359Y-99060000D01*
X79627963Y-99236627D01*
X79593616Y-99349853D01*
X79576443Y-99406467D01*
X79502348Y-99545087D01*
X79492778Y-99562991D01*
X79463448Y-99598729D01*
X79380186Y-99700186D01*
X79278729Y-99783448D01*
X79242991Y-99812778D01*
X79242989Y-99812779D01*
X79086467Y-99896443D01*
X79029853Y-99913616D01*
X78916627Y-99947963D01*
X78850443Y-99954481D01*
X78784260Y-99961000D01*
X78695740Y-99961000D01*
X78629557Y-99954481D01*
X78563373Y-99947963D01*
X78450147Y-99913616D01*
X78393533Y-99896443D01*
X78237011Y-99812779D01*
X78237009Y-99812778D01*
X78201271Y-99783448D01*
X78099814Y-99700186D01*
X78016552Y-99598729D01*
X77987222Y-99562991D01*
X77977652Y-99545087D01*
X77903557Y-99406467D01*
X77886384Y-99349853D01*
X77852037Y-99236627D01*
X77834641Y-99060000D01*
X77852037Y-98883373D01*
X77903557Y-98713534D01*
X77903557Y-98713533D01*
X77987221Y-98557011D01*
X77987222Y-98557009D01*
X78018415Y-98519000D01*
X78099814Y-98419814D01*
X78205294Y-98333250D01*
X78237009Y-98307222D01*
X78277462Y-98285599D01*
X78393533Y-98223557D01*
X78466474Y-98201431D01*
X78563373Y-98172037D01*
X78629557Y-98165519D01*
X78695740Y-98159000D01*
X78784260Y-98159000D01*
X78850443Y-98165519D01*
X78850443Y-98165519D01*
G37*
G36*
X82675591Y-98093085D02*
X82709569Y-98103393D01*
X82740887Y-98120133D01*
X82768339Y-98142661D01*
X82790867Y-98170113D01*
X82807607Y-98201431D01*
X82817915Y-98235409D01*
X82822000Y-98276890D01*
X82822000Y-98878110D01*
X82817915Y-98919591D01*
X82807607Y-98953569D01*
X82790867Y-98984887D01*
X82768339Y-99012339D01*
X82740887Y-99034867D01*
X82709569Y-99051607D01*
X82675591Y-99061915D01*
X82634110Y-99066000D01*
X81957890Y-99066000D01*
X81916409Y-99061915D01*
X81882431Y-99051607D01*
X81851113Y-99034867D01*
X81823661Y-99012339D01*
X81801133Y-98984887D01*
X81784393Y-98953569D01*
X81774085Y-98919591D01*
X81770000Y-98878110D01*
X81770000Y-98276890D01*
X81774085Y-98235409D01*
X81784393Y-98201431D01*
X81801133Y-98170113D01*
X81823661Y-98142661D01*
X81851113Y-98120133D01*
X81882431Y-98103393D01*
X81916409Y-98093085D01*
X81957890Y-98089000D01*
X82634110Y-98089000D01*
X82675591Y-98093085D01*
X82675591Y-98093085D01*
G37*
G36*
X96088466Y-96669565D02*
X96127137Y-96681296D01*
X96162779Y-96700348D01*
X96194017Y-96725983D01*
X96219652Y-96757221D01*
X96238704Y-96792863D01*
X96250435Y-96831534D01*
X96255000Y-96877888D01*
X96255000Y-97529112D01*
X96250435Y-97575466D01*
X96238704Y-97614137D01*
X96219652Y-97649779D01*
X96194017Y-97681017D01*
X96162779Y-97706652D01*
X96127137Y-97725704D01*
X96088466Y-97737435D01*
X96042112Y-97742000D01*
X94965888Y-97742000D01*
X94919534Y-97737435D01*
X94880863Y-97725704D01*
X94845221Y-97706652D01*
X94813983Y-97681017D01*
X94788348Y-97649779D01*
X94769296Y-97614137D01*
X94757565Y-97575466D01*
X94753000Y-97529112D01*
X94753000Y-96877888D01*
X94757565Y-96831534D01*
X94769296Y-96792863D01*
X94788348Y-96757221D01*
X94813983Y-96725983D01*
X94845221Y-96700348D01*
X94880863Y-96681296D01*
X94919534Y-96669565D01*
X94965888Y-96665000D01*
X96042112Y-96665000D01*
X96088466Y-96669565D01*
X96088466Y-96669565D01*
G37*
G36*
X82675591Y-96518085D02*
X82709569Y-96528393D01*
X82740887Y-96545133D01*
X82768339Y-96567661D01*
X82790867Y-96595113D01*
X82807607Y-96626431D01*
X82817915Y-96660409D01*
X82822000Y-96701890D01*
X82822000Y-97303110D01*
X82817915Y-97344591D01*
X82807607Y-97378569D01*
X82790867Y-97409887D01*
X82768339Y-97437339D01*
X82740887Y-97459867D01*
X82709569Y-97476607D01*
X82675591Y-97486915D01*
X82634110Y-97491000D01*
X81957890Y-97491000D01*
X81916409Y-97486915D01*
X81882431Y-97476607D01*
X81851113Y-97459867D01*
X81823661Y-97437339D01*
X81801133Y-97409887D01*
X81784393Y-97378569D01*
X81774085Y-97344591D01*
X81770000Y-97303110D01*
X81770000Y-96701890D01*
X81774085Y-96660409D01*
X81784393Y-96626431D01*
X81801133Y-96595113D01*
X81823661Y-96567661D01*
X81851113Y-96545133D01*
X81882431Y-96528393D01*
X81916409Y-96518085D01*
X81957890Y-96514000D01*
X82634110Y-96514000D01*
X82675591Y-96518085D01*
X82675591Y-96518085D01*
G37*
G36*
X78850442Y-95625518D02*
X78916627Y-95632037D01*
X79029853Y-95666384D01*
X79086467Y-95683557D01*
X79118703Y-95700788D01*
X79242991Y-95767222D01*
X79252199Y-95774779D01*
X79380186Y-95879814D01*
X79463448Y-95981271D01*
X79492778Y-96017009D01*
X79492779Y-96017011D01*
X79576443Y-96173533D01*
X79576443Y-96173534D01*
X79627963Y-96343373D01*
X79645359Y-96520000D01*
X79627963Y-96696627D01*
X79598770Y-96792863D01*
X79576443Y-96866467D01*
X79502348Y-97005087D01*
X79492778Y-97022991D01*
X79463448Y-97058729D01*
X79380186Y-97160186D01*
X79278729Y-97243448D01*
X79242991Y-97272778D01*
X79242989Y-97272779D01*
X79086467Y-97356443D01*
X79029853Y-97373616D01*
X78916627Y-97407963D01*
X78850442Y-97414482D01*
X78784260Y-97421000D01*
X78695740Y-97421000D01*
X78629558Y-97414482D01*
X78563373Y-97407963D01*
X78450147Y-97373616D01*
X78393533Y-97356443D01*
X78237011Y-97272779D01*
X78237009Y-97272778D01*
X78201271Y-97243448D01*
X78099814Y-97160186D01*
X78016552Y-97058729D01*
X77987222Y-97022991D01*
X77977652Y-97005087D01*
X77903557Y-96866467D01*
X77881230Y-96792863D01*
X77852037Y-96696627D01*
X77834641Y-96520000D01*
X77852037Y-96343373D01*
X77903557Y-96173534D01*
X77903557Y-96173533D01*
X77987221Y-96017011D01*
X77987222Y-96017009D01*
X78016552Y-95981271D01*
X78099814Y-95879814D01*
X78227801Y-95774779D01*
X78237009Y-95767222D01*
X78361297Y-95700788D01*
X78393533Y-95683557D01*
X78450147Y-95666384D01*
X78563373Y-95632037D01*
X78629558Y-95625518D01*
X78695740Y-95619000D01*
X78784260Y-95619000D01*
X78850442Y-95625518D01*
X78850442Y-95625518D01*
G37*
G36*
X99170442Y-95625518D02*
X99236627Y-95632037D01*
X99349853Y-95666384D01*
X99406467Y-95683557D01*
X99438703Y-95700788D01*
X99562991Y-95767222D01*
X99572199Y-95774779D01*
X99700186Y-95879814D01*
X99783448Y-95981271D01*
X99812778Y-96017009D01*
X99812779Y-96017011D01*
X99896443Y-96173533D01*
X99896443Y-96173534D01*
X99947963Y-96343373D01*
X99965359Y-96520000D01*
X99947963Y-96696627D01*
X99918770Y-96792863D01*
X99896443Y-96866467D01*
X99822348Y-97005087D01*
X99812778Y-97022991D01*
X99783448Y-97058729D01*
X99700186Y-97160186D01*
X99598729Y-97243448D01*
X99562991Y-97272778D01*
X99562989Y-97272779D01*
X99406467Y-97356443D01*
X99349853Y-97373616D01*
X99236627Y-97407963D01*
X99170442Y-97414482D01*
X99104260Y-97421000D01*
X99015740Y-97421000D01*
X98949558Y-97414482D01*
X98883373Y-97407963D01*
X98770147Y-97373616D01*
X98713533Y-97356443D01*
X98557011Y-97272779D01*
X98557009Y-97272778D01*
X98521271Y-97243448D01*
X98419814Y-97160186D01*
X98336552Y-97058729D01*
X98307222Y-97022991D01*
X98297652Y-97005087D01*
X98223557Y-96866467D01*
X98201230Y-96792863D01*
X98172037Y-96696627D01*
X98154641Y-96520000D01*
X98172037Y-96343373D01*
X98223557Y-96173534D01*
X98223557Y-96173533D01*
X98307221Y-96017011D01*
X98307222Y-96017009D01*
X98336552Y-95981271D01*
X98419814Y-95879814D01*
X98547801Y-95774779D01*
X98557009Y-95767222D01*
X98681297Y-95700788D01*
X98713533Y-95683557D01*
X98770147Y-95666384D01*
X98883373Y-95632037D01*
X98949558Y-95625518D01*
X99015740Y-95619000D01*
X99104260Y-95619000D01*
X99170442Y-95625518D01*
X99170442Y-95625518D01*
G37*
G36*
X96088466Y-94794565D02*
X96127137Y-94806296D01*
X96162779Y-94825348D01*
X96194017Y-94850983D01*
X96219652Y-94882221D01*
X96238704Y-94917863D01*
X96250435Y-94956534D01*
X96255000Y-95002888D01*
X96255000Y-95654112D01*
X96250435Y-95700466D01*
X96238704Y-95739137D01*
X96219652Y-95774779D01*
X96194017Y-95806017D01*
X96162779Y-95831652D01*
X96127137Y-95850704D01*
X96088466Y-95862435D01*
X96042112Y-95867000D01*
X94965888Y-95867000D01*
X94919534Y-95862435D01*
X94880863Y-95850704D01*
X94845221Y-95831652D01*
X94813983Y-95806017D01*
X94788348Y-95774779D01*
X94769296Y-95739137D01*
X94757565Y-95700466D01*
X94753000Y-95654112D01*
X94753000Y-95002888D01*
X94757565Y-94956534D01*
X94769296Y-94917863D01*
X94788348Y-94882221D01*
X94813983Y-94850983D01*
X94845221Y-94825348D01*
X94880863Y-94806296D01*
X94919534Y-94794565D01*
X94965888Y-94790000D01*
X96042112Y-94790000D01*
X96088466Y-94794565D01*
X96088466Y-94794565D01*
G37*
G36*
X99170443Y-93085519D02*
X99236627Y-93092037D01*
X99333526Y-93121431D01*
X99406467Y-93143557D01*
X99522538Y-93205599D01*
X99562991Y-93227222D01*
X99594706Y-93253250D01*
X99700186Y-93339814D01*
X99783448Y-93441271D01*
X99812778Y-93477009D01*
X99812779Y-93477011D01*
X99896443Y-93633533D01*
X99896443Y-93633534D01*
X99947963Y-93803373D01*
X99965359Y-93980000D01*
X99947963Y-94156627D01*
X99913616Y-94269853D01*
X99896443Y-94326467D01*
X99822348Y-94465087D01*
X99812778Y-94482991D01*
X99795741Y-94503750D01*
X99700186Y-94620186D01*
X99609829Y-94694339D01*
X99562991Y-94732778D01*
X99562989Y-94732779D01*
X99406467Y-94816443D01*
X99349853Y-94833616D01*
X99236627Y-94867963D01*
X99170443Y-94874481D01*
X99104260Y-94881000D01*
X99015740Y-94881000D01*
X98949557Y-94874481D01*
X98883373Y-94867963D01*
X98770147Y-94833616D01*
X98713533Y-94816443D01*
X98557011Y-94732779D01*
X98557009Y-94732778D01*
X98510171Y-94694339D01*
X98419814Y-94620186D01*
X98324259Y-94503750D01*
X98307222Y-94482991D01*
X98297652Y-94465087D01*
X98223557Y-94326467D01*
X98206384Y-94269853D01*
X98172037Y-94156627D01*
X98154641Y-93980000D01*
X98172037Y-93803373D01*
X98223557Y-93633534D01*
X98223557Y-93633533D01*
X98307221Y-93477011D01*
X98307222Y-93477009D01*
X98336552Y-93441271D01*
X98419814Y-93339814D01*
X98525294Y-93253250D01*
X98557009Y-93227222D01*
X98597462Y-93205599D01*
X98713533Y-93143557D01*
X98786474Y-93121431D01*
X98883373Y-93092037D01*
X98949557Y-93085519D01*
X99015740Y-93079000D01*
X99104260Y-93079000D01*
X99170443Y-93085519D01*
X99170443Y-93085519D01*
G37*
G36*
X78850443Y-93085519D02*
X78916627Y-93092037D01*
X79013526Y-93121431D01*
X79086467Y-93143557D01*
X79202538Y-93205599D01*
X79242991Y-93227222D01*
X79274706Y-93253250D01*
X79380186Y-93339814D01*
X79463448Y-93441271D01*
X79492778Y-93477009D01*
X79492779Y-93477011D01*
X79576443Y-93633533D01*
X79576443Y-93633534D01*
X79627963Y-93803373D01*
X79645359Y-93980000D01*
X79627963Y-94156627D01*
X79593616Y-94269853D01*
X79576443Y-94326467D01*
X79502348Y-94465087D01*
X79492778Y-94482991D01*
X79475741Y-94503750D01*
X79380186Y-94620186D01*
X79289829Y-94694339D01*
X79242991Y-94732778D01*
X79242989Y-94732779D01*
X79086467Y-94816443D01*
X79029853Y-94833616D01*
X78916627Y-94867963D01*
X78850443Y-94874481D01*
X78784260Y-94881000D01*
X78695740Y-94881000D01*
X78629557Y-94874481D01*
X78563373Y-94867963D01*
X78450147Y-94833616D01*
X78393533Y-94816443D01*
X78237011Y-94732779D01*
X78237009Y-94732778D01*
X78190171Y-94694339D01*
X78099814Y-94620186D01*
X78004259Y-94503750D01*
X77987222Y-94482991D01*
X77977652Y-94465087D01*
X77903557Y-94326467D01*
X77886384Y-94269853D01*
X77852037Y-94156627D01*
X77834641Y-93980000D01*
X77852037Y-93803373D01*
X77903557Y-93633534D01*
X77903557Y-93633533D01*
X77987221Y-93477011D01*
X77987222Y-93477009D01*
X78016552Y-93441271D01*
X78099814Y-93339814D01*
X78205294Y-93253250D01*
X78237009Y-93227222D01*
X78277462Y-93205599D01*
X78393533Y-93143557D01*
X78466474Y-93121431D01*
X78563373Y-93092037D01*
X78629557Y-93085519D01*
X78695740Y-93079000D01*
X78784260Y-93079000D01*
X78850443Y-93085519D01*
X78850443Y-93085519D01*
G37*
G36*
X82675591Y-93775085D02*
X82709569Y-93785393D01*
X82740887Y-93802133D01*
X82768339Y-93824661D01*
X82790867Y-93852113D01*
X82807607Y-93883431D01*
X82817915Y-93917409D01*
X82822000Y-93958890D01*
X82822000Y-94560110D01*
X82817915Y-94601591D01*
X82807607Y-94635569D01*
X82790867Y-94666887D01*
X82768339Y-94694339D01*
X82740887Y-94716867D01*
X82709569Y-94733607D01*
X82675591Y-94743915D01*
X82634110Y-94748000D01*
X81957890Y-94748000D01*
X81916409Y-94743915D01*
X81882431Y-94733607D01*
X81851113Y-94716867D01*
X81823661Y-94694339D01*
X81801133Y-94666887D01*
X81784393Y-94635569D01*
X81774085Y-94601591D01*
X81770000Y-94560110D01*
X81770000Y-93958890D01*
X81774085Y-93917409D01*
X81784393Y-93883431D01*
X81801133Y-93852113D01*
X81823661Y-93824661D01*
X81851113Y-93802133D01*
X81882431Y-93785393D01*
X81916409Y-93775085D01*
X81957890Y-93771000D01*
X82634110Y-93771000D01*
X82675591Y-93775085D01*
X82675591Y-93775085D01*
G37*
G36*
X95883591Y-93013085D02*
X95917569Y-93023393D01*
X95948887Y-93040133D01*
X95976339Y-93062661D01*
X95998867Y-93090113D01*
X96015607Y-93121431D01*
X96025915Y-93155409D01*
X96030000Y-93196890D01*
X96030000Y-93798110D01*
X96025915Y-93839591D01*
X96015607Y-93873569D01*
X95998867Y-93904887D01*
X95976339Y-93932339D01*
X95948887Y-93954867D01*
X95917569Y-93971607D01*
X95883591Y-93981915D01*
X95842110Y-93986000D01*
X95165890Y-93986000D01*
X95124409Y-93981915D01*
X95090431Y-93971607D01*
X95059113Y-93954867D01*
X95031661Y-93932339D01*
X95009133Y-93904887D01*
X94992393Y-93873569D01*
X94982085Y-93839591D01*
X94978000Y-93798110D01*
X94978000Y-93196890D01*
X94982085Y-93155409D01*
X94992393Y-93121431D01*
X95009133Y-93090113D01*
X95031661Y-93062661D01*
X95059113Y-93040133D01*
X95090431Y-93023393D01*
X95124409Y-93013085D01*
X95165890Y-93009000D01*
X95842110Y-93009000D01*
X95883591Y-93013085D01*
X95883591Y-93013085D01*
G37*
G36*
X82675591Y-92200085D02*
X82709569Y-92210393D01*
X82740887Y-92227133D01*
X82768339Y-92249661D01*
X82790867Y-92277113D01*
X82807607Y-92308431D01*
X82817915Y-92342409D01*
X82822000Y-92383890D01*
X82822000Y-92985110D01*
X82817915Y-93026591D01*
X82807607Y-93060569D01*
X82790867Y-93091887D01*
X82768339Y-93119339D01*
X82740887Y-93141867D01*
X82709569Y-93158607D01*
X82675591Y-93168915D01*
X82634110Y-93173000D01*
X81957890Y-93173000D01*
X81916409Y-93168915D01*
X81882431Y-93158607D01*
X81851113Y-93141867D01*
X81823661Y-93119339D01*
X81801133Y-93091887D01*
X81784393Y-93060569D01*
X81774085Y-93026591D01*
X81770000Y-92985110D01*
X81770000Y-92383890D01*
X81774085Y-92342409D01*
X81784393Y-92308431D01*
X81801133Y-92277113D01*
X81823661Y-92249661D01*
X81851113Y-92227133D01*
X81882431Y-92210393D01*
X81916409Y-92200085D01*
X81957890Y-92196000D01*
X82634110Y-92196000D01*
X82675591Y-92200085D01*
X82675591Y-92200085D01*
G37*
G36*
X95883591Y-91438085D02*
X95917569Y-91448393D01*
X95948887Y-91465133D01*
X95976339Y-91487661D01*
X95998867Y-91515113D01*
X96015607Y-91546431D01*
X96025915Y-91580409D01*
X96030000Y-91621890D01*
X96030000Y-92223110D01*
X96025915Y-92264591D01*
X96015607Y-92298569D01*
X95998867Y-92329887D01*
X95976339Y-92357339D01*
X95948887Y-92379867D01*
X95917569Y-92396607D01*
X95883591Y-92406915D01*
X95842110Y-92411000D01*
X95165890Y-92411000D01*
X95124409Y-92406915D01*
X95090431Y-92396607D01*
X95059113Y-92379867D01*
X95031661Y-92357339D01*
X95009133Y-92329887D01*
X94992393Y-92298569D01*
X94982085Y-92264591D01*
X94978000Y-92223110D01*
X94978000Y-91621890D01*
X94982085Y-91580409D01*
X94992393Y-91546431D01*
X95009133Y-91515113D01*
X95031661Y-91487661D01*
X95059113Y-91465133D01*
X95090431Y-91448393D01*
X95124409Y-91438085D01*
X95165890Y-91434000D01*
X95842110Y-91434000D01*
X95883591Y-91438085D01*
X95883591Y-91438085D01*
G37*
G36*
X78850443Y-90545519D02*
X78916627Y-90552037D01*
X79029853Y-90586384D01*
X79086467Y-90603557D01*
X79225087Y-90677652D01*
X79242991Y-90687222D01*
X79278729Y-90716552D01*
X79380186Y-90799814D01*
X79463448Y-90901271D01*
X79492778Y-90937009D01*
X79492779Y-90937011D01*
X79576443Y-91093533D01*
X79576443Y-91093534D01*
X79627963Y-91263373D01*
X79645359Y-91440000D01*
X79627963Y-91616627D01*
X79609270Y-91678250D01*
X79576443Y-91786467D01*
X79502348Y-91925087D01*
X79492778Y-91942991D01*
X79463448Y-91978729D01*
X79380186Y-92080186D01*
X79278729Y-92163448D01*
X79242991Y-92192778D01*
X79242989Y-92192779D01*
X79086467Y-92276443D01*
X79029853Y-92293616D01*
X78916627Y-92327963D01*
X78850443Y-92334481D01*
X78784260Y-92341000D01*
X78695740Y-92341000D01*
X78629557Y-92334481D01*
X78563373Y-92327963D01*
X78450147Y-92293616D01*
X78393533Y-92276443D01*
X78237011Y-92192779D01*
X78237009Y-92192778D01*
X78201271Y-92163448D01*
X78099814Y-92080186D01*
X78016552Y-91978729D01*
X77987222Y-91942991D01*
X77977652Y-91925087D01*
X77903557Y-91786467D01*
X77870730Y-91678250D01*
X77852037Y-91616627D01*
X77834641Y-91440000D01*
X77852037Y-91263373D01*
X77903557Y-91093534D01*
X77903557Y-91093533D01*
X77987221Y-90937011D01*
X77987222Y-90937009D01*
X78016552Y-90901271D01*
X78099814Y-90799814D01*
X78201271Y-90716552D01*
X78237009Y-90687222D01*
X78254913Y-90677652D01*
X78393533Y-90603557D01*
X78450147Y-90586384D01*
X78563373Y-90552037D01*
X78629557Y-90545519D01*
X78695740Y-90539000D01*
X78784260Y-90539000D01*
X78850443Y-90545519D01*
X78850443Y-90545519D01*
G37*
G36*
X99170443Y-90545519D02*
X99236627Y-90552037D01*
X99349853Y-90586384D01*
X99406467Y-90603557D01*
X99545087Y-90677652D01*
X99562991Y-90687222D01*
X99598729Y-90716552D01*
X99700186Y-90799814D01*
X99783448Y-90901271D01*
X99812778Y-90937009D01*
X99812779Y-90937011D01*
X99896443Y-91093533D01*
X99896443Y-91093534D01*
X99947963Y-91263373D01*
X99965359Y-91440000D01*
X99947963Y-91616627D01*
X99929270Y-91678250D01*
X99896443Y-91786467D01*
X99822348Y-91925087D01*
X99812778Y-91942991D01*
X99783448Y-91978729D01*
X99700186Y-92080186D01*
X99598729Y-92163448D01*
X99562991Y-92192778D01*
X99562989Y-92192779D01*
X99406467Y-92276443D01*
X99349853Y-92293616D01*
X99236627Y-92327963D01*
X99170443Y-92334481D01*
X99104260Y-92341000D01*
X99015740Y-92341000D01*
X98949557Y-92334481D01*
X98883373Y-92327963D01*
X98770147Y-92293616D01*
X98713533Y-92276443D01*
X98557011Y-92192779D01*
X98557009Y-92192778D01*
X98521271Y-92163448D01*
X98419814Y-92080186D01*
X98336552Y-91978729D01*
X98307222Y-91942991D01*
X98297652Y-91925087D01*
X98223557Y-91786467D01*
X98190730Y-91678250D01*
X98172037Y-91616627D01*
X98154641Y-91440000D01*
X98172037Y-91263373D01*
X98223557Y-91093534D01*
X98223557Y-91093533D01*
X98307221Y-90937011D01*
X98307222Y-90937009D01*
X98336552Y-90901271D01*
X98419814Y-90799814D01*
X98521271Y-90716552D01*
X98557009Y-90687222D01*
X98574913Y-90677652D01*
X98713533Y-90603557D01*
X98770147Y-90586384D01*
X98883373Y-90552037D01*
X98949557Y-90545519D01*
X99015740Y-90539000D01*
X99104260Y-90539000D01*
X99170443Y-90545519D01*
X99170443Y-90545519D01*
G37*
G36*
X99170443Y-88005519D02*
X99236627Y-88012037D01*
X99349853Y-88046384D01*
X99406467Y-88063557D01*
X99545087Y-88137652D01*
X99562991Y-88147222D01*
X99598729Y-88176552D01*
X99700186Y-88259814D01*
X99783448Y-88361271D01*
X99812778Y-88397009D01*
X99812779Y-88397011D01*
X99896443Y-88553533D01*
X99896443Y-88553534D01*
X99947963Y-88723373D01*
X99965359Y-88900000D01*
X99947963Y-89076627D01*
X99913616Y-89189853D01*
X99896443Y-89246467D01*
X99894020Y-89251000D01*
X99812778Y-89402991D01*
X99783448Y-89438729D01*
X99700186Y-89540186D01*
X99598729Y-89623448D01*
X99562991Y-89652778D01*
X99562989Y-89652779D01*
X99406467Y-89736443D01*
X99349853Y-89753616D01*
X99236627Y-89787963D01*
X99170443Y-89794481D01*
X99104260Y-89801000D01*
X99015740Y-89801000D01*
X98949557Y-89794481D01*
X98883373Y-89787963D01*
X98770147Y-89753616D01*
X98713533Y-89736443D01*
X98557011Y-89652779D01*
X98557009Y-89652778D01*
X98521271Y-89623448D01*
X98419814Y-89540186D01*
X98336552Y-89438729D01*
X98307222Y-89402991D01*
X98225980Y-89251000D01*
X98223557Y-89246467D01*
X98206384Y-89189853D01*
X98172037Y-89076627D01*
X98154641Y-88900000D01*
X98172037Y-88723373D01*
X98223557Y-88553534D01*
X98223557Y-88553533D01*
X98307221Y-88397011D01*
X98307222Y-88397009D01*
X98336552Y-88361271D01*
X98419814Y-88259814D01*
X98521271Y-88176552D01*
X98557009Y-88147222D01*
X98574913Y-88137652D01*
X98713533Y-88063557D01*
X98770147Y-88046384D01*
X98883373Y-88012037D01*
X98949557Y-88005519D01*
X99015740Y-87999000D01*
X99104260Y-87999000D01*
X99170443Y-88005519D01*
X99170443Y-88005519D01*
G37*
G36*
X78850443Y-88005519D02*
X78916627Y-88012037D01*
X79029853Y-88046384D01*
X79086467Y-88063557D01*
X79225087Y-88137652D01*
X79242991Y-88147222D01*
X79278729Y-88176552D01*
X79380186Y-88259814D01*
X79463448Y-88361271D01*
X79492778Y-88397009D01*
X79492779Y-88397011D01*
X79576443Y-88553533D01*
X79576443Y-88553534D01*
X79627963Y-88723373D01*
X79645359Y-88900000D01*
X79627963Y-89076627D01*
X79593616Y-89189853D01*
X79576443Y-89246467D01*
X79574020Y-89251000D01*
X79492778Y-89402991D01*
X79463448Y-89438729D01*
X79380186Y-89540186D01*
X79278729Y-89623448D01*
X79242991Y-89652778D01*
X79242989Y-89652779D01*
X79086467Y-89736443D01*
X79029853Y-89753616D01*
X78916627Y-89787963D01*
X78850443Y-89794481D01*
X78784260Y-89801000D01*
X78695740Y-89801000D01*
X78629557Y-89794481D01*
X78563373Y-89787963D01*
X78450147Y-89753616D01*
X78393533Y-89736443D01*
X78237011Y-89652779D01*
X78237009Y-89652778D01*
X78201271Y-89623448D01*
X78099814Y-89540186D01*
X78016552Y-89438729D01*
X77987222Y-89402991D01*
X77905980Y-89251000D01*
X77903557Y-89246467D01*
X77886384Y-89189853D01*
X77852037Y-89076627D01*
X77834641Y-88900000D01*
X77852037Y-88723373D01*
X77903557Y-88553534D01*
X77903557Y-88553533D01*
X77987221Y-88397011D01*
X77987222Y-88397009D01*
X78016552Y-88361271D01*
X78099814Y-88259814D01*
X78201271Y-88176552D01*
X78237009Y-88147222D01*
X78254913Y-88137652D01*
X78393533Y-88063557D01*
X78450147Y-88046384D01*
X78563373Y-88012037D01*
X78629557Y-88005519D01*
X78695740Y-87999000D01*
X78784260Y-87999000D01*
X78850443Y-88005519D01*
X78850443Y-88005519D01*
G37*
G36*
X85251000Y-89251000D02*
X83149000Y-89251000D01*
X83149000Y-88549000D01*
X85251000Y-88549000D01*
X85251000Y-89251000D01*
X85251000Y-89251000D01*
G37*
G36*
X94651000Y-89251000D02*
X92549000Y-89251000D01*
X92549000Y-88549000D01*
X94651000Y-88549000D01*
X94651000Y-89251000D01*
X94651000Y-89251000D01*
G37*
G36*
X85251000Y-87981000D02*
X83149000Y-87981000D01*
X83149000Y-87279000D01*
X85251000Y-87279000D01*
X85251000Y-87981000D01*
X85251000Y-87981000D01*
G37*
G36*
X94651000Y-87981000D02*
X92549000Y-87981000D01*
X92549000Y-87279000D01*
X94651000Y-87279000D01*
X94651000Y-87981000D01*
X94651000Y-87981000D01*
G37*
G36*
X78850442Y-85465518D02*
X78916627Y-85472037D01*
X79029853Y-85506384D01*
X79086467Y-85523557D01*
X79225087Y-85597652D01*
X79242991Y-85607222D01*
X79278729Y-85636552D01*
X79380186Y-85719814D01*
X79463448Y-85821271D01*
X79492778Y-85857009D01*
X79492779Y-85857011D01*
X79576443Y-86013533D01*
X79576443Y-86013534D01*
X79627963Y-86183373D01*
X79645359Y-86360000D01*
X79627963Y-86536627D01*
X79593616Y-86649853D01*
X79576443Y-86706467D01*
X79574020Y-86711000D01*
X79492778Y-86862991D01*
X79463448Y-86898729D01*
X79380186Y-87000186D01*
X79278729Y-87083448D01*
X79242991Y-87112778D01*
X79242989Y-87112779D01*
X79086467Y-87196443D01*
X79029853Y-87213616D01*
X78916627Y-87247963D01*
X78850442Y-87254482D01*
X78784260Y-87261000D01*
X78695740Y-87261000D01*
X78629558Y-87254482D01*
X78563373Y-87247963D01*
X78450147Y-87213616D01*
X78393533Y-87196443D01*
X78237011Y-87112779D01*
X78237009Y-87112778D01*
X78201271Y-87083448D01*
X78099814Y-87000186D01*
X78016552Y-86898729D01*
X77987222Y-86862991D01*
X77905980Y-86711000D01*
X77903557Y-86706467D01*
X77886384Y-86649853D01*
X77852037Y-86536627D01*
X77834641Y-86360000D01*
X77852037Y-86183373D01*
X77903557Y-86013534D01*
X77903557Y-86013533D01*
X77987221Y-85857011D01*
X77987222Y-85857009D01*
X78016552Y-85821271D01*
X78099814Y-85719814D01*
X78201271Y-85636552D01*
X78237009Y-85607222D01*
X78254913Y-85597652D01*
X78393533Y-85523557D01*
X78450147Y-85506384D01*
X78563373Y-85472037D01*
X78629558Y-85465518D01*
X78695740Y-85459000D01*
X78784260Y-85459000D01*
X78850442Y-85465518D01*
X78850442Y-85465518D01*
G37*
G36*
X99170442Y-85465518D02*
X99236627Y-85472037D01*
X99349853Y-85506384D01*
X99406467Y-85523557D01*
X99545087Y-85597652D01*
X99562991Y-85607222D01*
X99598729Y-85636552D01*
X99700186Y-85719814D01*
X99783448Y-85821271D01*
X99812778Y-85857009D01*
X99812779Y-85857011D01*
X99896443Y-86013533D01*
X99896443Y-86013534D01*
X99947963Y-86183373D01*
X99965359Y-86360000D01*
X99947963Y-86536627D01*
X99913616Y-86649853D01*
X99896443Y-86706467D01*
X99894020Y-86711000D01*
X99812778Y-86862991D01*
X99783448Y-86898729D01*
X99700186Y-87000186D01*
X99598729Y-87083448D01*
X99562991Y-87112778D01*
X99562989Y-87112779D01*
X99406467Y-87196443D01*
X99349853Y-87213616D01*
X99236627Y-87247963D01*
X99170442Y-87254482D01*
X99104260Y-87261000D01*
X99015740Y-87261000D01*
X98949558Y-87254482D01*
X98883373Y-87247963D01*
X98770147Y-87213616D01*
X98713533Y-87196443D01*
X98557011Y-87112779D01*
X98557009Y-87112778D01*
X98521271Y-87083448D01*
X98419814Y-87000186D01*
X98336552Y-86898729D01*
X98307222Y-86862991D01*
X98225980Y-86711000D01*
X98223557Y-86706467D01*
X98206384Y-86649853D01*
X98172037Y-86536627D01*
X98154641Y-86360000D01*
X98172037Y-86183373D01*
X98223557Y-86013534D01*
X98223557Y-86013533D01*
X98307221Y-85857011D01*
X98307222Y-85857009D01*
X98336552Y-85821271D01*
X98419814Y-85719814D01*
X98521271Y-85636552D01*
X98557009Y-85607222D01*
X98574913Y-85597652D01*
X98713533Y-85523557D01*
X98770147Y-85506384D01*
X98883373Y-85472037D01*
X98949558Y-85465518D01*
X99015740Y-85459000D01*
X99104260Y-85459000D01*
X99170442Y-85465518D01*
X99170442Y-85465518D01*
G37*
G36*
X85251000Y-86711000D02*
X83149000Y-86711000D01*
X83149000Y-86009000D01*
X85251000Y-86009000D01*
X85251000Y-86711000D01*
X85251000Y-86711000D01*
G37*
G36*
X94651000Y-86711000D02*
X92549000Y-86711000D01*
X92549000Y-86009000D01*
X94651000Y-86009000D01*
X94651000Y-86711000D01*
X94651000Y-86711000D01*
G37*
G36*
X85251000Y-85441000D02*
X83149000Y-85441000D01*
X83149000Y-84739000D01*
X85251000Y-84739000D01*
X85251000Y-85441000D01*
X85251000Y-85441000D01*
G37*
G36*
X94651000Y-85441000D02*
X92549000Y-85441000D01*
X92549000Y-84739000D01*
X94651000Y-84739000D01*
X94651000Y-85441000D01*
X94651000Y-85441000D01*
G37*
G36*
X99170443Y-82925519D02*
X99236627Y-82932037D01*
X99349853Y-82966384D01*
X99406467Y-82983557D01*
X99545087Y-83057652D01*
X99562991Y-83067222D01*
X99598729Y-83096552D01*
X99700186Y-83179814D01*
X99783448Y-83281271D01*
X99812778Y-83317009D01*
X99812779Y-83317011D01*
X99896443Y-83473533D01*
X99896443Y-83473534D01*
X99947963Y-83643373D01*
X99965359Y-83820000D01*
X99947963Y-83996627D01*
X99913616Y-84109853D01*
X99896443Y-84166467D01*
X99894020Y-84171000D01*
X99812778Y-84322991D01*
X99783448Y-84358729D01*
X99700186Y-84460186D01*
X99598729Y-84543448D01*
X99562991Y-84572778D01*
X99562989Y-84572779D01*
X99406467Y-84656443D01*
X99349853Y-84673616D01*
X99236627Y-84707963D01*
X99170443Y-84714481D01*
X99104260Y-84721000D01*
X99015740Y-84721000D01*
X98949557Y-84714481D01*
X98883373Y-84707963D01*
X98770147Y-84673616D01*
X98713533Y-84656443D01*
X98557011Y-84572779D01*
X98557009Y-84572778D01*
X98521271Y-84543448D01*
X98419814Y-84460186D01*
X98336552Y-84358729D01*
X98307222Y-84322991D01*
X98225980Y-84171000D01*
X98223557Y-84166467D01*
X98206384Y-84109853D01*
X98172037Y-83996627D01*
X98154641Y-83820000D01*
X98172037Y-83643373D01*
X98223557Y-83473534D01*
X98223557Y-83473533D01*
X98307221Y-83317011D01*
X98307222Y-83317009D01*
X98336552Y-83281271D01*
X98419814Y-83179814D01*
X98521271Y-83096552D01*
X98557009Y-83067222D01*
X98574913Y-83057652D01*
X98713533Y-82983557D01*
X98770147Y-82966384D01*
X98883373Y-82932037D01*
X98949557Y-82925519D01*
X99015740Y-82919000D01*
X99104260Y-82919000D01*
X99170443Y-82925519D01*
X99170443Y-82925519D01*
G37*
G36*
X78850443Y-82925519D02*
X78916627Y-82932037D01*
X79029853Y-82966384D01*
X79086467Y-82983557D01*
X79225087Y-83057652D01*
X79242991Y-83067222D01*
X79278729Y-83096552D01*
X79380186Y-83179814D01*
X79463448Y-83281271D01*
X79492778Y-83317009D01*
X79492779Y-83317011D01*
X79576443Y-83473533D01*
X79576443Y-83473534D01*
X79627963Y-83643373D01*
X79645359Y-83820000D01*
X79627963Y-83996627D01*
X79593616Y-84109853D01*
X79576443Y-84166467D01*
X79574020Y-84171000D01*
X79492778Y-84322991D01*
X79463448Y-84358729D01*
X79380186Y-84460186D01*
X79278729Y-84543448D01*
X79242991Y-84572778D01*
X79242989Y-84572779D01*
X79086467Y-84656443D01*
X79029853Y-84673616D01*
X78916627Y-84707963D01*
X78850443Y-84714481D01*
X78784260Y-84721000D01*
X78695740Y-84721000D01*
X78629557Y-84714481D01*
X78563373Y-84707963D01*
X78450147Y-84673616D01*
X78393533Y-84656443D01*
X78237011Y-84572779D01*
X78237009Y-84572778D01*
X78201271Y-84543448D01*
X78099814Y-84460186D01*
X78016552Y-84358729D01*
X77987222Y-84322991D01*
X77905980Y-84171000D01*
X77903557Y-84166467D01*
X77886384Y-84109853D01*
X77852037Y-83996627D01*
X77834641Y-83820000D01*
X77852037Y-83643373D01*
X77903557Y-83473534D01*
X77903557Y-83473533D01*
X77987221Y-83317011D01*
X77987222Y-83317009D01*
X78016552Y-83281271D01*
X78099814Y-83179814D01*
X78201271Y-83096552D01*
X78237009Y-83067222D01*
X78254913Y-83057652D01*
X78393533Y-82983557D01*
X78450147Y-82966384D01*
X78563373Y-82932037D01*
X78629557Y-82925519D01*
X78695740Y-82919000D01*
X78784260Y-82919000D01*
X78850443Y-82925519D01*
X78850443Y-82925519D01*
G37*
G36*
X94651000Y-84171000D02*
X92549000Y-84171000D01*
X92549000Y-83469000D01*
X94651000Y-83469000D01*
X94651000Y-84171000D01*
X94651000Y-84171000D01*
G37*
G36*
X85251000Y-84171000D02*
X83149000Y-84171000D01*
X83149000Y-83469000D01*
X85251000Y-83469000D01*
X85251000Y-84171000D01*
X85251000Y-84171000D01*
G37*
G36*
X94651000Y-82901000D02*
X92549000Y-82901000D01*
X92549000Y-82199000D01*
X94651000Y-82199000D01*
X94651000Y-82901000D01*
X94651000Y-82901000D01*
G37*
G36*
X85251000Y-82901000D02*
X83149000Y-82901000D01*
X83149000Y-82199000D01*
X85251000Y-82199000D01*
X85251000Y-82901000D01*
X85251000Y-82901000D01*
G37*
G36*
X78850442Y-80385518D02*
X78916627Y-80392037D01*
X79029853Y-80426384D01*
X79086467Y-80443557D01*
X79225087Y-80517652D01*
X79242991Y-80527222D01*
X79278729Y-80556552D01*
X79380186Y-80639814D01*
X79463448Y-80741271D01*
X79492778Y-80777009D01*
X79492779Y-80777011D01*
X79576443Y-80933533D01*
X79576443Y-80933534D01*
X79627963Y-81103373D01*
X79645359Y-81280000D01*
X79627963Y-81456627D01*
X79593616Y-81569853D01*
X79576443Y-81626467D01*
X79574020Y-81631000D01*
X79492778Y-81782991D01*
X79463448Y-81818729D01*
X79380186Y-81920186D01*
X79278729Y-82003448D01*
X79242991Y-82032778D01*
X79242989Y-82032779D01*
X79086467Y-82116443D01*
X79029853Y-82133616D01*
X78916627Y-82167963D01*
X78850443Y-82174481D01*
X78784260Y-82181000D01*
X78695740Y-82181000D01*
X78629557Y-82174481D01*
X78563373Y-82167963D01*
X78450147Y-82133616D01*
X78393533Y-82116443D01*
X78237011Y-82032779D01*
X78237009Y-82032778D01*
X78201271Y-82003448D01*
X78099814Y-81920186D01*
X78016552Y-81818729D01*
X77987222Y-81782991D01*
X77905980Y-81631000D01*
X77903557Y-81626467D01*
X77886384Y-81569853D01*
X77852037Y-81456627D01*
X77834641Y-81280000D01*
X77852037Y-81103373D01*
X77903557Y-80933534D01*
X77903557Y-80933533D01*
X77987221Y-80777011D01*
X77987222Y-80777009D01*
X78016552Y-80741271D01*
X78099814Y-80639814D01*
X78201271Y-80556552D01*
X78237009Y-80527222D01*
X78254913Y-80517652D01*
X78393533Y-80443557D01*
X78450147Y-80426384D01*
X78563373Y-80392037D01*
X78629558Y-80385518D01*
X78695740Y-80379000D01*
X78784260Y-80379000D01*
X78850442Y-80385518D01*
X78850442Y-80385518D01*
G37*
G36*
X99170442Y-80385518D02*
X99236627Y-80392037D01*
X99349853Y-80426384D01*
X99406467Y-80443557D01*
X99545087Y-80517652D01*
X99562991Y-80527222D01*
X99598729Y-80556552D01*
X99700186Y-80639814D01*
X99783448Y-80741271D01*
X99812778Y-80777009D01*
X99812779Y-80777011D01*
X99896443Y-80933533D01*
X99896443Y-80933534D01*
X99947963Y-81103373D01*
X99965359Y-81280000D01*
X99947963Y-81456627D01*
X99913616Y-81569853D01*
X99896443Y-81626467D01*
X99894020Y-81631000D01*
X99812778Y-81782991D01*
X99783448Y-81818729D01*
X99700186Y-81920186D01*
X99598729Y-82003448D01*
X99562991Y-82032778D01*
X99562989Y-82032779D01*
X99406467Y-82116443D01*
X99349853Y-82133616D01*
X99236627Y-82167963D01*
X99170443Y-82174481D01*
X99104260Y-82181000D01*
X99015740Y-82181000D01*
X98949557Y-82174481D01*
X98883373Y-82167963D01*
X98770147Y-82133616D01*
X98713533Y-82116443D01*
X98557011Y-82032779D01*
X98557009Y-82032778D01*
X98521271Y-82003448D01*
X98419814Y-81920186D01*
X98336552Y-81818729D01*
X98307222Y-81782991D01*
X98225980Y-81631000D01*
X98223557Y-81626467D01*
X98206384Y-81569853D01*
X98172037Y-81456627D01*
X98154641Y-81280000D01*
X98172037Y-81103373D01*
X98223557Y-80933534D01*
X98223557Y-80933533D01*
X98307221Y-80777011D01*
X98307222Y-80777009D01*
X98336552Y-80741271D01*
X98419814Y-80639814D01*
X98521271Y-80556552D01*
X98557009Y-80527222D01*
X98574913Y-80517652D01*
X98713533Y-80443557D01*
X98770147Y-80426384D01*
X98883373Y-80392037D01*
X98949558Y-80385518D01*
X99015740Y-80379000D01*
X99104260Y-80379000D01*
X99170442Y-80385518D01*
X99170442Y-80385518D01*
G37*
G36*
X94651000Y-81631000D02*
X92549000Y-81631000D01*
X92549000Y-80929000D01*
X94651000Y-80929000D01*
X94651000Y-81631000D01*
X94651000Y-81631000D01*
G37*
G36*
X85251000Y-81631000D02*
X83149000Y-81631000D01*
X83149000Y-80929000D01*
X85251000Y-80929000D01*
X85251000Y-81631000D01*
X85251000Y-81631000D01*
G37*
G36*
X94651000Y-80361000D02*
X92549000Y-80361000D01*
X92549000Y-79659000D01*
X94651000Y-79659000D01*
X94651000Y-80361000D01*
X94651000Y-80361000D01*
G37*
G36*
X85251000Y-80361000D02*
X83149000Y-80361000D01*
X83149000Y-79659000D01*
X85251000Y-79659000D01*
X85251000Y-80361000D01*
X85251000Y-80361000D01*
G37*
G36*
X99170443Y-77845519D02*
X99236627Y-77852037D01*
X99349853Y-77886384D01*
X99406467Y-77903557D01*
X99545087Y-77977652D01*
X99562991Y-77987222D01*
X99598729Y-78016552D01*
X99700186Y-78099814D01*
X99783448Y-78201271D01*
X99812778Y-78237009D01*
X99812779Y-78237011D01*
X99896443Y-78393533D01*
X99896443Y-78393534D01*
X99947963Y-78563373D01*
X99965359Y-78740000D01*
X99947963Y-78916627D01*
X99913616Y-79029853D01*
X99896443Y-79086467D01*
X99894020Y-79091000D01*
X99812778Y-79242991D01*
X99783448Y-79278729D01*
X99700186Y-79380186D01*
X99598729Y-79463448D01*
X99562991Y-79492778D01*
X99562989Y-79492779D01*
X99406467Y-79576443D01*
X99349853Y-79593616D01*
X99236627Y-79627963D01*
X99170442Y-79634482D01*
X99104260Y-79641000D01*
X99015740Y-79641000D01*
X98949558Y-79634482D01*
X98883373Y-79627963D01*
X98770147Y-79593616D01*
X98713533Y-79576443D01*
X98557011Y-79492779D01*
X98557009Y-79492778D01*
X98521271Y-79463448D01*
X98419814Y-79380186D01*
X98336552Y-79278729D01*
X98307222Y-79242991D01*
X98225980Y-79091000D01*
X98223557Y-79086467D01*
X98206384Y-79029853D01*
X98172037Y-78916627D01*
X98154641Y-78740000D01*
X98172037Y-78563373D01*
X98223557Y-78393534D01*
X98223557Y-78393533D01*
X98307221Y-78237011D01*
X98307222Y-78237009D01*
X98336552Y-78201271D01*
X98419814Y-78099814D01*
X98521271Y-78016552D01*
X98557009Y-77987222D01*
X98574913Y-77977652D01*
X98713533Y-77903557D01*
X98770147Y-77886384D01*
X98883373Y-77852037D01*
X98949557Y-77845519D01*
X99015740Y-77839000D01*
X99104260Y-77839000D01*
X99170443Y-77845519D01*
X99170443Y-77845519D01*
G37*
G36*
X78850443Y-77845519D02*
X78916627Y-77852037D01*
X79029853Y-77886384D01*
X79086467Y-77903557D01*
X79225087Y-77977652D01*
X79242991Y-77987222D01*
X79278729Y-78016552D01*
X79380186Y-78099814D01*
X79463448Y-78201271D01*
X79492778Y-78237009D01*
X79492779Y-78237011D01*
X79576443Y-78393533D01*
X79576443Y-78393534D01*
X79627963Y-78563373D01*
X79645359Y-78740000D01*
X79627963Y-78916627D01*
X79593616Y-79029853D01*
X79576443Y-79086467D01*
X79574020Y-79091000D01*
X79492778Y-79242991D01*
X79463448Y-79278729D01*
X79380186Y-79380186D01*
X79278729Y-79463448D01*
X79242991Y-79492778D01*
X79242989Y-79492779D01*
X79086467Y-79576443D01*
X79029853Y-79593616D01*
X78916627Y-79627963D01*
X78850442Y-79634482D01*
X78784260Y-79641000D01*
X78695740Y-79641000D01*
X78629558Y-79634482D01*
X78563373Y-79627963D01*
X78450147Y-79593616D01*
X78393533Y-79576443D01*
X78237011Y-79492779D01*
X78237009Y-79492778D01*
X78201271Y-79463448D01*
X78099814Y-79380186D01*
X78016552Y-79278729D01*
X77987222Y-79242991D01*
X77905980Y-79091000D01*
X77903557Y-79086467D01*
X77886384Y-79029853D01*
X77852037Y-78916627D01*
X77834641Y-78740000D01*
X77852037Y-78563373D01*
X77903557Y-78393534D01*
X77903557Y-78393533D01*
X77987221Y-78237011D01*
X77987222Y-78237009D01*
X78016552Y-78201271D01*
X78099814Y-78099814D01*
X78201271Y-78016552D01*
X78237009Y-77987222D01*
X78254913Y-77977652D01*
X78393533Y-77903557D01*
X78450147Y-77886384D01*
X78563373Y-77852037D01*
X78629557Y-77845519D01*
X78695740Y-77839000D01*
X78784260Y-77839000D01*
X78850443Y-77845519D01*
X78850443Y-77845519D01*
G37*
G36*
X85251000Y-79091000D02*
X83149000Y-79091000D01*
X83149000Y-78389000D01*
X85251000Y-78389000D01*
X85251000Y-79091000D01*
X85251000Y-79091000D01*
G37*
G36*
X94651000Y-79091000D02*
X92549000Y-79091000D01*
X92549000Y-78389000D01*
X94651000Y-78389000D01*
X94651000Y-79091000D01*
X94651000Y-79091000D01*
G37*
G36*
X78850442Y-75305518D02*
X78916627Y-75312037D01*
X79013526Y-75341431D01*
X79086467Y-75363557D01*
X79194347Y-75421221D01*
X79242991Y-75447222D01*
X79274706Y-75473250D01*
X79380186Y-75559814D01*
X79463448Y-75661271D01*
X79492778Y-75697009D01*
X79492779Y-75697011D01*
X79576443Y-75853533D01*
X79576443Y-75853534D01*
X79627963Y-76023373D01*
X79645359Y-76200000D01*
X79627963Y-76376627D01*
X79593616Y-76489853D01*
X79576443Y-76546467D01*
X79502348Y-76685087D01*
X79492778Y-76702991D01*
X79463448Y-76738729D01*
X79380186Y-76840186D01*
X79278729Y-76923448D01*
X79242991Y-76952778D01*
X79242989Y-76952779D01*
X79086467Y-77036443D01*
X79029853Y-77053616D01*
X78916627Y-77087963D01*
X78850442Y-77094482D01*
X78784260Y-77101000D01*
X78695740Y-77101000D01*
X78629558Y-77094482D01*
X78563373Y-77087963D01*
X78450147Y-77053616D01*
X78393533Y-77036443D01*
X78237011Y-76952779D01*
X78237009Y-76952778D01*
X78201271Y-76923448D01*
X78099814Y-76840186D01*
X78016552Y-76738729D01*
X77987222Y-76702991D01*
X77977652Y-76685087D01*
X77903557Y-76546467D01*
X77886384Y-76489853D01*
X77852037Y-76376627D01*
X77834641Y-76200000D01*
X77852037Y-76023373D01*
X77903557Y-75853534D01*
X77903557Y-75853533D01*
X77987221Y-75697011D01*
X77987222Y-75697009D01*
X78016552Y-75661271D01*
X78099814Y-75559814D01*
X78205294Y-75473250D01*
X78237009Y-75447222D01*
X78285653Y-75421221D01*
X78393533Y-75363557D01*
X78466474Y-75341431D01*
X78563373Y-75312037D01*
X78629558Y-75305518D01*
X78695740Y-75299000D01*
X78784260Y-75299000D01*
X78850442Y-75305518D01*
X78850442Y-75305518D01*
G37*
G36*
X99170442Y-75305518D02*
X99236627Y-75312037D01*
X99333526Y-75341431D01*
X99406467Y-75363557D01*
X99514347Y-75421221D01*
X99562991Y-75447222D01*
X99594706Y-75473250D01*
X99700186Y-75559814D01*
X99783448Y-75661271D01*
X99812778Y-75697009D01*
X99812779Y-75697011D01*
X99896443Y-75853533D01*
X99896443Y-75853534D01*
X99947963Y-76023373D01*
X99965359Y-76200000D01*
X99947963Y-76376627D01*
X99913616Y-76489853D01*
X99896443Y-76546467D01*
X99822348Y-76685087D01*
X99812778Y-76702991D01*
X99783448Y-76738729D01*
X99700186Y-76840186D01*
X99598729Y-76923448D01*
X99562991Y-76952778D01*
X99562989Y-76952779D01*
X99406467Y-77036443D01*
X99349853Y-77053616D01*
X99236627Y-77087963D01*
X99170442Y-77094482D01*
X99104260Y-77101000D01*
X99015740Y-77101000D01*
X98949558Y-77094482D01*
X98883373Y-77087963D01*
X98770147Y-77053616D01*
X98713533Y-77036443D01*
X98557011Y-76952779D01*
X98557009Y-76952778D01*
X98521271Y-76923448D01*
X98419814Y-76840186D01*
X98336552Y-76738729D01*
X98307222Y-76702991D01*
X98297652Y-76685087D01*
X98223557Y-76546467D01*
X98206384Y-76489853D01*
X98172037Y-76376627D01*
X98154641Y-76200000D01*
X98172037Y-76023373D01*
X98223557Y-75853534D01*
X98223557Y-75853533D01*
X98307221Y-75697011D01*
X98307222Y-75697009D01*
X98336552Y-75661271D01*
X98419814Y-75559814D01*
X98525294Y-75473250D01*
X98557009Y-75447222D01*
X98605653Y-75421221D01*
X98713533Y-75363557D01*
X98786474Y-75341431D01*
X98883373Y-75312037D01*
X98949558Y-75305518D01*
X99015740Y-75299000D01*
X99104260Y-75299000D01*
X99170442Y-75305518D01*
X99170442Y-75305518D01*
G37*
G36*
X89672000Y-76761000D02*
X87570000Y-76761000D01*
X87570000Y-75159000D01*
X89672000Y-75159000D01*
X89672000Y-76761000D01*
X89672000Y-76761000D01*
G37*
G36*
X95580466Y-75333565D02*
X95619137Y-75345296D01*
X95654779Y-75364348D01*
X95686017Y-75389983D01*
X95711652Y-75421221D01*
X95730704Y-75456863D01*
X95742435Y-75495534D01*
X95747000Y-75541888D01*
X95747000Y-76193112D01*
X95742435Y-76239466D01*
X95730704Y-76278137D01*
X95711652Y-76313779D01*
X95686017Y-76345017D01*
X95654779Y-76370652D01*
X95619137Y-76389704D01*
X95580466Y-76401435D01*
X95534112Y-76406000D01*
X94457888Y-76406000D01*
X94411534Y-76401435D01*
X94372863Y-76389704D01*
X94337221Y-76370652D01*
X94305983Y-76345017D01*
X94280348Y-76313779D01*
X94261296Y-76278137D01*
X94249565Y-76239466D01*
X94245000Y-76193112D01*
X94245000Y-75541888D01*
X94249565Y-75495534D01*
X94261296Y-75456863D01*
X94280348Y-75421221D01*
X94305983Y-75389983D01*
X94337221Y-75364348D01*
X94372863Y-75345296D01*
X94411534Y-75333565D01*
X94457888Y-75329000D01*
X95534112Y-75329000D01*
X95580466Y-75333565D01*
X95580466Y-75333565D01*
G37*
G36*
X92327591Y-75233085D02*
X92361569Y-75243393D01*
X92392887Y-75260133D01*
X92420339Y-75282661D01*
X92442867Y-75310113D01*
X92459607Y-75341431D01*
X92469915Y-75375409D01*
X92474000Y-75416890D01*
X92474000Y-76018110D01*
X92469915Y-76059591D01*
X92459607Y-76093569D01*
X92442867Y-76124887D01*
X92420339Y-76152339D01*
X92392887Y-76174867D01*
X92361569Y-76191607D01*
X92327591Y-76201915D01*
X92286110Y-76206000D01*
X91609890Y-76206000D01*
X91568409Y-76201915D01*
X91534431Y-76191607D01*
X91503113Y-76174867D01*
X91475661Y-76152339D01*
X91453133Y-76124887D01*
X91436393Y-76093569D01*
X91426085Y-76059591D01*
X91422000Y-76018110D01*
X91422000Y-75416890D01*
X91426085Y-75375409D01*
X91436393Y-75341431D01*
X91453133Y-75310113D01*
X91475661Y-75282661D01*
X91503113Y-75260133D01*
X91534431Y-75243393D01*
X91568409Y-75233085D01*
X91609890Y-75229000D01*
X92286110Y-75229000D01*
X92327591Y-75233085D01*
X92327591Y-75233085D01*
G37*
G36*
X83372000Y-75611000D02*
X81270000Y-75611000D01*
X81270000Y-71709000D01*
X83372000Y-71709000D01*
X83372000Y-75611000D01*
X83372000Y-75611000D01*
G37*
G36*
X92327591Y-73658085D02*
X92361569Y-73668393D01*
X92392887Y-73685133D01*
X92420339Y-73707661D01*
X92442867Y-73735113D01*
X92459607Y-73766431D01*
X92469915Y-73800409D01*
X92474000Y-73841890D01*
X92474000Y-74443110D01*
X92469915Y-74484591D01*
X92459607Y-74518569D01*
X92442867Y-74549887D01*
X92420339Y-74577339D01*
X92392887Y-74599867D01*
X92361569Y-74616607D01*
X92327591Y-74626915D01*
X92286110Y-74631000D01*
X91609890Y-74631000D01*
X91568409Y-74626915D01*
X91534431Y-74616607D01*
X91503113Y-74599867D01*
X91475661Y-74577339D01*
X91453133Y-74549887D01*
X91436393Y-74518569D01*
X91426085Y-74484591D01*
X91422000Y-74443110D01*
X91422000Y-73841890D01*
X91426085Y-73800409D01*
X91436393Y-73766431D01*
X91453133Y-73735113D01*
X91475661Y-73707661D01*
X91503113Y-73685133D01*
X91534431Y-73668393D01*
X91568409Y-73658085D01*
X91609890Y-73654000D01*
X92286110Y-73654000D01*
X92327591Y-73658085D01*
X92327591Y-73658085D01*
G37*
G36*
X78850442Y-72765518D02*
X78916627Y-72772037D01*
X79029853Y-72806384D01*
X79086467Y-72823557D01*
X79152775Y-72859000D01*
X79242991Y-72907222D01*
X79278729Y-72936552D01*
X79380186Y-73019814D01*
X79463448Y-73121271D01*
X79492778Y-73157009D01*
X79492779Y-73157011D01*
X79576443Y-73313533D01*
X79576443Y-73313534D01*
X79627963Y-73483373D01*
X79645359Y-73660000D01*
X79627963Y-73836627D01*
X79609270Y-73898250D01*
X79576443Y-74006467D01*
X79502348Y-74145087D01*
X79492778Y-74162991D01*
X79463448Y-74198729D01*
X79380186Y-74300186D01*
X79301859Y-74364466D01*
X79242991Y-74412778D01*
X79242989Y-74412779D01*
X79086467Y-74496443D01*
X79040110Y-74510505D01*
X78916627Y-74547963D01*
X78850442Y-74554482D01*
X78784260Y-74561000D01*
X78695740Y-74561000D01*
X78629558Y-74554482D01*
X78563373Y-74547963D01*
X78439890Y-74510505D01*
X78393533Y-74496443D01*
X78237011Y-74412779D01*
X78237009Y-74412778D01*
X78178141Y-74364466D01*
X78099814Y-74300186D01*
X78016552Y-74198729D01*
X77987222Y-74162991D01*
X77977652Y-74145087D01*
X77903557Y-74006467D01*
X77870730Y-73898250D01*
X77852037Y-73836627D01*
X77834641Y-73660000D01*
X77852037Y-73483373D01*
X77903557Y-73313534D01*
X77903557Y-73313533D01*
X77987221Y-73157011D01*
X77987222Y-73157009D01*
X78016552Y-73121271D01*
X78099814Y-73019814D01*
X78201271Y-72936552D01*
X78237009Y-72907222D01*
X78327225Y-72859000D01*
X78393533Y-72823557D01*
X78450147Y-72806384D01*
X78563373Y-72772037D01*
X78629558Y-72765518D01*
X78695740Y-72759000D01*
X78784260Y-72759000D01*
X78850442Y-72765518D01*
X78850442Y-72765518D01*
G37*
G36*
X99170442Y-72765518D02*
X99236627Y-72772037D01*
X99349853Y-72806384D01*
X99406467Y-72823557D01*
X99472775Y-72859000D01*
X99562991Y-72907222D01*
X99598729Y-72936552D01*
X99700186Y-73019814D01*
X99783448Y-73121271D01*
X99812778Y-73157009D01*
X99812779Y-73157011D01*
X99896443Y-73313533D01*
X99896443Y-73313534D01*
X99947963Y-73483373D01*
X99965359Y-73660000D01*
X99947963Y-73836627D01*
X99929270Y-73898250D01*
X99896443Y-74006467D01*
X99822348Y-74145087D01*
X99812778Y-74162991D01*
X99783448Y-74198729D01*
X99700186Y-74300186D01*
X99621859Y-74364466D01*
X99562991Y-74412778D01*
X99562989Y-74412779D01*
X99406467Y-74496443D01*
X99360110Y-74510505D01*
X99236627Y-74547963D01*
X99170442Y-74554482D01*
X99104260Y-74561000D01*
X99015740Y-74561000D01*
X98949558Y-74554482D01*
X98883373Y-74547963D01*
X98759890Y-74510505D01*
X98713533Y-74496443D01*
X98557011Y-74412779D01*
X98557009Y-74412778D01*
X98498141Y-74364466D01*
X98419814Y-74300186D01*
X98336552Y-74198729D01*
X98307222Y-74162991D01*
X98297652Y-74145087D01*
X98223557Y-74006467D01*
X98190730Y-73898250D01*
X98172037Y-73836627D01*
X98154641Y-73660000D01*
X98172037Y-73483373D01*
X98223557Y-73313534D01*
X98223557Y-73313533D01*
X98307221Y-73157011D01*
X98307222Y-73157009D01*
X98336552Y-73121271D01*
X98419814Y-73019814D01*
X98521271Y-72936552D01*
X98557009Y-72907222D01*
X98647225Y-72859000D01*
X98713533Y-72823557D01*
X98770147Y-72806384D01*
X98883373Y-72772037D01*
X98949558Y-72765518D01*
X99015740Y-72759000D01*
X99104260Y-72759000D01*
X99170442Y-72765518D01*
X99170442Y-72765518D01*
G37*
G36*
X95580466Y-73458565D02*
X95619137Y-73470296D01*
X95654779Y-73489348D01*
X95686017Y-73514983D01*
X95711652Y-73546221D01*
X95730704Y-73581863D01*
X95742435Y-73620534D01*
X95747000Y-73666888D01*
X95747000Y-74318112D01*
X95742435Y-74364466D01*
X95730704Y-74403137D01*
X95711652Y-74438779D01*
X95686017Y-74470017D01*
X95654779Y-74495652D01*
X95619137Y-74514704D01*
X95580466Y-74526435D01*
X95534112Y-74531000D01*
X94457888Y-74531000D01*
X94411534Y-74526435D01*
X94372863Y-74514704D01*
X94337221Y-74495652D01*
X94305983Y-74470017D01*
X94280348Y-74438779D01*
X94261296Y-74403137D01*
X94249565Y-74364466D01*
X94245000Y-74318112D01*
X94245000Y-73666888D01*
X94249565Y-73620534D01*
X94261296Y-73581863D01*
X94280348Y-73546221D01*
X94305983Y-73514983D01*
X94337221Y-73489348D01*
X94372863Y-73470296D01*
X94411534Y-73458565D01*
X94457888Y-73454000D01*
X95534112Y-73454000D01*
X95580466Y-73458565D01*
X95580466Y-73458565D01*
G37*
G36*
X89672000Y-74461000D02*
X87570000Y-74461000D01*
X87570000Y-72859000D01*
X89672000Y-72859000D01*
X89672000Y-74461000D01*
X89672000Y-74461000D01*
G37*
G36*
X89672000Y-72161000D02*
X87570000Y-72161000D01*
X87570000Y-70559000D01*
X89672000Y-70559000D01*
X89672000Y-72161000D01*
X89672000Y-72161000D01*
G37*
G36*
X78850442Y-70225518D02*
X78916627Y-70232037D01*
X79029853Y-70266384D01*
X79086467Y-70283557D01*
X79225087Y-70357652D01*
X79242991Y-70367222D01*
X79278729Y-70396552D01*
X79380186Y-70479814D01*
X79445171Y-70559000D01*
X79492778Y-70617009D01*
X79492779Y-70617011D01*
X79576443Y-70773533D01*
X79576443Y-70773534D01*
X79627963Y-70943373D01*
X79645359Y-71120000D01*
X79627963Y-71296627D01*
X79593616Y-71409853D01*
X79576443Y-71466467D01*
X79502348Y-71605087D01*
X79492778Y-71622991D01*
X79463448Y-71658729D01*
X79380186Y-71760186D01*
X79278729Y-71843448D01*
X79242991Y-71872778D01*
X79242989Y-71872779D01*
X79086467Y-71956443D01*
X79029853Y-71973616D01*
X78916627Y-72007963D01*
X78850443Y-72014481D01*
X78784260Y-72021000D01*
X78695740Y-72021000D01*
X78629557Y-72014481D01*
X78563373Y-72007963D01*
X78450147Y-71973616D01*
X78393533Y-71956443D01*
X78237011Y-71872779D01*
X78237009Y-71872778D01*
X78201271Y-71843448D01*
X78099814Y-71760186D01*
X78016552Y-71658729D01*
X77987222Y-71622991D01*
X77977652Y-71605087D01*
X77903557Y-71466467D01*
X77886384Y-71409853D01*
X77852037Y-71296627D01*
X77834641Y-71120000D01*
X77852037Y-70943373D01*
X77903557Y-70773534D01*
X77903557Y-70773533D01*
X77987221Y-70617011D01*
X77987222Y-70617009D01*
X78034829Y-70559000D01*
X78099814Y-70479814D01*
X78201271Y-70396552D01*
X78237009Y-70367222D01*
X78254913Y-70357652D01*
X78393533Y-70283557D01*
X78450147Y-70266384D01*
X78563373Y-70232037D01*
X78629558Y-70225518D01*
X78695740Y-70219000D01*
X78784260Y-70219000D01*
X78850442Y-70225518D01*
X78850442Y-70225518D01*
G37*
G36*
X92820442Y-70225518D02*
X92886627Y-70232037D01*
X92999853Y-70266384D01*
X93056467Y-70283557D01*
X93195087Y-70357652D01*
X93212991Y-70367222D01*
X93248729Y-70396552D01*
X93350186Y-70479814D01*
X93415171Y-70559000D01*
X93462778Y-70617009D01*
X93462779Y-70617011D01*
X93546443Y-70773533D01*
X93546443Y-70773534D01*
X93597963Y-70943373D01*
X93615359Y-71120000D01*
X93597963Y-71296627D01*
X93563616Y-71409853D01*
X93546443Y-71466467D01*
X93472348Y-71605087D01*
X93462778Y-71622991D01*
X93433448Y-71658729D01*
X93350186Y-71760186D01*
X93248729Y-71843448D01*
X93212991Y-71872778D01*
X93212989Y-71872779D01*
X93056467Y-71956443D01*
X92999853Y-71973616D01*
X92886627Y-72007963D01*
X92820443Y-72014481D01*
X92754260Y-72021000D01*
X92665740Y-72021000D01*
X92599557Y-72014481D01*
X92533373Y-72007963D01*
X92420147Y-71973616D01*
X92363533Y-71956443D01*
X92207011Y-71872779D01*
X92207009Y-71872778D01*
X92171271Y-71843448D01*
X92069814Y-71760186D01*
X91986552Y-71658729D01*
X91957222Y-71622991D01*
X91947652Y-71605087D01*
X91873557Y-71466467D01*
X91856384Y-71409853D01*
X91822037Y-71296627D01*
X91804641Y-71120000D01*
X91822037Y-70943373D01*
X91873557Y-70773534D01*
X91873557Y-70773533D01*
X91957221Y-70617011D01*
X91957222Y-70617009D01*
X92004829Y-70559000D01*
X92069814Y-70479814D01*
X92171271Y-70396552D01*
X92207009Y-70367222D01*
X92224913Y-70357652D01*
X92363533Y-70283557D01*
X92420147Y-70266384D01*
X92533373Y-70232037D01*
X92599558Y-70225518D01*
X92665740Y-70219000D01*
X92754260Y-70219000D01*
X92820442Y-70225518D01*
X92820442Y-70225518D01*
G37*
G36*
X95360442Y-70225518D02*
X95426627Y-70232037D01*
X95539853Y-70266384D01*
X95596467Y-70283557D01*
X95735087Y-70357652D01*
X95752991Y-70367222D01*
X95788729Y-70396552D01*
X95890186Y-70479814D01*
X95955171Y-70559000D01*
X96002778Y-70617009D01*
X96002779Y-70617011D01*
X96086443Y-70773533D01*
X96086443Y-70773534D01*
X96137963Y-70943373D01*
X96155359Y-71120000D01*
X96137963Y-71296627D01*
X96103616Y-71409853D01*
X96086443Y-71466467D01*
X96012348Y-71605087D01*
X96002778Y-71622991D01*
X95973448Y-71658729D01*
X95890186Y-71760186D01*
X95788729Y-71843448D01*
X95752991Y-71872778D01*
X95752989Y-71872779D01*
X95596467Y-71956443D01*
X95539853Y-71973616D01*
X95426627Y-72007963D01*
X95360443Y-72014481D01*
X95294260Y-72021000D01*
X95205740Y-72021000D01*
X95139557Y-72014481D01*
X95073373Y-72007963D01*
X94960147Y-71973616D01*
X94903533Y-71956443D01*
X94747011Y-71872779D01*
X94747009Y-71872778D01*
X94711271Y-71843448D01*
X94609814Y-71760186D01*
X94526552Y-71658729D01*
X94497222Y-71622991D01*
X94487652Y-71605087D01*
X94413557Y-71466467D01*
X94396384Y-71409853D01*
X94362037Y-71296627D01*
X94344641Y-71120000D01*
X94362037Y-70943373D01*
X94413557Y-70773534D01*
X94413557Y-70773533D01*
X94497221Y-70617011D01*
X94497222Y-70617009D01*
X94544829Y-70559000D01*
X94609814Y-70479814D01*
X94711271Y-70396552D01*
X94747009Y-70367222D01*
X94764913Y-70357652D01*
X94903533Y-70283557D01*
X94960147Y-70266384D01*
X95073373Y-70232037D01*
X95139558Y-70225518D01*
X95205740Y-70219000D01*
X95294260Y-70219000D01*
X95360442Y-70225518D01*
X95360442Y-70225518D01*
G37*
G36*
X99170442Y-70225518D02*
X99236627Y-70232037D01*
X99349853Y-70266384D01*
X99406467Y-70283557D01*
X99545087Y-70357652D01*
X99562991Y-70367222D01*
X99598729Y-70396552D01*
X99700186Y-70479814D01*
X99765171Y-70559000D01*
X99812778Y-70617009D01*
X99812779Y-70617011D01*
X99896443Y-70773533D01*
X99896443Y-70773534D01*
X99947963Y-70943373D01*
X99965359Y-71120000D01*
X99947963Y-71296627D01*
X99913616Y-71409853D01*
X99896443Y-71466467D01*
X99822348Y-71605087D01*
X99812778Y-71622991D01*
X99783448Y-71658729D01*
X99700186Y-71760186D01*
X99598729Y-71843448D01*
X99562991Y-71872778D01*
X99562989Y-71872779D01*
X99406467Y-71956443D01*
X99349853Y-71973616D01*
X99236627Y-72007963D01*
X99170443Y-72014481D01*
X99104260Y-72021000D01*
X99015740Y-72021000D01*
X98949557Y-72014481D01*
X98883373Y-72007963D01*
X98770147Y-71973616D01*
X98713533Y-71956443D01*
X98557011Y-71872779D01*
X98557009Y-71872778D01*
X98521271Y-71843448D01*
X98419814Y-71760186D01*
X98336552Y-71658729D01*
X98307222Y-71622991D01*
X98297652Y-71605087D01*
X98223557Y-71466467D01*
X98206384Y-71409853D01*
X98172037Y-71296627D01*
X98154641Y-71120000D01*
X98172037Y-70943373D01*
X98223557Y-70773534D01*
X98223557Y-70773533D01*
X98307221Y-70617011D01*
X98307222Y-70617009D01*
X98354829Y-70559000D01*
X98419814Y-70479814D01*
X98521271Y-70396552D01*
X98557009Y-70367222D01*
X98574913Y-70357652D01*
X98713533Y-70283557D01*
X98770147Y-70266384D01*
X98883373Y-70232037D01*
X98949558Y-70225518D01*
X99015740Y-70219000D01*
X99104260Y-70219000D01*
X99170442Y-70225518D01*
X99170442Y-70225518D01*
G37*
G36*
X99170443Y-67685519D02*
X99236627Y-67692037D01*
X99349853Y-67726384D01*
X99406467Y-67743557D01*
X99545087Y-67817652D01*
X99562991Y-67827222D01*
X99598729Y-67856552D01*
X99700186Y-67939814D01*
X99783448Y-68041271D01*
X99812778Y-68077009D01*
X99812779Y-68077011D01*
X99896443Y-68233533D01*
X99896443Y-68233534D01*
X99947963Y-68403373D01*
X99965359Y-68580000D01*
X99947963Y-68756627D01*
X99913616Y-68869853D01*
X99896443Y-68926467D01*
X99826136Y-69058000D01*
X99812778Y-69082991D01*
X99783448Y-69118729D01*
X99700186Y-69220186D01*
X99598729Y-69303448D01*
X99562991Y-69332778D01*
X99562989Y-69332779D01*
X99406467Y-69416443D01*
X99349853Y-69433616D01*
X99236627Y-69467963D01*
X99170442Y-69474482D01*
X99104260Y-69481000D01*
X99015740Y-69481000D01*
X98949558Y-69474482D01*
X98883373Y-69467963D01*
X98770147Y-69433616D01*
X98713533Y-69416443D01*
X98557011Y-69332779D01*
X98557009Y-69332778D01*
X98521271Y-69303448D01*
X98419814Y-69220186D01*
X98336552Y-69118729D01*
X98307222Y-69082991D01*
X98293864Y-69058000D01*
X98223557Y-68926467D01*
X98206384Y-68869853D01*
X98172037Y-68756627D01*
X98154641Y-68580000D01*
X98172037Y-68403373D01*
X98223557Y-68233534D01*
X98223557Y-68233533D01*
X98307221Y-68077011D01*
X98307222Y-68077009D01*
X98336552Y-68041271D01*
X98419814Y-67939814D01*
X98521271Y-67856552D01*
X98557009Y-67827222D01*
X98574913Y-67817652D01*
X98713533Y-67743557D01*
X98770147Y-67726384D01*
X98883373Y-67692037D01*
X98949557Y-67685519D01*
X99015740Y-67679000D01*
X99104260Y-67679000D01*
X99170443Y-67685519D01*
X99170443Y-67685519D01*
G37*
G36*
X92820443Y-67685519D02*
X92886627Y-67692037D01*
X92999853Y-67726384D01*
X93056467Y-67743557D01*
X93195087Y-67817652D01*
X93212991Y-67827222D01*
X93248729Y-67856552D01*
X93350186Y-67939814D01*
X93433448Y-68041271D01*
X93462778Y-68077009D01*
X93462779Y-68077011D01*
X93546443Y-68233533D01*
X93546443Y-68233534D01*
X93597963Y-68403373D01*
X93615359Y-68580000D01*
X93597963Y-68756627D01*
X93563616Y-68869853D01*
X93546443Y-68926467D01*
X93476136Y-69058000D01*
X93462778Y-69082991D01*
X93433448Y-69118729D01*
X93350186Y-69220186D01*
X93248729Y-69303448D01*
X93212991Y-69332778D01*
X93212989Y-69332779D01*
X93056467Y-69416443D01*
X92999853Y-69433616D01*
X92886627Y-69467963D01*
X92820442Y-69474482D01*
X92754260Y-69481000D01*
X92665740Y-69481000D01*
X92599558Y-69474482D01*
X92533373Y-69467963D01*
X92420147Y-69433616D01*
X92363533Y-69416443D01*
X92207011Y-69332779D01*
X92207009Y-69332778D01*
X92171271Y-69303448D01*
X92069814Y-69220186D01*
X91986552Y-69118729D01*
X91957222Y-69082991D01*
X91943864Y-69058000D01*
X91873557Y-68926467D01*
X91856384Y-68869853D01*
X91822037Y-68756627D01*
X91804641Y-68580000D01*
X91822037Y-68403373D01*
X91873557Y-68233534D01*
X91873557Y-68233533D01*
X91957221Y-68077011D01*
X91957222Y-68077009D01*
X91986552Y-68041271D01*
X92069814Y-67939814D01*
X92171271Y-67856552D01*
X92207009Y-67827222D01*
X92224913Y-67817652D01*
X92363533Y-67743557D01*
X92420147Y-67726384D01*
X92533373Y-67692037D01*
X92599557Y-67685519D01*
X92665740Y-67679000D01*
X92754260Y-67679000D01*
X92820443Y-67685519D01*
X92820443Y-67685519D01*
G37*
G36*
X79641000Y-69481000D02*
X77839000Y-69481000D01*
X77839000Y-67679000D01*
X79641000Y-67679000D01*
X79641000Y-69481000D01*
X79641000Y-69481000D01*
G37*
G36*
X95360443Y-67685519D02*
X95426627Y-67692037D01*
X95539853Y-67726384D01*
X95596467Y-67743557D01*
X95735087Y-67817652D01*
X95752991Y-67827222D01*
X95788729Y-67856552D01*
X95890186Y-67939814D01*
X95973448Y-68041271D01*
X96002778Y-68077009D01*
X96002779Y-68077011D01*
X96086443Y-68233533D01*
X96086443Y-68233534D01*
X96137963Y-68403373D01*
X96155359Y-68580000D01*
X96137963Y-68756627D01*
X96103616Y-68869853D01*
X96086443Y-68926467D01*
X96016136Y-69058000D01*
X96002778Y-69082991D01*
X95973448Y-69118729D01*
X95890186Y-69220186D01*
X95788729Y-69303448D01*
X95752991Y-69332778D01*
X95752989Y-69332779D01*
X95596467Y-69416443D01*
X95539853Y-69433616D01*
X95426627Y-69467963D01*
X95360442Y-69474482D01*
X95294260Y-69481000D01*
X95205740Y-69481000D01*
X95139558Y-69474482D01*
X95073373Y-69467963D01*
X94960147Y-69433616D01*
X94903533Y-69416443D01*
X94747011Y-69332779D01*
X94747009Y-69332778D01*
X94711271Y-69303448D01*
X94609814Y-69220186D01*
X94526552Y-69118729D01*
X94497222Y-69082991D01*
X94483864Y-69058000D01*
X94413557Y-68926467D01*
X94396384Y-68869853D01*
X94362037Y-68756627D01*
X94344641Y-68580000D01*
X94362037Y-68403373D01*
X94413557Y-68233534D01*
X94413557Y-68233533D01*
X94497221Y-68077011D01*
X94497222Y-68077009D01*
X94526552Y-68041271D01*
X94609814Y-67939814D01*
X94711271Y-67856552D01*
X94747009Y-67827222D01*
X94764913Y-67817652D01*
X94903533Y-67743557D01*
X94960147Y-67726384D01*
X95073373Y-67692037D01*
X95139557Y-67685519D01*
X95205740Y-67679000D01*
X95294260Y-67679000D01*
X95360443Y-67685519D01*
X95360443Y-67685519D01*
G37*
G36*
X85502000Y-69058000D02*
X83850000Y-69058000D01*
X83850000Y-68356000D01*
X85502000Y-68356000D01*
X85502000Y-69058000D01*
X85502000Y-69058000D01*
G37*
G36*
X90902000Y-69058000D02*
X89250000Y-69058000D01*
X89250000Y-68356000D01*
X90902000Y-68356000D01*
X90902000Y-69058000D01*
X90902000Y-69058000D01*
G37*
G36*
X90902000Y-67788000D02*
X89250000Y-67788000D01*
X89250000Y-67086000D01*
X90902000Y-67086000D01*
X90902000Y-67788000D01*
X90902000Y-67788000D01*
G37*
G36*
X85502000Y-67788000D02*
X83850000Y-67788000D01*
X83850000Y-67086000D01*
X85502000Y-67086000D01*
X85502000Y-67788000D01*
X85502000Y-67788000D01*
G37*
G36*
X81390442Y-65145518D02*
X81456627Y-65152037D01*
X81569853Y-65186384D01*
X81626467Y-65203557D01*
X81765087Y-65277652D01*
X81782991Y-65287222D01*
X81818729Y-65316552D01*
X81920186Y-65399814D01*
X82003448Y-65501271D01*
X82032778Y-65537009D01*
X82032779Y-65537011D01*
X82116443Y-65693533D01*
X82116443Y-65693534D01*
X82167963Y-65863373D01*
X82185359Y-66040000D01*
X82167963Y-66216627D01*
X82133616Y-66329853D01*
X82116443Y-66386467D01*
X82046136Y-66518000D01*
X82032778Y-66542991D01*
X82003448Y-66578729D01*
X81920186Y-66680186D01*
X81818729Y-66763448D01*
X81782991Y-66792778D01*
X81782989Y-66792779D01*
X81626467Y-66876443D01*
X81569853Y-66893616D01*
X81456627Y-66927963D01*
X81390442Y-66934482D01*
X81324260Y-66941000D01*
X81235740Y-66941000D01*
X81169558Y-66934482D01*
X81103373Y-66927963D01*
X80990147Y-66893616D01*
X80933533Y-66876443D01*
X80777011Y-66792779D01*
X80777009Y-66792778D01*
X80741271Y-66763448D01*
X80639814Y-66680186D01*
X80556552Y-66578729D01*
X80527222Y-66542991D01*
X80513864Y-66518000D01*
X80443557Y-66386467D01*
X80426384Y-66329853D01*
X80392037Y-66216627D01*
X80374641Y-66040000D01*
X80392037Y-65863373D01*
X80443557Y-65693534D01*
X80443557Y-65693533D01*
X80527221Y-65537011D01*
X80527222Y-65537009D01*
X80556552Y-65501271D01*
X80639814Y-65399814D01*
X80741271Y-65316552D01*
X80777009Y-65287222D01*
X80794913Y-65277652D01*
X80933533Y-65203557D01*
X80990147Y-65186384D01*
X81103373Y-65152037D01*
X81169558Y-65145518D01*
X81235740Y-65139000D01*
X81324260Y-65139000D01*
X81390442Y-65145518D01*
X81390442Y-65145518D01*
G37*
G36*
X95360442Y-65145518D02*
X95426627Y-65152037D01*
X95539853Y-65186384D01*
X95596467Y-65203557D01*
X95735087Y-65277652D01*
X95752991Y-65287222D01*
X95788729Y-65316552D01*
X95890186Y-65399814D01*
X95973448Y-65501271D01*
X96002778Y-65537009D01*
X96002779Y-65537011D01*
X96086443Y-65693533D01*
X96086443Y-65693534D01*
X96137963Y-65863373D01*
X96155359Y-66040000D01*
X96137963Y-66216627D01*
X96103616Y-66329853D01*
X96086443Y-66386467D01*
X96016136Y-66518000D01*
X96002778Y-66542991D01*
X95973448Y-66578729D01*
X95890186Y-66680186D01*
X95788729Y-66763448D01*
X95752991Y-66792778D01*
X95752989Y-66792779D01*
X95596467Y-66876443D01*
X95539853Y-66893616D01*
X95426627Y-66927963D01*
X95360442Y-66934482D01*
X95294260Y-66941000D01*
X95205740Y-66941000D01*
X95139558Y-66934482D01*
X95073373Y-66927963D01*
X94960147Y-66893616D01*
X94903533Y-66876443D01*
X94747011Y-66792779D01*
X94747009Y-66792778D01*
X94711271Y-66763448D01*
X94609814Y-66680186D01*
X94526552Y-66578729D01*
X94497222Y-66542991D01*
X94483864Y-66518000D01*
X94413557Y-66386467D01*
X94396384Y-66329853D01*
X94362037Y-66216627D01*
X94344641Y-66040000D01*
X94362037Y-65863373D01*
X94413557Y-65693534D01*
X94413557Y-65693533D01*
X94497221Y-65537011D01*
X94497222Y-65537009D01*
X94526552Y-65501271D01*
X94609814Y-65399814D01*
X94711271Y-65316552D01*
X94747009Y-65287222D01*
X94764913Y-65277652D01*
X94903533Y-65203557D01*
X94960147Y-65186384D01*
X95073373Y-65152037D01*
X95139558Y-65145518D01*
X95205740Y-65139000D01*
X95294260Y-65139000D01*
X95360442Y-65145518D01*
X95360442Y-65145518D01*
G37*
G36*
X93611000Y-66941000D02*
X91809000Y-66941000D01*
X91809000Y-65139000D01*
X93611000Y-65139000D01*
X93611000Y-66941000D01*
X93611000Y-66941000D01*
G37*
G36*
X79641000Y-66941000D02*
X77839000Y-66941000D01*
X77839000Y-65139000D01*
X79641000Y-65139000D01*
X79641000Y-66941000D01*
X79641000Y-66941000D01*
G37*
G36*
X90902000Y-66518000D02*
X89250000Y-66518000D01*
X89250000Y-65816000D01*
X90902000Y-65816000D01*
X90902000Y-66518000D01*
X90902000Y-66518000D01*
G37*
G36*
X85502000Y-66518000D02*
X83850000Y-66518000D01*
X83850000Y-65816000D01*
X85502000Y-65816000D01*
X85502000Y-66518000D01*
X85502000Y-66518000D01*
G37*
G36*
X90902000Y-65248000D02*
X89250000Y-65248000D01*
X89250000Y-64546000D01*
X90902000Y-64546000D01*
X90902000Y-65248000D01*
X90902000Y-65248000D01*
G37*
G36*
X85502000Y-65248000D02*
X83850000Y-65248000D01*
X83850000Y-64546000D01*
X85502000Y-64546000D01*
X85502000Y-65248000D01*
X85502000Y-65248000D01*
G37*
M02*
