M48
;DRILL file {KiCad (5.0.2)-1} date 10.12.2020 22:04:08
;FORMAT={-:-/ absolute / inch / decimal}
FMAT,2
INCH,TZ
T1C0.0138
T2C0.0157
T3C0.0217
T4C0.0394
%
G90
G05
T2
X3.0485Y-4.042
X3.064Y-4.1712
X3.0703Y-3.6512
X3.175Y-3.59
X3.185Y-3.845
X3.1854Y-3.0307
X3.1865Y-3.9005
X3.19Y-3.805
X3.2Y-3.5331
X3.2065Y-3.4183
X3.2232Y-3.6709
X3.235Y-3.1221
X3.2393Y-2.7284
X3.25Y-4.0131
X3.25Y-4.1105
X3.252Y-3.4565
X3.2555Y-3.3242
X3.2689Y-3.5775
X3.27Y-3.2028
X3.285Y-3.885
X3.2968Y-3.8237
X3.3015Y-3.945
X3.306Y-3.537
X3.31Y-2.97
X3.318Y-2.7411
X3.3338Y-2.5549
X3.3338Y-2.6539
X3.3344Y-2.6038
X3.3539Y-3.099
X3.37Y-3.475
X3.3745Y-3.0115
X3.3815Y-3.178
X3.3997Y-2.9828
X3.4003Y-2.7283
X3.4035Y-3.4355
X3.436Y-3.1113
X3.447Y-3.6045
X3.4535Y-3.567
X3.4554Y-3.3712
X3.4617Y-3.8634
X3.4822Y-2.7309
X3.4887Y-2.6748
X3.5021Y-3.8977
X3.5021Y-4.1547
X3.503Y-3.9376
X3.5043Y-3.4267
X3.5103Y-3.3512
X3.519Y-3.6315
X3.5242Y-2.7898
X3.5275Y-3.575
X3.5313Y-3.7689
X3.551Y-3.6045
X3.5555Y-2.87
X3.5606Y-4.0269
X3.5655Y-3.8417
X3.5791Y-3.3657
X3.5805Y-3.6905
X3.5815Y-3.943
X3.5828Y-3.7284
X3.5902Y-2.6041
X3.603Y-3.4481
X3.6058Y-2.9865
X3.616Y-3.332
X3.635Y-4.055
X3.653Y-2.952
X3.6628Y-3.0374
X3.69Y-4.18
X3.715Y-3.99
X3.7185Y-3.8825
X3.7379Y-2.9109
X3.745Y-4.045
X3.75Y-3.8345
X3.7507Y-3.3731
X3.7565Y-3.4675
X3.7591Y-3.6821
X3.76Y-3.02
X3.7814Y-4.1308
X3.796Y-3.903
X3.811Y-3.7395
X3.8127Y-3.596
X3.82Y-3.98
X3.825Y-3.4065
X3.8405Y-3.466
X3.9535Y-3.8695
T3
X3.4232Y-4.0707
X3.5768Y-4.0707
T4
X3.1Y-2.7
X3.1Y-2.8
X3.1Y-2.9
X3.1Y-3.
X3.1Y-3.1
X3.1Y-3.2
X3.1Y-3.3
X3.1Y-3.4
X3.1Y-3.5
X3.1Y-3.6
X3.1Y-3.7
X3.1Y-3.8
X3.1Y-3.9
X3.1Y-4.
X3.1Y-4.1
X3.9Y-2.7
X3.9Y-2.8
X3.9Y-2.9
X3.9Y-3.
X3.9Y-3.1
X3.9Y-3.2
X3.9Y-3.3
X3.9Y-3.4
X3.9Y-3.5
X3.9Y-3.6
X3.9Y-3.7
X3.9Y-3.8
X3.9Y-3.9
X3.9Y-4.
X3.9Y-4.1
X3.1Y-2.6
X3.2Y-2.6
X3.65Y-2.6
X3.65Y-2.7
X3.65Y-2.8
X3.75Y-2.6
X3.75Y-2.7
X3.75Y-2.8
T1
X3.3888Y-4.1356G85X3.3888Y-4.175
G05
X3.6112Y-4.1356G85X3.6112Y-4.175
G05
T0
M30
