%TF.GenerationSoftware,KiCad,Pcbnew,(5.0.2)-1*%
%TF.CreationDate,2020-12-10T22:03:50+01:00*%
%TF.ProjectId,canduino,63616e64-7569-46e6-9f2e-6b696361645f,rev?*%
%TF.SameCoordinates,Original*%
%TF.FileFunction,Legend,Top*%
%TF.FilePolarity,Positive*%
%FSLAX46Y46*%
G04 Gerber Fmt 4.6, Leading zero omitted, Abs format (unit mm)*
G04 Created by KiCad (PCBNEW (5.0.2)-1) date 10.12.2020 22:03:50*
%MOMM*%
%LPD*%
G01*
G04 APERTURE LIST*
%ADD10C,0.200000*%
%ADD11C,0.150000*%
%ADD12C,0.120000*%
G04 APERTURE END LIST*
D10*
X89192402Y-89484200D02*
G75*
G03X89192402Y-89484200I-267002J0D01*
G01*
D11*
X96986285Y-90528928D02*
X96236285Y-90528928D01*
X96772000Y-90278928D01*
X96236285Y-90028928D01*
X96986285Y-90028928D01*
X96986285Y-89350357D02*
X96593428Y-89350357D01*
X96522000Y-89386071D01*
X96486285Y-89457500D01*
X96486285Y-89600357D01*
X96522000Y-89671785D01*
X96950571Y-89350357D02*
X96986285Y-89421785D01*
X96986285Y-89600357D01*
X96950571Y-89671785D01*
X96879142Y-89707500D01*
X96807714Y-89707500D01*
X96736285Y-89671785D01*
X96700571Y-89600357D01*
X96700571Y-89421785D01*
X96664857Y-89350357D01*
X96950571Y-89028928D02*
X96986285Y-88957500D01*
X96986285Y-88814642D01*
X96950571Y-88743214D01*
X96879142Y-88707500D01*
X96843428Y-88707500D01*
X96772000Y-88743214D01*
X96736285Y-88814642D01*
X96736285Y-88921785D01*
X96700571Y-88993214D01*
X96629142Y-89028928D01*
X96593428Y-89028928D01*
X96522000Y-88993214D01*
X96486285Y-88921785D01*
X96486285Y-88814642D01*
X96522000Y-88743214D01*
X96950571Y-88421785D02*
X96986285Y-88350357D01*
X96986285Y-88207500D01*
X96950571Y-88136071D01*
X96879142Y-88100357D01*
X96843428Y-88100357D01*
X96772000Y-88136071D01*
X96736285Y-88207500D01*
X96736285Y-88314642D01*
X96700571Y-88386071D01*
X96629142Y-88421785D01*
X96593428Y-88421785D01*
X96522000Y-88386071D01*
X96486285Y-88314642D01*
X96486285Y-88207500D01*
X96522000Y-88136071D01*
X96986285Y-87778928D02*
X96486285Y-87778928D01*
X96236285Y-87778928D02*
X96272000Y-87814642D01*
X96307714Y-87778928D01*
X96272000Y-87743214D01*
X96236285Y-87778928D01*
X96307714Y-87778928D01*
X96486285Y-87493214D02*
X96986285Y-87314642D01*
X96486285Y-87136071D01*
X96950571Y-86564642D02*
X96986285Y-86636071D01*
X96986285Y-86778928D01*
X96950571Y-86850357D01*
X96879142Y-86886071D01*
X96593428Y-86886071D01*
X96522000Y-86850357D01*
X96486285Y-86778928D01*
X96486285Y-86636071D01*
X96522000Y-86564642D01*
X96593428Y-86528928D01*
X96664857Y-86528928D01*
X96736285Y-86886071D01*
X96593428Y-85957500D02*
X96629142Y-85850357D01*
X96664857Y-85814642D01*
X96736285Y-85778928D01*
X96843428Y-85778928D01*
X96914857Y-85814642D01*
X96950571Y-85850357D01*
X96986285Y-85921785D01*
X96986285Y-86207500D01*
X96236285Y-86207500D01*
X96236285Y-85957500D01*
X96272000Y-85886071D01*
X96307714Y-85850357D01*
X96379142Y-85814642D01*
X96450571Y-85814642D01*
X96522000Y-85850357D01*
X96557714Y-85886071D01*
X96593428Y-85957500D01*
X96593428Y-86207500D01*
X96486285Y-85136071D02*
X96986285Y-85136071D01*
X96486285Y-85457500D02*
X96879142Y-85457500D01*
X96950571Y-85421785D01*
X96986285Y-85350357D01*
X96986285Y-85243214D01*
X96950571Y-85171785D01*
X96914857Y-85136071D01*
X96486285Y-84886071D02*
X96486285Y-84600357D01*
X96236285Y-84778928D02*
X96879142Y-84778928D01*
X96950571Y-84743214D01*
X96986285Y-84671785D01*
X96986285Y-84600357D01*
X96986285Y-84350357D02*
X96236285Y-84350357D01*
X96236285Y-84171785D01*
X96272000Y-84064642D01*
X96343428Y-83993214D01*
X96414857Y-83957500D01*
X96557714Y-83921785D01*
X96664857Y-83921785D01*
X96807714Y-83957500D01*
X96879142Y-83993214D01*
X96950571Y-84064642D01*
X96986285Y-84171785D01*
X96986285Y-84350357D01*
X96486285Y-83671785D02*
X96986285Y-83493214D01*
X96486285Y-83314642D02*
X96986285Y-83493214D01*
X97164857Y-83564642D01*
X97200571Y-83600357D01*
X97236285Y-83671785D01*
X96486285Y-83028928D02*
X96986285Y-83028928D01*
X96557714Y-83028928D02*
X96522000Y-82993214D01*
X96486285Y-82921785D01*
X96486285Y-82814642D01*
X96522000Y-82743214D01*
X96593428Y-82707500D01*
X96986285Y-82707500D01*
X96986285Y-82028928D02*
X96593428Y-82028928D01*
X96522000Y-82064642D01*
X96486285Y-82136071D01*
X96486285Y-82278928D01*
X96522000Y-82350357D01*
X96950571Y-82028928D02*
X96986285Y-82100357D01*
X96986285Y-82278928D01*
X96950571Y-82350357D01*
X96879142Y-82386071D01*
X96807714Y-82386071D01*
X96736285Y-82350357D01*
X96700571Y-82278928D01*
X96700571Y-82100357D01*
X96664857Y-82028928D01*
X96986285Y-81671785D02*
X96486285Y-81671785D01*
X96557714Y-81671785D02*
X96522000Y-81636071D01*
X96486285Y-81564642D01*
X96486285Y-81457500D01*
X96522000Y-81386071D01*
X96593428Y-81350357D01*
X96986285Y-81350357D01*
X96593428Y-81350357D02*
X96522000Y-81314642D01*
X96486285Y-81243214D01*
X96486285Y-81136071D01*
X96522000Y-81064642D01*
X96593428Y-81028928D01*
X96986285Y-81028928D01*
X96986285Y-80671785D02*
X96486285Y-80671785D01*
X96236285Y-80671785D02*
X96272000Y-80707500D01*
X96307714Y-80671785D01*
X96272000Y-80636071D01*
X96236285Y-80671785D01*
X96307714Y-80671785D01*
X96950571Y-79993214D02*
X96986285Y-80064642D01*
X96986285Y-80207500D01*
X96950571Y-80278928D01*
X96914857Y-80314642D01*
X96843428Y-80350357D01*
X96629142Y-80350357D01*
X96557714Y-80314642D01*
X96522000Y-80278928D01*
X96486285Y-80207500D01*
X96486285Y-80064642D01*
X96522000Y-79993214D01*
X96272000Y-78707500D02*
X96236285Y-78778928D01*
X96236285Y-78886071D01*
X96272000Y-78993214D01*
X96343428Y-79064642D01*
X96414857Y-79100357D01*
X96557714Y-79136071D01*
X96664857Y-79136071D01*
X96807714Y-79100357D01*
X96879142Y-79064642D01*
X96950571Y-78993214D01*
X96986285Y-78886071D01*
X96986285Y-78814642D01*
X96950571Y-78707500D01*
X96914857Y-78671785D01*
X96664857Y-78671785D01*
X96664857Y-78814642D01*
X96986285Y-78350357D02*
X96486285Y-78350357D01*
X96629142Y-78350357D02*
X96557714Y-78314642D01*
X96522000Y-78278928D01*
X96486285Y-78207500D01*
X96486285Y-78136071D01*
X96986285Y-77778928D02*
X96950571Y-77850357D01*
X96914857Y-77886071D01*
X96843428Y-77921785D01*
X96629142Y-77921785D01*
X96557714Y-77886071D01*
X96522000Y-77850357D01*
X96486285Y-77778928D01*
X96486285Y-77671785D01*
X96522000Y-77600357D01*
X96557714Y-77564642D01*
X96629142Y-77528928D01*
X96843428Y-77528928D01*
X96914857Y-77564642D01*
X96950571Y-77600357D01*
X96986285Y-77671785D01*
X96986285Y-77778928D01*
X96486285Y-76886071D02*
X96986285Y-76886071D01*
X96486285Y-77207500D02*
X96879142Y-77207500D01*
X96950571Y-77171785D01*
X96986285Y-77100357D01*
X96986285Y-76993214D01*
X96950571Y-76921785D01*
X96914857Y-76886071D01*
X96486285Y-76528928D02*
X97236285Y-76528928D01*
X96522000Y-76528928D02*
X96486285Y-76457500D01*
X96486285Y-76314642D01*
X96522000Y-76243214D01*
X96557714Y-76207500D01*
X96629142Y-76171785D01*
X96843428Y-76171785D01*
X96914857Y-76207500D01*
X96950571Y-76243214D01*
X96986285Y-76314642D01*
X96986285Y-76457500D01*
X96950571Y-76528928D01*
X96272000Y-74886071D02*
X96236285Y-74957500D01*
X96236285Y-75064642D01*
X96272000Y-75171785D01*
X96343428Y-75243214D01*
X96414857Y-75278928D01*
X96557714Y-75314642D01*
X96664857Y-75314642D01*
X96807714Y-75278928D01*
X96879142Y-75243214D01*
X96950571Y-75171785D01*
X96986285Y-75064642D01*
X96986285Y-74993214D01*
X96950571Y-74886071D01*
X96914857Y-74850357D01*
X96664857Y-74850357D01*
X96664857Y-74993214D01*
X96986285Y-74528928D02*
X96236285Y-74528928D01*
X96522000Y-74528928D02*
X96486285Y-74457500D01*
X96486285Y-74314642D01*
X96522000Y-74243214D01*
X96557714Y-74207500D01*
X96629142Y-74171785D01*
X96843428Y-74171785D01*
X96914857Y-74207500D01*
X96950571Y-74243214D01*
X96986285Y-74314642D01*
X96986285Y-74457500D01*
X96950571Y-74528928D01*
X96986285Y-73421785D02*
X96629142Y-73671785D01*
X96986285Y-73850357D02*
X96236285Y-73850357D01*
X96236285Y-73564642D01*
X96272000Y-73493214D01*
X96307714Y-73457500D01*
X96379142Y-73421785D01*
X96486285Y-73421785D01*
X96557714Y-73457500D01*
X96593428Y-73493214D01*
X96629142Y-73564642D01*
X96629142Y-73850357D01*
X95644857Y-90100357D02*
X95680571Y-90136071D01*
X95716285Y-90243214D01*
X95716285Y-90314642D01*
X95680571Y-90421785D01*
X95609142Y-90493214D01*
X95537714Y-90528928D01*
X95394857Y-90564642D01*
X95287714Y-90564642D01*
X95144857Y-90528928D01*
X95073428Y-90493214D01*
X95002000Y-90421785D01*
X94966285Y-90314642D01*
X94966285Y-90243214D01*
X95002000Y-90136071D01*
X95037714Y-90100357D01*
X95716285Y-89457500D02*
X95323428Y-89457500D01*
X95252000Y-89493214D01*
X95216285Y-89564642D01*
X95216285Y-89707500D01*
X95252000Y-89778928D01*
X95680571Y-89457500D02*
X95716285Y-89528928D01*
X95716285Y-89707500D01*
X95680571Y-89778928D01*
X95609142Y-89814642D01*
X95537714Y-89814642D01*
X95466285Y-89778928D01*
X95430571Y-89707500D01*
X95430571Y-89528928D01*
X95394857Y-89457500D01*
X95216285Y-89100357D02*
X95716285Y-89100357D01*
X95287714Y-89100357D02*
X95252000Y-89064642D01*
X95216285Y-88993214D01*
X95216285Y-88886071D01*
X95252000Y-88814642D01*
X95323428Y-88778928D01*
X95716285Y-88778928D01*
X95716285Y-88100357D02*
X94966285Y-88100357D01*
X95680571Y-88100357D02*
X95716285Y-88171785D01*
X95716285Y-88314642D01*
X95680571Y-88386071D01*
X95644857Y-88421785D01*
X95573428Y-88457500D01*
X95359142Y-88457500D01*
X95287714Y-88421785D01*
X95252000Y-88386071D01*
X95216285Y-88314642D01*
X95216285Y-88171785D01*
X95252000Y-88100357D01*
X95216285Y-87421785D02*
X95716285Y-87421785D01*
X95216285Y-87743214D02*
X95609142Y-87743214D01*
X95680571Y-87707500D01*
X95716285Y-87636071D01*
X95716285Y-87528928D01*
X95680571Y-87457500D01*
X95644857Y-87421785D01*
X95716285Y-87064642D02*
X95216285Y-87064642D01*
X94966285Y-87064642D02*
X95002000Y-87100357D01*
X95037714Y-87064642D01*
X95002000Y-87028928D01*
X94966285Y-87064642D01*
X95037714Y-87064642D01*
X95216285Y-86707500D02*
X95716285Y-86707500D01*
X95287714Y-86707500D02*
X95252000Y-86671785D01*
X95216285Y-86600357D01*
X95216285Y-86493214D01*
X95252000Y-86421785D01*
X95323428Y-86386071D01*
X95716285Y-86386071D01*
X95716285Y-85921785D02*
X95680571Y-85993214D01*
X95644857Y-86028928D01*
X95573428Y-86064642D01*
X95359142Y-86064642D01*
X95287714Y-86028928D01*
X95252000Y-85993214D01*
X95216285Y-85921785D01*
X95216285Y-85814642D01*
X95252000Y-85743214D01*
X95287714Y-85707500D01*
X95359142Y-85671785D01*
X95573428Y-85671785D01*
X95644857Y-85707500D01*
X95680571Y-85743214D01*
X95716285Y-85814642D01*
X95716285Y-85921785D01*
X95216285Y-84850357D02*
X95716285Y-84671785D01*
X95216285Y-84493214D01*
X95037714Y-84243214D02*
X95002000Y-84207500D01*
X94966285Y-84136071D01*
X94966285Y-83957500D01*
X95002000Y-83886071D01*
X95037714Y-83850357D01*
X95109142Y-83814642D01*
X95180571Y-83814642D01*
X95287714Y-83850357D01*
X95716285Y-84278928D01*
X95716285Y-83814642D01*
X96002000Y-82707500D02*
X95966285Y-82743214D01*
X95859142Y-82814642D01*
X95787714Y-82850357D01*
X95680571Y-82886071D01*
X95502000Y-82921785D01*
X95359142Y-82921785D01*
X95180571Y-82886071D01*
X95073428Y-82850357D01*
X95002000Y-82814642D01*
X94894857Y-82743214D01*
X94859142Y-82707500D01*
X95037714Y-82457500D02*
X95002000Y-82421785D01*
X94966285Y-82350357D01*
X94966285Y-82171785D01*
X95002000Y-82100357D01*
X95037714Y-82064642D01*
X95109142Y-82028928D01*
X95180571Y-82028928D01*
X95287714Y-82064642D01*
X95716285Y-82493214D01*
X95716285Y-82028928D01*
X94966285Y-81564642D02*
X94966285Y-81493214D01*
X95002000Y-81421785D01*
X95037714Y-81386071D01*
X95109142Y-81350357D01*
X95252000Y-81314642D01*
X95430571Y-81314642D01*
X95573428Y-81350357D01*
X95644857Y-81386071D01*
X95680571Y-81421785D01*
X95716285Y-81493214D01*
X95716285Y-81564642D01*
X95680571Y-81636071D01*
X95644857Y-81671785D01*
X95573428Y-81707500D01*
X95430571Y-81743214D01*
X95252000Y-81743214D01*
X95109142Y-81707500D01*
X95037714Y-81671785D01*
X95002000Y-81636071D01*
X94966285Y-81564642D01*
X95037714Y-81028928D02*
X95002000Y-80993214D01*
X94966285Y-80921785D01*
X94966285Y-80743214D01*
X95002000Y-80671785D01*
X95037714Y-80636071D01*
X95109142Y-80600357D01*
X95180571Y-80600357D01*
X95287714Y-80636071D01*
X95716285Y-81064642D01*
X95716285Y-80600357D01*
X95716285Y-79886071D02*
X95716285Y-80314642D01*
X95716285Y-80100357D02*
X94966285Y-80100357D01*
X95073428Y-80171785D01*
X95144857Y-80243214D01*
X95180571Y-80314642D01*
X96002000Y-79636071D02*
X95966285Y-79600357D01*
X95859142Y-79528928D01*
X95787714Y-79493214D01*
X95680571Y-79457500D01*
X95502000Y-79421785D01*
X95359142Y-79421785D01*
X95180571Y-79457500D01*
X95073428Y-79493214D01*
X95002000Y-79528928D01*
X94894857Y-79600357D01*
X94859142Y-79636071D01*
D10*
X76708000Y-63500000D02*
X101092000Y-63500000D01*
X76708000Y-107188000D02*
X76708000Y-63500000D01*
X101092000Y-107188000D02*
X76708000Y-107188000D01*
X101092000Y-63500000D02*
X101092000Y-107188000D01*
D11*
X86500000Y-81585000D02*
X86500000Y-78435000D01*
X91300000Y-81585000D02*
X86500000Y-81585000D01*
X91300000Y-78435000D02*
X91300000Y-81585000D01*
X86500000Y-78435000D02*
X91300000Y-78435000D01*
D12*
X93467422Y-74220000D02*
X93984578Y-74220000D01*
X93467422Y-75640000D02*
X93984578Y-75640000D01*
X83006000Y-98302578D02*
X83006000Y-97785422D01*
X81586000Y-98302578D02*
X81586000Y-97785422D01*
X81040000Y-100410000D02*
X81040000Y-104620000D01*
X84060000Y-100410000D02*
X81040000Y-100410000D01*
X84060000Y-104620000D02*
X84060000Y-100410000D01*
X89864000Y-84332578D02*
X89864000Y-83815422D01*
X88444000Y-84332578D02*
X88444000Y-83815422D01*
X80570000Y-90936578D02*
X80570000Y-90419422D01*
X81990000Y-90936578D02*
X81990000Y-90419422D01*
X93740000Y-97183000D02*
X93740000Y-101393000D01*
X93740000Y-101393000D02*
X96760000Y-101393000D01*
X96760000Y-101393000D02*
X96760000Y-97183000D01*
X95502000Y-103977221D02*
X95502000Y-104302779D01*
X96522000Y-103977221D02*
X96522000Y-104302779D01*
X83031000Y-70904000D02*
X83031000Y-68619000D01*
X83031000Y-68619000D02*
X81561000Y-68619000D01*
X81561000Y-68619000D02*
X81561000Y-70904000D01*
X83593000Y-68619000D02*
X83593000Y-70904000D01*
X85063000Y-68619000D02*
X83593000Y-68619000D01*
X85063000Y-70904000D02*
X85063000Y-68619000D01*
X85625000Y-68619000D02*
X85625000Y-70904000D01*
X87095000Y-68619000D02*
X85625000Y-68619000D01*
X87095000Y-70904000D02*
X87095000Y-68619000D01*
X89127000Y-70904000D02*
X89127000Y-68619000D01*
X89127000Y-68619000D02*
X87657000Y-68619000D01*
X87657000Y-68619000D02*
X87657000Y-70904000D01*
X93397000Y-104398578D02*
X93397000Y-103881422D01*
X94817000Y-104398578D02*
X94817000Y-103881422D01*
X91380000Y-72450000D02*
X96580000Y-72450000D01*
X91380000Y-67310000D02*
X91380000Y-72450000D01*
X96580000Y-64710000D02*
X96580000Y-72450000D01*
X91380000Y-67310000D02*
X93980000Y-67310000D01*
X93980000Y-67310000D02*
X93980000Y-64710000D01*
X93980000Y-64710000D02*
X96580000Y-64710000D01*
X91380000Y-66040000D02*
X91380000Y-64710000D01*
X91380000Y-64710000D02*
X92710000Y-64710000D01*
D11*
X85200000Y-106995000D02*
X92600000Y-106995000D01*
X92600000Y-106995000D02*
X92600000Y-101670000D01*
X92600000Y-101670000D02*
X85200000Y-101670000D01*
X85200000Y-101670000D02*
X85200000Y-106995000D01*
D12*
X82610000Y-67370000D02*
X82610000Y-64710000D01*
X80010000Y-67370000D02*
X82610000Y-67370000D01*
X80010000Y-64710000D02*
X82610000Y-64710000D01*
X80010000Y-67370000D02*
X80010000Y-64710000D01*
X78740000Y-67370000D02*
X77410000Y-67370000D01*
X77410000Y-67370000D02*
X77410000Y-66040000D01*
X87872000Y-64786000D02*
X87872000Y-66786000D01*
X85072000Y-64786000D02*
X87872000Y-64786000D01*
X85072000Y-66786000D02*
X85072000Y-64786000D01*
X87872000Y-66786000D02*
X85072000Y-66786000D01*
X97030000Y-92745779D02*
X97030000Y-92420221D01*
X96010000Y-92745779D02*
X96010000Y-92420221D01*
X82806000Y-73243221D02*
X82806000Y-73568779D01*
X81786000Y-73243221D02*
X81786000Y-73568779D01*
X84838000Y-73243221D02*
X84838000Y-73568779D01*
X83818000Y-73243221D02*
X83818000Y-73568779D01*
X85850000Y-73243221D02*
X85850000Y-73568779D01*
X86870000Y-73243221D02*
X86870000Y-73568779D01*
X88902000Y-73243221D02*
X88902000Y-73568779D01*
X87882000Y-73243221D02*
X87882000Y-73568779D01*
X93390880Y-87081631D02*
X93160675Y-86851426D01*
X92669631Y-87802880D02*
X92439426Y-87572675D01*
X88898000Y-65369221D02*
X88898000Y-65694779D01*
X89918000Y-65369221D02*
X89918000Y-65694779D01*
D11*
X88900000Y-87964476D02*
X88740901Y-88123575D01*
X94026524Y-93091000D02*
X93796714Y-93320810D01*
X88900000Y-98217524D02*
X89129810Y-97987714D01*
X83773476Y-93091000D02*
X84003286Y-92861190D01*
X88900000Y-87964476D02*
X89129810Y-88194286D01*
X83773476Y-93091000D02*
X84003286Y-93320810D01*
X88900000Y-98217524D02*
X88670190Y-97987714D01*
X94026524Y-93091000D02*
X93796714Y-92861190D01*
X88740901Y-88123575D02*
X87733274Y-87115948D01*
D12*
X84858000Y-82552000D02*
X84858000Y-76802000D01*
X81258000Y-82552000D02*
X84858000Y-82552000D01*
X81258000Y-76802000D02*
X81258000Y-82552000D01*
X85211883Y-83057532D02*
X81146019Y-87123396D01*
X87757468Y-85603117D02*
X85211883Y-83057532D01*
X83691604Y-89668981D02*
X87757468Y-85603117D01*
D11*
X87566666Y-77664761D02*
X87709523Y-77712380D01*
X87947619Y-77712380D01*
X88042857Y-77664761D01*
X88090476Y-77617142D01*
X88138095Y-77521904D01*
X88138095Y-77426666D01*
X88090476Y-77331428D01*
X88042857Y-77283809D01*
X87947619Y-77236190D01*
X87757142Y-77188571D01*
X87661904Y-77140952D01*
X87614285Y-77093333D01*
X87566666Y-76998095D01*
X87566666Y-76902857D01*
X87614285Y-76807619D01*
X87661904Y-76760000D01*
X87757142Y-76712380D01*
X87995238Y-76712380D01*
X88138095Y-76760000D01*
X88471428Y-76712380D02*
X88709523Y-77712380D01*
X88900000Y-76998095D01*
X89090476Y-77712380D01*
X89328571Y-76712380D01*
X90233333Y-77712380D02*
X89661904Y-77712380D01*
X89947619Y-77712380D02*
X89947619Y-76712380D01*
X89852380Y-76855238D01*
X89757142Y-76950476D01*
X89661904Y-76998095D01*
X93559333Y-77192142D02*
X93511714Y-77239761D01*
X93368857Y-77287380D01*
X93273619Y-77287380D01*
X93130761Y-77239761D01*
X93035523Y-77144523D01*
X92987904Y-77049285D01*
X92940285Y-76858809D01*
X92940285Y-76715952D01*
X92987904Y-76525476D01*
X93035523Y-76430238D01*
X93130761Y-76335000D01*
X93273619Y-76287380D01*
X93368857Y-76287380D01*
X93511714Y-76335000D01*
X93559333Y-76382619D01*
X93940285Y-76382619D02*
X93987904Y-76335000D01*
X94083142Y-76287380D01*
X94321238Y-76287380D01*
X94416476Y-76335000D01*
X94464095Y-76382619D01*
X94511714Y-76477857D01*
X94511714Y-76573095D01*
X94464095Y-76715952D01*
X93892666Y-77287380D01*
X94511714Y-77287380D01*
X81003142Y-98210666D02*
X81050761Y-98258285D01*
X81098380Y-98401142D01*
X81098380Y-98496380D01*
X81050761Y-98639238D01*
X80955523Y-98734476D01*
X80860285Y-98782095D01*
X80669809Y-98829714D01*
X80526952Y-98829714D01*
X80336476Y-98782095D01*
X80241238Y-98734476D01*
X80146000Y-98639238D01*
X80098380Y-98496380D01*
X80098380Y-98401142D01*
X80146000Y-98258285D01*
X80193619Y-98210666D01*
X80098380Y-97877333D02*
X80098380Y-97258285D01*
X80479333Y-97591619D01*
X80479333Y-97448761D01*
X80526952Y-97353523D01*
X80574571Y-97305904D01*
X80669809Y-97258285D01*
X80907904Y-97258285D01*
X81003142Y-97305904D01*
X81050761Y-97353523D01*
X81098380Y-97448761D01*
X81098380Y-97734476D01*
X81050761Y-97829714D01*
X81003142Y-97877333D01*
X82383333Y-106529142D02*
X82335714Y-106576761D01*
X82192857Y-106624380D01*
X82097619Y-106624380D01*
X81954761Y-106576761D01*
X81859523Y-106481523D01*
X81811904Y-106386285D01*
X81764285Y-106195809D01*
X81764285Y-106052952D01*
X81811904Y-105862476D01*
X81859523Y-105767238D01*
X81954761Y-105672000D01*
X82097619Y-105624380D01*
X82192857Y-105624380D01*
X82335714Y-105672000D01*
X82383333Y-105719619D01*
X83240476Y-105957714D02*
X83240476Y-106624380D01*
X83002380Y-105576761D02*
X82764285Y-106291047D01*
X83383333Y-106291047D01*
X87861142Y-84240666D02*
X87908761Y-84288285D01*
X87956380Y-84431142D01*
X87956380Y-84526380D01*
X87908761Y-84669238D01*
X87813523Y-84764476D01*
X87718285Y-84812095D01*
X87527809Y-84859714D01*
X87384952Y-84859714D01*
X87194476Y-84812095D01*
X87099238Y-84764476D01*
X87004000Y-84669238D01*
X86956380Y-84526380D01*
X86956380Y-84431142D01*
X87004000Y-84288285D01*
X87051619Y-84240666D01*
X87384952Y-83669238D02*
X87337333Y-83764476D01*
X87289714Y-83812095D01*
X87194476Y-83859714D01*
X87146857Y-83859714D01*
X87051619Y-83812095D01*
X87004000Y-83764476D01*
X86956380Y-83669238D01*
X86956380Y-83478761D01*
X87004000Y-83383523D01*
X87051619Y-83335904D01*
X87146857Y-83288285D01*
X87194476Y-83288285D01*
X87289714Y-83335904D01*
X87337333Y-83383523D01*
X87384952Y-83478761D01*
X87384952Y-83669238D01*
X87432571Y-83764476D01*
X87480190Y-83812095D01*
X87575428Y-83859714D01*
X87765904Y-83859714D01*
X87861142Y-83812095D01*
X87908761Y-83764476D01*
X87956380Y-83669238D01*
X87956380Y-83478761D01*
X87908761Y-83383523D01*
X87861142Y-83335904D01*
X87765904Y-83288285D01*
X87575428Y-83288285D01*
X87480190Y-83335904D01*
X87432571Y-83383523D01*
X87384952Y-83478761D01*
X81637142Y-93892666D02*
X81684761Y-93940285D01*
X81732380Y-94083142D01*
X81732380Y-94178380D01*
X81684761Y-94321238D01*
X81589523Y-94416476D01*
X81494285Y-94464095D01*
X81303809Y-94511714D01*
X81160952Y-94511714D01*
X80970476Y-94464095D01*
X80875238Y-94416476D01*
X80780000Y-94321238D01*
X80732380Y-94178380D01*
X80732380Y-94083142D01*
X80780000Y-93940285D01*
X80827619Y-93892666D01*
X81732380Y-93416476D02*
X81732380Y-93226000D01*
X81684761Y-93130761D01*
X81637142Y-93083142D01*
X81494285Y-92987904D01*
X81303809Y-92940285D01*
X80922857Y-92940285D01*
X80827619Y-92987904D01*
X80780000Y-93035523D01*
X80732380Y-93130761D01*
X80732380Y-93321238D01*
X80780000Y-93416476D01*
X80827619Y-93464095D01*
X80922857Y-93511714D01*
X81160952Y-93511714D01*
X81256190Y-93464095D01*
X81303809Y-93416476D01*
X81351428Y-93321238D01*
X81351428Y-93130761D01*
X81303809Y-93035523D01*
X81256190Y-92987904D01*
X81160952Y-92940285D01*
X93257142Y-99575857D02*
X93304761Y-99623476D01*
X93352380Y-99766333D01*
X93352380Y-99861571D01*
X93304761Y-100004428D01*
X93209523Y-100099666D01*
X93114285Y-100147285D01*
X92923809Y-100194904D01*
X92780952Y-100194904D01*
X92590476Y-100147285D01*
X92495238Y-100099666D01*
X92400000Y-100004428D01*
X92352380Y-99861571D01*
X92352380Y-99766333D01*
X92400000Y-99623476D01*
X92447619Y-99575857D01*
X93352380Y-98623476D02*
X93352380Y-99194904D01*
X93352380Y-98909190D02*
X92352380Y-98909190D01*
X92495238Y-99004428D01*
X92590476Y-99099666D01*
X92638095Y-99194904D01*
X92352380Y-98004428D02*
X92352380Y-97909190D01*
X92400000Y-97813952D01*
X92447619Y-97766333D01*
X92542857Y-97718714D01*
X92733333Y-97671095D01*
X92971428Y-97671095D01*
X93161904Y-97718714D01*
X93257142Y-97766333D01*
X93304761Y-97813952D01*
X93352380Y-97909190D01*
X93352380Y-98004428D01*
X93304761Y-98099666D01*
X93257142Y-98147285D01*
X93161904Y-98194904D01*
X92971428Y-98242523D01*
X92733333Y-98242523D01*
X92542857Y-98194904D01*
X92447619Y-98147285D01*
X92400000Y-98099666D01*
X92352380Y-98004428D01*
X97799142Y-104782857D02*
X97846761Y-104830476D01*
X97894380Y-104973333D01*
X97894380Y-105068571D01*
X97846761Y-105211428D01*
X97751523Y-105306666D01*
X97656285Y-105354285D01*
X97465809Y-105401904D01*
X97322952Y-105401904D01*
X97132476Y-105354285D01*
X97037238Y-105306666D01*
X96942000Y-105211428D01*
X96894380Y-105068571D01*
X96894380Y-104973333D01*
X96942000Y-104830476D01*
X96989619Y-104782857D01*
X97894380Y-103830476D02*
X97894380Y-104401904D01*
X97894380Y-104116190D02*
X96894380Y-104116190D01*
X97037238Y-104211428D01*
X97132476Y-104306666D01*
X97180095Y-104401904D01*
X96989619Y-103449523D02*
X96942000Y-103401904D01*
X96894380Y-103306666D01*
X96894380Y-103068571D01*
X96942000Y-102973333D01*
X96989619Y-102925714D01*
X97084857Y-102878095D01*
X97180095Y-102878095D01*
X97322952Y-102925714D01*
X97894380Y-103497142D01*
X97894380Y-102878095D01*
X81224380Y-70842095D02*
X80224380Y-70842095D01*
X80224380Y-70604000D01*
X80272000Y-70461142D01*
X80367238Y-70365904D01*
X80462476Y-70318285D01*
X80652952Y-70270666D01*
X80795809Y-70270666D01*
X80986285Y-70318285D01*
X81081523Y-70365904D01*
X81176761Y-70461142D01*
X81224380Y-70604000D01*
X81224380Y-70842095D01*
X80319619Y-69889714D02*
X80272000Y-69842095D01*
X80224380Y-69746857D01*
X80224380Y-69508761D01*
X80272000Y-69413523D01*
X80319619Y-69365904D01*
X80414857Y-69318285D01*
X80510095Y-69318285D01*
X80652952Y-69365904D01*
X81224380Y-69937333D01*
X81224380Y-69318285D01*
X83589904Y-68397380D02*
X83589904Y-67397380D01*
X83828000Y-67397380D01*
X83970857Y-67445000D01*
X84066095Y-67540238D01*
X84113714Y-67635476D01*
X84161333Y-67825952D01*
X84161333Y-67968809D01*
X84113714Y-68159285D01*
X84066095Y-68254523D01*
X83970857Y-68349761D01*
X83828000Y-68397380D01*
X83589904Y-68397380D01*
X84494666Y-67397380D02*
X85113714Y-67397380D01*
X84780380Y-67778333D01*
X84923238Y-67778333D01*
X85018476Y-67825952D01*
X85066095Y-67873571D01*
X85113714Y-67968809D01*
X85113714Y-68206904D01*
X85066095Y-68302142D01*
X85018476Y-68349761D01*
X84923238Y-68397380D01*
X84637523Y-68397380D01*
X84542285Y-68349761D01*
X84494666Y-68302142D01*
X85621904Y-68270380D02*
X85621904Y-67270380D01*
X85860000Y-67270380D01*
X86002857Y-67318000D01*
X86098095Y-67413238D01*
X86145714Y-67508476D01*
X86193333Y-67698952D01*
X86193333Y-67841809D01*
X86145714Y-68032285D01*
X86098095Y-68127523D01*
X86002857Y-68222761D01*
X85860000Y-68270380D01*
X85621904Y-68270380D01*
X87050476Y-67603714D02*
X87050476Y-68270380D01*
X86812380Y-67222761D02*
X86574285Y-67937047D01*
X87193333Y-67937047D01*
X87653904Y-68270380D02*
X87653904Y-67270380D01*
X87892000Y-67270380D01*
X88034857Y-67318000D01*
X88130095Y-67413238D01*
X88177714Y-67508476D01*
X88225333Y-67698952D01*
X88225333Y-67841809D01*
X88177714Y-68032285D01*
X88130095Y-68127523D01*
X88034857Y-68222761D01*
X87892000Y-68270380D01*
X87653904Y-68270380D01*
X89130095Y-67270380D02*
X88653904Y-67270380D01*
X88606285Y-67746571D01*
X88653904Y-67698952D01*
X88749142Y-67651333D01*
X88987238Y-67651333D01*
X89082476Y-67698952D01*
X89130095Y-67746571D01*
X89177714Y-67841809D01*
X89177714Y-68079904D01*
X89130095Y-68175142D01*
X89082476Y-68222761D01*
X88987238Y-68270380D01*
X88749142Y-68270380D01*
X88653904Y-68222761D01*
X88606285Y-68175142D01*
X93900666Y-106354571D02*
X93567333Y-106354571D01*
X93567333Y-106878380D02*
X93567333Y-105878380D01*
X94043523Y-105878380D01*
X94948285Y-106878380D02*
X94376857Y-106878380D01*
X94662571Y-106878380D02*
X94662571Y-105878380D01*
X94567333Y-106021238D01*
X94472095Y-106116476D01*
X94376857Y-106164095D01*
X88566666Y-99552380D02*
X88566666Y-100266666D01*
X88519047Y-100409523D01*
X88423809Y-100504761D01*
X88280952Y-100552380D01*
X88185714Y-100552380D01*
X88995238Y-99647619D02*
X89042857Y-99600000D01*
X89138095Y-99552380D01*
X89376190Y-99552380D01*
X89471428Y-99600000D01*
X89519047Y-99647619D01*
X89566666Y-99742857D01*
X89566666Y-99838095D01*
X89519047Y-99980952D01*
X88947619Y-100552380D01*
X89566666Y-100552380D01*
X96972380Y-95289666D02*
X96496190Y-95623000D01*
X96972380Y-95861095D02*
X95972380Y-95861095D01*
X95972380Y-95480142D01*
X96020000Y-95384904D01*
X96067619Y-95337285D01*
X96162857Y-95289666D01*
X96305714Y-95289666D01*
X96400952Y-95337285D01*
X96448571Y-95384904D01*
X96496190Y-95480142D01*
X96496190Y-95861095D01*
X95972380Y-94956333D02*
X95972380Y-94337285D01*
X96353333Y-94670619D01*
X96353333Y-94527761D01*
X96400952Y-94432523D01*
X96448571Y-94384904D01*
X96543809Y-94337285D01*
X96781904Y-94337285D01*
X96877142Y-94384904D01*
X96924761Y-94432523D01*
X96972380Y-94527761D01*
X96972380Y-94813476D01*
X96924761Y-94908714D01*
X96877142Y-94956333D01*
X82129333Y-75890380D02*
X81796000Y-75414190D01*
X81557904Y-75890380D02*
X81557904Y-74890380D01*
X81938857Y-74890380D01*
X82034095Y-74938000D01*
X82081714Y-74985619D01*
X82129333Y-75080857D01*
X82129333Y-75223714D01*
X82081714Y-75318952D01*
X82034095Y-75366571D01*
X81938857Y-75414190D01*
X81557904Y-75414190D01*
X82986476Y-75223714D02*
X82986476Y-75890380D01*
X82748380Y-74842761D02*
X82510285Y-75557047D01*
X83129333Y-75557047D01*
X84034333Y-75890380D02*
X83701000Y-75414190D01*
X83462904Y-75890380D02*
X83462904Y-74890380D01*
X83843857Y-74890380D01*
X83939095Y-74938000D01*
X83986714Y-74985619D01*
X84034333Y-75080857D01*
X84034333Y-75223714D01*
X83986714Y-75318952D01*
X83939095Y-75366571D01*
X83843857Y-75414190D01*
X83462904Y-75414190D01*
X84939095Y-74890380D02*
X84462904Y-74890380D01*
X84415285Y-75366571D01*
X84462904Y-75318952D01*
X84558142Y-75271333D01*
X84796238Y-75271333D01*
X84891476Y-75318952D01*
X84939095Y-75366571D01*
X84986714Y-75461809D01*
X84986714Y-75699904D01*
X84939095Y-75795142D01*
X84891476Y-75842761D01*
X84796238Y-75890380D01*
X84558142Y-75890380D01*
X84462904Y-75842761D01*
X84415285Y-75795142D01*
X86193333Y-75890380D02*
X85860000Y-75414190D01*
X85621904Y-75890380D02*
X85621904Y-74890380D01*
X86002857Y-74890380D01*
X86098095Y-74938000D01*
X86145714Y-74985619D01*
X86193333Y-75080857D01*
X86193333Y-75223714D01*
X86145714Y-75318952D01*
X86098095Y-75366571D01*
X86002857Y-75414190D01*
X85621904Y-75414190D01*
X87050476Y-74890380D02*
X86860000Y-74890380D01*
X86764761Y-74938000D01*
X86717142Y-74985619D01*
X86621904Y-75128476D01*
X86574285Y-75318952D01*
X86574285Y-75699904D01*
X86621904Y-75795142D01*
X86669523Y-75842761D01*
X86764761Y-75890380D01*
X86955238Y-75890380D01*
X87050476Y-75842761D01*
X87098095Y-75795142D01*
X87145714Y-75699904D01*
X87145714Y-75461809D01*
X87098095Y-75366571D01*
X87050476Y-75318952D01*
X86955238Y-75271333D01*
X86764761Y-75271333D01*
X86669523Y-75318952D01*
X86621904Y-75366571D01*
X86574285Y-75461809D01*
X88225333Y-75890380D02*
X87892000Y-75414190D01*
X87653904Y-75890380D02*
X87653904Y-74890380D01*
X88034857Y-74890380D01*
X88130095Y-74938000D01*
X88177714Y-74985619D01*
X88225333Y-75080857D01*
X88225333Y-75223714D01*
X88177714Y-75318952D01*
X88130095Y-75366571D01*
X88034857Y-75414190D01*
X87653904Y-75414190D01*
X88558666Y-74890380D02*
X89225333Y-74890380D01*
X88796761Y-75890380D01*
X92018267Y-85165030D02*
X92119282Y-84592610D01*
X91614206Y-84760969D02*
X92321312Y-84053862D01*
X92590687Y-84323236D01*
X92624358Y-84424251D01*
X92624358Y-84491595D01*
X92590687Y-84592610D01*
X92489671Y-84693625D01*
X92388656Y-84727297D01*
X92321312Y-84727297D01*
X92220297Y-84693625D01*
X91950923Y-84424251D01*
X92826389Y-85165030D02*
X92792717Y-85064015D01*
X92792717Y-84996671D01*
X92826389Y-84895656D01*
X92860061Y-84861984D01*
X92961076Y-84828312D01*
X93028419Y-84828312D01*
X93129435Y-84861984D01*
X93264122Y-84996671D01*
X93297793Y-85097687D01*
X93297793Y-85165030D01*
X93264122Y-85266045D01*
X93230450Y-85299717D01*
X93129435Y-85333389D01*
X93062091Y-85333389D01*
X92961076Y-85299717D01*
X92826389Y-85165030D01*
X92725374Y-85131358D01*
X92658030Y-85131358D01*
X92557015Y-85165030D01*
X92422328Y-85299717D01*
X92388656Y-85400732D01*
X92388656Y-85468076D01*
X92422328Y-85569091D01*
X92557015Y-85703778D01*
X92658030Y-85737450D01*
X92725374Y-85737450D01*
X92826389Y-85703778D01*
X92961076Y-85569091D01*
X92994748Y-85468076D01*
X92994748Y-85400732D01*
X92961076Y-85299717D01*
X91130380Y-66174857D02*
X90654190Y-66508190D01*
X91130380Y-66746285D02*
X90130380Y-66746285D01*
X90130380Y-66365333D01*
X90178000Y-66270095D01*
X90225619Y-66222476D01*
X90320857Y-66174857D01*
X90463714Y-66174857D01*
X90558952Y-66222476D01*
X90606571Y-66270095D01*
X90654190Y-66365333D01*
X90654190Y-66746285D01*
X91130380Y-65222476D02*
X91130380Y-65793904D01*
X91130380Y-65508190D02*
X90130380Y-65508190D01*
X90273238Y-65603428D01*
X90368476Y-65698666D01*
X90416095Y-65793904D01*
X90130380Y-64603428D02*
X90130380Y-64508190D01*
X90178000Y-64412952D01*
X90225619Y-64365333D01*
X90320857Y-64317714D01*
X90511333Y-64270095D01*
X90749428Y-64270095D01*
X90939904Y-64317714D01*
X91035142Y-64365333D01*
X91082761Y-64412952D01*
X91130380Y-64508190D01*
X91130380Y-64603428D01*
X91082761Y-64698666D01*
X91035142Y-64746285D01*
X90939904Y-64793904D01*
X90749428Y-64841523D01*
X90511333Y-64841523D01*
X90320857Y-64793904D01*
X90225619Y-64746285D01*
X90178000Y-64698666D01*
X90130380Y-64603428D01*
X88748477Y-92165026D02*
X88176057Y-92737446D01*
X88142385Y-92838461D01*
X88142385Y-92905805D01*
X88176057Y-93006820D01*
X88310744Y-93141507D01*
X88411759Y-93175179D01*
X88479103Y-93175179D01*
X88580118Y-93141507D01*
X89152538Y-92569087D01*
X89421912Y-92838461D02*
X89859644Y-93276194D01*
X89354568Y-93309866D01*
X89455583Y-93410881D01*
X89489255Y-93511896D01*
X89489255Y-93579240D01*
X89455583Y-93680255D01*
X89287225Y-93848614D01*
X89186209Y-93882286D01*
X89118866Y-93882286D01*
X89017851Y-93848614D01*
X88815820Y-93646583D01*
X88782148Y-93545568D01*
X88782148Y-93478225D01*
X80494190Y-79978190D02*
X80970380Y-79978190D01*
X79970380Y-80311523D02*
X80494190Y-79978190D01*
X79970380Y-79644857D01*
X80970380Y-78787714D02*
X80970380Y-79359142D01*
X80970380Y-79073428D02*
X79970380Y-79073428D01*
X80113238Y-79168666D01*
X80208476Y-79263904D01*
X80256095Y-79359142D01*
X81942446Y-84647880D02*
X82279164Y-84984598D01*
X81336355Y-84513193D02*
X81942446Y-84647880D01*
X81807759Y-84041789D01*
X82077133Y-83907102D02*
X82077133Y-83839758D01*
X82110805Y-83738743D01*
X82279164Y-83570384D01*
X82380179Y-83536712D01*
X82447522Y-83536712D01*
X82548538Y-83570384D01*
X82615881Y-83637728D01*
X82683225Y-83772415D01*
X82683225Y-84580537D01*
X83120957Y-84142804D01*
M02*
