%TF.GenerationSoftware,KiCad,Pcbnew,(5.0.2)-1*%
%TF.CreationDate,2020-12-10T22:03:50+01:00*%
%TF.ProjectId,canduino,63616e64-7569-46e6-9f2e-6b696361645f,rev?*%
%TF.SameCoordinates,Original*%
%TF.FileFunction,Legend,Bot*%
%TF.FilePolarity,Positive*%
%FSLAX46Y46*%
G04 Gerber Fmt 4.6, Leading zero omitted, Abs format (unit mm)*
G04 Created by KiCad (PCBNEW (5.0.2)-1) date 10.12.2020 22:03:50*
%MOMM*%
%LPD*%
G01*
G04 APERTURE LIST*
%ADD10C,0.200000*%
%ADD11C,0.120000*%
%ADD12C,0.150000*%
G04 APERTURE END LIST*
D10*
X86659753Y-68148200D02*
G75*
G03X86659753Y-68148200I-290594J0D01*
G01*
X86723253Y-88506300D02*
G75*
G03X86723253Y-88506300I-290594J0D01*
G01*
X87561453Y-100647500D02*
G75*
G03X87561453Y-100647500I-290594J0D01*
G01*
X76708000Y-63500000D02*
X101092000Y-63500000D01*
X76708000Y-107188000D02*
X76708000Y-63500000D01*
X101092000Y-107188000D02*
X76708000Y-107188000D01*
X101092000Y-63500000D02*
X101092000Y-107188000D01*
D11*
X97730000Y-105470000D02*
X99060000Y-105470000D01*
X97730000Y-104140000D02*
X97730000Y-105470000D01*
X97730000Y-102870000D02*
X100390000Y-102870000D01*
X100390000Y-102870000D02*
X100390000Y-67250000D01*
X97730000Y-102870000D02*
X97730000Y-67250000D01*
X97730000Y-67250000D02*
X100390000Y-67250000D01*
X80070000Y-105470000D02*
X77410000Y-105470000D01*
X80070000Y-69850000D02*
X80070000Y-105470000D01*
X77410000Y-69850000D02*
X77410000Y-105470000D01*
X80070000Y-69850000D02*
X77410000Y-69850000D01*
X80070000Y-68580000D02*
X80070000Y-67250000D01*
X80070000Y-67250000D02*
X78740000Y-67250000D01*
X95706000Y-75188578D02*
X95706000Y-74671422D01*
X94286000Y-75188578D02*
X94286000Y-74671422D01*
X96522000Y-100518279D02*
X96522000Y-100192721D01*
X95502000Y-100518279D02*
X95502000Y-100192721D01*
X81840000Y-102611422D02*
X81840000Y-103128578D01*
X83260000Y-102611422D02*
X83260000Y-103128578D01*
X96214000Y-96007422D02*
X96214000Y-96524578D01*
X94794000Y-96007422D02*
X94794000Y-96524578D01*
X95502000Y-103977221D02*
X95502000Y-104302779D01*
X96522000Y-103977221D02*
X96522000Y-104302779D01*
X82806000Y-97627221D02*
X82806000Y-97952779D01*
X81786000Y-97627221D02*
X81786000Y-97952779D01*
X92766000Y-105140000D02*
X92766000Y-102455000D01*
X92766000Y-102455000D02*
X94686000Y-102455000D01*
X94686000Y-102455000D02*
X94686000Y-105140000D01*
X94994000Y-92872779D02*
X94994000Y-92547221D01*
X96014000Y-92872779D02*
X96014000Y-92547221D01*
X92458000Y-75092779D02*
X92458000Y-74767221D01*
X91438000Y-75092779D02*
X91438000Y-74767221D01*
X81786000Y-93309221D02*
X81786000Y-93634779D01*
X82806000Y-93309221D02*
X82806000Y-93634779D01*
D12*
X85025000Y-89770000D02*
X85025000Y-89520000D01*
X92775000Y-89770000D02*
X92775000Y-89425000D01*
X92775000Y-77870000D02*
X92775000Y-78215000D01*
X85025000Y-77870000D02*
X85025000Y-78215000D01*
X85025000Y-89770000D02*
X92775000Y-89770000D01*
X85025000Y-77870000D02*
X92775000Y-77870000D01*
X85025000Y-89520000D02*
X83200000Y-89520000D01*
X85301000Y-69377000D02*
X85301000Y-69327000D01*
X89451000Y-69377000D02*
X89451000Y-69232000D01*
X89451000Y-64227000D02*
X89451000Y-64372000D01*
X85301000Y-64227000D02*
X85301000Y-64372000D01*
X85301000Y-69377000D02*
X89451000Y-69377000D01*
X85301000Y-64227000D02*
X89451000Y-64227000D01*
X85301000Y-69327000D02*
X83901000Y-69327000D01*
D11*
X83561000Y-77070000D02*
X83561000Y-75810000D01*
X83561000Y-70250000D02*
X83561000Y-71510000D01*
X87321000Y-77070000D02*
X83561000Y-77070000D01*
X89571000Y-70250000D02*
X83561000Y-70250000D01*
D12*
X86025000Y-101845000D02*
X86025000Y-101270000D01*
X91775000Y-101845000D02*
X91775000Y-101195000D01*
X91775000Y-91195000D02*
X91775000Y-91845000D01*
X86025000Y-91195000D02*
X86025000Y-91845000D01*
X86025000Y-101845000D02*
X91775000Y-101845000D01*
X86025000Y-91195000D02*
X91775000Y-91195000D01*
X86025000Y-101270000D02*
X84425000Y-101270000D01*
X97003142Y-74763333D02*
X97050761Y-74715714D01*
X97098380Y-74572857D01*
X97098380Y-74477619D01*
X97050761Y-74334761D01*
X96955523Y-74239523D01*
X96860285Y-74191904D01*
X96669809Y-74144285D01*
X96526952Y-74144285D01*
X96336476Y-74191904D01*
X96241238Y-74239523D01*
X96146000Y-74334761D01*
X96098380Y-74477619D01*
X96098380Y-74572857D01*
X96146000Y-74715714D01*
X96193619Y-74763333D01*
X97098380Y-75715714D02*
X97098380Y-75144285D01*
X97098380Y-75430000D02*
X96098380Y-75430000D01*
X96241238Y-75334761D01*
X96336476Y-75239523D01*
X96384095Y-75144285D01*
X94845142Y-100290333D02*
X94892761Y-100242714D01*
X94940380Y-100099857D01*
X94940380Y-100004619D01*
X94892761Y-99861761D01*
X94797523Y-99766523D01*
X94702285Y-99718904D01*
X94511809Y-99671285D01*
X94368952Y-99671285D01*
X94178476Y-99718904D01*
X94083238Y-99766523D01*
X93988000Y-99861761D01*
X93940380Y-100004619D01*
X93940380Y-100099857D01*
X93988000Y-100242714D01*
X94035619Y-100290333D01*
X93940380Y-101195095D02*
X93940380Y-100718904D01*
X94416571Y-100671285D01*
X94368952Y-100718904D01*
X94321333Y-100814142D01*
X94321333Y-101052238D01*
X94368952Y-101147476D01*
X94416571Y-101195095D01*
X94511809Y-101242714D01*
X94749904Y-101242714D01*
X94845142Y-101195095D01*
X94892761Y-101147476D01*
X94940380Y-101052238D01*
X94940380Y-100814142D01*
X94892761Y-100718904D01*
X94845142Y-100671285D01*
X81257142Y-102703333D02*
X81304761Y-102655714D01*
X81352380Y-102512857D01*
X81352380Y-102417619D01*
X81304761Y-102274761D01*
X81209523Y-102179523D01*
X81114285Y-102131904D01*
X80923809Y-102084285D01*
X80780952Y-102084285D01*
X80590476Y-102131904D01*
X80495238Y-102179523D01*
X80400000Y-102274761D01*
X80352380Y-102417619D01*
X80352380Y-102512857D01*
X80400000Y-102655714D01*
X80447619Y-102703333D01*
X80352380Y-103560476D02*
X80352380Y-103370000D01*
X80400000Y-103274761D01*
X80447619Y-103227142D01*
X80590476Y-103131904D01*
X80780952Y-103084285D01*
X81161904Y-103084285D01*
X81257142Y-103131904D01*
X81304761Y-103179523D01*
X81352380Y-103274761D01*
X81352380Y-103465238D01*
X81304761Y-103560476D01*
X81257142Y-103608095D01*
X81161904Y-103655714D01*
X80923809Y-103655714D01*
X80828571Y-103608095D01*
X80780952Y-103560476D01*
X80733333Y-103465238D01*
X80733333Y-103274761D01*
X80780952Y-103179523D01*
X80828571Y-103131904D01*
X80923809Y-103084285D01*
X94591142Y-96099333D02*
X94638761Y-96051714D01*
X94686380Y-95908857D01*
X94686380Y-95813619D01*
X94638761Y-95670761D01*
X94543523Y-95575523D01*
X94448285Y-95527904D01*
X94257809Y-95480285D01*
X94114952Y-95480285D01*
X93924476Y-95527904D01*
X93829238Y-95575523D01*
X93734000Y-95670761D01*
X93686380Y-95813619D01*
X93686380Y-95908857D01*
X93734000Y-96051714D01*
X93781619Y-96099333D01*
X93686380Y-96432666D02*
X93686380Y-97099333D01*
X94686380Y-96670761D01*
X96908857Y-106783142D02*
X96956476Y-106830761D01*
X97099333Y-106878380D01*
X97194571Y-106878380D01*
X97337428Y-106830761D01*
X97432666Y-106735523D01*
X97480285Y-106640285D01*
X97527904Y-106449809D01*
X97527904Y-106306952D01*
X97480285Y-106116476D01*
X97432666Y-106021238D01*
X97337428Y-105926000D01*
X97194571Y-105878380D01*
X97099333Y-105878380D01*
X96956476Y-105926000D01*
X96908857Y-105973619D01*
X95956476Y-106878380D02*
X96527904Y-106878380D01*
X96242190Y-106878380D02*
X96242190Y-105878380D01*
X96337428Y-106021238D01*
X96432666Y-106116476D01*
X96527904Y-106164095D01*
X95004095Y-106878380D02*
X95575523Y-106878380D01*
X95289809Y-106878380D02*
X95289809Y-105878380D01*
X95385047Y-106021238D01*
X95480285Y-106116476D01*
X95575523Y-106164095D01*
X81223142Y-97147142D02*
X81270761Y-97099523D01*
X81318380Y-96956666D01*
X81318380Y-96861428D01*
X81270761Y-96718571D01*
X81175523Y-96623333D01*
X81080285Y-96575714D01*
X80889809Y-96528095D01*
X80746952Y-96528095D01*
X80556476Y-96575714D01*
X80461238Y-96623333D01*
X80366000Y-96718571D01*
X80318380Y-96861428D01*
X80318380Y-96956666D01*
X80366000Y-97099523D01*
X80413619Y-97147142D01*
X81318380Y-98099523D02*
X81318380Y-97528095D01*
X81318380Y-97813809D02*
X80318380Y-97813809D01*
X80461238Y-97718571D01*
X80556476Y-97623333D01*
X80604095Y-97528095D01*
X80318380Y-98432857D02*
X80318380Y-99051904D01*
X80699333Y-98718571D01*
X80699333Y-98861428D01*
X80746952Y-98956666D01*
X80794571Y-99004285D01*
X80889809Y-99051904D01*
X81127904Y-99051904D01*
X81223142Y-99004285D01*
X81270761Y-98956666D01*
X81318380Y-98861428D01*
X81318380Y-98575714D01*
X81270761Y-98480476D01*
X81223142Y-98432857D01*
X94337095Y-106878380D02*
X94337095Y-105878380D01*
X94099000Y-105878380D01*
X93956142Y-105926000D01*
X93860904Y-106021238D01*
X93813285Y-106116476D01*
X93765666Y-106306952D01*
X93765666Y-106449809D01*
X93813285Y-106640285D01*
X93860904Y-106735523D01*
X93956142Y-106830761D01*
X94099000Y-106878380D01*
X94337095Y-106878380D01*
X92813285Y-106878380D02*
X93384714Y-106878380D01*
X93099000Y-106878380D02*
X93099000Y-105878380D01*
X93194238Y-106021238D01*
X93289476Y-106116476D01*
X93384714Y-106164095D01*
X97386380Y-92543333D02*
X96910190Y-92210000D01*
X97386380Y-91971904D02*
X96386380Y-91971904D01*
X96386380Y-92352857D01*
X96434000Y-92448095D01*
X96481619Y-92495714D01*
X96576857Y-92543333D01*
X96719714Y-92543333D01*
X96814952Y-92495714D01*
X96862571Y-92448095D01*
X96910190Y-92352857D01*
X96910190Y-91971904D01*
X97386380Y-93495714D02*
X97386380Y-92924285D01*
X97386380Y-93210000D02*
X96386380Y-93210000D01*
X96529238Y-93114761D01*
X96624476Y-93019523D01*
X96672095Y-92924285D01*
X93830380Y-74763333D02*
X93354190Y-74430000D01*
X93830380Y-74191904D02*
X92830380Y-74191904D01*
X92830380Y-74572857D01*
X92878000Y-74668095D01*
X92925619Y-74715714D01*
X93020857Y-74763333D01*
X93163714Y-74763333D01*
X93258952Y-74715714D01*
X93306571Y-74668095D01*
X93354190Y-74572857D01*
X93354190Y-74191904D01*
X92925619Y-75144285D02*
X92878000Y-75191904D01*
X92830380Y-75287142D01*
X92830380Y-75525238D01*
X92878000Y-75620476D01*
X92925619Y-75668095D01*
X93020857Y-75715714D01*
X93116095Y-75715714D01*
X93258952Y-75668095D01*
X93830380Y-75096666D01*
X93830380Y-75715714D01*
X81318380Y-93305333D02*
X80842190Y-92972000D01*
X81318380Y-92733904D02*
X80318380Y-92733904D01*
X80318380Y-93114857D01*
X80366000Y-93210095D01*
X80413619Y-93257714D01*
X80508857Y-93305333D01*
X80651714Y-93305333D01*
X80746952Y-93257714D01*
X80794571Y-93210095D01*
X80842190Y-93114857D01*
X80842190Y-92733904D01*
X81318380Y-93781523D02*
X81318380Y-93972000D01*
X81270761Y-94067238D01*
X81223142Y-94114857D01*
X81080285Y-94210095D01*
X80889809Y-94257714D01*
X80508857Y-94257714D01*
X80413619Y-94210095D01*
X80366000Y-94162476D01*
X80318380Y-94067238D01*
X80318380Y-93876761D01*
X80366000Y-93781523D01*
X80413619Y-93733904D01*
X80508857Y-93686285D01*
X80746952Y-93686285D01*
X80842190Y-93733904D01*
X80889809Y-93781523D01*
X80937428Y-93876761D01*
X80937428Y-94067238D01*
X80889809Y-94162476D01*
X80842190Y-94210095D01*
X80746952Y-94257714D01*
X89788904Y-83526380D02*
X89788904Y-84335904D01*
X89741285Y-84431142D01*
X89693666Y-84478761D01*
X89598428Y-84526380D01*
X89407952Y-84526380D01*
X89312714Y-84478761D01*
X89265095Y-84431142D01*
X89217476Y-84335904D01*
X89217476Y-83526380D01*
X88217476Y-84526380D02*
X88788904Y-84526380D01*
X88503190Y-84526380D02*
X88503190Y-83526380D01*
X88598428Y-83669238D01*
X88693666Y-83764476D01*
X88788904Y-83812095D01*
X88391904Y-66381380D02*
X88391904Y-67190904D01*
X88344285Y-67286142D01*
X88296666Y-67333761D01*
X88201428Y-67381380D01*
X88010952Y-67381380D01*
X87915714Y-67333761D01*
X87868095Y-67286142D01*
X87820476Y-67190904D01*
X87820476Y-66381380D01*
X87391904Y-66476619D02*
X87344285Y-66429000D01*
X87249047Y-66381380D01*
X87010952Y-66381380D01*
X86915714Y-66429000D01*
X86868095Y-66476619D01*
X86820476Y-66571857D01*
X86820476Y-66667095D01*
X86868095Y-66809952D01*
X87439523Y-67381380D01*
X86820476Y-67381380D01*
X84923380Y-72898095D02*
X85732904Y-72898095D01*
X85828142Y-72945714D01*
X85875761Y-72993333D01*
X85923380Y-73088571D01*
X85923380Y-73279047D01*
X85875761Y-73374285D01*
X85828142Y-73421904D01*
X85732904Y-73469523D01*
X84923380Y-73469523D01*
X85256714Y-74374285D02*
X85923380Y-74374285D01*
X84875761Y-74136190D02*
X85590047Y-73898095D01*
X85590047Y-74517142D01*
X89661904Y-95972380D02*
X89661904Y-96781904D01*
X89614285Y-96877142D01*
X89566666Y-96924761D01*
X89471428Y-96972380D01*
X89280952Y-96972380D01*
X89185714Y-96924761D01*
X89138095Y-96877142D01*
X89090476Y-96781904D01*
X89090476Y-95972380D01*
X88138095Y-95972380D02*
X88614285Y-95972380D01*
X88661904Y-96448571D01*
X88614285Y-96400952D01*
X88519047Y-96353333D01*
X88280952Y-96353333D01*
X88185714Y-96400952D01*
X88138095Y-96448571D01*
X88090476Y-96543809D01*
X88090476Y-96781904D01*
X88138095Y-96877142D01*
X88185714Y-96924761D01*
X88280952Y-96972380D01*
X88519047Y-96972380D01*
X88614285Y-96924761D01*
X88661904Y-96877142D01*
M02*
