%TF.GenerationSoftware,KiCad,Pcbnew,(5.0.2)-1*%
%TF.CreationDate,2020-12-10T22:03:50+01:00*%
%TF.ProjectId,canduino,63616e64-7569-46e6-9f2e-6b696361645f,rev?*%
%TF.SameCoordinates,Original*%
%TF.FileFunction,Copper,L2,Inr*%
%TF.FilePolarity,Positive*%
%FSLAX46Y46*%
G04 Gerber Fmt 4.6, Leading zero omitted, Abs format (unit mm)*
G04 Created by KiCad (PCBNEW (5.0.2)-1) date 10.12.2020 22:03:50*
%MOMM*%
%LPD*%
G01*
G04 APERTURE LIST*
%ADD10C,0.200000*%
%ADD11O,1.700000X1.700000*%
%ADD12R,1.700000X1.700000*%
%ADD13C,0.600000*%
%ADD14O,0.450000X1.450000*%
%ADD15C,0.800000*%
%ADD16C,0.250000*%
G04 APERTURE END LIST*
D10*
X76708000Y-63500000D02*
X101092000Y-63500000D01*
X76708000Y-107188000D02*
X76708000Y-63500000D01*
X101092000Y-107188000D02*
X76708000Y-107188000D01*
X101092000Y-63500000D02*
X101092000Y-107188000D01*
D11*
X99060000Y-68580000D03*
X99060000Y-71120000D03*
X99060000Y-73660000D03*
X99060000Y-76200000D03*
X99060000Y-78740000D03*
X99060000Y-81280000D03*
X99060000Y-83820000D03*
X99060000Y-86360000D03*
X99060000Y-88900000D03*
X99060000Y-91440000D03*
X99060000Y-93980000D03*
X99060000Y-96520000D03*
X99060000Y-99060000D03*
X99060000Y-101600000D03*
D12*
X99060000Y-104140000D03*
X78740000Y-68580000D03*
D11*
X78740000Y-71120000D03*
X78740000Y-73660000D03*
X78740000Y-76200000D03*
X78740000Y-78740000D03*
X78740000Y-81280000D03*
X78740000Y-83820000D03*
X78740000Y-86360000D03*
X78740000Y-88900000D03*
X78740000Y-91440000D03*
X78740000Y-93980000D03*
X78740000Y-96520000D03*
X78740000Y-99060000D03*
X78740000Y-101600000D03*
X78740000Y-104140000D03*
D12*
X92710000Y-66040000D03*
D11*
X95250000Y-66040000D03*
X92710000Y-68580000D03*
X95250000Y-68580000D03*
X92710000Y-71120000D03*
X95250000Y-71120000D03*
D13*
X86950000Y-103395000D03*
X90850000Y-103395000D03*
D14*
X86075000Y-105545000D03*
X91725000Y-105545000D03*
D12*
X78740000Y-66040000D03*
D11*
X81280000Y-66040000D03*
D15*
X95504000Y-76708000D03*
X85890100Y-80721200D03*
X83058000Y-81352000D03*
X85189060Y-78714600D03*
X84678520Y-67409060D03*
X82278220Y-69301360D03*
X84277200Y-69623940D03*
X86367620Y-69298820D03*
X88447880Y-69364860D03*
X89514680Y-70860920D03*
X91587320Y-75857100D03*
X94942660Y-73936860D03*
X89161620Y-85120480D03*
X80645000Y-91186000D03*
X96047560Y-104922320D03*
X88953340Y-105529380D03*
X91003120Y-94701360D03*
X81026000Y-96647000D03*
X87718900Y-90601800D03*
X83972400Y-89839800D03*
X90439240Y-102283260D03*
X82550000Y-104407500D03*
X83738720Y-97121980D03*
X95250000Y-97395500D03*
X90970100Y-100152200D03*
X96418400Y-99136200D03*
X92786200Y-74980800D03*
X85712300Y-76492100D03*
X82169000Y-79301999D03*
X84693760Y-66136520D03*
X84074000Y-75438000D03*
X90309700Y-72898000D03*
X95415100Y-88074500D03*
X87553800Y-91554300D03*
X95481140Y-93525340D03*
X96799400Y-94983300D03*
X83439000Y-98679000D03*
X90563700Y-97579180D03*
X92329000Y-102997000D03*
X82550000Y-101932500D03*
X83030010Y-90868500D03*
X81280000Y-89740500D03*
X82599998Y-87795148D03*
X93726000Y-106172000D03*
X95123000Y-102743000D03*
X94361000Y-101346000D03*
X87927729Y-98129137D03*
X89009220Y-87038180D03*
X89695020Y-95730060D03*
X89382600Y-92240100D03*
X91517382Y-87582922D03*
X91846400Y-84632800D03*
X87274400Y-79027020D03*
X95267780Y-85676740D03*
X80899000Y-97663000D03*
X97155000Y-86525100D03*
X96842580Y-91338400D03*
X90944700Y-93738700D03*
X88953340Y-99001580D03*
X88975000Y-100014234D03*
X88612980Y-67940001D03*
X91191080Y-66144140D03*
X80909160Y-76979780D03*
X77824673Y-105949190D03*
X77431900Y-102666800D03*
X86352380Y-75763120D03*
X90909140Y-85488780D03*
X90195400Y-91554300D03*
X81870174Y-93239775D03*
X77985990Y-92741463D03*
X85598000Y-88265000D03*
X84678520Y-64894460D03*
X89598500Y-90805000D03*
X93035120Y-77149960D03*
X94449900Y-98615500D03*
X97028000Y-101092000D03*
X87767160Y-85628480D03*
X82689657Y-84435519D03*
X86448900Y-87261700D03*
X81444847Y-86824567D03*
X100418900Y-98285300D03*
X97548700Y-88036400D03*
X83858100Y-100203000D03*
X80937100Y-99072700D03*
D16*
X94337039Y-77874961D02*
X95504000Y-76708000D01*
X86952137Y-77874961D02*
X94337039Y-77874961D01*
X86521459Y-78305639D02*
X86952137Y-77874961D01*
X86290099Y-80012760D02*
X86521459Y-79781400D01*
X86290099Y-80321201D02*
X86290099Y-80012760D01*
X85890100Y-80721200D02*
X86290099Y-80321201D01*
X86521459Y-79781400D02*
X86521459Y-78305639D01*
X91390618Y-74980800D02*
X92786200Y-74980800D01*
X89879318Y-76492100D02*
X91390618Y-74980800D01*
X85712300Y-76492100D02*
X89879318Y-76492100D01*
X93644720Y-91688920D02*
X93644720Y-88869520D01*
X95481140Y-93525340D02*
X93644720Y-91688920D01*
X97884999Y-77375001D02*
X99060000Y-76200000D01*
X97884999Y-84063556D02*
X97884999Y-77375001D01*
X93644720Y-88869520D02*
X93644720Y-88303835D01*
X96425001Y-67215001D02*
X95250000Y-66040000D01*
X96425001Y-73565001D02*
X96425001Y-67215001D01*
X99060000Y-76200000D02*
X96425001Y-73565001D01*
X85772241Y-67215001D02*
X84693760Y-66136520D01*
X94074999Y-67215001D02*
X85772241Y-67215001D01*
X95250000Y-66040000D02*
X94074999Y-67215001D01*
X84693760Y-66136520D02*
X83003221Y-67827059D01*
X83657440Y-98806000D02*
X83619340Y-98767900D01*
X84938819Y-97179181D02*
X83439000Y-98679000D01*
X90563700Y-97579180D02*
X90163701Y-97179181D01*
X90163701Y-97179181D02*
X84938819Y-97179181D01*
X91129385Y-97579180D02*
X93712565Y-94996000D01*
X90563700Y-97579180D02*
X91129385Y-97579180D01*
X95453200Y-93553280D02*
X95481140Y-93525340D01*
X83003221Y-73801536D02*
X83003221Y-73279000D01*
X84074000Y-74872315D02*
X83003221Y-73801536D01*
X84074000Y-75438000D02*
X84074000Y-74872315D01*
X83003221Y-67827059D02*
X83003221Y-73279000D01*
X83003221Y-73279000D02*
X83003221Y-73453159D01*
X93644720Y-88303835D02*
X93980000Y-87968555D01*
X93980000Y-87968555D02*
X94107000Y-87841555D01*
X92329000Y-99344480D02*
X90563700Y-97579180D01*
X92329000Y-102997000D02*
X92329000Y-99344480D01*
X89909701Y-73297999D02*
X90309700Y-72898000D01*
X84074000Y-75438000D02*
X86214001Y-73297999D01*
X86214001Y-73297999D02*
X89909701Y-73297999D01*
X94642456Y-87674501D02*
X94458255Y-87490300D01*
X95015101Y-87674501D02*
X94642456Y-87674501D01*
X95415100Y-88074500D02*
X95015101Y-87674501D01*
X94107000Y-87841555D02*
X94458255Y-87490300D01*
X94458255Y-87490300D02*
X97884999Y-84063556D01*
X88526178Y-88869520D02*
X93644720Y-88869520D01*
X87093899Y-90301799D02*
X88526178Y-88869520D01*
X87093899Y-91094399D02*
X87093899Y-90301799D01*
X87553800Y-91554300D02*
X87093899Y-91094399D01*
X94010480Y-94996000D02*
X95481140Y-93525340D01*
X93712565Y-94996000D02*
X94010480Y-94996000D01*
X95481140Y-93665040D02*
X96799400Y-94983300D01*
X95481140Y-93525340D02*
X95481140Y-93665040D01*
X95123000Y-104775000D02*
X95123000Y-102743000D01*
X93726000Y-106172000D02*
X95123000Y-104775000D01*
X95123000Y-102108000D02*
X94361000Y-101346000D01*
X95123000Y-102743000D02*
X95123000Y-102108000D01*
X89009220Y-87038180D02*
X88937992Y-86966952D01*
X87630446Y-88416954D02*
X88609221Y-87438179D01*
X84722212Y-91707212D02*
X84722212Y-90247106D01*
X85194301Y-92179301D02*
X84722212Y-91707212D01*
X87853801Y-92179301D02*
X85194301Y-92179301D01*
X88178801Y-91854301D02*
X87853801Y-92179301D01*
X84722212Y-90247106D02*
X86552364Y-88416954D01*
X88178801Y-91259499D02*
X88178801Y-91854301D01*
X89695020Y-95730060D02*
X89695020Y-93089582D01*
X89695020Y-93089582D02*
X91359821Y-91424781D01*
X88609221Y-87438179D02*
X89009220Y-87038180D01*
X91359821Y-91424781D02*
X91359821Y-90728779D01*
X91359821Y-90728779D02*
X90584796Y-89953754D01*
X90584796Y-89953754D02*
X89484546Y-89953754D01*
X86552364Y-88416954D02*
X87630446Y-88416954D01*
X89484546Y-89953754D02*
X88178801Y-91259499D01*
X91280715Y-84632800D02*
X91846400Y-84632800D01*
X90840118Y-84632800D02*
X91280715Y-84632800D01*
X90284139Y-85188779D02*
X90840118Y-84632800D01*
X90284139Y-86349679D02*
X90284139Y-85188779D01*
X91517382Y-87582922D02*
X90284139Y-86349679D01*
X82124698Y-97663000D02*
X83185000Y-96602698D01*
X80899000Y-97663000D02*
X82124698Y-97663000D01*
X83026398Y-96761300D02*
X83185000Y-96602698D01*
X95267780Y-85111055D02*
X95267780Y-85676740D01*
X95267780Y-82808638D02*
X95267780Y-85111055D01*
X90851001Y-78391859D02*
X95267780Y-82808638D01*
X87909561Y-78391859D02*
X90851001Y-78391859D01*
X87274400Y-79027020D02*
X87909561Y-78391859D01*
X90544701Y-94138699D02*
X90944700Y-93738700D01*
X90378119Y-94305281D02*
X90544701Y-94138699D01*
X90378119Y-95971963D02*
X90378119Y-94305281D01*
X89995021Y-96355061D02*
X90378119Y-95971963D01*
X83432637Y-96355061D02*
X89995021Y-96355061D01*
X83185000Y-96602698D02*
X83432637Y-96355061D01*
X90909140Y-85488780D02*
X90985340Y-85488780D01*
X90909140Y-85488780D02*
X91076780Y-85488780D01*
X78049526Y-92804999D02*
X77985990Y-92741463D01*
X81435398Y-92804999D02*
X78049526Y-92804999D01*
X81870174Y-93239775D02*
X81435398Y-92804999D01*
X82270173Y-93639774D02*
X88122626Y-93639774D01*
X81870174Y-93239775D02*
X82270173Y-93639774D01*
X88122626Y-93639774D02*
X88696800Y-93065600D01*
X88696800Y-93065600D02*
X88696800Y-91805810D01*
X88948310Y-91554300D02*
X90195400Y-91554300D01*
X88696800Y-91805810D02*
X88948310Y-91554300D01*
X81553219Y-74510921D02*
X81553219Y-68019761D01*
X81553219Y-68019761D02*
X84678520Y-64894460D01*
X84231480Y-77189182D02*
X81553219Y-74510921D01*
X84231480Y-87464165D02*
X84231480Y-87249000D01*
X85032315Y-88265000D02*
X84231480Y-87464165D01*
X85598000Y-88265000D02*
X85032315Y-88265000D01*
X84231480Y-87249000D02*
X84231480Y-77189182D01*
X96335315Y-101092000D02*
X96462315Y-101092000D01*
X96462315Y-101092000D02*
X97028000Y-101092000D01*
X96360715Y-101092000D02*
X96462315Y-101092000D01*
X94449900Y-99181185D02*
X96360715Y-101092000D01*
X94449900Y-98615500D02*
X94449900Y-99181185D01*
X82067400Y-100203000D02*
X83858100Y-100203000D01*
X80937100Y-99072700D02*
X82067400Y-100203000D01*
M02*
