%TF.GenerationSoftware,KiCad,Pcbnew,(5.0.2)-1*%
%TF.CreationDate,2020-12-10T22:03:50+01:00*%
%TF.ProjectId,canduino,63616e64-7569-46e6-9f2e-6b696361645f,rev?*%
%TF.SameCoordinates,Original*%
%TF.FileFunction,Soldermask,Top*%
%TF.FilePolarity,Negative*%
%FSLAX46Y46*%
G04 Gerber Fmt 4.6, Leading zero omitted, Abs format (unit mm)*
G04 Created by KiCad (PCBNEW (5.0.2)-1) date 10.12.2020 22:03:50*
%MOMM*%
%LPD*%
G01*
G04 APERTURE LIST*
%ADD10C,0.200000*%
%ADD11C,0.100000*%
G04 APERTURE END LIST*
D10*
X76708000Y-63500000D02*
X101092000Y-63500000D01*
X76708000Y-107188000D02*
X76708000Y-63500000D01*
X101092000Y-107188000D02*
X76708000Y-107188000D01*
X101092000Y-63500000D02*
X101092000Y-107188000D01*
D11*
G36*
X89901000Y-106546000D02*
X87899000Y-106546000D01*
X87899000Y-104544000D01*
X89901000Y-104544000D01*
X89901000Y-106546000D01*
X89901000Y-106546000D01*
G37*
G36*
X86129106Y-104772993D02*
X86181127Y-104788774D01*
X86181130Y-104788776D01*
X86181131Y-104788776D01*
X86229079Y-104814404D01*
X86244990Y-104827462D01*
X86271107Y-104848895D01*
X86292802Y-104875332D01*
X86305596Y-104890921D01*
X86331224Y-104938868D01*
X86331226Y-104938872D01*
X86347007Y-104990893D01*
X86351000Y-105031440D01*
X86351000Y-106058560D01*
X86347007Y-106099107D01*
X86331226Y-106151128D01*
X86331224Y-106151131D01*
X86331224Y-106151132D01*
X86305596Y-106199079D01*
X86292037Y-106215600D01*
X86271106Y-106241106D01*
X86245600Y-106262037D01*
X86229079Y-106275596D01*
X86181132Y-106301224D01*
X86181128Y-106301226D01*
X86129107Y-106317007D01*
X86075000Y-106322335D01*
X86020894Y-106317007D01*
X85968873Y-106301226D01*
X85968869Y-106301224D01*
X85920922Y-106275596D01*
X85904401Y-106262037D01*
X85878895Y-106241106D01*
X85857964Y-106215600D01*
X85844405Y-106199079D01*
X85818777Y-106151132D01*
X85818777Y-106151131D01*
X85818775Y-106151128D01*
X85802994Y-106099107D01*
X85799001Y-106058559D01*
X85799000Y-105031441D01*
X85802993Y-104990894D01*
X85818774Y-104938873D01*
X85827020Y-104923446D01*
X85844404Y-104890921D01*
X85857462Y-104875010D01*
X85878895Y-104848893D01*
X85905332Y-104827198D01*
X85920921Y-104814404D01*
X85968868Y-104788776D01*
X85968869Y-104788776D01*
X85968872Y-104788774D01*
X86020893Y-104772993D01*
X86075000Y-104767665D01*
X86129106Y-104772993D01*
X86129106Y-104772993D01*
G37*
G36*
X91779106Y-104772993D02*
X91831127Y-104788774D01*
X91831130Y-104788776D01*
X91831131Y-104788776D01*
X91879079Y-104814404D01*
X91894990Y-104827462D01*
X91921107Y-104848895D01*
X91942802Y-104875332D01*
X91955596Y-104890921D01*
X91981224Y-104938868D01*
X91981226Y-104938872D01*
X91997007Y-104990893D01*
X92001000Y-105031440D01*
X92001000Y-106058560D01*
X91997007Y-106099107D01*
X91981226Y-106151128D01*
X91981224Y-106151131D01*
X91981224Y-106151132D01*
X91955596Y-106199079D01*
X91942037Y-106215600D01*
X91921106Y-106241106D01*
X91895600Y-106262037D01*
X91879079Y-106275596D01*
X91831132Y-106301224D01*
X91831128Y-106301226D01*
X91779107Y-106317007D01*
X91725000Y-106322335D01*
X91670894Y-106317007D01*
X91618873Y-106301226D01*
X91618869Y-106301224D01*
X91570922Y-106275596D01*
X91554401Y-106262037D01*
X91528895Y-106241106D01*
X91507964Y-106215600D01*
X91494405Y-106199079D01*
X91468777Y-106151132D01*
X91468777Y-106151131D01*
X91468775Y-106151128D01*
X91452994Y-106099107D01*
X91449001Y-106058559D01*
X91449000Y-105031441D01*
X91452993Y-104990894D01*
X91468774Y-104938873D01*
X91477020Y-104923446D01*
X91494404Y-104890921D01*
X91507462Y-104875010D01*
X91528895Y-104848893D01*
X91555332Y-104827198D01*
X91570921Y-104814404D01*
X91618868Y-104788776D01*
X91618869Y-104788776D01*
X91618872Y-104788774D01*
X91670893Y-104772993D01*
X91725000Y-104767665D01*
X91779106Y-104772993D01*
X91779106Y-104772993D01*
G37*
G36*
X94691466Y-104543565D02*
X94730137Y-104555296D01*
X94765779Y-104574348D01*
X94797017Y-104599983D01*
X94822652Y-104631221D01*
X94841704Y-104666863D01*
X94853435Y-104705534D01*
X94858000Y-104751888D01*
X94858000Y-105403112D01*
X94853435Y-105449466D01*
X94841704Y-105488137D01*
X94822652Y-105523779D01*
X94797017Y-105555017D01*
X94765779Y-105580652D01*
X94730137Y-105599704D01*
X94691466Y-105611435D01*
X94645112Y-105616000D01*
X93568888Y-105616000D01*
X93522534Y-105611435D01*
X93483863Y-105599704D01*
X93448221Y-105580652D01*
X93416983Y-105555017D01*
X93391348Y-105523779D01*
X93372296Y-105488137D01*
X93360565Y-105449466D01*
X93356000Y-105403112D01*
X93356000Y-104751888D01*
X93360565Y-104705534D01*
X93372296Y-104666863D01*
X93391348Y-104631221D01*
X93416983Y-104599983D01*
X93448221Y-104574348D01*
X93483863Y-104555296D01*
X93522534Y-104543565D01*
X93568888Y-104539000D01*
X94645112Y-104539000D01*
X94691466Y-104543565D01*
X94691466Y-104543565D01*
G37*
G36*
X96391591Y-104443085D02*
X96425569Y-104453393D01*
X96456887Y-104470133D01*
X96484339Y-104492661D01*
X96506867Y-104520113D01*
X96523607Y-104551431D01*
X96533915Y-104585409D01*
X96538000Y-104626890D01*
X96538000Y-105228110D01*
X96533915Y-105269591D01*
X96523607Y-105303569D01*
X96506867Y-105334887D01*
X96484339Y-105362339D01*
X96456887Y-105384867D01*
X96425569Y-105401607D01*
X96391591Y-105411915D01*
X96350110Y-105416000D01*
X95673890Y-105416000D01*
X95632409Y-105411915D01*
X95598431Y-105401607D01*
X95567113Y-105384867D01*
X95539661Y-105362339D01*
X95517133Y-105334887D01*
X95500393Y-105303569D01*
X95490085Y-105269591D01*
X95486000Y-105228110D01*
X95486000Y-104626890D01*
X95490085Y-104585409D01*
X95500393Y-104551431D01*
X95517133Y-104520113D01*
X95539661Y-104492661D01*
X95567113Y-104470133D01*
X95598431Y-104453393D01*
X95632409Y-104443085D01*
X95673890Y-104439000D01*
X96350110Y-104439000D01*
X96391591Y-104443085D01*
X96391591Y-104443085D01*
G37*
G36*
X83621813Y-103698271D02*
X83657605Y-103709129D01*
X83690597Y-103726763D01*
X83719509Y-103750491D01*
X83743237Y-103779403D01*
X83760871Y-103812395D01*
X83771729Y-103848187D01*
X83776000Y-103891554D01*
X83776000Y-104923446D01*
X83771729Y-104966813D01*
X83760871Y-105002605D01*
X83743237Y-105035597D01*
X83719509Y-105064509D01*
X83690597Y-105088237D01*
X83657605Y-105105871D01*
X83621813Y-105116729D01*
X83578446Y-105121000D01*
X81521554Y-105121000D01*
X81478187Y-105116729D01*
X81442395Y-105105871D01*
X81409403Y-105088237D01*
X81380491Y-105064509D01*
X81356763Y-105035597D01*
X81339129Y-105002605D01*
X81328271Y-104966813D01*
X81324000Y-104923446D01*
X81324000Y-103891554D01*
X81328271Y-103848187D01*
X81339129Y-103812395D01*
X81356763Y-103779403D01*
X81380491Y-103750491D01*
X81409403Y-103726763D01*
X81442395Y-103709129D01*
X81478187Y-103698271D01*
X81521554Y-103694000D01*
X83578446Y-103694000D01*
X83621813Y-103698271D01*
X83621813Y-103698271D01*
G37*
G36*
X99961000Y-105041000D02*
X98159000Y-105041000D01*
X98159000Y-103239000D01*
X99961000Y-103239000D01*
X99961000Y-105041000D01*
X99961000Y-105041000D01*
G37*
G36*
X78850443Y-103245519D02*
X78916627Y-103252037D01*
X79029853Y-103286384D01*
X79086467Y-103303557D01*
X79192867Y-103360430D01*
X79242991Y-103387222D01*
X79278729Y-103416552D01*
X79380186Y-103499814D01*
X79459123Y-103596000D01*
X79492778Y-103637009D01*
X79492779Y-103637011D01*
X79576443Y-103793533D01*
X79590842Y-103841000D01*
X79627963Y-103963373D01*
X79645359Y-104140000D01*
X79627963Y-104316627D01*
X79593616Y-104429853D01*
X79576443Y-104486467D01*
X79506210Y-104617861D01*
X79492778Y-104642991D01*
X79463448Y-104678729D01*
X79380186Y-104780186D01*
X79292976Y-104851756D01*
X79242991Y-104892778D01*
X79242989Y-104892779D01*
X79086467Y-104976443D01*
X79038824Y-104990895D01*
X78916627Y-105027963D01*
X78850442Y-105034482D01*
X78784260Y-105041000D01*
X78695740Y-105041000D01*
X78629557Y-105034481D01*
X78563373Y-105027963D01*
X78441176Y-104990895D01*
X78393533Y-104976443D01*
X78237011Y-104892779D01*
X78237009Y-104892778D01*
X78187024Y-104851756D01*
X78099814Y-104780186D01*
X78016552Y-104678729D01*
X77987222Y-104642991D01*
X77973790Y-104617861D01*
X77903557Y-104486467D01*
X77886384Y-104429853D01*
X77852037Y-104316627D01*
X77834641Y-104140000D01*
X77852037Y-103963373D01*
X77889158Y-103841000D01*
X77903557Y-103793533D01*
X77987221Y-103637011D01*
X77987222Y-103637009D01*
X78020877Y-103596000D01*
X78099814Y-103499814D01*
X78201271Y-103416552D01*
X78237009Y-103387222D01*
X78287133Y-103360430D01*
X78393533Y-103303557D01*
X78450147Y-103286384D01*
X78563373Y-103252037D01*
X78629558Y-103245518D01*
X78695740Y-103239000D01*
X78784260Y-103239000D01*
X78850443Y-103245519D01*
X78850443Y-103245519D01*
G37*
G36*
X96391591Y-102868085D02*
X96425569Y-102878393D01*
X96456887Y-102895133D01*
X96484339Y-102917661D01*
X96506867Y-102945113D01*
X96523607Y-102976431D01*
X96533915Y-103010409D01*
X96538000Y-103051890D01*
X96538000Y-103653110D01*
X96533915Y-103694591D01*
X96523607Y-103728569D01*
X96506867Y-103759887D01*
X96484339Y-103787339D01*
X96456887Y-103809867D01*
X96425569Y-103826607D01*
X96391591Y-103836915D01*
X96350110Y-103841000D01*
X95673890Y-103841000D01*
X95632409Y-103836915D01*
X95598431Y-103826607D01*
X95567113Y-103809867D01*
X95539661Y-103787339D01*
X95517133Y-103759887D01*
X95500393Y-103728569D01*
X95490085Y-103694591D01*
X95486000Y-103653110D01*
X95486000Y-103051890D01*
X95490085Y-103010409D01*
X95500393Y-102976431D01*
X95517133Y-102945113D01*
X95539661Y-102917661D01*
X95567113Y-102895133D01*
X95598431Y-102878393D01*
X95632409Y-102868085D01*
X95673890Y-102864000D01*
X96350110Y-102864000D01*
X96391591Y-102868085D01*
X96391591Y-102868085D01*
G37*
G36*
X90451000Y-103005601D02*
X90453402Y-103029987D01*
X90460515Y-103053436D01*
X90472066Y-103075047D01*
X90487612Y-103093989D01*
X90506554Y-103109535D01*
X90528165Y-103121086D01*
X90551614Y-103128199D01*
X90576000Y-103130601D01*
X90600386Y-103128199D01*
X90623835Y-103121086D01*
X90645447Y-103109534D01*
X90683739Y-103083948D01*
X90747617Y-103057489D01*
X90815430Y-103044000D01*
X90884570Y-103044000D01*
X90952383Y-103057489D01*
X91016261Y-103083948D01*
X91073750Y-103122361D01*
X91122639Y-103171250D01*
X91161052Y-103228739D01*
X91187511Y-103292617D01*
X91201000Y-103360430D01*
X91201000Y-103429570D01*
X91187511Y-103497383D01*
X91161052Y-103561261D01*
X91122639Y-103618750D01*
X91073750Y-103667639D01*
X91016261Y-103706052D01*
X90952383Y-103732511D01*
X90884570Y-103746000D01*
X90815430Y-103746000D01*
X90747617Y-103732511D01*
X90683739Y-103706052D01*
X90626250Y-103667639D01*
X90591223Y-103632612D01*
X90572281Y-103617066D01*
X90550670Y-103605515D01*
X90527221Y-103598402D01*
X90502835Y-103596000D01*
X87297165Y-103596000D01*
X87272779Y-103598402D01*
X87249330Y-103605515D01*
X87227719Y-103617066D01*
X87208777Y-103632612D01*
X87173750Y-103667639D01*
X87116261Y-103706052D01*
X87052383Y-103732511D01*
X86984570Y-103746000D01*
X86915430Y-103746000D01*
X86847617Y-103732511D01*
X86783739Y-103706052D01*
X86726250Y-103667639D01*
X86677361Y-103618750D01*
X86638948Y-103561261D01*
X86612489Y-103497383D01*
X86599000Y-103429570D01*
X86599000Y-103360430D01*
X86612489Y-103292617D01*
X86638948Y-103228739D01*
X86677361Y-103171250D01*
X86726250Y-103122361D01*
X86783739Y-103083948D01*
X86847617Y-103057489D01*
X86915430Y-103044000D01*
X86984570Y-103044000D01*
X87052383Y-103057489D01*
X87116261Y-103083948D01*
X87154553Y-103109534D01*
X87176164Y-103121086D01*
X87199613Y-103128199D01*
X87223999Y-103130601D01*
X87248386Y-103128199D01*
X87271835Y-103121086D01*
X87293446Y-103109535D01*
X87312388Y-103093990D01*
X87327933Y-103075048D01*
X87339485Y-103053437D01*
X87346598Y-103029988D01*
X87349000Y-103005601D01*
X87349000Y-102144000D01*
X90451000Y-102144000D01*
X90451000Y-103005601D01*
X90451000Y-103005601D01*
G37*
G36*
X94691466Y-102668565D02*
X94730137Y-102680296D01*
X94765779Y-102699348D01*
X94797017Y-102724983D01*
X94822652Y-102756221D01*
X94841704Y-102791863D01*
X94853435Y-102830534D01*
X94858000Y-102876888D01*
X94858000Y-103528112D01*
X94853435Y-103574466D01*
X94841704Y-103613137D01*
X94822652Y-103648779D01*
X94797017Y-103680017D01*
X94765779Y-103705652D01*
X94730137Y-103724704D01*
X94691466Y-103736435D01*
X94645112Y-103741000D01*
X93568888Y-103741000D01*
X93522534Y-103736435D01*
X93483863Y-103724704D01*
X93448221Y-103705652D01*
X93416983Y-103680017D01*
X93391348Y-103648779D01*
X93372296Y-103613137D01*
X93360565Y-103574466D01*
X93356000Y-103528112D01*
X93356000Y-102876888D01*
X93360565Y-102830534D01*
X93372296Y-102791863D01*
X93391348Y-102756221D01*
X93416983Y-102724983D01*
X93448221Y-102699348D01*
X93483863Y-102680296D01*
X93522534Y-102668565D01*
X93568888Y-102664000D01*
X94645112Y-102664000D01*
X94691466Y-102668565D01*
X94691466Y-102668565D01*
G37*
G36*
X99170443Y-100705519D02*
X99236627Y-100712037D01*
X99320221Y-100737395D01*
X99406467Y-100763557D01*
X99446974Y-100785209D01*
X99562991Y-100847222D01*
X99598729Y-100876552D01*
X99700186Y-100959814D01*
X99783448Y-101061271D01*
X99812778Y-101097009D01*
X99812779Y-101097011D01*
X99896443Y-101253533D01*
X99896443Y-101253534D01*
X99947963Y-101423373D01*
X99965359Y-101600000D01*
X99947963Y-101776627D01*
X99931990Y-101829283D01*
X99896443Y-101946467D01*
X99843241Y-102046000D01*
X99812778Y-102102991D01*
X99783448Y-102138729D01*
X99700186Y-102240186D01*
X99598729Y-102323448D01*
X99562991Y-102352778D01*
X99562989Y-102352779D01*
X99406467Y-102436443D01*
X99349853Y-102453616D01*
X99236627Y-102487963D01*
X99170442Y-102494482D01*
X99104260Y-102501000D01*
X99015740Y-102501000D01*
X98949558Y-102494482D01*
X98883373Y-102487963D01*
X98770147Y-102453616D01*
X98713533Y-102436443D01*
X98557011Y-102352779D01*
X98557009Y-102352778D01*
X98521271Y-102323448D01*
X98419814Y-102240186D01*
X98336552Y-102138729D01*
X98307222Y-102102991D01*
X98276759Y-102046000D01*
X98223557Y-101946467D01*
X98188010Y-101829283D01*
X98172037Y-101776627D01*
X98154641Y-101600000D01*
X98172037Y-101423373D01*
X98223557Y-101253534D01*
X98223557Y-101253533D01*
X98307221Y-101097011D01*
X98307222Y-101097009D01*
X98336552Y-101061271D01*
X98419814Y-100959814D01*
X98521271Y-100876552D01*
X98557009Y-100847222D01*
X98673026Y-100785209D01*
X98713533Y-100763557D01*
X98799779Y-100737395D01*
X98883373Y-100712037D01*
X98949557Y-100705519D01*
X99015740Y-100699000D01*
X99104260Y-100699000D01*
X99170443Y-100705519D01*
X99170443Y-100705519D01*
G37*
G36*
X78850443Y-100705519D02*
X78916627Y-100712037D01*
X79000221Y-100737395D01*
X79086467Y-100763557D01*
X79126974Y-100785209D01*
X79242991Y-100847222D01*
X79278729Y-100876552D01*
X79380186Y-100959814D01*
X79463448Y-101061271D01*
X79492778Y-101097009D01*
X79492779Y-101097011D01*
X79576443Y-101253533D01*
X79576443Y-101253534D01*
X79627963Y-101423373D01*
X79645359Y-101600000D01*
X79627963Y-101776627D01*
X79611990Y-101829283D01*
X79576443Y-101946467D01*
X79523241Y-102046000D01*
X79492778Y-102102991D01*
X79463448Y-102138729D01*
X79380186Y-102240186D01*
X79278729Y-102323448D01*
X79242991Y-102352778D01*
X79242989Y-102352779D01*
X79086467Y-102436443D01*
X79029853Y-102453616D01*
X78916627Y-102487963D01*
X78850442Y-102494482D01*
X78784260Y-102501000D01*
X78695740Y-102501000D01*
X78629558Y-102494482D01*
X78563373Y-102487963D01*
X78450147Y-102453616D01*
X78393533Y-102436443D01*
X78237011Y-102352779D01*
X78237009Y-102352778D01*
X78201271Y-102323448D01*
X78099814Y-102240186D01*
X78016552Y-102138729D01*
X77987222Y-102102991D01*
X77956759Y-102046000D01*
X77903557Y-101946467D01*
X77868010Y-101829283D01*
X77852037Y-101776627D01*
X77834641Y-101600000D01*
X77852037Y-101423373D01*
X77903557Y-101253534D01*
X77903557Y-101253533D01*
X77987221Y-101097011D01*
X77987222Y-101097009D01*
X78016552Y-101061271D01*
X78099814Y-100959814D01*
X78201271Y-100876552D01*
X78237009Y-100847222D01*
X78353026Y-100785209D01*
X78393533Y-100763557D01*
X78479779Y-100737395D01*
X78563373Y-100712037D01*
X78629557Y-100705519D01*
X78695740Y-100699000D01*
X78784260Y-100699000D01*
X78850443Y-100705519D01*
X78850443Y-100705519D01*
G37*
G36*
X83621813Y-100623271D02*
X83657605Y-100634129D01*
X83690597Y-100651763D01*
X83719509Y-100675491D01*
X83743237Y-100704403D01*
X83760871Y-100737395D01*
X83771729Y-100773187D01*
X83776000Y-100816554D01*
X83776000Y-101848446D01*
X83771729Y-101891813D01*
X83760871Y-101927605D01*
X83743237Y-101960597D01*
X83719509Y-101989509D01*
X83690597Y-102013237D01*
X83657605Y-102030871D01*
X83621813Y-102041729D01*
X83578446Y-102046000D01*
X81521554Y-102046000D01*
X81478187Y-102041729D01*
X81442395Y-102030871D01*
X81409403Y-102013237D01*
X81380491Y-101989509D01*
X81356763Y-101960597D01*
X81339129Y-101927605D01*
X81328271Y-101891813D01*
X81324000Y-101848446D01*
X81324000Y-100816554D01*
X81328271Y-100773187D01*
X81339129Y-100737395D01*
X81356763Y-100704403D01*
X81380491Y-100675491D01*
X81409403Y-100651763D01*
X81442395Y-100634129D01*
X81478187Y-100623271D01*
X81521554Y-100619000D01*
X83578446Y-100619000D01*
X83621813Y-100623271D01*
X83621813Y-100623271D01*
G37*
G36*
X96321813Y-99761271D02*
X96357605Y-99772129D01*
X96390597Y-99789763D01*
X96419509Y-99813491D01*
X96443237Y-99842403D01*
X96460871Y-99875395D01*
X96471729Y-99911187D01*
X96476000Y-99954554D01*
X96476000Y-100986446D01*
X96471729Y-101029813D01*
X96460871Y-101065605D01*
X96443237Y-101098597D01*
X96419509Y-101127509D01*
X96390597Y-101151237D01*
X96357605Y-101168871D01*
X96321813Y-101179729D01*
X96278446Y-101184000D01*
X94221554Y-101184000D01*
X94178187Y-101179729D01*
X94142395Y-101168871D01*
X94109403Y-101151237D01*
X94080491Y-101127509D01*
X94056763Y-101098597D01*
X94039129Y-101065605D01*
X94028271Y-101029813D01*
X94024000Y-100986446D01*
X94024000Y-99954554D01*
X94028271Y-99911187D01*
X94039129Y-99875395D01*
X94056763Y-99842403D01*
X94080491Y-99813491D01*
X94109403Y-99789763D01*
X94142395Y-99772129D01*
X94178187Y-99761271D01*
X94221554Y-99757000D01*
X96278446Y-99757000D01*
X96321813Y-99761271D01*
X96321813Y-99761271D01*
G37*
G36*
X99170443Y-98165519D02*
X99236627Y-98172037D01*
X99349853Y-98206384D01*
X99406467Y-98223557D01*
X99545087Y-98297652D01*
X99562991Y-98307222D01*
X99598729Y-98336552D01*
X99700186Y-98419814D01*
X99783448Y-98521271D01*
X99812778Y-98557009D01*
X99812779Y-98557011D01*
X99896443Y-98713533D01*
X99896443Y-98713534D01*
X99947963Y-98883373D01*
X99965359Y-99060000D01*
X99947963Y-99236627D01*
X99913616Y-99349853D01*
X99896443Y-99406467D01*
X99835757Y-99520000D01*
X99812778Y-99562991D01*
X99783448Y-99598729D01*
X99700186Y-99700186D01*
X99612522Y-99772129D01*
X99562991Y-99812778D01*
X99562989Y-99812779D01*
X99406467Y-99896443D01*
X99349853Y-99913616D01*
X99236627Y-99947963D01*
X99170443Y-99954481D01*
X99104260Y-99961000D01*
X99015740Y-99961000D01*
X98949557Y-99954481D01*
X98883373Y-99947963D01*
X98770147Y-99913616D01*
X98713533Y-99896443D01*
X98557011Y-99812779D01*
X98557009Y-99812778D01*
X98507478Y-99772129D01*
X98419814Y-99700186D01*
X98336552Y-99598729D01*
X98307222Y-99562991D01*
X98284243Y-99520000D01*
X98223557Y-99406467D01*
X98206384Y-99349853D01*
X98172037Y-99236627D01*
X98154641Y-99060000D01*
X98172037Y-98883373D01*
X98223557Y-98713534D01*
X98223557Y-98713533D01*
X98307221Y-98557011D01*
X98307222Y-98557009D01*
X98336552Y-98521271D01*
X98419814Y-98419814D01*
X98521271Y-98336552D01*
X98557009Y-98307222D01*
X98574913Y-98297652D01*
X98713533Y-98223557D01*
X98770147Y-98206384D01*
X98883373Y-98172037D01*
X98949557Y-98165519D01*
X99015740Y-98159000D01*
X99104260Y-98159000D01*
X99170443Y-98165519D01*
X99170443Y-98165519D01*
G37*
G36*
X78850443Y-98165519D02*
X78916627Y-98172037D01*
X79029853Y-98206384D01*
X79086467Y-98223557D01*
X79225087Y-98297652D01*
X79242991Y-98307222D01*
X79278729Y-98336552D01*
X79380186Y-98419814D01*
X79463448Y-98521271D01*
X79492778Y-98557009D01*
X79492779Y-98557011D01*
X79576443Y-98713533D01*
X79576443Y-98713534D01*
X79627963Y-98883373D01*
X79645359Y-99060000D01*
X79627963Y-99236627D01*
X79593616Y-99349853D01*
X79576443Y-99406467D01*
X79515757Y-99520000D01*
X79492778Y-99562991D01*
X79463448Y-99598729D01*
X79380186Y-99700186D01*
X79292522Y-99772129D01*
X79242991Y-99812778D01*
X79242989Y-99812779D01*
X79086467Y-99896443D01*
X79029853Y-99913616D01*
X78916627Y-99947963D01*
X78850443Y-99954481D01*
X78784260Y-99961000D01*
X78695740Y-99961000D01*
X78629557Y-99954481D01*
X78563373Y-99947963D01*
X78450147Y-99913616D01*
X78393533Y-99896443D01*
X78237011Y-99812779D01*
X78237009Y-99812778D01*
X78187478Y-99772129D01*
X78099814Y-99700186D01*
X78016552Y-99598729D01*
X77987222Y-99562991D01*
X77964243Y-99520000D01*
X77903557Y-99406467D01*
X77886384Y-99349853D01*
X77852037Y-99236627D01*
X77834641Y-99060000D01*
X77852037Y-98883373D01*
X77903557Y-98713534D01*
X77903557Y-98713533D01*
X77987221Y-98557011D01*
X77987222Y-98557009D01*
X78016552Y-98521271D01*
X78099814Y-98419814D01*
X78201271Y-98336552D01*
X78237009Y-98307222D01*
X78254913Y-98297652D01*
X78393533Y-98223557D01*
X78450147Y-98206384D01*
X78563373Y-98172037D01*
X78629557Y-98165519D01*
X78695740Y-98159000D01*
X78784260Y-98159000D01*
X78850443Y-98165519D01*
X78850443Y-98165519D01*
G37*
G36*
X82880466Y-98447565D02*
X82919137Y-98459296D01*
X82954779Y-98478348D01*
X82986017Y-98503983D01*
X83011652Y-98535221D01*
X83030704Y-98570863D01*
X83042435Y-98609534D01*
X83047000Y-98655888D01*
X83047000Y-99307112D01*
X83042435Y-99353466D01*
X83030704Y-99392137D01*
X83011652Y-99427779D01*
X82986017Y-99459017D01*
X82954779Y-99484652D01*
X82919137Y-99503704D01*
X82880466Y-99515435D01*
X82834112Y-99520000D01*
X81757888Y-99520000D01*
X81711534Y-99515435D01*
X81672863Y-99503704D01*
X81637221Y-99484652D01*
X81605983Y-99459017D01*
X81580348Y-99427779D01*
X81561296Y-99392137D01*
X81549565Y-99353466D01*
X81545000Y-99307112D01*
X81545000Y-98655888D01*
X81549565Y-98609534D01*
X81561296Y-98570863D01*
X81580348Y-98535221D01*
X81605983Y-98503983D01*
X81637221Y-98478348D01*
X81672863Y-98459296D01*
X81711534Y-98447565D01*
X81757888Y-98443000D01*
X82834112Y-98443000D01*
X82880466Y-98447565D01*
X82880466Y-98447565D01*
G37*
G36*
X84763426Y-93761338D02*
X84763432Y-93761343D01*
X85401231Y-94399142D01*
X85401236Y-94399148D01*
X87591853Y-96589765D01*
X87591859Y-96589770D01*
X88229658Y-97227569D01*
X88229663Y-97227575D01*
X88706960Y-97704872D01*
X87503464Y-98908368D01*
X86954048Y-98358952D01*
X86954043Y-98358946D01*
X86460482Y-97865385D01*
X86460476Y-97865380D01*
X84125621Y-95530525D01*
X84125616Y-95530519D01*
X83632055Y-95036958D01*
X83632049Y-95036953D01*
X83082632Y-94487536D01*
X84286128Y-93284040D01*
X84763426Y-93761338D01*
X84763426Y-93761338D01*
G37*
G36*
X94717368Y-94487536D02*
X90296536Y-98908368D01*
X89093040Y-97704872D01*
X89554074Y-97243838D01*
X89570338Y-97227575D01*
X89570347Y-97227564D01*
X90208137Y-96589774D01*
X90208148Y-96589765D01*
X90224411Y-96573501D01*
X92382501Y-94415411D01*
X92398765Y-94399148D01*
X92398774Y-94399137D01*
X93036564Y-93761347D01*
X93036575Y-93761338D01*
X93052838Y-93745074D01*
X93513872Y-93284040D01*
X94717368Y-94487536D01*
X94717368Y-94487536D01*
G37*
G36*
X96321813Y-96686271D02*
X96357605Y-96697129D01*
X96390597Y-96714763D01*
X96419509Y-96738491D01*
X96443237Y-96767403D01*
X96460871Y-96800395D01*
X96471729Y-96836187D01*
X96476000Y-96879554D01*
X96476000Y-97911446D01*
X96471729Y-97954813D01*
X96460871Y-97990605D01*
X96443237Y-98023597D01*
X96419509Y-98052509D01*
X96390597Y-98076237D01*
X96357605Y-98093871D01*
X96321813Y-98104729D01*
X96278446Y-98109000D01*
X94221554Y-98109000D01*
X94178187Y-98104729D01*
X94142395Y-98093871D01*
X94109403Y-98076237D01*
X94080491Y-98052509D01*
X94056763Y-98023597D01*
X94039129Y-97990605D01*
X94028271Y-97954813D01*
X94024000Y-97911446D01*
X94024000Y-96879554D01*
X94028271Y-96836187D01*
X94039129Y-96800395D01*
X94056763Y-96767403D01*
X94080491Y-96738491D01*
X94109403Y-96714763D01*
X94142395Y-96697129D01*
X94178187Y-96686271D01*
X94221554Y-96682000D01*
X96278446Y-96682000D01*
X96321813Y-96686271D01*
X96321813Y-96686271D01*
G37*
G36*
X82880466Y-96572565D02*
X82919137Y-96584296D01*
X82954779Y-96603348D01*
X82986017Y-96628983D01*
X83011652Y-96660221D01*
X83030704Y-96695863D01*
X83042435Y-96734534D01*
X83047000Y-96780888D01*
X83047000Y-97432112D01*
X83042435Y-97478466D01*
X83030704Y-97517137D01*
X83011652Y-97552779D01*
X82986017Y-97584017D01*
X82954779Y-97609652D01*
X82919137Y-97628704D01*
X82880466Y-97640435D01*
X82834112Y-97645000D01*
X81757888Y-97645000D01*
X81711534Y-97640435D01*
X81672863Y-97628704D01*
X81637221Y-97609652D01*
X81605983Y-97584017D01*
X81580348Y-97552779D01*
X81561296Y-97517137D01*
X81549565Y-97478466D01*
X81545000Y-97432112D01*
X81545000Y-96780888D01*
X81549565Y-96734534D01*
X81561296Y-96695863D01*
X81580348Y-96660221D01*
X81605983Y-96628983D01*
X81637221Y-96603348D01*
X81672863Y-96584296D01*
X81711534Y-96572565D01*
X81757888Y-96568000D01*
X82834112Y-96568000D01*
X82880466Y-96572565D01*
X82880466Y-96572565D01*
G37*
G36*
X99170442Y-95625518D02*
X99236627Y-95632037D01*
X99349853Y-95666384D01*
X99406467Y-95683557D01*
X99545087Y-95757652D01*
X99562991Y-95767222D01*
X99598729Y-95796552D01*
X99700186Y-95879814D01*
X99783448Y-95981271D01*
X99812778Y-96017009D01*
X99812779Y-96017011D01*
X99896443Y-96173533D01*
X99913616Y-96230147D01*
X99947963Y-96343373D01*
X99965359Y-96520000D01*
X99947963Y-96696627D01*
X99931688Y-96750278D01*
X99896443Y-96866467D01*
X99851128Y-96951244D01*
X99812778Y-97022991D01*
X99783448Y-97058729D01*
X99700186Y-97160186D01*
X99618084Y-97227564D01*
X99562991Y-97272778D01*
X99562989Y-97272779D01*
X99406467Y-97356443D01*
X99349853Y-97373616D01*
X99236627Y-97407963D01*
X99170442Y-97414482D01*
X99104260Y-97421000D01*
X99015740Y-97421000D01*
X98949558Y-97414482D01*
X98883373Y-97407963D01*
X98770147Y-97373616D01*
X98713533Y-97356443D01*
X98557011Y-97272779D01*
X98557009Y-97272778D01*
X98501916Y-97227564D01*
X98419814Y-97160186D01*
X98336552Y-97058729D01*
X98307222Y-97022991D01*
X98268872Y-96951244D01*
X98223557Y-96866467D01*
X98188312Y-96750278D01*
X98172037Y-96696627D01*
X98154641Y-96520000D01*
X98172037Y-96343373D01*
X98206384Y-96230147D01*
X98223557Y-96173533D01*
X98307221Y-96017011D01*
X98307222Y-96017009D01*
X98336552Y-95981271D01*
X98419814Y-95879814D01*
X98521271Y-95796552D01*
X98557009Y-95767222D01*
X98574913Y-95757652D01*
X98713533Y-95683557D01*
X98770147Y-95666384D01*
X98883373Y-95632037D01*
X98949558Y-95625518D01*
X99015740Y-95619000D01*
X99104260Y-95619000D01*
X99170442Y-95625518D01*
X99170442Y-95625518D01*
G37*
G36*
X78850442Y-95625518D02*
X78916627Y-95632037D01*
X79029853Y-95666384D01*
X79086467Y-95683557D01*
X79225087Y-95757652D01*
X79242991Y-95767222D01*
X79278729Y-95796552D01*
X79380186Y-95879814D01*
X79463448Y-95981271D01*
X79492778Y-96017009D01*
X79492779Y-96017011D01*
X79576443Y-96173533D01*
X79593616Y-96230147D01*
X79627963Y-96343373D01*
X79645359Y-96520000D01*
X79627963Y-96696627D01*
X79611688Y-96750278D01*
X79576443Y-96866467D01*
X79531128Y-96951244D01*
X79492778Y-97022991D01*
X79463448Y-97058729D01*
X79380186Y-97160186D01*
X79298084Y-97227564D01*
X79242991Y-97272778D01*
X79242989Y-97272779D01*
X79086467Y-97356443D01*
X79029853Y-97373616D01*
X78916627Y-97407963D01*
X78850442Y-97414482D01*
X78784260Y-97421000D01*
X78695740Y-97421000D01*
X78629558Y-97414482D01*
X78563373Y-97407963D01*
X78450147Y-97373616D01*
X78393533Y-97356443D01*
X78237011Y-97272779D01*
X78237009Y-97272778D01*
X78181916Y-97227564D01*
X78099814Y-97160186D01*
X78016552Y-97058729D01*
X77987222Y-97022991D01*
X77948872Y-96951244D01*
X77903557Y-96866467D01*
X77868312Y-96750278D01*
X77852037Y-96696627D01*
X77834641Y-96520000D01*
X77852037Y-96343373D01*
X77886384Y-96230147D01*
X77903557Y-96173533D01*
X77987221Y-96017011D01*
X77987222Y-96017009D01*
X78016552Y-95981271D01*
X78099814Y-95879814D01*
X78201271Y-95796552D01*
X78237009Y-95767222D01*
X78254913Y-95757652D01*
X78393533Y-95683557D01*
X78450147Y-95666384D01*
X78563373Y-95632037D01*
X78629558Y-95625518D01*
X78695740Y-95619000D01*
X78784260Y-95619000D01*
X78850442Y-95625518D01*
X78850442Y-95625518D01*
G37*
G36*
X78850443Y-93085519D02*
X78916627Y-93092037D01*
X79029412Y-93126250D01*
X79086467Y-93143557D01*
X79225087Y-93217652D01*
X79242991Y-93227222D01*
X79278729Y-93256552D01*
X79380186Y-93339814D01*
X79463448Y-93441271D01*
X79492778Y-93477009D01*
X79492779Y-93477011D01*
X79576443Y-93633533D01*
X79576443Y-93633534D01*
X79627963Y-93803373D01*
X79645359Y-93980000D01*
X79627963Y-94156627D01*
X79593616Y-94269853D01*
X79576443Y-94326467D01*
X79528901Y-94415411D01*
X79492778Y-94482991D01*
X79463448Y-94518729D01*
X79380186Y-94620186D01*
X79278729Y-94703448D01*
X79242991Y-94732778D01*
X79242989Y-94732779D01*
X79086467Y-94816443D01*
X79029853Y-94833616D01*
X78916627Y-94867963D01*
X78850443Y-94874481D01*
X78784260Y-94881000D01*
X78695740Y-94881000D01*
X78629557Y-94874481D01*
X78563373Y-94867963D01*
X78450147Y-94833616D01*
X78393533Y-94816443D01*
X78237011Y-94732779D01*
X78237009Y-94732778D01*
X78201271Y-94703448D01*
X78099814Y-94620186D01*
X78016552Y-94518729D01*
X77987222Y-94482991D01*
X77951099Y-94415411D01*
X77903557Y-94326467D01*
X77886384Y-94269853D01*
X77852037Y-94156627D01*
X77834641Y-93980000D01*
X77852037Y-93803373D01*
X77903557Y-93633534D01*
X77903557Y-93633533D01*
X77987221Y-93477011D01*
X77987222Y-93477009D01*
X78016552Y-93441271D01*
X78099814Y-93339814D01*
X78201271Y-93256552D01*
X78237009Y-93227222D01*
X78254913Y-93217652D01*
X78393533Y-93143557D01*
X78450588Y-93126250D01*
X78563373Y-93092037D01*
X78629557Y-93085519D01*
X78695740Y-93079000D01*
X78784260Y-93079000D01*
X78850443Y-93085519D01*
X78850443Y-93085519D01*
G37*
G36*
X99170443Y-93085519D02*
X99236627Y-93092037D01*
X99349412Y-93126250D01*
X99406467Y-93143557D01*
X99545087Y-93217652D01*
X99562991Y-93227222D01*
X99598729Y-93256552D01*
X99700186Y-93339814D01*
X99783448Y-93441271D01*
X99812778Y-93477009D01*
X99812779Y-93477011D01*
X99896443Y-93633533D01*
X99896443Y-93633534D01*
X99947963Y-93803373D01*
X99965359Y-93980000D01*
X99947963Y-94156627D01*
X99913616Y-94269853D01*
X99896443Y-94326467D01*
X99848901Y-94415411D01*
X99812778Y-94482991D01*
X99783448Y-94518729D01*
X99700186Y-94620186D01*
X99598729Y-94703448D01*
X99562991Y-94732778D01*
X99562989Y-94732779D01*
X99406467Y-94816443D01*
X99349853Y-94833616D01*
X99236627Y-94867963D01*
X99170443Y-94874481D01*
X99104260Y-94881000D01*
X99015740Y-94881000D01*
X98949557Y-94874481D01*
X98883373Y-94867963D01*
X98770147Y-94833616D01*
X98713533Y-94816443D01*
X98557011Y-94732779D01*
X98557009Y-94732778D01*
X98521271Y-94703448D01*
X98419814Y-94620186D01*
X98336552Y-94518729D01*
X98307222Y-94482991D01*
X98271099Y-94415411D01*
X98223557Y-94326467D01*
X98206384Y-94269853D01*
X98172037Y-94156627D01*
X98154641Y-93980000D01*
X98172037Y-93803373D01*
X98223557Y-93633534D01*
X98223557Y-93633533D01*
X98307221Y-93477011D01*
X98307222Y-93477009D01*
X98336552Y-93441271D01*
X98419814Y-93339814D01*
X98521271Y-93256552D01*
X98557009Y-93227222D01*
X98574913Y-93217652D01*
X98713533Y-93143557D01*
X98770588Y-93126250D01*
X98883373Y-93092037D01*
X98949557Y-93085519D01*
X99015740Y-93079000D01*
X99104260Y-93079000D01*
X99170443Y-93085519D01*
X99170443Y-93085519D01*
G37*
G36*
X96899591Y-92886085D02*
X96933569Y-92896393D01*
X96964887Y-92913133D01*
X96992339Y-92935661D01*
X97014867Y-92963113D01*
X97031607Y-92994431D01*
X97041915Y-93028409D01*
X97046000Y-93069890D01*
X97046000Y-93671110D01*
X97041915Y-93712591D01*
X97031607Y-93746569D01*
X97014867Y-93777887D01*
X96992339Y-93805339D01*
X96964887Y-93827867D01*
X96933569Y-93844607D01*
X96899591Y-93854915D01*
X96858110Y-93859000D01*
X96181890Y-93859000D01*
X96140409Y-93854915D01*
X96106431Y-93844607D01*
X96075113Y-93827867D01*
X96047661Y-93805339D01*
X96025133Y-93777887D01*
X96008393Y-93746569D01*
X95998085Y-93712591D01*
X95994000Y-93671110D01*
X95994000Y-93069890D01*
X95998085Y-93028409D01*
X96008393Y-92994431D01*
X96025133Y-92963113D01*
X96047661Y-92935661D01*
X96075113Y-92913133D01*
X96106431Y-92896393D01*
X96140409Y-92886085D01*
X96181890Y-92882000D01*
X96858110Y-92882000D01*
X96899591Y-92886085D01*
X96899591Y-92886085D01*
G37*
G36*
X88706960Y-88477128D02*
X88229663Y-88954426D01*
X87591853Y-89592236D01*
X87026167Y-90157921D01*
X85894796Y-91289292D01*
X85401236Y-91782853D01*
X84763426Y-92420663D01*
X84286128Y-92897960D01*
X83082632Y-91694464D01*
X83632044Y-91145052D01*
X83632055Y-91145043D01*
X83648319Y-91128780D01*
X83648318Y-91128779D01*
X84109352Y-90667745D01*
X84109353Y-90667746D01*
X84125616Y-90651482D01*
X84125625Y-90651471D01*
X86460471Y-88316625D01*
X86460482Y-88316616D01*
X86476746Y-88300353D01*
X86476745Y-88300352D01*
X86937779Y-87839318D01*
X86937780Y-87839319D01*
X86954043Y-87823055D01*
X86954052Y-87823044D01*
X87503464Y-87273632D01*
X88706960Y-88477128D01*
X88706960Y-88477128D01*
G37*
G36*
X90845953Y-87823049D02*
X90845958Y-87823055D01*
X91339519Y-88316616D01*
X91339525Y-88316621D01*
X93674380Y-90651476D01*
X93674385Y-90651482D01*
X94167946Y-91145043D01*
X94167952Y-91145048D01*
X94717368Y-91694464D01*
X93513872Y-92897960D01*
X93036575Y-92420663D01*
X93036569Y-92420658D01*
X92398770Y-91782859D01*
X92398765Y-91782853D01*
X90208148Y-89592236D01*
X90208142Y-89592231D01*
X89570343Y-88954432D01*
X89570338Y-88954426D01*
X89093040Y-88477128D01*
X90296536Y-87273632D01*
X90845953Y-87823049D01*
X90845953Y-87823049D01*
G37*
G36*
X78850443Y-90545519D02*
X78916627Y-90552037D01*
X79029853Y-90586384D01*
X79086467Y-90603557D01*
X79225087Y-90677652D01*
X79242991Y-90687222D01*
X79278729Y-90716552D01*
X79380186Y-90799814D01*
X79463448Y-90901271D01*
X79492778Y-90937009D01*
X79492779Y-90937011D01*
X79576443Y-91093533D01*
X79589926Y-91137983D01*
X79627963Y-91263373D01*
X79645359Y-91440000D01*
X79627963Y-91616627D01*
X79604351Y-91694464D01*
X79576443Y-91786467D01*
X79523909Y-91884750D01*
X79492778Y-91942991D01*
X79463448Y-91978729D01*
X79380186Y-92080186D01*
X79290242Y-92154000D01*
X79242991Y-92192778D01*
X79242989Y-92192779D01*
X79086467Y-92276443D01*
X79061554Y-92284000D01*
X78916627Y-92327963D01*
X78850443Y-92334481D01*
X78784260Y-92341000D01*
X78695740Y-92341000D01*
X78629557Y-92334481D01*
X78563373Y-92327963D01*
X78418446Y-92284000D01*
X78393533Y-92276443D01*
X78237011Y-92192779D01*
X78237009Y-92192778D01*
X78189758Y-92154000D01*
X78099814Y-92080186D01*
X78016552Y-91978729D01*
X77987222Y-91942991D01*
X77956091Y-91884750D01*
X77903557Y-91786467D01*
X77875649Y-91694464D01*
X77852037Y-91616627D01*
X77834641Y-91440000D01*
X77852037Y-91263373D01*
X77890074Y-91137983D01*
X77903557Y-91093533D01*
X77987221Y-90937011D01*
X77987222Y-90937009D01*
X78016552Y-90901271D01*
X78099814Y-90799814D01*
X78201271Y-90716552D01*
X78237009Y-90687222D01*
X78254913Y-90677652D01*
X78393533Y-90603557D01*
X78450147Y-90586384D01*
X78563373Y-90552037D01*
X78629557Y-90545519D01*
X78695740Y-90539000D01*
X78784260Y-90539000D01*
X78850443Y-90545519D01*
X78850443Y-90545519D01*
G37*
G36*
X99170443Y-90545519D02*
X99236627Y-90552037D01*
X99349853Y-90586384D01*
X99406467Y-90603557D01*
X99545087Y-90677652D01*
X99562991Y-90687222D01*
X99598729Y-90716552D01*
X99700186Y-90799814D01*
X99783448Y-90901271D01*
X99812778Y-90937009D01*
X99812779Y-90937011D01*
X99896443Y-91093533D01*
X99909926Y-91137983D01*
X99947963Y-91263373D01*
X99965359Y-91440000D01*
X99947963Y-91616627D01*
X99924351Y-91694464D01*
X99896443Y-91786467D01*
X99843909Y-91884750D01*
X99812778Y-91942991D01*
X99783448Y-91978729D01*
X99700186Y-92080186D01*
X99610242Y-92154000D01*
X99562991Y-92192778D01*
X99562989Y-92192779D01*
X99406467Y-92276443D01*
X99381554Y-92284000D01*
X99236627Y-92327963D01*
X99170443Y-92334481D01*
X99104260Y-92341000D01*
X99015740Y-92341000D01*
X98949557Y-92334481D01*
X98883373Y-92327963D01*
X98738446Y-92284000D01*
X98713533Y-92276443D01*
X98557011Y-92192779D01*
X98557009Y-92192778D01*
X98509758Y-92154000D01*
X98419814Y-92080186D01*
X98336552Y-91978729D01*
X98307222Y-91942991D01*
X98276091Y-91884750D01*
X98223557Y-91786467D01*
X98195649Y-91694464D01*
X98172037Y-91616627D01*
X98154641Y-91440000D01*
X98172037Y-91263373D01*
X98210074Y-91137983D01*
X98223557Y-91093533D01*
X98307221Y-90937011D01*
X98307222Y-90937009D01*
X98336552Y-90901271D01*
X98419814Y-90799814D01*
X98521271Y-90716552D01*
X98557009Y-90687222D01*
X98574913Y-90677652D01*
X98713533Y-90603557D01*
X98770147Y-90586384D01*
X98883373Y-90552037D01*
X98949557Y-90545519D01*
X99015740Y-90539000D01*
X99104260Y-90539000D01*
X99170443Y-90545519D01*
X99170443Y-90545519D01*
G37*
G36*
X96899591Y-91311085D02*
X96933569Y-91321393D01*
X96964887Y-91338133D01*
X96992339Y-91360661D01*
X97014867Y-91388113D01*
X97031607Y-91419431D01*
X97041915Y-91453409D01*
X97046000Y-91494890D01*
X97046000Y-92096110D01*
X97041915Y-92137591D01*
X97031607Y-92171569D01*
X97014867Y-92202887D01*
X96992339Y-92230339D01*
X96964887Y-92252867D01*
X96933569Y-92269607D01*
X96899591Y-92279915D01*
X96858110Y-92284000D01*
X96181890Y-92284000D01*
X96140409Y-92279915D01*
X96106431Y-92269607D01*
X96075113Y-92252867D01*
X96047661Y-92230339D01*
X96025133Y-92202887D01*
X96008393Y-92171569D01*
X95998085Y-92137591D01*
X95994000Y-92096110D01*
X95994000Y-91494890D01*
X95998085Y-91453409D01*
X96008393Y-91419431D01*
X96025133Y-91388113D01*
X96047661Y-91360661D01*
X96075113Y-91338133D01*
X96106431Y-91321393D01*
X96140409Y-91311085D01*
X96181890Y-91307000D01*
X96858110Y-91307000D01*
X96899591Y-91311085D01*
X96899591Y-91311085D01*
G37*
G36*
X81864466Y-91081565D02*
X81903137Y-91093296D01*
X81938779Y-91112348D01*
X81970017Y-91137983D01*
X81995652Y-91169221D01*
X82014704Y-91204863D01*
X82026435Y-91243534D01*
X82031000Y-91289888D01*
X82031000Y-91941112D01*
X82026435Y-91987466D01*
X82014704Y-92026137D01*
X81995652Y-92061779D01*
X81970017Y-92093017D01*
X81938779Y-92118652D01*
X81903137Y-92137704D01*
X81864466Y-92149435D01*
X81818112Y-92154000D01*
X80741888Y-92154000D01*
X80695534Y-92149435D01*
X80656863Y-92137704D01*
X80621221Y-92118652D01*
X80589983Y-92093017D01*
X80564348Y-92061779D01*
X80545296Y-92026137D01*
X80533565Y-91987466D01*
X80529000Y-91941112D01*
X80529000Y-91289888D01*
X80533565Y-91243534D01*
X80545296Y-91204863D01*
X80564348Y-91169221D01*
X80589983Y-91137983D01*
X80621221Y-91112348D01*
X80656863Y-91093296D01*
X80695534Y-91081565D01*
X80741888Y-91077000D01*
X81818112Y-91077000D01*
X81864466Y-91081565D01*
X81864466Y-91081565D01*
G37*
G36*
X81864466Y-89206565D02*
X81903137Y-89218296D01*
X81938779Y-89237348D01*
X81970017Y-89262983D01*
X81995652Y-89294221D01*
X82014704Y-89329863D01*
X82026435Y-89368534D01*
X82031000Y-89414888D01*
X82031000Y-90066112D01*
X82026435Y-90112466D01*
X82014704Y-90151137D01*
X81995652Y-90186779D01*
X81970017Y-90218017D01*
X81938779Y-90243652D01*
X81903137Y-90262704D01*
X81864466Y-90274435D01*
X81818112Y-90279000D01*
X80741888Y-90279000D01*
X80695534Y-90274435D01*
X80656863Y-90262704D01*
X80621221Y-90243652D01*
X80589983Y-90218017D01*
X80564348Y-90186779D01*
X80545296Y-90151137D01*
X80533565Y-90112466D01*
X80529000Y-90066112D01*
X80529000Y-89414888D01*
X80533565Y-89368534D01*
X80545296Y-89329863D01*
X80564348Y-89294221D01*
X80589983Y-89262983D01*
X80621221Y-89237348D01*
X80656863Y-89218296D01*
X80695534Y-89206565D01*
X80741888Y-89202000D01*
X81818112Y-89202000D01*
X81864466Y-89206565D01*
X81864466Y-89206565D01*
G37*
G36*
X99154893Y-88003987D02*
X99236627Y-88012037D01*
X99339961Y-88043383D01*
X99406467Y-88063557D01*
X99443268Y-88083228D01*
X99562991Y-88147222D01*
X99598729Y-88176552D01*
X99700186Y-88259814D01*
X99783448Y-88361271D01*
X99812778Y-88397009D01*
X99812779Y-88397011D01*
X99896443Y-88553533D01*
X99896443Y-88553534D01*
X99947963Y-88723373D01*
X99965359Y-88900000D01*
X99947963Y-89076627D01*
X99913616Y-89189853D01*
X99896443Y-89246467D01*
X99856249Y-89321663D01*
X99812778Y-89402991D01*
X99789199Y-89431722D01*
X99700186Y-89540186D01*
X99616945Y-89608499D01*
X99562991Y-89652778D01*
X99562989Y-89652779D01*
X99406467Y-89736443D01*
X99349853Y-89753616D01*
X99236627Y-89787963D01*
X99170443Y-89794481D01*
X99104260Y-89801000D01*
X99015740Y-89801000D01*
X98949557Y-89794481D01*
X98883373Y-89787963D01*
X98770147Y-89753616D01*
X98713533Y-89736443D01*
X98557011Y-89652779D01*
X98557009Y-89652778D01*
X98503055Y-89608499D01*
X98419814Y-89540186D01*
X98330801Y-89431722D01*
X98307222Y-89402991D01*
X98263751Y-89321663D01*
X98223557Y-89246467D01*
X98206384Y-89189853D01*
X98172037Y-89076627D01*
X98154641Y-88900000D01*
X98172037Y-88723373D01*
X98223557Y-88553534D01*
X98223557Y-88553533D01*
X98307221Y-88397011D01*
X98307222Y-88397009D01*
X98336552Y-88361271D01*
X98419814Y-88259814D01*
X98521271Y-88176552D01*
X98557009Y-88147222D01*
X98676732Y-88083228D01*
X98713533Y-88063557D01*
X98780039Y-88043383D01*
X98883373Y-88012037D01*
X98965107Y-88003987D01*
X99015740Y-87999000D01*
X99104260Y-87999000D01*
X99154893Y-88003987D01*
X99154893Y-88003987D01*
G37*
G36*
X78834893Y-88003987D02*
X78916627Y-88012037D01*
X79019961Y-88043383D01*
X79086467Y-88063557D01*
X79123268Y-88083228D01*
X79242991Y-88147222D01*
X79278729Y-88176552D01*
X79380186Y-88259814D01*
X79463448Y-88361271D01*
X79492778Y-88397009D01*
X79492779Y-88397011D01*
X79576443Y-88553533D01*
X79576443Y-88553534D01*
X79627963Y-88723373D01*
X79645359Y-88900000D01*
X79627963Y-89076627D01*
X79593616Y-89189853D01*
X79576443Y-89246467D01*
X79536249Y-89321663D01*
X79492778Y-89402991D01*
X79469199Y-89431722D01*
X79380186Y-89540186D01*
X79296945Y-89608499D01*
X79242991Y-89652778D01*
X79242989Y-89652779D01*
X79086467Y-89736443D01*
X79029853Y-89753616D01*
X78916627Y-89787963D01*
X78850443Y-89794481D01*
X78784260Y-89801000D01*
X78695740Y-89801000D01*
X78629557Y-89794481D01*
X78563373Y-89787963D01*
X78450147Y-89753616D01*
X78393533Y-89736443D01*
X78237011Y-89652779D01*
X78237009Y-89652778D01*
X78183055Y-89608499D01*
X78099814Y-89540186D01*
X78010801Y-89431722D01*
X77987222Y-89402991D01*
X77943751Y-89321663D01*
X77903557Y-89246467D01*
X77886384Y-89189853D01*
X77852037Y-89076627D01*
X77834641Y-88900000D01*
X77852037Y-88723373D01*
X77903557Y-88553534D01*
X77903557Y-88553533D01*
X77987221Y-88397011D01*
X77987222Y-88397009D01*
X78016552Y-88361271D01*
X78099814Y-88259814D01*
X78201271Y-88176552D01*
X78237009Y-88147222D01*
X78356732Y-88083228D01*
X78393533Y-88063557D01*
X78460039Y-88043383D01*
X78563373Y-88012037D01*
X78645107Y-88003987D01*
X78695740Y-87999000D01*
X78784260Y-87999000D01*
X78834893Y-88003987D01*
X78834893Y-88003987D01*
G37*
G36*
X84647613Y-87936569D02*
X83161273Y-89422909D01*
X81392091Y-87653727D01*
X82878431Y-86167387D01*
X84647613Y-87936569D01*
X84647613Y-87936569D01*
G37*
G36*
X93533858Y-87246008D02*
X93567836Y-87256316D01*
X93599154Y-87273056D01*
X93631383Y-87299505D01*
X94056495Y-87724617D01*
X94082944Y-87756846D01*
X94099684Y-87788164D01*
X94109992Y-87822142D01*
X94113472Y-87857483D01*
X94109992Y-87892824D01*
X94099684Y-87926802D01*
X94082944Y-87958120D01*
X94056495Y-87990349D01*
X93578349Y-88468495D01*
X93546120Y-88494944D01*
X93514802Y-88511684D01*
X93480824Y-88521992D01*
X93445483Y-88525472D01*
X93410142Y-88521992D01*
X93376164Y-88511684D01*
X93344846Y-88494944D01*
X93312617Y-88468495D01*
X92887505Y-88043383D01*
X92861056Y-88011154D01*
X92844316Y-87979836D01*
X92834008Y-87945858D01*
X92830528Y-87910517D01*
X92834008Y-87875176D01*
X92844316Y-87841198D01*
X92861056Y-87809880D01*
X92887505Y-87777651D01*
X93365651Y-87299505D01*
X93397880Y-87273056D01*
X93429198Y-87256316D01*
X93463176Y-87246008D01*
X93498517Y-87242528D01*
X93533858Y-87246008D01*
X93533858Y-87246008D01*
G37*
G36*
X92420164Y-86132314D02*
X92454142Y-86142622D01*
X92485460Y-86159362D01*
X92517689Y-86185811D01*
X92942801Y-86610923D01*
X92969250Y-86643152D01*
X92985990Y-86674470D01*
X92996298Y-86708448D01*
X92999778Y-86743789D01*
X92996298Y-86779130D01*
X92985990Y-86813108D01*
X92969250Y-86844426D01*
X92942801Y-86876655D01*
X92464655Y-87354801D01*
X92432426Y-87381250D01*
X92401108Y-87397990D01*
X92367130Y-87408298D01*
X92331789Y-87411778D01*
X92296448Y-87408298D01*
X92262470Y-87397990D01*
X92231152Y-87381250D01*
X92198923Y-87354801D01*
X91773811Y-86929689D01*
X91747362Y-86897460D01*
X91730622Y-86866142D01*
X91720314Y-86832164D01*
X91716834Y-86796823D01*
X91720314Y-86761482D01*
X91730622Y-86727504D01*
X91747362Y-86696186D01*
X91773811Y-86663957D01*
X92251957Y-86185811D01*
X92284186Y-86159362D01*
X92315504Y-86142622D01*
X92349482Y-86132314D01*
X92384823Y-86128834D01*
X92420164Y-86132314D01*
X92420164Y-86132314D01*
G37*
G36*
X99170442Y-85465518D02*
X99236627Y-85472037D01*
X99344049Y-85504623D01*
X99406467Y-85523557D01*
X99545087Y-85597652D01*
X99562991Y-85607222D01*
X99598729Y-85636552D01*
X99700186Y-85719814D01*
X99783448Y-85821271D01*
X99812778Y-85857009D01*
X99812779Y-85857011D01*
X99896443Y-86013533D01*
X99896443Y-86013534D01*
X99947963Y-86183373D01*
X99965359Y-86360000D01*
X99947963Y-86536627D01*
X99921425Y-86624112D01*
X99896443Y-86706467D01*
X99842913Y-86806613D01*
X99812778Y-86862991D01*
X99801564Y-86876655D01*
X99700186Y-87000186D01*
X99598729Y-87083448D01*
X99562991Y-87112778D01*
X99562989Y-87112779D01*
X99406467Y-87196443D01*
X99349853Y-87213616D01*
X99236627Y-87247963D01*
X99170442Y-87254482D01*
X99104260Y-87261000D01*
X99015740Y-87261000D01*
X98949558Y-87254482D01*
X98883373Y-87247963D01*
X98770147Y-87213616D01*
X98713533Y-87196443D01*
X98557011Y-87112779D01*
X98557009Y-87112778D01*
X98521271Y-87083448D01*
X98419814Y-87000186D01*
X98318436Y-86876655D01*
X98307222Y-86862991D01*
X98277087Y-86806613D01*
X98223557Y-86706467D01*
X98198575Y-86624112D01*
X98172037Y-86536627D01*
X98154641Y-86360000D01*
X98172037Y-86183373D01*
X98223557Y-86013534D01*
X98223557Y-86013533D01*
X98307221Y-85857011D01*
X98307222Y-85857009D01*
X98336552Y-85821271D01*
X98419814Y-85719814D01*
X98521271Y-85636552D01*
X98557009Y-85607222D01*
X98574913Y-85597652D01*
X98713533Y-85523557D01*
X98775951Y-85504623D01*
X98883373Y-85472037D01*
X98949558Y-85465518D01*
X99015740Y-85459000D01*
X99104260Y-85459000D01*
X99170442Y-85465518D01*
X99170442Y-85465518D01*
G37*
G36*
X78850442Y-85465518D02*
X78916627Y-85472037D01*
X79024049Y-85504623D01*
X79086467Y-85523557D01*
X79225087Y-85597652D01*
X79242991Y-85607222D01*
X79278729Y-85636552D01*
X79380186Y-85719814D01*
X79463448Y-85821271D01*
X79492778Y-85857009D01*
X79492779Y-85857011D01*
X79576443Y-86013533D01*
X79576443Y-86013534D01*
X79627963Y-86183373D01*
X79645359Y-86360000D01*
X79627963Y-86536627D01*
X79601425Y-86624112D01*
X79576443Y-86706467D01*
X79522913Y-86806613D01*
X79492778Y-86862991D01*
X79481564Y-86876655D01*
X79380186Y-87000186D01*
X79278729Y-87083448D01*
X79242991Y-87112778D01*
X79242989Y-87112779D01*
X79086467Y-87196443D01*
X79029853Y-87213616D01*
X78916627Y-87247963D01*
X78850442Y-87254482D01*
X78784260Y-87261000D01*
X78695740Y-87261000D01*
X78629558Y-87254482D01*
X78563373Y-87247963D01*
X78450147Y-87213616D01*
X78393533Y-87196443D01*
X78237011Y-87112779D01*
X78237009Y-87112778D01*
X78201271Y-87083448D01*
X78099814Y-87000186D01*
X77998436Y-86876655D01*
X77987222Y-86862991D01*
X77957087Y-86806613D01*
X77903557Y-86706467D01*
X77878575Y-86624112D01*
X77852037Y-86536627D01*
X77834641Y-86360000D01*
X77852037Y-86183373D01*
X77903557Y-86013534D01*
X77903557Y-86013533D01*
X77987221Y-85857011D01*
X77987222Y-85857009D01*
X78016552Y-85821271D01*
X78099814Y-85719814D01*
X78201271Y-85636552D01*
X78237009Y-85607222D01*
X78254913Y-85597652D01*
X78393533Y-85523557D01*
X78455951Y-85504623D01*
X78563373Y-85472037D01*
X78629558Y-85465518D01*
X78695740Y-85459000D01*
X78784260Y-85459000D01*
X78850442Y-85465518D01*
X78850442Y-85465518D01*
G37*
G36*
X87263909Y-85320273D02*
X85777569Y-86806613D01*
X84008387Y-85037431D01*
X85494727Y-83551091D01*
X87263909Y-85320273D01*
X87263909Y-85320273D01*
G37*
G36*
X89738466Y-84477565D02*
X89777137Y-84489296D01*
X89812779Y-84508348D01*
X89844017Y-84533983D01*
X89869652Y-84565221D01*
X89888704Y-84600863D01*
X89900435Y-84639534D01*
X89905000Y-84685888D01*
X89905000Y-85337112D01*
X89900435Y-85383466D01*
X89888704Y-85422137D01*
X89869652Y-85457779D01*
X89844017Y-85489017D01*
X89812779Y-85514652D01*
X89777137Y-85533704D01*
X89738466Y-85545435D01*
X89692112Y-85550000D01*
X88615888Y-85550000D01*
X88569534Y-85545435D01*
X88530863Y-85533704D01*
X88495221Y-85514652D01*
X88463983Y-85489017D01*
X88438348Y-85457779D01*
X88419296Y-85422137D01*
X88407565Y-85383466D01*
X88403000Y-85337112D01*
X88403000Y-84685888D01*
X88407565Y-84639534D01*
X88419296Y-84600863D01*
X88438348Y-84565221D01*
X88463983Y-84533983D01*
X88495221Y-84508348D01*
X88530863Y-84489296D01*
X88569534Y-84477565D01*
X88615888Y-84473000D01*
X89692112Y-84473000D01*
X89738466Y-84477565D01*
X89738466Y-84477565D01*
G37*
G36*
X78850443Y-82925519D02*
X78916627Y-82932037D01*
X79029853Y-82966384D01*
X79086467Y-82983557D01*
X79225087Y-83057652D01*
X79242991Y-83067222D01*
X79278729Y-83096552D01*
X79380186Y-83179814D01*
X79463448Y-83281271D01*
X79492778Y-83317009D01*
X79492779Y-83317011D01*
X79576443Y-83473533D01*
X79587137Y-83508788D01*
X79627963Y-83643373D01*
X79645359Y-83820000D01*
X79627963Y-83996627D01*
X79593616Y-84109853D01*
X79576443Y-84166467D01*
X79502348Y-84305087D01*
X79492778Y-84322991D01*
X79463448Y-84358729D01*
X79380186Y-84460186D01*
X79290263Y-84533983D01*
X79242991Y-84572778D01*
X79242989Y-84572779D01*
X79086467Y-84656443D01*
X79029853Y-84673616D01*
X78916627Y-84707963D01*
X78850443Y-84714481D01*
X78784260Y-84721000D01*
X78695740Y-84721000D01*
X78629557Y-84714481D01*
X78563373Y-84707963D01*
X78450147Y-84673616D01*
X78393533Y-84656443D01*
X78237011Y-84572779D01*
X78237009Y-84572778D01*
X78189737Y-84533983D01*
X78099814Y-84460186D01*
X78016552Y-84358729D01*
X77987222Y-84322991D01*
X77977652Y-84305087D01*
X77903557Y-84166467D01*
X77886384Y-84109853D01*
X77852037Y-83996627D01*
X77834641Y-83820000D01*
X77852037Y-83643373D01*
X77892863Y-83508788D01*
X77903557Y-83473533D01*
X77987221Y-83317011D01*
X77987222Y-83317009D01*
X78016552Y-83281271D01*
X78099814Y-83179814D01*
X78201271Y-83096552D01*
X78237009Y-83067222D01*
X78254913Y-83057652D01*
X78393533Y-82983557D01*
X78450147Y-82966384D01*
X78563373Y-82932037D01*
X78629557Y-82925519D01*
X78695740Y-82919000D01*
X78784260Y-82919000D01*
X78850443Y-82925519D01*
X78850443Y-82925519D01*
G37*
G36*
X99170443Y-82925519D02*
X99236627Y-82932037D01*
X99349853Y-82966384D01*
X99406467Y-82983557D01*
X99545087Y-83057652D01*
X99562991Y-83067222D01*
X99598729Y-83096552D01*
X99700186Y-83179814D01*
X99783448Y-83281271D01*
X99812778Y-83317009D01*
X99812779Y-83317011D01*
X99896443Y-83473533D01*
X99907137Y-83508788D01*
X99947963Y-83643373D01*
X99965359Y-83820000D01*
X99947963Y-83996627D01*
X99913616Y-84109853D01*
X99896443Y-84166467D01*
X99822348Y-84305087D01*
X99812778Y-84322991D01*
X99783448Y-84358729D01*
X99700186Y-84460186D01*
X99610263Y-84533983D01*
X99562991Y-84572778D01*
X99562989Y-84572779D01*
X99406467Y-84656443D01*
X99349853Y-84673616D01*
X99236627Y-84707963D01*
X99170443Y-84714481D01*
X99104260Y-84721000D01*
X99015740Y-84721000D01*
X98949557Y-84714481D01*
X98883373Y-84707963D01*
X98770147Y-84673616D01*
X98713533Y-84656443D01*
X98557011Y-84572779D01*
X98557009Y-84572778D01*
X98509737Y-84533983D01*
X98419814Y-84460186D01*
X98336552Y-84358729D01*
X98307222Y-84322991D01*
X98297652Y-84305087D01*
X98223557Y-84166467D01*
X98206384Y-84109853D01*
X98172037Y-83996627D01*
X98154641Y-83820000D01*
X98172037Y-83643373D01*
X98212863Y-83508788D01*
X98223557Y-83473533D01*
X98307221Y-83317011D01*
X98307222Y-83317009D01*
X98336552Y-83281271D01*
X98419814Y-83179814D01*
X98521271Y-83096552D01*
X98557009Y-83067222D01*
X98574913Y-83057652D01*
X98713533Y-82983557D01*
X98770147Y-82966384D01*
X98883373Y-82932037D01*
X98949557Y-82925519D01*
X99015740Y-82919000D01*
X99104260Y-82919000D01*
X99170443Y-82925519D01*
X99170443Y-82925519D01*
G37*
G36*
X89738466Y-82602565D02*
X89777137Y-82614296D01*
X89812779Y-82633348D01*
X89844017Y-82658983D01*
X89869652Y-82690221D01*
X89888704Y-82725863D01*
X89900435Y-82764534D01*
X89905000Y-82810888D01*
X89905000Y-83462112D01*
X89900435Y-83508466D01*
X89888704Y-83547137D01*
X89869652Y-83582779D01*
X89844017Y-83614017D01*
X89812779Y-83639652D01*
X89777137Y-83658704D01*
X89738466Y-83670435D01*
X89692112Y-83675000D01*
X88615888Y-83675000D01*
X88569534Y-83670435D01*
X88530863Y-83658704D01*
X88495221Y-83639652D01*
X88463983Y-83614017D01*
X88438348Y-83582779D01*
X88419296Y-83547137D01*
X88407565Y-83508466D01*
X88403000Y-83462112D01*
X88403000Y-82810888D01*
X88407565Y-82764534D01*
X88419296Y-82725863D01*
X88438348Y-82690221D01*
X88463983Y-82658983D01*
X88495221Y-82633348D01*
X88530863Y-82614296D01*
X88569534Y-82602565D01*
X88615888Y-82598000D01*
X89692112Y-82598000D01*
X89738466Y-82602565D01*
X89738466Y-82602565D01*
G37*
G36*
X84309000Y-82403000D02*
X81807000Y-82403000D01*
X81807000Y-80301000D01*
X84309000Y-80301000D01*
X84309000Y-82403000D01*
X84309000Y-82403000D01*
G37*
G36*
X99170442Y-80385518D02*
X99236627Y-80392037D01*
X99349853Y-80426384D01*
X99406467Y-80443557D01*
X99545087Y-80517652D01*
X99562991Y-80527222D01*
X99598729Y-80556552D01*
X99700186Y-80639814D01*
X99783448Y-80741271D01*
X99812778Y-80777009D01*
X99812779Y-80777011D01*
X99896443Y-80933533D01*
X99896443Y-80933534D01*
X99947963Y-81103373D01*
X99965359Y-81280000D01*
X99947963Y-81456627D01*
X99913616Y-81569853D01*
X99896443Y-81626467D01*
X99822348Y-81765087D01*
X99812778Y-81782991D01*
X99783448Y-81818729D01*
X99700186Y-81920186D01*
X99598729Y-82003448D01*
X99562991Y-82032778D01*
X99562989Y-82032779D01*
X99406467Y-82116443D01*
X99349853Y-82133616D01*
X99236627Y-82167963D01*
X99170443Y-82174481D01*
X99104260Y-82181000D01*
X99015740Y-82181000D01*
X98949557Y-82174481D01*
X98883373Y-82167963D01*
X98770147Y-82133616D01*
X98713533Y-82116443D01*
X98557011Y-82032779D01*
X98557009Y-82032778D01*
X98521271Y-82003448D01*
X98419814Y-81920186D01*
X98336552Y-81818729D01*
X98307222Y-81782991D01*
X98297652Y-81765087D01*
X98223557Y-81626467D01*
X98206384Y-81569853D01*
X98172037Y-81456627D01*
X98154641Y-81280000D01*
X98172037Y-81103373D01*
X98223557Y-80933534D01*
X98223557Y-80933533D01*
X98307221Y-80777011D01*
X98307222Y-80777009D01*
X98336552Y-80741271D01*
X98419814Y-80639814D01*
X98521271Y-80556552D01*
X98557009Y-80527222D01*
X98574913Y-80517652D01*
X98713533Y-80443557D01*
X98770147Y-80426384D01*
X98883373Y-80392037D01*
X98949558Y-80385518D01*
X99015740Y-80379000D01*
X99104260Y-80379000D01*
X99170442Y-80385518D01*
X99170442Y-80385518D01*
G37*
G36*
X78850442Y-80385518D02*
X78916627Y-80392037D01*
X79029853Y-80426384D01*
X79086467Y-80443557D01*
X79225087Y-80517652D01*
X79242991Y-80527222D01*
X79278729Y-80556552D01*
X79380186Y-80639814D01*
X79463448Y-80741271D01*
X79492778Y-80777009D01*
X79492779Y-80777011D01*
X79576443Y-80933533D01*
X79576443Y-80933534D01*
X79627963Y-81103373D01*
X79645359Y-81280000D01*
X79627963Y-81456627D01*
X79593616Y-81569853D01*
X79576443Y-81626467D01*
X79502348Y-81765087D01*
X79492778Y-81782991D01*
X79463448Y-81818729D01*
X79380186Y-81920186D01*
X79278729Y-82003448D01*
X79242991Y-82032778D01*
X79242989Y-82032779D01*
X79086467Y-82116443D01*
X79029853Y-82133616D01*
X78916627Y-82167963D01*
X78850443Y-82174481D01*
X78784260Y-82181000D01*
X78695740Y-82181000D01*
X78629557Y-82174481D01*
X78563373Y-82167963D01*
X78450147Y-82133616D01*
X78393533Y-82116443D01*
X78237011Y-82032779D01*
X78237009Y-82032778D01*
X78201271Y-82003448D01*
X78099814Y-81920186D01*
X78016552Y-81818729D01*
X77987222Y-81782991D01*
X77977652Y-81765087D01*
X77903557Y-81626467D01*
X77886384Y-81569853D01*
X77852037Y-81456627D01*
X77834641Y-81280000D01*
X77852037Y-81103373D01*
X77903557Y-80933534D01*
X77903557Y-80933533D01*
X77987221Y-80777011D01*
X77987222Y-80777009D01*
X78016552Y-80741271D01*
X78099814Y-80639814D01*
X78201271Y-80556552D01*
X78237009Y-80527222D01*
X78254913Y-80517652D01*
X78393533Y-80443557D01*
X78450147Y-80426384D01*
X78563373Y-80392037D01*
X78629558Y-80385518D01*
X78695740Y-80379000D01*
X78784260Y-80379000D01*
X78850442Y-80385518D01*
X78850442Y-80385518D01*
G37*
G36*
X87901000Y-81436000D02*
X86649000Y-81436000D01*
X86649000Y-80584000D01*
X87901000Y-80584000D01*
X87901000Y-81436000D01*
X87901000Y-81436000D01*
G37*
G36*
X91151000Y-81436000D02*
X89899000Y-81436000D01*
X89899000Y-80584000D01*
X91151000Y-80584000D01*
X91151000Y-81436000D01*
X91151000Y-81436000D01*
G37*
G36*
X99170443Y-77845519D02*
X99236627Y-77852037D01*
X99349853Y-77886384D01*
X99406467Y-77903557D01*
X99545087Y-77977652D01*
X99562991Y-77987222D01*
X99598729Y-78016552D01*
X99700186Y-78099814D01*
X99783448Y-78201271D01*
X99812778Y-78237009D01*
X99812779Y-78237011D01*
X99896443Y-78393533D01*
X99896443Y-78393534D01*
X99947963Y-78563373D01*
X99965359Y-78740000D01*
X99947963Y-78916627D01*
X99913616Y-79029853D01*
X99896443Y-79086467D01*
X99822348Y-79225087D01*
X99812778Y-79242991D01*
X99783448Y-79278729D01*
X99700186Y-79380186D01*
X99632175Y-79436000D01*
X99562991Y-79492778D01*
X99562989Y-79492779D01*
X99406467Y-79576443D01*
X99349853Y-79593616D01*
X99236627Y-79627963D01*
X99170442Y-79634482D01*
X99104260Y-79641000D01*
X99015740Y-79641000D01*
X98949558Y-79634482D01*
X98883373Y-79627963D01*
X98770147Y-79593616D01*
X98713533Y-79576443D01*
X98557011Y-79492779D01*
X98557009Y-79492778D01*
X98487825Y-79436000D01*
X98419814Y-79380186D01*
X98336552Y-79278729D01*
X98307222Y-79242991D01*
X98297652Y-79225087D01*
X98223557Y-79086467D01*
X98206384Y-79029853D01*
X98172037Y-78916627D01*
X98154641Y-78740000D01*
X98172037Y-78563373D01*
X98223557Y-78393534D01*
X98223557Y-78393533D01*
X98307221Y-78237011D01*
X98307222Y-78237009D01*
X98336552Y-78201271D01*
X98419814Y-78099814D01*
X98521271Y-78016552D01*
X98557009Y-77987222D01*
X98574913Y-77977652D01*
X98713533Y-77903557D01*
X98770147Y-77886384D01*
X98883373Y-77852037D01*
X98949557Y-77845519D01*
X99015740Y-77839000D01*
X99104260Y-77839000D01*
X99170443Y-77845519D01*
X99170443Y-77845519D01*
G37*
G36*
X78850443Y-77845519D02*
X78916627Y-77852037D01*
X79029853Y-77886384D01*
X79086467Y-77903557D01*
X79225087Y-77977652D01*
X79242991Y-77987222D01*
X79278729Y-78016552D01*
X79380186Y-78099814D01*
X79463448Y-78201271D01*
X79492778Y-78237009D01*
X79492779Y-78237011D01*
X79576443Y-78393533D01*
X79576443Y-78393534D01*
X79627963Y-78563373D01*
X79645359Y-78740000D01*
X79627963Y-78916627D01*
X79593616Y-79029853D01*
X79576443Y-79086467D01*
X79502348Y-79225087D01*
X79492778Y-79242991D01*
X79463448Y-79278729D01*
X79380186Y-79380186D01*
X79312175Y-79436000D01*
X79242991Y-79492778D01*
X79242989Y-79492779D01*
X79086467Y-79576443D01*
X79029853Y-79593616D01*
X78916627Y-79627963D01*
X78850442Y-79634482D01*
X78784260Y-79641000D01*
X78695740Y-79641000D01*
X78629558Y-79634482D01*
X78563373Y-79627963D01*
X78450147Y-79593616D01*
X78393533Y-79576443D01*
X78237011Y-79492779D01*
X78237009Y-79492778D01*
X78167825Y-79436000D01*
X78099814Y-79380186D01*
X78016552Y-79278729D01*
X77987222Y-79242991D01*
X77977652Y-79225087D01*
X77903557Y-79086467D01*
X77886384Y-79029853D01*
X77852037Y-78916627D01*
X77834641Y-78740000D01*
X77852037Y-78563373D01*
X77903557Y-78393534D01*
X77903557Y-78393533D01*
X77987221Y-78237011D01*
X77987222Y-78237009D01*
X78016552Y-78201271D01*
X78099814Y-78099814D01*
X78201271Y-78016552D01*
X78237009Y-77987222D01*
X78254913Y-77977652D01*
X78393533Y-77903557D01*
X78450147Y-77886384D01*
X78563373Y-77852037D01*
X78629557Y-77845519D01*
X78695740Y-77839000D01*
X78784260Y-77839000D01*
X78850443Y-77845519D01*
X78850443Y-77845519D01*
G37*
G36*
X91151000Y-79436000D02*
X89899000Y-79436000D01*
X89899000Y-78584000D01*
X91151000Y-78584000D01*
X91151000Y-79436000D01*
X91151000Y-79436000D01*
G37*
G36*
X87901000Y-79436000D02*
X86649000Y-79436000D01*
X86649000Y-78584000D01*
X87901000Y-78584000D01*
X87901000Y-79436000D01*
X87901000Y-79436000D01*
G37*
G36*
X84309000Y-78703000D02*
X81807000Y-78703000D01*
X81807000Y-76601000D01*
X84309000Y-76601000D01*
X84309000Y-78703000D01*
X84309000Y-78703000D01*
G37*
G36*
X99170442Y-75305518D02*
X99236627Y-75312037D01*
X99349853Y-75346384D01*
X99406467Y-75363557D01*
X99496628Y-75411750D01*
X99562991Y-75447222D01*
X99588445Y-75468112D01*
X99700186Y-75559814D01*
X99770630Y-75645652D01*
X99812778Y-75697009D01*
X99812779Y-75697011D01*
X99896443Y-75853533D01*
X99896443Y-75853534D01*
X99947963Y-76023373D01*
X99965359Y-76200000D01*
X99947963Y-76376627D01*
X99913616Y-76489853D01*
X99896443Y-76546467D01*
X99867294Y-76601000D01*
X99812778Y-76702991D01*
X99783448Y-76738729D01*
X99700186Y-76840186D01*
X99598729Y-76923448D01*
X99562991Y-76952778D01*
X99562989Y-76952779D01*
X99406467Y-77036443D01*
X99349853Y-77053616D01*
X99236627Y-77087963D01*
X99170442Y-77094482D01*
X99104260Y-77101000D01*
X99015740Y-77101000D01*
X98949558Y-77094482D01*
X98883373Y-77087963D01*
X98770147Y-77053616D01*
X98713533Y-77036443D01*
X98557011Y-76952779D01*
X98557009Y-76952778D01*
X98521271Y-76923448D01*
X98419814Y-76840186D01*
X98336552Y-76738729D01*
X98307222Y-76702991D01*
X98252706Y-76601000D01*
X98223557Y-76546467D01*
X98206384Y-76489853D01*
X98172037Y-76376627D01*
X98154641Y-76200000D01*
X98172037Y-76023373D01*
X98223557Y-75853534D01*
X98223557Y-75853533D01*
X98307221Y-75697011D01*
X98307222Y-75697009D01*
X98349370Y-75645652D01*
X98419814Y-75559814D01*
X98531555Y-75468112D01*
X98557009Y-75447222D01*
X98623372Y-75411750D01*
X98713533Y-75363557D01*
X98770147Y-75346384D01*
X98883373Y-75312037D01*
X98949558Y-75305518D01*
X99015740Y-75299000D01*
X99104260Y-75299000D01*
X99170442Y-75305518D01*
X99170442Y-75305518D01*
G37*
G36*
X78850442Y-75305518D02*
X78916627Y-75312037D01*
X79029853Y-75346384D01*
X79086467Y-75363557D01*
X79176628Y-75411750D01*
X79242991Y-75447222D01*
X79268445Y-75468112D01*
X79380186Y-75559814D01*
X79450630Y-75645652D01*
X79492778Y-75697009D01*
X79492779Y-75697011D01*
X79576443Y-75853533D01*
X79576443Y-75853534D01*
X79627963Y-76023373D01*
X79645359Y-76200000D01*
X79627963Y-76376627D01*
X79593616Y-76489853D01*
X79576443Y-76546467D01*
X79547294Y-76601000D01*
X79492778Y-76702991D01*
X79463448Y-76738729D01*
X79380186Y-76840186D01*
X79278729Y-76923448D01*
X79242991Y-76952778D01*
X79242989Y-76952779D01*
X79086467Y-77036443D01*
X79029853Y-77053616D01*
X78916627Y-77087963D01*
X78850442Y-77094482D01*
X78784260Y-77101000D01*
X78695740Y-77101000D01*
X78629558Y-77094482D01*
X78563373Y-77087963D01*
X78450147Y-77053616D01*
X78393533Y-77036443D01*
X78237011Y-76952779D01*
X78237009Y-76952778D01*
X78201271Y-76923448D01*
X78099814Y-76840186D01*
X78016552Y-76738729D01*
X77987222Y-76702991D01*
X77932706Y-76601000D01*
X77903557Y-76546467D01*
X77886384Y-76489853D01*
X77852037Y-76376627D01*
X77834641Y-76200000D01*
X77852037Y-76023373D01*
X77903557Y-75853534D01*
X77903557Y-75853533D01*
X77987221Y-75697011D01*
X77987222Y-75697009D01*
X78029370Y-75645652D01*
X78099814Y-75559814D01*
X78211555Y-75468112D01*
X78237009Y-75447222D01*
X78303372Y-75411750D01*
X78393533Y-75363557D01*
X78450147Y-75346384D01*
X78563373Y-75312037D01*
X78629558Y-75305518D01*
X78695740Y-75299000D01*
X78784260Y-75299000D01*
X78850442Y-75305518D01*
X78850442Y-75305518D01*
G37*
G36*
X93160466Y-74183565D02*
X93199137Y-74195296D01*
X93234779Y-74214348D01*
X93266017Y-74239983D01*
X93291652Y-74271221D01*
X93310704Y-74306863D01*
X93322435Y-74345534D01*
X93327000Y-74391888D01*
X93327000Y-75468112D01*
X93322435Y-75514466D01*
X93310704Y-75553137D01*
X93291652Y-75588779D01*
X93266017Y-75620017D01*
X93234779Y-75645652D01*
X93199137Y-75664704D01*
X93160466Y-75676435D01*
X93114112Y-75681000D01*
X92462888Y-75681000D01*
X92416534Y-75676435D01*
X92377863Y-75664704D01*
X92342221Y-75645652D01*
X92310983Y-75620017D01*
X92285348Y-75588779D01*
X92266296Y-75553137D01*
X92254565Y-75514466D01*
X92250000Y-75468112D01*
X92250000Y-74391888D01*
X92254565Y-74345534D01*
X92266296Y-74306863D01*
X92285348Y-74271221D01*
X92310983Y-74239983D01*
X92342221Y-74214348D01*
X92377863Y-74195296D01*
X92416534Y-74183565D01*
X92462888Y-74179000D01*
X93114112Y-74179000D01*
X93160466Y-74183565D01*
X93160466Y-74183565D01*
G37*
G36*
X95035466Y-74183565D02*
X95074137Y-74195296D01*
X95109779Y-74214348D01*
X95141017Y-74239983D01*
X95166652Y-74271221D01*
X95185704Y-74306863D01*
X95197435Y-74345534D01*
X95202000Y-74391888D01*
X95202000Y-75468112D01*
X95197435Y-75514466D01*
X95185704Y-75553137D01*
X95166652Y-75588779D01*
X95141017Y-75620017D01*
X95109779Y-75645652D01*
X95074137Y-75664704D01*
X95035466Y-75676435D01*
X94989112Y-75681000D01*
X94337888Y-75681000D01*
X94291534Y-75676435D01*
X94252863Y-75664704D01*
X94217221Y-75645652D01*
X94185983Y-75620017D01*
X94160348Y-75588779D01*
X94141296Y-75553137D01*
X94129565Y-75514466D01*
X94125000Y-75468112D01*
X94125000Y-74391888D01*
X94129565Y-74345534D01*
X94141296Y-74306863D01*
X94160348Y-74271221D01*
X94185983Y-74239983D01*
X94217221Y-74214348D01*
X94252863Y-74195296D01*
X94291534Y-74183565D01*
X94337888Y-74179000D01*
X94989112Y-74179000D01*
X95035466Y-74183565D01*
X95035466Y-74183565D01*
G37*
G36*
X86739591Y-73709085D02*
X86773569Y-73719393D01*
X86804887Y-73736133D01*
X86832339Y-73758661D01*
X86854867Y-73786113D01*
X86871607Y-73817431D01*
X86881915Y-73851409D01*
X86886000Y-73892890D01*
X86886000Y-74494110D01*
X86881915Y-74535591D01*
X86871607Y-74569569D01*
X86854867Y-74600887D01*
X86832339Y-74628339D01*
X86804887Y-74650867D01*
X86773569Y-74667607D01*
X86739591Y-74677915D01*
X86698110Y-74682000D01*
X86021890Y-74682000D01*
X85980409Y-74677915D01*
X85946431Y-74667607D01*
X85915113Y-74650867D01*
X85887661Y-74628339D01*
X85865133Y-74600887D01*
X85848393Y-74569569D01*
X85838085Y-74535591D01*
X85834000Y-74494110D01*
X85834000Y-73892890D01*
X85838085Y-73851409D01*
X85848393Y-73817431D01*
X85865133Y-73786113D01*
X85887661Y-73758661D01*
X85915113Y-73736133D01*
X85946431Y-73719393D01*
X85980409Y-73709085D01*
X86021890Y-73705000D01*
X86698110Y-73705000D01*
X86739591Y-73709085D01*
X86739591Y-73709085D01*
G37*
G36*
X84707591Y-73709085D02*
X84741569Y-73719393D01*
X84772887Y-73736133D01*
X84800339Y-73758661D01*
X84822867Y-73786113D01*
X84839607Y-73817431D01*
X84849915Y-73851409D01*
X84854000Y-73892890D01*
X84854000Y-74494110D01*
X84849915Y-74535591D01*
X84839607Y-74569569D01*
X84822867Y-74600887D01*
X84800339Y-74628339D01*
X84772887Y-74650867D01*
X84741569Y-74667607D01*
X84707591Y-74677915D01*
X84666110Y-74682000D01*
X83989890Y-74682000D01*
X83948409Y-74677915D01*
X83914431Y-74667607D01*
X83883113Y-74650867D01*
X83855661Y-74628339D01*
X83833133Y-74600887D01*
X83816393Y-74569569D01*
X83806085Y-74535591D01*
X83802000Y-74494110D01*
X83802000Y-73892890D01*
X83806085Y-73851409D01*
X83816393Y-73817431D01*
X83833133Y-73786113D01*
X83855661Y-73758661D01*
X83883113Y-73736133D01*
X83914431Y-73719393D01*
X83948409Y-73709085D01*
X83989890Y-73705000D01*
X84666110Y-73705000D01*
X84707591Y-73709085D01*
X84707591Y-73709085D01*
G37*
G36*
X82675591Y-73709085D02*
X82709569Y-73719393D01*
X82740887Y-73736133D01*
X82768339Y-73758661D01*
X82790867Y-73786113D01*
X82807607Y-73817431D01*
X82817915Y-73851409D01*
X82822000Y-73892890D01*
X82822000Y-74494110D01*
X82817915Y-74535591D01*
X82807607Y-74569569D01*
X82790867Y-74600887D01*
X82768339Y-74628339D01*
X82740887Y-74650867D01*
X82709569Y-74667607D01*
X82675591Y-74677915D01*
X82634110Y-74682000D01*
X81957890Y-74682000D01*
X81916409Y-74677915D01*
X81882431Y-74667607D01*
X81851113Y-74650867D01*
X81823661Y-74628339D01*
X81801133Y-74600887D01*
X81784393Y-74569569D01*
X81774085Y-74535591D01*
X81770000Y-74494110D01*
X81770000Y-73892890D01*
X81774085Y-73851409D01*
X81784393Y-73817431D01*
X81801133Y-73786113D01*
X81823661Y-73758661D01*
X81851113Y-73736133D01*
X81882431Y-73719393D01*
X81916409Y-73709085D01*
X81957890Y-73705000D01*
X82634110Y-73705000D01*
X82675591Y-73709085D01*
X82675591Y-73709085D01*
G37*
G36*
X88771591Y-73709085D02*
X88805569Y-73719393D01*
X88836887Y-73736133D01*
X88864339Y-73758661D01*
X88886867Y-73786113D01*
X88903607Y-73817431D01*
X88913915Y-73851409D01*
X88918000Y-73892890D01*
X88918000Y-74494110D01*
X88913915Y-74535591D01*
X88903607Y-74569569D01*
X88886867Y-74600887D01*
X88864339Y-74628339D01*
X88836887Y-74650867D01*
X88805569Y-74667607D01*
X88771591Y-74677915D01*
X88730110Y-74682000D01*
X88053890Y-74682000D01*
X88012409Y-74677915D01*
X87978431Y-74667607D01*
X87947113Y-74650867D01*
X87919661Y-74628339D01*
X87897133Y-74600887D01*
X87880393Y-74569569D01*
X87870085Y-74535591D01*
X87866000Y-74494110D01*
X87866000Y-73892890D01*
X87870085Y-73851409D01*
X87880393Y-73817431D01*
X87897133Y-73786113D01*
X87919661Y-73758661D01*
X87947113Y-73736133D01*
X87978431Y-73719393D01*
X88012409Y-73709085D01*
X88053890Y-73705000D01*
X88730110Y-73705000D01*
X88771591Y-73709085D01*
X88771591Y-73709085D01*
G37*
G36*
X78850442Y-72765518D02*
X78916627Y-72772037D01*
X79029853Y-72806384D01*
X79086467Y-72823557D01*
X79225087Y-72897652D01*
X79242991Y-72907222D01*
X79257476Y-72919110D01*
X79380186Y-73019814D01*
X79463448Y-73121271D01*
X79492778Y-73157009D01*
X79492779Y-73157011D01*
X79576443Y-73313533D01*
X79576443Y-73313534D01*
X79627963Y-73483373D01*
X79645359Y-73660000D01*
X79627963Y-73836627D01*
X79622153Y-73855780D01*
X79576443Y-74006467D01*
X79502348Y-74145087D01*
X79492778Y-74162991D01*
X79475893Y-74183565D01*
X79380186Y-74300186D01*
X79278729Y-74383448D01*
X79242991Y-74412778D01*
X79242989Y-74412779D01*
X79086467Y-74496443D01*
X79029853Y-74513616D01*
X78916627Y-74547963D01*
X78850442Y-74554482D01*
X78784260Y-74561000D01*
X78695740Y-74561000D01*
X78629558Y-74554482D01*
X78563373Y-74547963D01*
X78450147Y-74513616D01*
X78393533Y-74496443D01*
X78237011Y-74412779D01*
X78237009Y-74412778D01*
X78201271Y-74383448D01*
X78099814Y-74300186D01*
X78004107Y-74183565D01*
X77987222Y-74162991D01*
X77977652Y-74145087D01*
X77903557Y-74006467D01*
X77857847Y-73855780D01*
X77852037Y-73836627D01*
X77834641Y-73660000D01*
X77852037Y-73483373D01*
X77903557Y-73313534D01*
X77903557Y-73313533D01*
X77987221Y-73157011D01*
X77987222Y-73157009D01*
X78016552Y-73121271D01*
X78099814Y-73019814D01*
X78222524Y-72919110D01*
X78237009Y-72907222D01*
X78254913Y-72897652D01*
X78393533Y-72823557D01*
X78450147Y-72806384D01*
X78563373Y-72772037D01*
X78629558Y-72765518D01*
X78695740Y-72759000D01*
X78784260Y-72759000D01*
X78850442Y-72765518D01*
X78850442Y-72765518D01*
G37*
G36*
X99170442Y-72765518D02*
X99236627Y-72772037D01*
X99349853Y-72806384D01*
X99406467Y-72823557D01*
X99545087Y-72897652D01*
X99562991Y-72907222D01*
X99577476Y-72919110D01*
X99700186Y-73019814D01*
X99783448Y-73121271D01*
X99812778Y-73157009D01*
X99812779Y-73157011D01*
X99896443Y-73313533D01*
X99896443Y-73313534D01*
X99947963Y-73483373D01*
X99965359Y-73660000D01*
X99947963Y-73836627D01*
X99942153Y-73855780D01*
X99896443Y-74006467D01*
X99822348Y-74145087D01*
X99812778Y-74162991D01*
X99795893Y-74183565D01*
X99700186Y-74300186D01*
X99598729Y-74383448D01*
X99562991Y-74412778D01*
X99562989Y-74412779D01*
X99406467Y-74496443D01*
X99349853Y-74513616D01*
X99236627Y-74547963D01*
X99170442Y-74554482D01*
X99104260Y-74561000D01*
X99015740Y-74561000D01*
X98949558Y-74554482D01*
X98883373Y-74547963D01*
X98770147Y-74513616D01*
X98713533Y-74496443D01*
X98557011Y-74412779D01*
X98557009Y-74412778D01*
X98521271Y-74383448D01*
X98419814Y-74300186D01*
X98324107Y-74183565D01*
X98307222Y-74162991D01*
X98297652Y-74145087D01*
X98223557Y-74006467D01*
X98177847Y-73855780D01*
X98172037Y-73836627D01*
X98154641Y-73660000D01*
X98172037Y-73483373D01*
X98223557Y-73313534D01*
X98223557Y-73313533D01*
X98307221Y-73157011D01*
X98307222Y-73157009D01*
X98336552Y-73121271D01*
X98419814Y-73019814D01*
X98542524Y-72919110D01*
X98557009Y-72907222D01*
X98574913Y-72897652D01*
X98713533Y-72823557D01*
X98770147Y-72806384D01*
X98883373Y-72772037D01*
X98949558Y-72765518D01*
X99015740Y-72759000D01*
X99104260Y-72759000D01*
X99170442Y-72765518D01*
X99170442Y-72765518D01*
G37*
G36*
X82675591Y-72134085D02*
X82709569Y-72144393D01*
X82740887Y-72161133D01*
X82768339Y-72183661D01*
X82790867Y-72211113D01*
X82807607Y-72242431D01*
X82817915Y-72276409D01*
X82822000Y-72317890D01*
X82822000Y-72919110D01*
X82817915Y-72960591D01*
X82807607Y-72994569D01*
X82790867Y-73025887D01*
X82768339Y-73053339D01*
X82740887Y-73075867D01*
X82709569Y-73092607D01*
X82675591Y-73102915D01*
X82634110Y-73107000D01*
X81957890Y-73107000D01*
X81916409Y-73102915D01*
X81882431Y-73092607D01*
X81851113Y-73075867D01*
X81823661Y-73053339D01*
X81801133Y-73025887D01*
X81784393Y-72994569D01*
X81774085Y-72960591D01*
X81770000Y-72919110D01*
X81770000Y-72317890D01*
X81774085Y-72276409D01*
X81784393Y-72242431D01*
X81801133Y-72211113D01*
X81823661Y-72183661D01*
X81851113Y-72161133D01*
X81882431Y-72144393D01*
X81916409Y-72134085D01*
X81957890Y-72130000D01*
X82634110Y-72130000D01*
X82675591Y-72134085D01*
X82675591Y-72134085D01*
G37*
G36*
X84707591Y-72134085D02*
X84741569Y-72144393D01*
X84772887Y-72161133D01*
X84800339Y-72183661D01*
X84822867Y-72211113D01*
X84839607Y-72242431D01*
X84849915Y-72276409D01*
X84854000Y-72317890D01*
X84854000Y-72919110D01*
X84849915Y-72960591D01*
X84839607Y-72994569D01*
X84822867Y-73025887D01*
X84800339Y-73053339D01*
X84772887Y-73075867D01*
X84741569Y-73092607D01*
X84707591Y-73102915D01*
X84666110Y-73107000D01*
X83989890Y-73107000D01*
X83948409Y-73102915D01*
X83914431Y-73092607D01*
X83883113Y-73075867D01*
X83855661Y-73053339D01*
X83833133Y-73025887D01*
X83816393Y-72994569D01*
X83806085Y-72960591D01*
X83802000Y-72919110D01*
X83802000Y-72317890D01*
X83806085Y-72276409D01*
X83816393Y-72242431D01*
X83833133Y-72211113D01*
X83855661Y-72183661D01*
X83883113Y-72161133D01*
X83914431Y-72144393D01*
X83948409Y-72134085D01*
X83989890Y-72130000D01*
X84666110Y-72130000D01*
X84707591Y-72134085D01*
X84707591Y-72134085D01*
G37*
G36*
X88771591Y-72134085D02*
X88805569Y-72144393D01*
X88836887Y-72161133D01*
X88864339Y-72183661D01*
X88886867Y-72211113D01*
X88903607Y-72242431D01*
X88913915Y-72276409D01*
X88918000Y-72317890D01*
X88918000Y-72919110D01*
X88913915Y-72960591D01*
X88903607Y-72994569D01*
X88886867Y-73025887D01*
X88864339Y-73053339D01*
X88836887Y-73075867D01*
X88805569Y-73092607D01*
X88771591Y-73102915D01*
X88730110Y-73107000D01*
X88053890Y-73107000D01*
X88012409Y-73102915D01*
X87978431Y-73092607D01*
X87947113Y-73075867D01*
X87919661Y-73053339D01*
X87897133Y-73025887D01*
X87880393Y-72994569D01*
X87870085Y-72960591D01*
X87866000Y-72919110D01*
X87866000Y-72317890D01*
X87870085Y-72276409D01*
X87880393Y-72242431D01*
X87897133Y-72211113D01*
X87919661Y-72183661D01*
X87947113Y-72161133D01*
X87978431Y-72144393D01*
X88012409Y-72134085D01*
X88053890Y-72130000D01*
X88730110Y-72130000D01*
X88771591Y-72134085D01*
X88771591Y-72134085D01*
G37*
G36*
X86739591Y-72134085D02*
X86773569Y-72144393D01*
X86804887Y-72161133D01*
X86832339Y-72183661D01*
X86854867Y-72211113D01*
X86871607Y-72242431D01*
X86881915Y-72276409D01*
X86886000Y-72317890D01*
X86886000Y-72919110D01*
X86881915Y-72960591D01*
X86871607Y-72994569D01*
X86854867Y-73025887D01*
X86832339Y-73053339D01*
X86804887Y-73075867D01*
X86773569Y-73092607D01*
X86739591Y-73102915D01*
X86698110Y-73107000D01*
X86021890Y-73107000D01*
X85980409Y-73102915D01*
X85946431Y-73092607D01*
X85915113Y-73075867D01*
X85887661Y-73053339D01*
X85865133Y-73025887D01*
X85848393Y-72994569D01*
X85838085Y-72960591D01*
X85834000Y-72919110D01*
X85834000Y-72317890D01*
X85838085Y-72276409D01*
X85848393Y-72242431D01*
X85865133Y-72211113D01*
X85887661Y-72183661D01*
X85915113Y-72161133D01*
X85946431Y-72144393D01*
X85980409Y-72134085D01*
X86021890Y-72130000D01*
X86698110Y-72130000D01*
X86739591Y-72134085D01*
X86739591Y-72134085D01*
G37*
G36*
X99170442Y-70225518D02*
X99236627Y-70232037D01*
X99349853Y-70266384D01*
X99406467Y-70283557D01*
X99545087Y-70357652D01*
X99562991Y-70367222D01*
X99598729Y-70396552D01*
X99700186Y-70479814D01*
X99757300Y-70549409D01*
X99812778Y-70617009D01*
X99812779Y-70617011D01*
X99896443Y-70773533D01*
X99896443Y-70773534D01*
X99947963Y-70943373D01*
X99965359Y-71120000D01*
X99947963Y-71296627D01*
X99947277Y-71298887D01*
X99896443Y-71466467D01*
X99822348Y-71605087D01*
X99812778Y-71622991D01*
X99783448Y-71658729D01*
X99700186Y-71760186D01*
X99598729Y-71843448D01*
X99562991Y-71872778D01*
X99562989Y-71872779D01*
X99406467Y-71956443D01*
X99349853Y-71973616D01*
X99236627Y-72007963D01*
X99170443Y-72014481D01*
X99104260Y-72021000D01*
X99015740Y-72021000D01*
X98949557Y-72014481D01*
X98883373Y-72007963D01*
X98770147Y-71973616D01*
X98713533Y-71956443D01*
X98557011Y-71872779D01*
X98557009Y-71872778D01*
X98521271Y-71843448D01*
X98419814Y-71760186D01*
X98336552Y-71658729D01*
X98307222Y-71622991D01*
X98297652Y-71605087D01*
X98223557Y-71466467D01*
X98172723Y-71298887D01*
X98172037Y-71296627D01*
X98154641Y-71120000D01*
X98172037Y-70943373D01*
X98223557Y-70773534D01*
X98223557Y-70773533D01*
X98307221Y-70617011D01*
X98307222Y-70617009D01*
X98362700Y-70549409D01*
X98419814Y-70479814D01*
X98521271Y-70396552D01*
X98557009Y-70367222D01*
X98574913Y-70357652D01*
X98713533Y-70283557D01*
X98770147Y-70266384D01*
X98883373Y-70232037D01*
X98949558Y-70225518D01*
X99015740Y-70219000D01*
X99104260Y-70219000D01*
X99170442Y-70225518D01*
X99170442Y-70225518D01*
G37*
G36*
X95360442Y-70225518D02*
X95426627Y-70232037D01*
X95539853Y-70266384D01*
X95596467Y-70283557D01*
X95735087Y-70357652D01*
X95752991Y-70367222D01*
X95788729Y-70396552D01*
X95890186Y-70479814D01*
X95947300Y-70549409D01*
X96002778Y-70617009D01*
X96002779Y-70617011D01*
X96086443Y-70773533D01*
X96086443Y-70773534D01*
X96137963Y-70943373D01*
X96155359Y-71120000D01*
X96137963Y-71296627D01*
X96137277Y-71298887D01*
X96086443Y-71466467D01*
X96012348Y-71605087D01*
X96002778Y-71622991D01*
X95973448Y-71658729D01*
X95890186Y-71760186D01*
X95788729Y-71843448D01*
X95752991Y-71872778D01*
X95752989Y-71872779D01*
X95596467Y-71956443D01*
X95539853Y-71973616D01*
X95426627Y-72007963D01*
X95360443Y-72014481D01*
X95294260Y-72021000D01*
X95205740Y-72021000D01*
X95139557Y-72014481D01*
X95073373Y-72007963D01*
X94960147Y-71973616D01*
X94903533Y-71956443D01*
X94747011Y-71872779D01*
X94747009Y-71872778D01*
X94711271Y-71843448D01*
X94609814Y-71760186D01*
X94526552Y-71658729D01*
X94497222Y-71622991D01*
X94487652Y-71605087D01*
X94413557Y-71466467D01*
X94362723Y-71298887D01*
X94362037Y-71296627D01*
X94344641Y-71120000D01*
X94362037Y-70943373D01*
X94413557Y-70773534D01*
X94413557Y-70773533D01*
X94497221Y-70617011D01*
X94497222Y-70617009D01*
X94552700Y-70549409D01*
X94609814Y-70479814D01*
X94711271Y-70396552D01*
X94747009Y-70367222D01*
X94764913Y-70357652D01*
X94903533Y-70283557D01*
X94960147Y-70266384D01*
X95073373Y-70232037D01*
X95139558Y-70225518D01*
X95205740Y-70219000D01*
X95294260Y-70219000D01*
X95360442Y-70225518D01*
X95360442Y-70225518D01*
G37*
G36*
X78850442Y-70225518D02*
X78916627Y-70232037D01*
X79029853Y-70266384D01*
X79086467Y-70283557D01*
X79225087Y-70357652D01*
X79242991Y-70367222D01*
X79278729Y-70396552D01*
X79380186Y-70479814D01*
X79437300Y-70549409D01*
X79492778Y-70617009D01*
X79492779Y-70617011D01*
X79576443Y-70773533D01*
X79576443Y-70773534D01*
X79627963Y-70943373D01*
X79645359Y-71120000D01*
X79627963Y-71296627D01*
X79627277Y-71298887D01*
X79576443Y-71466467D01*
X79502348Y-71605087D01*
X79492778Y-71622991D01*
X79463448Y-71658729D01*
X79380186Y-71760186D01*
X79278729Y-71843448D01*
X79242991Y-71872778D01*
X79242989Y-71872779D01*
X79086467Y-71956443D01*
X79029853Y-71973616D01*
X78916627Y-72007963D01*
X78850443Y-72014481D01*
X78784260Y-72021000D01*
X78695740Y-72021000D01*
X78629557Y-72014481D01*
X78563373Y-72007963D01*
X78450147Y-71973616D01*
X78393533Y-71956443D01*
X78237011Y-71872779D01*
X78237009Y-71872778D01*
X78201271Y-71843448D01*
X78099814Y-71760186D01*
X78016552Y-71658729D01*
X77987222Y-71622991D01*
X77977652Y-71605087D01*
X77903557Y-71466467D01*
X77852723Y-71298887D01*
X77852037Y-71296627D01*
X77834641Y-71120000D01*
X77852037Y-70943373D01*
X77903557Y-70773534D01*
X77903557Y-70773533D01*
X77987221Y-70617011D01*
X77987222Y-70617009D01*
X78042700Y-70549409D01*
X78099814Y-70479814D01*
X78201271Y-70396552D01*
X78237009Y-70367222D01*
X78254913Y-70357652D01*
X78393533Y-70283557D01*
X78450147Y-70266384D01*
X78563373Y-70232037D01*
X78629558Y-70225518D01*
X78695740Y-70219000D01*
X78784260Y-70219000D01*
X78850442Y-70225518D01*
X78850442Y-70225518D01*
G37*
G36*
X92820442Y-70225518D02*
X92886627Y-70232037D01*
X92999853Y-70266384D01*
X93056467Y-70283557D01*
X93195087Y-70357652D01*
X93212991Y-70367222D01*
X93248729Y-70396552D01*
X93350186Y-70479814D01*
X93407300Y-70549409D01*
X93462778Y-70617009D01*
X93462779Y-70617011D01*
X93546443Y-70773533D01*
X93546443Y-70773534D01*
X93597963Y-70943373D01*
X93615359Y-71120000D01*
X93597963Y-71296627D01*
X93597277Y-71298887D01*
X93546443Y-71466467D01*
X93472348Y-71605087D01*
X93462778Y-71622991D01*
X93433448Y-71658729D01*
X93350186Y-71760186D01*
X93248729Y-71843448D01*
X93212991Y-71872778D01*
X93212989Y-71872779D01*
X93056467Y-71956443D01*
X92999853Y-71973616D01*
X92886627Y-72007963D01*
X92820443Y-72014481D01*
X92754260Y-72021000D01*
X92665740Y-72021000D01*
X92599557Y-72014481D01*
X92533373Y-72007963D01*
X92420147Y-71973616D01*
X92363533Y-71956443D01*
X92207011Y-71872779D01*
X92207009Y-71872778D01*
X92171271Y-71843448D01*
X92069814Y-71760186D01*
X91986552Y-71658729D01*
X91957222Y-71622991D01*
X91947652Y-71605087D01*
X91873557Y-71466467D01*
X91822723Y-71298887D01*
X91822037Y-71296627D01*
X91804641Y-71120000D01*
X91822037Y-70943373D01*
X91873557Y-70773534D01*
X91873557Y-70773533D01*
X91957221Y-70617011D01*
X91957222Y-70617009D01*
X92012700Y-70549409D01*
X92069814Y-70479814D01*
X92171271Y-70396552D01*
X92207009Y-70367222D01*
X92224913Y-70357652D01*
X92363533Y-70283557D01*
X92420147Y-70266384D01*
X92533373Y-70232037D01*
X92599558Y-70225518D01*
X92665740Y-70219000D01*
X92754260Y-70219000D01*
X92820442Y-70225518D01*
X92820442Y-70225518D01*
G37*
G36*
X88771591Y-70407085D02*
X88805569Y-70417393D01*
X88836887Y-70434133D01*
X88864339Y-70456661D01*
X88886867Y-70484113D01*
X88903607Y-70515431D01*
X88913915Y-70549409D01*
X88918000Y-70590890D01*
X88918000Y-71192110D01*
X88913915Y-71233591D01*
X88903607Y-71267569D01*
X88886867Y-71298887D01*
X88864339Y-71326339D01*
X88836887Y-71348867D01*
X88805569Y-71365607D01*
X88771591Y-71375915D01*
X88730110Y-71380000D01*
X88053890Y-71380000D01*
X88012409Y-71375915D01*
X87978431Y-71365607D01*
X87947113Y-71348867D01*
X87919661Y-71326339D01*
X87897133Y-71298887D01*
X87880393Y-71267569D01*
X87870085Y-71233591D01*
X87866000Y-71192110D01*
X87866000Y-70590890D01*
X87870085Y-70549409D01*
X87880393Y-70515431D01*
X87897133Y-70484113D01*
X87919661Y-70456661D01*
X87947113Y-70434133D01*
X87978431Y-70417393D01*
X88012409Y-70407085D01*
X88053890Y-70403000D01*
X88730110Y-70403000D01*
X88771591Y-70407085D01*
X88771591Y-70407085D01*
G37*
G36*
X82675591Y-70407085D02*
X82709569Y-70417393D01*
X82740887Y-70434133D01*
X82768339Y-70456661D01*
X82790867Y-70484113D01*
X82807607Y-70515431D01*
X82817915Y-70549409D01*
X82822000Y-70590890D01*
X82822000Y-71192110D01*
X82817915Y-71233591D01*
X82807607Y-71267569D01*
X82790867Y-71298887D01*
X82768339Y-71326339D01*
X82740887Y-71348867D01*
X82709569Y-71365607D01*
X82675591Y-71375915D01*
X82634110Y-71380000D01*
X81957890Y-71380000D01*
X81916409Y-71375915D01*
X81882431Y-71365607D01*
X81851113Y-71348867D01*
X81823661Y-71326339D01*
X81801133Y-71298887D01*
X81784393Y-71267569D01*
X81774085Y-71233591D01*
X81770000Y-71192110D01*
X81770000Y-70590890D01*
X81774085Y-70549409D01*
X81784393Y-70515431D01*
X81801133Y-70484113D01*
X81823661Y-70456661D01*
X81851113Y-70434133D01*
X81882431Y-70417393D01*
X81916409Y-70407085D01*
X81957890Y-70403000D01*
X82634110Y-70403000D01*
X82675591Y-70407085D01*
X82675591Y-70407085D01*
G37*
G36*
X84707591Y-70407085D02*
X84741569Y-70417393D01*
X84772887Y-70434133D01*
X84800339Y-70456661D01*
X84822867Y-70484113D01*
X84839607Y-70515431D01*
X84849915Y-70549409D01*
X84854000Y-70590890D01*
X84854000Y-71192110D01*
X84849915Y-71233591D01*
X84839607Y-71267569D01*
X84822867Y-71298887D01*
X84800339Y-71326339D01*
X84772887Y-71348867D01*
X84741569Y-71365607D01*
X84707591Y-71375915D01*
X84666110Y-71380000D01*
X83989890Y-71380000D01*
X83948409Y-71375915D01*
X83914431Y-71365607D01*
X83883113Y-71348867D01*
X83855661Y-71326339D01*
X83833133Y-71298887D01*
X83816393Y-71267569D01*
X83806085Y-71233591D01*
X83802000Y-71192110D01*
X83802000Y-70590890D01*
X83806085Y-70549409D01*
X83816393Y-70515431D01*
X83833133Y-70484113D01*
X83855661Y-70456661D01*
X83883113Y-70434133D01*
X83914431Y-70417393D01*
X83948409Y-70407085D01*
X83989890Y-70403000D01*
X84666110Y-70403000D01*
X84707591Y-70407085D01*
X84707591Y-70407085D01*
G37*
G36*
X86739591Y-70407085D02*
X86773569Y-70417393D01*
X86804887Y-70434133D01*
X86832339Y-70456661D01*
X86854867Y-70484113D01*
X86871607Y-70515431D01*
X86881915Y-70549409D01*
X86886000Y-70590890D01*
X86886000Y-71192110D01*
X86881915Y-71233591D01*
X86871607Y-71267569D01*
X86854867Y-71298887D01*
X86832339Y-71326339D01*
X86804887Y-71348867D01*
X86773569Y-71365607D01*
X86739591Y-71375915D01*
X86698110Y-71380000D01*
X86021890Y-71380000D01*
X85980409Y-71375915D01*
X85946431Y-71365607D01*
X85915113Y-71348867D01*
X85887661Y-71326339D01*
X85865133Y-71298887D01*
X85848393Y-71267569D01*
X85838085Y-71233591D01*
X85834000Y-71192110D01*
X85834000Y-70590890D01*
X85838085Y-70549409D01*
X85848393Y-70515431D01*
X85865133Y-70484113D01*
X85887661Y-70456661D01*
X85915113Y-70434133D01*
X85946431Y-70417393D01*
X85980409Y-70407085D01*
X86021890Y-70403000D01*
X86698110Y-70403000D01*
X86739591Y-70407085D01*
X86739591Y-70407085D01*
G37*
G36*
X84707591Y-68832085D02*
X84741569Y-68842393D01*
X84772887Y-68859133D01*
X84800339Y-68881661D01*
X84822867Y-68909113D01*
X84839607Y-68940431D01*
X84849915Y-68974409D01*
X84854000Y-69015890D01*
X84854000Y-69617110D01*
X84849915Y-69658591D01*
X84839607Y-69692569D01*
X84822867Y-69723887D01*
X84800339Y-69751339D01*
X84772887Y-69773867D01*
X84741569Y-69790607D01*
X84707591Y-69800915D01*
X84666110Y-69805000D01*
X83989890Y-69805000D01*
X83948409Y-69800915D01*
X83914431Y-69790607D01*
X83883113Y-69773867D01*
X83855661Y-69751339D01*
X83833133Y-69723887D01*
X83816393Y-69692569D01*
X83806085Y-69658591D01*
X83802000Y-69617110D01*
X83802000Y-69015890D01*
X83806085Y-68974409D01*
X83816393Y-68940431D01*
X83833133Y-68909113D01*
X83855661Y-68881661D01*
X83883113Y-68859133D01*
X83914431Y-68842393D01*
X83948409Y-68832085D01*
X83989890Y-68828000D01*
X84666110Y-68828000D01*
X84707591Y-68832085D01*
X84707591Y-68832085D01*
G37*
G36*
X82675591Y-68832085D02*
X82709569Y-68842393D01*
X82740887Y-68859133D01*
X82768339Y-68881661D01*
X82790867Y-68909113D01*
X82807607Y-68940431D01*
X82817915Y-68974409D01*
X82822000Y-69015890D01*
X82822000Y-69617110D01*
X82817915Y-69658591D01*
X82807607Y-69692569D01*
X82790867Y-69723887D01*
X82768339Y-69751339D01*
X82740887Y-69773867D01*
X82709569Y-69790607D01*
X82675591Y-69800915D01*
X82634110Y-69805000D01*
X81957890Y-69805000D01*
X81916409Y-69800915D01*
X81882431Y-69790607D01*
X81851113Y-69773867D01*
X81823661Y-69751339D01*
X81801133Y-69723887D01*
X81784393Y-69692569D01*
X81774085Y-69658591D01*
X81770000Y-69617110D01*
X81770000Y-69015890D01*
X81774085Y-68974409D01*
X81784393Y-68940431D01*
X81801133Y-68909113D01*
X81823661Y-68881661D01*
X81851113Y-68859133D01*
X81882431Y-68842393D01*
X81916409Y-68832085D01*
X81957890Y-68828000D01*
X82634110Y-68828000D01*
X82675591Y-68832085D01*
X82675591Y-68832085D01*
G37*
G36*
X86739591Y-68832085D02*
X86773569Y-68842393D01*
X86804887Y-68859133D01*
X86832339Y-68881661D01*
X86854867Y-68909113D01*
X86871607Y-68940431D01*
X86881915Y-68974409D01*
X86886000Y-69015890D01*
X86886000Y-69617110D01*
X86881915Y-69658591D01*
X86871607Y-69692569D01*
X86854867Y-69723887D01*
X86832339Y-69751339D01*
X86804887Y-69773867D01*
X86773569Y-69790607D01*
X86739591Y-69800915D01*
X86698110Y-69805000D01*
X86021890Y-69805000D01*
X85980409Y-69800915D01*
X85946431Y-69790607D01*
X85915113Y-69773867D01*
X85887661Y-69751339D01*
X85865133Y-69723887D01*
X85848393Y-69692569D01*
X85838085Y-69658591D01*
X85834000Y-69617110D01*
X85834000Y-69015890D01*
X85838085Y-68974409D01*
X85848393Y-68940431D01*
X85865133Y-68909113D01*
X85887661Y-68881661D01*
X85915113Y-68859133D01*
X85946431Y-68842393D01*
X85980409Y-68832085D01*
X86021890Y-68828000D01*
X86698110Y-68828000D01*
X86739591Y-68832085D01*
X86739591Y-68832085D01*
G37*
G36*
X88771591Y-68832085D02*
X88805569Y-68842393D01*
X88836887Y-68859133D01*
X88864339Y-68881661D01*
X88886867Y-68909113D01*
X88903607Y-68940431D01*
X88913915Y-68974409D01*
X88918000Y-69015890D01*
X88918000Y-69617110D01*
X88913915Y-69658591D01*
X88903607Y-69692569D01*
X88886867Y-69723887D01*
X88864339Y-69751339D01*
X88836887Y-69773867D01*
X88805569Y-69790607D01*
X88771591Y-69800915D01*
X88730110Y-69805000D01*
X88053890Y-69805000D01*
X88012409Y-69800915D01*
X87978431Y-69790607D01*
X87947113Y-69773867D01*
X87919661Y-69751339D01*
X87897133Y-69723887D01*
X87880393Y-69692569D01*
X87870085Y-69658591D01*
X87866000Y-69617110D01*
X87866000Y-69015890D01*
X87870085Y-68974409D01*
X87880393Y-68940431D01*
X87897133Y-68909113D01*
X87919661Y-68881661D01*
X87947113Y-68859133D01*
X87978431Y-68842393D01*
X88012409Y-68832085D01*
X88053890Y-68828000D01*
X88730110Y-68828000D01*
X88771591Y-68832085D01*
X88771591Y-68832085D01*
G37*
G36*
X79641000Y-69481000D02*
X77839000Y-69481000D01*
X77839000Y-67679000D01*
X79641000Y-67679000D01*
X79641000Y-69481000D01*
X79641000Y-69481000D01*
G37*
G36*
X99170443Y-67685519D02*
X99236627Y-67692037D01*
X99349853Y-67726384D01*
X99406467Y-67743557D01*
X99545087Y-67817652D01*
X99562991Y-67827222D01*
X99598729Y-67856552D01*
X99700186Y-67939814D01*
X99783448Y-68041271D01*
X99812778Y-68077009D01*
X99812779Y-68077011D01*
X99896443Y-68233533D01*
X99896443Y-68233534D01*
X99947963Y-68403373D01*
X99965359Y-68580000D01*
X99947963Y-68756627D01*
X99921946Y-68842393D01*
X99896443Y-68926467D01*
X99822348Y-69065087D01*
X99812778Y-69082991D01*
X99783448Y-69118729D01*
X99700186Y-69220186D01*
X99598729Y-69303448D01*
X99562991Y-69332778D01*
X99562989Y-69332779D01*
X99406467Y-69416443D01*
X99349853Y-69433616D01*
X99236627Y-69467963D01*
X99170442Y-69474482D01*
X99104260Y-69481000D01*
X99015740Y-69481000D01*
X98949558Y-69474482D01*
X98883373Y-69467963D01*
X98770147Y-69433616D01*
X98713533Y-69416443D01*
X98557011Y-69332779D01*
X98557009Y-69332778D01*
X98521271Y-69303448D01*
X98419814Y-69220186D01*
X98336552Y-69118729D01*
X98307222Y-69082991D01*
X98297652Y-69065087D01*
X98223557Y-68926467D01*
X98198054Y-68842393D01*
X98172037Y-68756627D01*
X98154641Y-68580000D01*
X98172037Y-68403373D01*
X98223557Y-68233534D01*
X98223557Y-68233533D01*
X98307221Y-68077011D01*
X98307222Y-68077009D01*
X98336552Y-68041271D01*
X98419814Y-67939814D01*
X98521271Y-67856552D01*
X98557009Y-67827222D01*
X98574913Y-67817652D01*
X98713533Y-67743557D01*
X98770147Y-67726384D01*
X98883373Y-67692037D01*
X98949557Y-67685519D01*
X99015740Y-67679000D01*
X99104260Y-67679000D01*
X99170443Y-67685519D01*
X99170443Y-67685519D01*
G37*
G36*
X95360443Y-67685519D02*
X95426627Y-67692037D01*
X95539853Y-67726384D01*
X95596467Y-67743557D01*
X95735087Y-67817652D01*
X95752991Y-67827222D01*
X95788729Y-67856552D01*
X95890186Y-67939814D01*
X95973448Y-68041271D01*
X96002778Y-68077009D01*
X96002779Y-68077011D01*
X96086443Y-68233533D01*
X96086443Y-68233534D01*
X96137963Y-68403373D01*
X96155359Y-68580000D01*
X96137963Y-68756627D01*
X96111946Y-68842393D01*
X96086443Y-68926467D01*
X96012348Y-69065087D01*
X96002778Y-69082991D01*
X95973448Y-69118729D01*
X95890186Y-69220186D01*
X95788729Y-69303448D01*
X95752991Y-69332778D01*
X95752989Y-69332779D01*
X95596467Y-69416443D01*
X95539853Y-69433616D01*
X95426627Y-69467963D01*
X95360442Y-69474482D01*
X95294260Y-69481000D01*
X95205740Y-69481000D01*
X95139558Y-69474482D01*
X95073373Y-69467963D01*
X94960147Y-69433616D01*
X94903533Y-69416443D01*
X94747011Y-69332779D01*
X94747009Y-69332778D01*
X94711271Y-69303448D01*
X94609814Y-69220186D01*
X94526552Y-69118729D01*
X94497222Y-69082991D01*
X94487652Y-69065087D01*
X94413557Y-68926467D01*
X94388054Y-68842393D01*
X94362037Y-68756627D01*
X94344641Y-68580000D01*
X94362037Y-68403373D01*
X94413557Y-68233534D01*
X94413557Y-68233533D01*
X94497221Y-68077011D01*
X94497222Y-68077009D01*
X94526552Y-68041271D01*
X94609814Y-67939814D01*
X94711271Y-67856552D01*
X94747009Y-67827222D01*
X94764913Y-67817652D01*
X94903533Y-67743557D01*
X94960147Y-67726384D01*
X95073373Y-67692037D01*
X95139557Y-67685519D01*
X95205740Y-67679000D01*
X95294260Y-67679000D01*
X95360443Y-67685519D01*
X95360443Y-67685519D01*
G37*
G36*
X92820443Y-67685519D02*
X92886627Y-67692037D01*
X92999853Y-67726384D01*
X93056467Y-67743557D01*
X93195087Y-67817652D01*
X93212991Y-67827222D01*
X93248729Y-67856552D01*
X93350186Y-67939814D01*
X93433448Y-68041271D01*
X93462778Y-68077009D01*
X93462779Y-68077011D01*
X93546443Y-68233533D01*
X93546443Y-68233534D01*
X93597963Y-68403373D01*
X93615359Y-68580000D01*
X93597963Y-68756627D01*
X93571946Y-68842393D01*
X93546443Y-68926467D01*
X93472348Y-69065087D01*
X93462778Y-69082991D01*
X93433448Y-69118729D01*
X93350186Y-69220186D01*
X93248729Y-69303448D01*
X93212991Y-69332778D01*
X93212989Y-69332779D01*
X93056467Y-69416443D01*
X92999853Y-69433616D01*
X92886627Y-69467963D01*
X92820442Y-69474482D01*
X92754260Y-69481000D01*
X92665740Y-69481000D01*
X92599558Y-69474482D01*
X92533373Y-69467963D01*
X92420147Y-69433616D01*
X92363533Y-69416443D01*
X92207011Y-69332779D01*
X92207009Y-69332778D01*
X92171271Y-69303448D01*
X92069814Y-69220186D01*
X91986552Y-69118729D01*
X91957222Y-69082991D01*
X91947652Y-69065087D01*
X91873557Y-68926467D01*
X91848054Y-68842393D01*
X91822037Y-68756627D01*
X91804641Y-68580000D01*
X91822037Y-68403373D01*
X91873557Y-68233534D01*
X91873557Y-68233533D01*
X91957221Y-68077011D01*
X91957222Y-68077009D01*
X91986552Y-68041271D01*
X92069814Y-67939814D01*
X92171271Y-67856552D01*
X92207009Y-67827222D01*
X92224913Y-67817652D01*
X92363533Y-67743557D01*
X92420147Y-67726384D01*
X92533373Y-67692037D01*
X92599557Y-67685519D01*
X92665740Y-67679000D01*
X92754260Y-67679000D01*
X92820443Y-67685519D01*
X92820443Y-67685519D01*
G37*
G36*
X95360442Y-65145518D02*
X95426627Y-65152037D01*
X95539853Y-65186384D01*
X95596467Y-65203557D01*
X95651550Y-65233000D01*
X95752991Y-65287222D01*
X95788729Y-65316552D01*
X95890186Y-65399814D01*
X95973448Y-65501271D01*
X96002778Y-65537009D01*
X96002779Y-65537011D01*
X96086443Y-65693533D01*
X96086443Y-65693534D01*
X96137963Y-65863373D01*
X96155359Y-66040000D01*
X96137963Y-66216627D01*
X96103616Y-66329853D01*
X96086443Y-66386467D01*
X96012348Y-66525087D01*
X96002778Y-66542991D01*
X95985741Y-66563750D01*
X95890186Y-66680186D01*
X95799829Y-66754339D01*
X95752991Y-66792778D01*
X95752989Y-66792779D01*
X95596467Y-66876443D01*
X95539853Y-66893616D01*
X95426627Y-66927963D01*
X95360442Y-66934482D01*
X95294260Y-66941000D01*
X95205740Y-66941000D01*
X95139558Y-66934482D01*
X95073373Y-66927963D01*
X94960147Y-66893616D01*
X94903533Y-66876443D01*
X94747011Y-66792779D01*
X94747009Y-66792778D01*
X94700171Y-66754339D01*
X94609814Y-66680186D01*
X94514259Y-66563750D01*
X94497222Y-66542991D01*
X94487652Y-66525087D01*
X94413557Y-66386467D01*
X94396384Y-66329853D01*
X94362037Y-66216627D01*
X94344641Y-66040000D01*
X94362037Y-65863373D01*
X94413557Y-65693534D01*
X94413557Y-65693533D01*
X94497221Y-65537011D01*
X94497222Y-65537009D01*
X94526552Y-65501271D01*
X94609814Y-65399814D01*
X94711271Y-65316552D01*
X94747009Y-65287222D01*
X94848450Y-65233000D01*
X94903533Y-65203557D01*
X94960147Y-65186384D01*
X95073373Y-65152037D01*
X95139558Y-65145518D01*
X95205740Y-65139000D01*
X95294260Y-65139000D01*
X95360442Y-65145518D01*
X95360442Y-65145518D01*
G37*
G36*
X93611000Y-66941000D02*
X91809000Y-66941000D01*
X91809000Y-65139000D01*
X93611000Y-65139000D01*
X93611000Y-66941000D01*
X93611000Y-66941000D01*
G37*
G36*
X81390442Y-65145518D02*
X81456627Y-65152037D01*
X81569853Y-65186384D01*
X81626467Y-65203557D01*
X81681550Y-65233000D01*
X81782991Y-65287222D01*
X81818729Y-65316552D01*
X81920186Y-65399814D01*
X82003448Y-65501271D01*
X82032778Y-65537009D01*
X82032779Y-65537011D01*
X82116443Y-65693533D01*
X82116443Y-65693534D01*
X82167963Y-65863373D01*
X82185359Y-66040000D01*
X82167963Y-66216627D01*
X82133616Y-66329853D01*
X82116443Y-66386467D01*
X82042348Y-66525087D01*
X82032778Y-66542991D01*
X82015741Y-66563750D01*
X81920186Y-66680186D01*
X81829829Y-66754339D01*
X81782991Y-66792778D01*
X81782989Y-66792779D01*
X81626467Y-66876443D01*
X81569853Y-66893616D01*
X81456627Y-66927963D01*
X81390442Y-66934482D01*
X81324260Y-66941000D01*
X81235740Y-66941000D01*
X81169558Y-66934482D01*
X81103373Y-66927963D01*
X80990147Y-66893616D01*
X80933533Y-66876443D01*
X80777011Y-66792779D01*
X80777009Y-66792778D01*
X80730171Y-66754339D01*
X80639814Y-66680186D01*
X80544259Y-66563750D01*
X80527222Y-66542991D01*
X80517652Y-66525087D01*
X80443557Y-66386467D01*
X80426384Y-66329853D01*
X80392037Y-66216627D01*
X80374641Y-66040000D01*
X80392037Y-65863373D01*
X80443557Y-65693534D01*
X80443557Y-65693533D01*
X80527221Y-65537011D01*
X80527222Y-65537009D01*
X80556552Y-65501271D01*
X80639814Y-65399814D01*
X80741271Y-65316552D01*
X80777009Y-65287222D01*
X80878450Y-65233000D01*
X80933533Y-65203557D01*
X80990147Y-65186384D01*
X81103373Y-65152037D01*
X81169558Y-65145518D01*
X81235740Y-65139000D01*
X81324260Y-65139000D01*
X81390442Y-65145518D01*
X81390442Y-65145518D01*
G37*
G36*
X79641000Y-66941000D02*
X77839000Y-66941000D01*
X77839000Y-65139000D01*
X79641000Y-65139000D01*
X79641000Y-66941000D01*
X79641000Y-66941000D01*
G37*
G36*
X89787591Y-65835085D02*
X89821569Y-65845393D01*
X89852887Y-65862133D01*
X89880339Y-65884661D01*
X89902867Y-65912113D01*
X89919607Y-65943431D01*
X89929915Y-65977409D01*
X89934000Y-66018890D01*
X89934000Y-66620110D01*
X89929915Y-66661591D01*
X89919607Y-66695569D01*
X89902867Y-66726887D01*
X89880339Y-66754339D01*
X89852887Y-66776867D01*
X89821569Y-66793607D01*
X89787591Y-66803915D01*
X89746110Y-66808000D01*
X89069890Y-66808000D01*
X89028409Y-66803915D01*
X88994431Y-66793607D01*
X88963113Y-66776867D01*
X88935661Y-66754339D01*
X88913133Y-66726887D01*
X88896393Y-66695569D01*
X88886085Y-66661591D01*
X88882000Y-66620110D01*
X88882000Y-66018890D01*
X88886085Y-65977409D01*
X88896393Y-65943431D01*
X88913133Y-65912113D01*
X88935661Y-65884661D01*
X88963113Y-65862133D01*
X88994431Y-65845393D01*
X89028409Y-65835085D01*
X89069890Y-65831000D01*
X89746110Y-65831000D01*
X89787591Y-65835085D01*
X89787591Y-65835085D01*
G37*
G36*
X87673000Y-66587000D02*
X85271000Y-66587000D01*
X85271000Y-64985000D01*
X87673000Y-64985000D01*
X87673000Y-66587000D01*
X87673000Y-66587000D01*
G37*
G36*
X89787591Y-64260085D02*
X89821569Y-64270393D01*
X89852887Y-64287133D01*
X89880339Y-64309661D01*
X89902867Y-64337113D01*
X89919607Y-64368431D01*
X89929915Y-64402409D01*
X89934000Y-64443890D01*
X89934000Y-65045110D01*
X89929915Y-65086591D01*
X89919607Y-65120569D01*
X89902867Y-65151887D01*
X89880339Y-65179339D01*
X89852887Y-65201867D01*
X89821569Y-65218607D01*
X89787591Y-65228915D01*
X89746110Y-65233000D01*
X89069890Y-65233000D01*
X89028409Y-65228915D01*
X88994431Y-65218607D01*
X88963113Y-65201867D01*
X88935661Y-65179339D01*
X88913133Y-65151887D01*
X88896393Y-65120569D01*
X88886085Y-65086591D01*
X88882000Y-65045110D01*
X88882000Y-64443890D01*
X88886085Y-64402409D01*
X88896393Y-64368431D01*
X88913133Y-64337113D01*
X88935661Y-64309661D01*
X88963113Y-64287133D01*
X88994431Y-64270393D01*
X89028409Y-64260085D01*
X89069890Y-64256000D01*
X89746110Y-64256000D01*
X89787591Y-64260085D01*
X89787591Y-64260085D01*
G37*
M02*
