%TF.GenerationSoftware,KiCad,Pcbnew,(5.0.2)-1*%
%TF.CreationDate,2020-12-10T22:03:50+01:00*%
%TF.ProjectId,canduino,63616e64-7569-46e6-9f2e-6b696361645f,rev?*%
%TF.SameCoordinates,Original*%
%TF.FileFunction,Copper,L3,Inr*%
%TF.FilePolarity,Positive*%
%FSLAX46Y46*%
G04 Gerber Fmt 4.6, Leading zero omitted, Abs format (unit mm)*
G04 Created by KiCad (PCBNEW (5.0.2)-1) date 10.12.2020 22:03:50*
%MOMM*%
%LPD*%
G01*
G04 APERTURE LIST*
%ADD10C,0.200000*%
%ADD11O,1.700000X1.700000*%
%ADD12R,1.700000X1.700000*%
%ADD13C,0.600000*%
%ADD14O,0.450000X1.450000*%
%ADD15C,0.800000*%
%ADD16C,0.254000*%
G04 APERTURE END LIST*
D10*
X76708000Y-63500000D02*
X101092000Y-63500000D01*
X76708000Y-107188000D02*
X76708000Y-63500000D01*
X101092000Y-107188000D02*
X76708000Y-107188000D01*
X101092000Y-63500000D02*
X101092000Y-107188000D01*
D11*
X99060000Y-68580000D03*
X99060000Y-71120000D03*
X99060000Y-73660000D03*
X99060000Y-76200000D03*
X99060000Y-78740000D03*
X99060000Y-81280000D03*
X99060000Y-83820000D03*
X99060000Y-86360000D03*
X99060000Y-88900000D03*
X99060000Y-91440000D03*
X99060000Y-93980000D03*
X99060000Y-96520000D03*
X99060000Y-99060000D03*
X99060000Y-101600000D03*
D12*
X99060000Y-104140000D03*
X78740000Y-68580000D03*
D11*
X78740000Y-71120000D03*
X78740000Y-73660000D03*
X78740000Y-76200000D03*
X78740000Y-78740000D03*
X78740000Y-81280000D03*
X78740000Y-83820000D03*
X78740000Y-86360000D03*
X78740000Y-88900000D03*
X78740000Y-91440000D03*
X78740000Y-93980000D03*
X78740000Y-96520000D03*
X78740000Y-99060000D03*
X78740000Y-101600000D03*
X78740000Y-104140000D03*
D12*
X92710000Y-66040000D03*
D11*
X95250000Y-66040000D03*
X92710000Y-68580000D03*
X95250000Y-68580000D03*
X92710000Y-71120000D03*
X95250000Y-71120000D03*
D13*
X86950000Y-103395000D03*
X90850000Y-103395000D03*
D14*
X86075000Y-105545000D03*
X91725000Y-105545000D03*
D12*
X78740000Y-66040000D03*
D11*
X81280000Y-66040000D03*
D15*
X95504000Y-76708000D03*
X85890100Y-80721200D03*
X83058000Y-81352000D03*
X85189060Y-78714600D03*
X84678520Y-67409060D03*
X82278220Y-69301360D03*
X84277200Y-69623940D03*
X86367620Y-69298820D03*
X88447880Y-69364860D03*
X89514680Y-70860920D03*
X91587320Y-75857100D03*
X94942660Y-73936860D03*
X89161620Y-85120480D03*
X80645000Y-91186000D03*
X96047560Y-104922320D03*
X88953340Y-105529380D03*
X91003120Y-94701360D03*
X81026000Y-96647000D03*
X87718900Y-90601800D03*
X83972400Y-89839800D03*
X90439240Y-102283260D03*
X82550000Y-104407500D03*
X83738720Y-97121980D03*
X95250000Y-97395500D03*
X90970100Y-100152200D03*
X96418400Y-99136200D03*
X92786200Y-74980800D03*
X85712300Y-76492100D03*
X82169000Y-79301999D03*
X84693760Y-66136520D03*
X84074000Y-75438000D03*
X90309700Y-72898000D03*
X95415100Y-88074500D03*
X87553800Y-91554300D03*
X95481140Y-93525340D03*
X96799400Y-94983300D03*
X83439000Y-98679000D03*
X90563700Y-97579180D03*
X92329000Y-102997000D03*
X82550000Y-101932500D03*
X83030010Y-90868500D03*
X81280000Y-89740500D03*
X82599998Y-87795148D03*
X93726000Y-106172000D03*
X95123000Y-102743000D03*
X94361000Y-101346000D03*
X87927729Y-98129137D03*
X89009220Y-87038180D03*
X89695020Y-95730060D03*
X89382600Y-92240100D03*
X91517382Y-87582922D03*
X91846400Y-84632800D03*
X87274400Y-79027020D03*
X95267780Y-85676740D03*
X80899000Y-97663000D03*
X97155000Y-86525100D03*
X96842580Y-91338400D03*
X90944700Y-93738700D03*
X88953340Y-99001580D03*
X88975000Y-100014234D03*
X88612980Y-67940001D03*
X91191080Y-66144140D03*
X80909160Y-76979780D03*
X77824673Y-105949190D03*
X77431900Y-102666800D03*
X86352380Y-75763120D03*
X90909140Y-85488780D03*
X90195400Y-91554300D03*
X81870174Y-93239775D03*
X77985990Y-92741463D03*
X85598000Y-88265000D03*
X84678520Y-64894460D03*
X89598500Y-90805000D03*
X93035120Y-77149960D03*
X94449900Y-98615500D03*
X97028000Y-101092000D03*
X87767160Y-85628480D03*
X82689657Y-84435519D03*
X86448900Y-87261700D03*
X81444847Y-86824567D03*
X100418900Y-98285300D03*
X97548700Y-88036400D03*
X83858100Y-100203000D03*
X80937100Y-99072700D03*
D16*
G36*
X83801089Y-64308180D02*
X83643520Y-64688586D01*
X83643520Y-65100334D01*
X83801089Y-65480740D01*
X83843459Y-65523110D01*
X83816329Y-65550240D01*
X83658760Y-65930646D01*
X83658760Y-66342394D01*
X83816329Y-66722800D01*
X84107480Y-67013951D01*
X84487886Y-67171520D01*
X84899634Y-67171520D01*
X85280040Y-67013951D01*
X85571191Y-66722800D01*
X85728760Y-66342394D01*
X85728760Y-65938266D01*
X90156080Y-65938266D01*
X90156080Y-66350014D01*
X90313649Y-66730420D01*
X90604800Y-67021571D01*
X90985206Y-67179140D01*
X91289489Y-67179140D01*
X91402191Y-67347809D01*
X91612235Y-67488157D01*
X91657619Y-67497184D01*
X91639375Y-67509375D01*
X91311161Y-68000582D01*
X91195908Y-68580000D01*
X91311161Y-69159418D01*
X91639375Y-69650625D01*
X91937761Y-69850000D01*
X91639375Y-70049375D01*
X91311161Y-70540582D01*
X91195908Y-71120000D01*
X91311161Y-71699418D01*
X91639375Y-72190625D01*
X92130582Y-72518839D01*
X92563744Y-72605000D01*
X92856256Y-72605000D01*
X93289418Y-72518839D01*
X93780625Y-72190625D01*
X93981353Y-71890214D01*
X94368642Y-72315183D01*
X94893108Y-72561486D01*
X95123000Y-72440819D01*
X95123000Y-71247000D01*
X95377000Y-71247000D01*
X95377000Y-72440819D01*
X95606892Y-72561486D01*
X96131358Y-72315183D01*
X96521645Y-71886924D01*
X96691476Y-71476890D01*
X96570155Y-71247000D01*
X95377000Y-71247000D01*
X95123000Y-71247000D01*
X95103000Y-71247000D01*
X95103000Y-70993000D01*
X95123000Y-70993000D01*
X95123000Y-70973000D01*
X95377000Y-70973000D01*
X95377000Y-70993000D01*
X96570155Y-70993000D01*
X96691476Y-70763110D01*
X96521645Y-70353076D01*
X96131358Y-69924817D01*
X96001522Y-69863843D01*
X96320625Y-69650625D01*
X96648839Y-69159418D01*
X96764092Y-68580000D01*
X96648839Y-68000582D01*
X96320625Y-67509375D01*
X96022239Y-67310000D01*
X96320625Y-67110625D01*
X96648839Y-66619418D01*
X96764092Y-66040000D01*
X96648839Y-65460582D01*
X96320625Y-64969375D01*
X95829418Y-64641161D01*
X95396256Y-64555000D01*
X95103744Y-64555000D01*
X94670582Y-64641161D01*
X94179375Y-64969375D01*
X94167184Y-64987619D01*
X94158157Y-64942235D01*
X94017809Y-64732191D01*
X93807765Y-64591843D01*
X93560000Y-64542560D01*
X91860000Y-64542560D01*
X91612235Y-64591843D01*
X91402191Y-64732191D01*
X91261843Y-64942235D01*
X91228644Y-65109140D01*
X90985206Y-65109140D01*
X90604800Y-65266709D01*
X90313649Y-65557860D01*
X90156080Y-65938266D01*
X85728760Y-65938266D01*
X85728760Y-65930646D01*
X85571191Y-65550240D01*
X85528821Y-65507870D01*
X85555951Y-65480740D01*
X85713520Y-65100334D01*
X85713520Y-64688586D01*
X85555951Y-64308180D01*
X85482771Y-64235000D01*
X100357000Y-64235000D01*
X100357000Y-67848169D01*
X100130625Y-67509375D01*
X99639418Y-67181161D01*
X99206256Y-67095000D01*
X98913744Y-67095000D01*
X98480582Y-67181161D01*
X97989375Y-67509375D01*
X97661161Y-68000582D01*
X97545908Y-68580000D01*
X97661161Y-69159418D01*
X97989375Y-69650625D01*
X98308478Y-69863843D01*
X98178642Y-69924817D01*
X97788355Y-70353076D01*
X97618524Y-70763110D01*
X97739845Y-70993000D01*
X98933000Y-70993000D01*
X98933000Y-70973000D01*
X99187000Y-70973000D01*
X99187000Y-70993000D01*
X99207000Y-70993000D01*
X99207000Y-71247000D01*
X99187000Y-71247000D01*
X99187000Y-71267000D01*
X98933000Y-71267000D01*
X98933000Y-71247000D01*
X97739845Y-71247000D01*
X97618524Y-71476890D01*
X97788355Y-71886924D01*
X98178642Y-72315183D01*
X98308478Y-72376157D01*
X97989375Y-72589375D01*
X97661161Y-73080582D01*
X97545908Y-73660000D01*
X97661161Y-74239418D01*
X97989375Y-74730625D01*
X98287761Y-74930000D01*
X97989375Y-75129375D01*
X97661161Y-75620582D01*
X97545908Y-76200000D01*
X97661161Y-76779418D01*
X97989375Y-77270625D01*
X98287761Y-77470000D01*
X97989375Y-77669375D01*
X97661161Y-78160582D01*
X97545908Y-78740000D01*
X97661161Y-79319418D01*
X97989375Y-79810625D01*
X98287761Y-80010000D01*
X97989375Y-80209375D01*
X97661161Y-80700582D01*
X97545908Y-81280000D01*
X97661161Y-81859418D01*
X97989375Y-82350625D01*
X98287761Y-82550000D01*
X97989375Y-82749375D01*
X97661161Y-83240582D01*
X97545908Y-83820000D01*
X97661161Y-84399418D01*
X97989375Y-84890625D01*
X98287761Y-85090000D01*
X97989375Y-85289375D01*
X97746490Y-85652879D01*
X97741280Y-85647669D01*
X97360874Y-85490100D01*
X96949126Y-85490100D01*
X96568720Y-85647669D01*
X96280863Y-85935526D01*
X96302780Y-85882614D01*
X96302780Y-85470866D01*
X96145211Y-85090460D01*
X95854060Y-84799309D01*
X95473654Y-84641740D01*
X95061906Y-84641740D01*
X94681500Y-84799309D01*
X94390349Y-85090460D01*
X94232780Y-85470866D01*
X94232780Y-85882614D01*
X94390349Y-86263020D01*
X94681500Y-86554171D01*
X95061906Y-86711740D01*
X95473654Y-86711740D01*
X95854060Y-86554171D01*
X96141917Y-86266314D01*
X96120000Y-86319226D01*
X96120000Y-86730974D01*
X96277569Y-87111380D01*
X96568720Y-87402531D01*
X96674884Y-87446505D01*
X96671269Y-87450120D01*
X96513700Y-87830526D01*
X96513700Y-88242274D01*
X96671269Y-88622680D01*
X96962420Y-88913831D01*
X97342826Y-89071400D01*
X97580001Y-89071400D01*
X97661161Y-89479418D01*
X97989375Y-89970625D01*
X98287761Y-90170000D01*
X97989375Y-90369375D01*
X97725224Y-90764705D01*
X97720011Y-90752120D01*
X97428860Y-90460969D01*
X97048454Y-90303400D01*
X96636706Y-90303400D01*
X96256300Y-90460969D01*
X95965149Y-90752120D01*
X95807580Y-91132526D01*
X95807580Y-91544274D01*
X95965149Y-91924680D01*
X96256300Y-92215831D01*
X96636706Y-92373400D01*
X97048454Y-92373400D01*
X97428860Y-92215831D01*
X97655207Y-91989484D01*
X97661161Y-92019418D01*
X97989375Y-92510625D01*
X98287761Y-92710000D01*
X97989375Y-92909375D01*
X97661161Y-93400582D01*
X97545908Y-93980000D01*
X97616946Y-94337135D01*
X97385680Y-94105869D01*
X97005274Y-93948300D01*
X96593526Y-93948300D01*
X96391570Y-94031953D01*
X96516140Y-93731214D01*
X96516140Y-93319466D01*
X96358571Y-92939060D01*
X96067420Y-92647909D01*
X95687014Y-92490340D01*
X95275266Y-92490340D01*
X94894860Y-92647909D01*
X94603709Y-92939060D01*
X94446140Y-93319466D01*
X94446140Y-93731214D01*
X94603709Y-94111620D01*
X94894860Y-94402771D01*
X95275266Y-94560340D01*
X95687014Y-94560340D01*
X95888970Y-94476687D01*
X95764400Y-94777426D01*
X95764400Y-95189174D01*
X95921969Y-95569580D01*
X96213120Y-95860731D01*
X96593526Y-96018300D01*
X97005274Y-96018300D01*
X97385680Y-95860731D01*
X97676831Y-95569580D01*
X97834400Y-95189174D01*
X97834400Y-94818689D01*
X97989375Y-95050625D01*
X98287761Y-95250000D01*
X97989375Y-95449375D01*
X97661161Y-95940582D01*
X97545908Y-96520000D01*
X97661161Y-97099418D01*
X97989375Y-97590625D01*
X98287761Y-97790000D01*
X97989375Y-97989375D01*
X97661161Y-98480582D01*
X97545908Y-99060000D01*
X97661161Y-99639418D01*
X97989375Y-100130625D01*
X98287761Y-100330000D01*
X97989375Y-100529375D01*
X97943604Y-100597877D01*
X97905431Y-100505720D01*
X97614280Y-100214569D01*
X97233874Y-100057000D01*
X96822126Y-100057000D01*
X96441720Y-100214569D01*
X96150569Y-100505720D01*
X95993000Y-100886126D01*
X95993000Y-101297874D01*
X96150569Y-101678280D01*
X96441720Y-101969431D01*
X96822126Y-102127000D01*
X97233874Y-102127000D01*
X97614280Y-101969431D01*
X97618544Y-101965167D01*
X97661161Y-102179418D01*
X97989375Y-102670625D01*
X98007619Y-102682816D01*
X97962235Y-102691843D01*
X97752191Y-102832191D01*
X97611843Y-103042235D01*
X97562560Y-103290000D01*
X97562560Y-104990000D01*
X97611843Y-105237765D01*
X97752191Y-105447809D01*
X97962235Y-105588157D01*
X98210000Y-105637440D01*
X99910000Y-105637440D01*
X100157765Y-105588157D01*
X100357001Y-105455031D01*
X100357001Y-106453000D01*
X94729882Y-106453000D01*
X94761000Y-106377874D01*
X94761000Y-105966126D01*
X94603431Y-105585720D01*
X94312280Y-105294569D01*
X93931874Y-105137000D01*
X93520126Y-105137000D01*
X93139720Y-105294569D01*
X92848569Y-105585720D01*
X92691000Y-105966126D01*
X92691000Y-106377874D01*
X92722118Y-106453000D01*
X92484662Y-106453000D01*
X92585000Y-106172000D01*
X92585000Y-105672000D01*
X91837500Y-105672000D01*
X91837500Y-105692000D01*
X91612500Y-105692000D01*
X91612500Y-105672000D01*
X90865000Y-105672000D01*
X90865000Y-106172000D01*
X90965338Y-106453000D01*
X86834662Y-106453000D01*
X86935000Y-106172000D01*
X86935000Y-105672000D01*
X86187500Y-105672000D01*
X86187500Y-105692000D01*
X85962500Y-105692000D01*
X85962500Y-105672000D01*
X85215000Y-105672000D01*
X85215000Y-106172000D01*
X85315338Y-106453000D01*
X78736264Y-106453000D01*
X78859673Y-106155064D01*
X78859673Y-105743316D01*
X78810665Y-105625000D01*
X78886256Y-105625000D01*
X79319418Y-105538839D01*
X79810625Y-105210625D01*
X80006150Y-104918000D01*
X85215000Y-104918000D01*
X85215000Y-105418000D01*
X85962500Y-105418000D01*
X85962500Y-104352833D01*
X86187500Y-104352833D01*
X86187500Y-105418000D01*
X86935000Y-105418000D01*
X86935000Y-104918000D01*
X90865000Y-104918000D01*
X90865000Y-105418000D01*
X91612500Y-105418000D01*
X91612500Y-104352833D01*
X91837500Y-104352833D01*
X91837500Y-105418000D01*
X92585000Y-105418000D01*
X92585000Y-104918000D01*
X92470936Y-104598560D01*
X92243310Y-104347086D01*
X91969493Y-104220486D01*
X91837500Y-104352833D01*
X91612500Y-104352833D01*
X91480507Y-104220486D01*
X91206690Y-104347086D01*
X90979064Y-104598560D01*
X90865000Y-104918000D01*
X86935000Y-104918000D01*
X86820936Y-104598560D01*
X86593310Y-104347086D01*
X86319493Y-104220486D01*
X86187500Y-104352833D01*
X85962500Y-104352833D01*
X85830507Y-104220486D01*
X85556690Y-104347086D01*
X85329064Y-104598560D01*
X85215000Y-104918000D01*
X80006150Y-104918000D01*
X80138839Y-104719418D01*
X80254092Y-104140000D01*
X80138839Y-103560582D01*
X79903931Y-103209017D01*
X86015000Y-103209017D01*
X86015000Y-103580983D01*
X86157345Y-103924635D01*
X86420365Y-104187655D01*
X86764017Y-104330000D01*
X87135983Y-104330000D01*
X87479635Y-104187655D01*
X87742655Y-103924635D01*
X87885000Y-103580983D01*
X87885000Y-103209017D01*
X89915000Y-103209017D01*
X89915000Y-103580983D01*
X90057345Y-103924635D01*
X90320365Y-104187655D01*
X90664017Y-104330000D01*
X91035983Y-104330000D01*
X91379635Y-104187655D01*
X91642655Y-103924635D01*
X91686668Y-103818379D01*
X91742720Y-103874431D01*
X92123126Y-104032000D01*
X92534874Y-104032000D01*
X92915280Y-103874431D01*
X93206431Y-103583280D01*
X93364000Y-103202874D01*
X93364000Y-102791126D01*
X93206431Y-102410720D01*
X92915280Y-102119569D01*
X92534874Y-101962000D01*
X92123126Y-101962000D01*
X91742720Y-102119569D01*
X91451569Y-102410720D01*
X91373285Y-102599715D01*
X91035983Y-102460000D01*
X90664017Y-102460000D01*
X90320365Y-102602345D01*
X90057345Y-102865365D01*
X89915000Y-103209017D01*
X87885000Y-103209017D01*
X87742655Y-102865365D01*
X87479635Y-102602345D01*
X87135983Y-102460000D01*
X86764017Y-102460000D01*
X86420365Y-102602345D01*
X86157345Y-102865365D01*
X86015000Y-103209017D01*
X79903931Y-103209017D01*
X79810625Y-103069375D01*
X79512239Y-102870000D01*
X79810625Y-102670625D01*
X80138839Y-102179418D01*
X80228904Y-101726626D01*
X81515000Y-101726626D01*
X81515000Y-102138374D01*
X81672569Y-102518780D01*
X81963720Y-102809931D01*
X82344126Y-102967500D01*
X82755874Y-102967500D01*
X83136280Y-102809931D01*
X83427431Y-102518780D01*
X83585000Y-102138374D01*
X83585000Y-101726626D01*
X83427431Y-101346220D01*
X83136280Y-101055069D01*
X82755874Y-100897500D01*
X82344126Y-100897500D01*
X81963720Y-101055069D01*
X81672569Y-101346220D01*
X81515000Y-101726626D01*
X80228904Y-101726626D01*
X80254092Y-101600000D01*
X80138839Y-101020582D01*
X79810625Y-100529375D01*
X79512239Y-100330000D01*
X79810625Y-100130625D01*
X80099293Y-99698604D01*
X80350820Y-99950131D01*
X80731226Y-100107700D01*
X81142974Y-100107700D01*
X81523380Y-99950131D01*
X81814531Y-99658980D01*
X81972100Y-99278574D01*
X81972100Y-98866826D01*
X81814531Y-98486420D01*
X81801237Y-98473126D01*
X82404000Y-98473126D01*
X82404000Y-98884874D01*
X82561569Y-99265280D01*
X82852720Y-99556431D01*
X82985824Y-99611565D01*
X82980669Y-99616720D01*
X82823100Y-99997126D01*
X82823100Y-100408874D01*
X82980669Y-100789280D01*
X83271820Y-101080431D01*
X83652226Y-101238000D01*
X84063974Y-101238000D01*
X84300263Y-101140126D01*
X93326000Y-101140126D01*
X93326000Y-101551874D01*
X93483569Y-101932280D01*
X93774720Y-102223431D01*
X94153029Y-102380131D01*
X94088000Y-102537126D01*
X94088000Y-102948874D01*
X94245569Y-103329280D01*
X94536720Y-103620431D01*
X94917126Y-103778000D01*
X95328874Y-103778000D01*
X95709280Y-103620431D01*
X96000431Y-103329280D01*
X96158000Y-102948874D01*
X96158000Y-102537126D01*
X96000431Y-102156720D01*
X95709280Y-101865569D01*
X95330971Y-101708869D01*
X95396000Y-101551874D01*
X95396000Y-101140126D01*
X95238431Y-100759720D01*
X94947280Y-100468569D01*
X94566874Y-100311000D01*
X94155126Y-100311000D01*
X93774720Y-100468569D01*
X93483569Y-100759720D01*
X93326000Y-101140126D01*
X84300263Y-101140126D01*
X84444380Y-101080431D01*
X84735531Y-100789280D01*
X84893100Y-100408874D01*
X84893100Y-99997126D01*
X84735531Y-99616720D01*
X84444380Y-99325569D01*
X84311276Y-99270435D01*
X84316431Y-99265280D01*
X84474000Y-98884874D01*
X84474000Y-98473126D01*
X84316431Y-98092720D01*
X84146974Y-97923263D01*
X86892729Y-97923263D01*
X86892729Y-98335011D01*
X87050298Y-98715417D01*
X87341449Y-99006568D01*
X87721855Y-99164137D01*
X87918340Y-99164137D01*
X87918340Y-99207454D01*
X88053621Y-99534053D01*
X87940000Y-99808360D01*
X87940000Y-100220108D01*
X88097569Y-100600514D01*
X88388720Y-100891665D01*
X88769126Y-101049234D01*
X89180874Y-101049234D01*
X89561280Y-100891665D01*
X89852431Y-100600514D01*
X90010000Y-100220108D01*
X90010000Y-99808360D01*
X89874719Y-99481761D01*
X89988340Y-99207454D01*
X89988340Y-98795706D01*
X89830771Y-98415300D01*
X89539620Y-98124149D01*
X89159214Y-97966580D01*
X88962729Y-97966580D01*
X88962729Y-97923263D01*
X88805160Y-97542857D01*
X88514009Y-97251706D01*
X88133603Y-97094137D01*
X87721855Y-97094137D01*
X87341449Y-97251706D01*
X87050298Y-97542857D01*
X86892729Y-97923263D01*
X84146974Y-97923263D01*
X84025280Y-97801569D01*
X83644874Y-97644000D01*
X83233126Y-97644000D01*
X82852720Y-97801569D01*
X82561569Y-98092720D01*
X82404000Y-98473126D01*
X81801237Y-98473126D01*
X81676911Y-98348800D01*
X81776431Y-98249280D01*
X81934000Y-97868874D01*
X81934000Y-97457126D01*
X81776431Y-97076720D01*
X81485280Y-96785569D01*
X81104874Y-96628000D01*
X80693126Y-96628000D01*
X80312720Y-96785569D01*
X80173593Y-96924696D01*
X80254092Y-96520000D01*
X80138839Y-95940582D01*
X79860613Y-95524186D01*
X88660020Y-95524186D01*
X88660020Y-95935934D01*
X88817589Y-96316340D01*
X89108740Y-96607491D01*
X89489146Y-96765060D01*
X89900894Y-96765060D01*
X89923453Y-96755716D01*
X89686269Y-96992900D01*
X89528700Y-97373306D01*
X89528700Y-97785054D01*
X89686269Y-98165460D01*
X89977420Y-98456611D01*
X90357826Y-98614180D01*
X90769574Y-98614180D01*
X91149980Y-98456611D01*
X91196965Y-98409626D01*
X93414900Y-98409626D01*
X93414900Y-98821374D01*
X93572469Y-99201780D01*
X93863620Y-99492931D01*
X94244026Y-99650500D01*
X94655774Y-99650500D01*
X95036180Y-99492931D01*
X95327331Y-99201780D01*
X95484900Y-98821374D01*
X95484900Y-98409626D01*
X95327331Y-98029220D01*
X95036180Y-97738069D01*
X94655774Y-97580500D01*
X94244026Y-97580500D01*
X93863620Y-97738069D01*
X93572469Y-98029220D01*
X93414900Y-98409626D01*
X91196965Y-98409626D01*
X91441131Y-98165460D01*
X91598700Y-97785054D01*
X91598700Y-97373306D01*
X91441131Y-96992900D01*
X91149980Y-96701749D01*
X90769574Y-96544180D01*
X90357826Y-96544180D01*
X90335267Y-96553524D01*
X90572451Y-96316340D01*
X90730020Y-95935934D01*
X90730020Y-95524186D01*
X90572451Y-95143780D01*
X90281300Y-94852629D01*
X89900894Y-94695060D01*
X89489146Y-94695060D01*
X89108740Y-94852629D01*
X88817589Y-95143780D01*
X88660020Y-95524186D01*
X79860613Y-95524186D01*
X79810625Y-95449375D01*
X79512239Y-95250000D01*
X79810625Y-95050625D01*
X80138839Y-94559418D01*
X80254092Y-93980000D01*
X80138839Y-93400582D01*
X79893831Y-93033901D01*
X80835174Y-93033901D01*
X80835174Y-93445649D01*
X80992743Y-93826055D01*
X81283894Y-94117206D01*
X81664300Y-94274775D01*
X82076048Y-94274775D01*
X82456454Y-94117206D01*
X82747605Y-93826055D01*
X82869064Y-93532826D01*
X89909700Y-93532826D01*
X89909700Y-93944574D01*
X90067269Y-94324980D01*
X90358420Y-94616131D01*
X90738826Y-94773700D01*
X91150574Y-94773700D01*
X91530980Y-94616131D01*
X91822131Y-94324980D01*
X91979700Y-93944574D01*
X91979700Y-93532826D01*
X91822131Y-93152420D01*
X91530980Y-92861269D01*
X91150574Y-92703700D01*
X90738826Y-92703700D01*
X90358420Y-92861269D01*
X90067269Y-93152420D01*
X89909700Y-93532826D01*
X82869064Y-93532826D01*
X82905174Y-93445649D01*
X82905174Y-93033901D01*
X82747605Y-92653495D01*
X82456454Y-92362344D01*
X82076048Y-92204775D01*
X81664300Y-92204775D01*
X81283894Y-92362344D01*
X80992743Y-92653495D01*
X80835174Y-93033901D01*
X79893831Y-93033901D01*
X79810625Y-92909375D01*
X79512239Y-92710000D01*
X79810625Y-92510625D01*
X80138839Y-92019418D01*
X80254092Y-91440000D01*
X80138839Y-90860582D01*
X79810625Y-90369375D01*
X79512239Y-90170000D01*
X79810625Y-89970625D01*
X80101950Y-89534626D01*
X80245000Y-89534626D01*
X80245000Y-89946374D01*
X80402569Y-90326780D01*
X80693720Y-90617931D01*
X81074126Y-90775500D01*
X81485874Y-90775500D01*
X81866280Y-90617931D01*
X82117640Y-90366571D01*
X81995010Y-90662626D01*
X81995010Y-91074374D01*
X82152579Y-91454780D01*
X82443730Y-91745931D01*
X82824136Y-91903500D01*
X83235884Y-91903500D01*
X83616290Y-91745931D01*
X83907441Y-91454780D01*
X83951494Y-91348426D01*
X86518800Y-91348426D01*
X86518800Y-91760174D01*
X86676369Y-92140580D01*
X86967520Y-92431731D01*
X87347926Y-92589300D01*
X87759674Y-92589300D01*
X88140080Y-92431731D01*
X88347600Y-92224211D01*
X88347600Y-92445974D01*
X88505169Y-92826380D01*
X88796320Y-93117531D01*
X89176726Y-93275100D01*
X89588474Y-93275100D01*
X89968880Y-93117531D01*
X90260031Y-92826380D01*
X90358233Y-92589300D01*
X90401274Y-92589300D01*
X90781680Y-92431731D01*
X91072831Y-92140580D01*
X91230400Y-91760174D01*
X91230400Y-91348426D01*
X91072831Y-90968020D01*
X90781680Y-90676869D01*
X90633500Y-90615491D01*
X90633500Y-90599126D01*
X90475931Y-90218720D01*
X90184780Y-89927569D01*
X89804374Y-89770000D01*
X89392626Y-89770000D01*
X89012220Y-89927569D01*
X88721069Y-90218720D01*
X88563500Y-90599126D01*
X88563500Y-91010874D01*
X88721069Y-91391280D01*
X88744389Y-91414600D01*
X88588800Y-91570189D01*
X88588800Y-91348426D01*
X88431231Y-90968020D01*
X88140080Y-90676869D01*
X87759674Y-90519300D01*
X87347926Y-90519300D01*
X86967520Y-90676869D01*
X86676369Y-90968020D01*
X86518800Y-91348426D01*
X83951494Y-91348426D01*
X84065010Y-91074374D01*
X84065010Y-90662626D01*
X83907441Y-90282220D01*
X83616290Y-89991069D01*
X83235884Y-89833500D01*
X82824136Y-89833500D01*
X82443730Y-89991069D01*
X82192370Y-90242429D01*
X82315000Y-89946374D01*
X82315000Y-89534626D01*
X82157431Y-89154220D01*
X81866280Y-88863069D01*
X81485874Y-88705500D01*
X81074126Y-88705500D01*
X80693720Y-88863069D01*
X80402569Y-89154220D01*
X80245000Y-89534626D01*
X80101950Y-89534626D01*
X80138839Y-89479418D01*
X80254092Y-88900000D01*
X80138839Y-88320582D01*
X79810625Y-87829375D01*
X79512239Y-87630000D01*
X79810625Y-87430625D01*
X80138839Y-86939418D01*
X80202634Y-86618693D01*
X80409847Y-86618693D01*
X80409847Y-87030441D01*
X80567416Y-87410847D01*
X80858567Y-87701998D01*
X81238973Y-87859567D01*
X81564998Y-87859567D01*
X81564998Y-88001022D01*
X81722567Y-88381428D01*
X82013718Y-88672579D01*
X82394124Y-88830148D01*
X82805872Y-88830148D01*
X83186278Y-88672579D01*
X83477429Y-88381428D01*
X83610930Y-88059126D01*
X84563000Y-88059126D01*
X84563000Y-88470874D01*
X84720569Y-88851280D01*
X85011720Y-89142431D01*
X85392126Y-89300000D01*
X85803874Y-89300000D01*
X86184280Y-89142431D01*
X86475431Y-88851280D01*
X86633000Y-88470874D01*
X86633000Y-88296700D01*
X86654774Y-88296700D01*
X87035180Y-88139131D01*
X87326331Y-87847980D01*
X87483900Y-87467574D01*
X87483900Y-87055826D01*
X87326331Y-86675420D01*
X87035180Y-86384269D01*
X86654774Y-86226700D01*
X86243026Y-86226700D01*
X85862620Y-86384269D01*
X85571469Y-86675420D01*
X85413900Y-87055826D01*
X85413900Y-87230000D01*
X85392126Y-87230000D01*
X85011720Y-87387569D01*
X84720569Y-87678720D01*
X84563000Y-88059126D01*
X83610930Y-88059126D01*
X83634998Y-88001022D01*
X83634998Y-87589274D01*
X83477429Y-87208868D01*
X83186278Y-86917717D01*
X82805872Y-86760148D01*
X82479847Y-86760148D01*
X82479847Y-86618693D01*
X82322278Y-86238287D01*
X82031127Y-85947136D01*
X81650721Y-85789567D01*
X81238973Y-85789567D01*
X80858567Y-85947136D01*
X80567416Y-86238287D01*
X80409847Y-86618693D01*
X80202634Y-86618693D01*
X80254092Y-86360000D01*
X80138839Y-85780582D01*
X79810625Y-85289375D01*
X79512239Y-85090000D01*
X79810625Y-84890625D01*
X80138839Y-84399418D01*
X80172608Y-84229645D01*
X81654657Y-84229645D01*
X81654657Y-84641393D01*
X81812226Y-85021799D01*
X82103377Y-85312950D01*
X82483783Y-85470519D01*
X82895531Y-85470519D01*
X83011203Y-85422606D01*
X86732160Y-85422606D01*
X86732160Y-85834354D01*
X86889729Y-86214760D01*
X87180880Y-86505911D01*
X87561286Y-86663480D01*
X87973034Y-86663480D01*
X88058878Y-86627922D01*
X87974220Y-86832306D01*
X87974220Y-87244054D01*
X88131789Y-87624460D01*
X88422940Y-87915611D01*
X88803346Y-88073180D01*
X89215094Y-88073180D01*
X89595500Y-87915611D01*
X89886651Y-87624460D01*
X89989132Y-87377048D01*
X90482382Y-87377048D01*
X90482382Y-87788796D01*
X90639951Y-88169202D01*
X90931102Y-88460353D01*
X91311508Y-88617922D01*
X91723256Y-88617922D01*
X92103662Y-88460353D01*
X92394813Y-88169202D01*
X92519315Y-87868626D01*
X94380100Y-87868626D01*
X94380100Y-88280374D01*
X94537669Y-88660780D01*
X94828820Y-88951931D01*
X95209226Y-89109500D01*
X95620974Y-89109500D01*
X96001380Y-88951931D01*
X96292531Y-88660780D01*
X96450100Y-88280374D01*
X96450100Y-87868626D01*
X96292531Y-87488220D01*
X96001380Y-87197069D01*
X95620974Y-87039500D01*
X95209226Y-87039500D01*
X94828820Y-87197069D01*
X94537669Y-87488220D01*
X94380100Y-87868626D01*
X92519315Y-87868626D01*
X92552382Y-87788796D01*
X92552382Y-87377048D01*
X92394813Y-86996642D01*
X92103662Y-86705491D01*
X91723256Y-86547922D01*
X91311508Y-86547922D01*
X90931102Y-86705491D01*
X90639951Y-86996642D01*
X90482382Y-87377048D01*
X89989132Y-87377048D01*
X90044220Y-87244054D01*
X90044220Y-86832306D01*
X89886651Y-86451900D01*
X89595500Y-86160749D01*
X89215094Y-86003180D01*
X88803346Y-86003180D01*
X88717502Y-86038738D01*
X88802160Y-85834354D01*
X88802160Y-85422606D01*
X88744295Y-85282906D01*
X89874140Y-85282906D01*
X89874140Y-85694654D01*
X90031709Y-86075060D01*
X90322860Y-86366211D01*
X90703266Y-86523780D01*
X91115014Y-86523780D01*
X91495420Y-86366211D01*
X91786571Y-86075060D01*
X91944140Y-85694654D01*
X91944140Y-85667800D01*
X92052274Y-85667800D01*
X92432680Y-85510231D01*
X92723831Y-85219080D01*
X92881400Y-84838674D01*
X92881400Y-84426926D01*
X92723831Y-84046520D01*
X92432680Y-83755369D01*
X92052274Y-83597800D01*
X91640526Y-83597800D01*
X91260120Y-83755369D01*
X90968969Y-84046520D01*
X90811400Y-84426926D01*
X90811400Y-84453780D01*
X90703266Y-84453780D01*
X90322860Y-84611349D01*
X90031709Y-84902500D01*
X89874140Y-85282906D01*
X88744295Y-85282906D01*
X88644591Y-85042200D01*
X88353440Y-84751049D01*
X87973034Y-84593480D01*
X87561286Y-84593480D01*
X87180880Y-84751049D01*
X86889729Y-85042200D01*
X86732160Y-85422606D01*
X83011203Y-85422606D01*
X83275937Y-85312950D01*
X83567088Y-85021799D01*
X83724657Y-84641393D01*
X83724657Y-84229645D01*
X83567088Y-83849239D01*
X83275937Y-83558088D01*
X82895531Y-83400519D01*
X82483783Y-83400519D01*
X82103377Y-83558088D01*
X81812226Y-83849239D01*
X81654657Y-84229645D01*
X80172608Y-84229645D01*
X80254092Y-83820000D01*
X80138839Y-83240582D01*
X79810625Y-82749375D01*
X79512239Y-82550000D01*
X79810625Y-82350625D01*
X80138839Y-81859418D01*
X80254092Y-81280000D01*
X80227463Y-81146126D01*
X82023000Y-81146126D01*
X82023000Y-81557874D01*
X82180569Y-81938280D01*
X82471720Y-82229431D01*
X82852126Y-82387000D01*
X83263874Y-82387000D01*
X83644280Y-82229431D01*
X83935431Y-81938280D01*
X84093000Y-81557874D01*
X84093000Y-81146126D01*
X83935431Y-80765720D01*
X83685037Y-80515326D01*
X84855100Y-80515326D01*
X84855100Y-80927074D01*
X85012669Y-81307480D01*
X85303820Y-81598631D01*
X85684226Y-81756200D01*
X86095974Y-81756200D01*
X86476380Y-81598631D01*
X86767531Y-81307480D01*
X86925100Y-80927074D01*
X86925100Y-80515326D01*
X86767531Y-80134920D01*
X86476380Y-79843769D01*
X86095974Y-79686200D01*
X85684226Y-79686200D01*
X85303820Y-79843769D01*
X85012669Y-80134920D01*
X84855100Y-80515326D01*
X83685037Y-80515326D01*
X83644280Y-80474569D01*
X83263874Y-80317000D01*
X82852126Y-80317000D01*
X82471720Y-80474569D01*
X82180569Y-80765720D01*
X82023000Y-81146126D01*
X80227463Y-81146126D01*
X80138839Y-80700582D01*
X79810625Y-80209375D01*
X79512239Y-80010000D01*
X79810625Y-79810625D01*
X80138839Y-79319418D01*
X80183254Y-79096125D01*
X81134000Y-79096125D01*
X81134000Y-79507873D01*
X81291569Y-79888279D01*
X81582720Y-80179430D01*
X81963126Y-80336999D01*
X82374874Y-80336999D01*
X82755280Y-80179430D01*
X83046431Y-79888279D01*
X83204000Y-79507873D01*
X83204000Y-79096125D01*
X83090101Y-78821146D01*
X86239400Y-78821146D01*
X86239400Y-79232894D01*
X86396969Y-79613300D01*
X86688120Y-79904451D01*
X87068526Y-80062020D01*
X87480274Y-80062020D01*
X87860680Y-79904451D01*
X88151831Y-79613300D01*
X88309400Y-79232894D01*
X88309400Y-78821146D01*
X88151831Y-78440740D01*
X87860680Y-78149589D01*
X87480274Y-77992020D01*
X87068526Y-77992020D01*
X86688120Y-78149589D01*
X86396969Y-78440740D01*
X86239400Y-78821146D01*
X83090101Y-78821146D01*
X83046431Y-78715719D01*
X82755280Y-78424568D01*
X82374874Y-78266999D01*
X81963126Y-78266999D01*
X81582720Y-78424568D01*
X81291569Y-78715719D01*
X81134000Y-79096125D01*
X80183254Y-79096125D01*
X80254092Y-78740000D01*
X80138839Y-78160582D01*
X79810625Y-77669375D01*
X79491522Y-77456157D01*
X79621358Y-77395183D01*
X79874160Y-77117785D01*
X79874160Y-77185654D01*
X80031729Y-77566060D01*
X80322880Y-77857211D01*
X80703286Y-78014780D01*
X81115034Y-78014780D01*
X81495440Y-77857211D01*
X81786591Y-77566060D01*
X81944160Y-77185654D01*
X81944160Y-76773906D01*
X81786591Y-76393500D01*
X81495440Y-76102349D01*
X81115034Y-75944780D01*
X80703286Y-75944780D01*
X80322880Y-76102349D01*
X80073307Y-76351922D01*
X80060155Y-76327000D01*
X78867000Y-76327000D01*
X78867000Y-76347000D01*
X78613000Y-76347000D01*
X78613000Y-76327000D01*
X78593000Y-76327000D01*
X78593000Y-76073000D01*
X78613000Y-76073000D01*
X78613000Y-76053000D01*
X78867000Y-76053000D01*
X78867000Y-76073000D01*
X80060155Y-76073000D01*
X80181476Y-75843110D01*
X80011645Y-75433076D01*
X79828513Y-75232126D01*
X83039000Y-75232126D01*
X83039000Y-75643874D01*
X83196569Y-76024280D01*
X83487720Y-76315431D01*
X83868126Y-76473000D01*
X84279874Y-76473000D01*
X84660280Y-76315431D01*
X84677300Y-76298411D01*
X84677300Y-76697974D01*
X84834869Y-77078380D01*
X85126020Y-77369531D01*
X85506426Y-77527100D01*
X85918174Y-77527100D01*
X86298580Y-77369531D01*
X86589731Y-77078380D01*
X86645357Y-76944086D01*
X92000120Y-76944086D01*
X92000120Y-77355834D01*
X92157689Y-77736240D01*
X92448840Y-78027391D01*
X92829246Y-78184960D01*
X93240994Y-78184960D01*
X93621400Y-78027391D01*
X93912551Y-77736240D01*
X94070120Y-77355834D01*
X94070120Y-76944086D01*
X93912551Y-76563680D01*
X93850997Y-76502126D01*
X94469000Y-76502126D01*
X94469000Y-76913874D01*
X94626569Y-77294280D01*
X94917720Y-77585431D01*
X95298126Y-77743000D01*
X95709874Y-77743000D01*
X96090280Y-77585431D01*
X96381431Y-77294280D01*
X96539000Y-76913874D01*
X96539000Y-76502126D01*
X96381431Y-76121720D01*
X96090280Y-75830569D01*
X95709874Y-75673000D01*
X95298126Y-75673000D01*
X94917720Y-75830569D01*
X94626569Y-76121720D01*
X94469000Y-76502126D01*
X93850997Y-76502126D01*
X93621400Y-76272529D01*
X93240994Y-76114960D01*
X92829246Y-76114960D01*
X92448840Y-76272529D01*
X92157689Y-76563680D01*
X92000120Y-76944086D01*
X86645357Y-76944086D01*
X86736380Y-76724338D01*
X86938660Y-76640551D01*
X87229811Y-76349400D01*
X87387380Y-75968994D01*
X87387380Y-75557246D01*
X87229811Y-75176840D01*
X86938660Y-74885689D01*
X86671254Y-74774926D01*
X91751200Y-74774926D01*
X91751200Y-75186674D01*
X91908769Y-75567080D01*
X92199920Y-75858231D01*
X92580326Y-76015800D01*
X92992074Y-76015800D01*
X93372480Y-75858231D01*
X93663631Y-75567080D01*
X93821200Y-75186674D01*
X93821200Y-74774926D01*
X93663631Y-74394520D01*
X93372480Y-74103369D01*
X92992074Y-73945800D01*
X92580326Y-73945800D01*
X92199920Y-74103369D01*
X91908769Y-74394520D01*
X91751200Y-74774926D01*
X86671254Y-74774926D01*
X86558254Y-74728120D01*
X86146506Y-74728120D01*
X85766100Y-74885689D01*
X85474949Y-75176840D01*
X85328300Y-75530882D01*
X85126020Y-75614669D01*
X85109000Y-75631689D01*
X85109000Y-75232126D01*
X84951431Y-74851720D01*
X84660280Y-74560569D01*
X84279874Y-74403000D01*
X83868126Y-74403000D01*
X83487720Y-74560569D01*
X83196569Y-74851720D01*
X83039000Y-75232126D01*
X79828513Y-75232126D01*
X79621358Y-75004817D01*
X79491522Y-74943843D01*
X79810625Y-74730625D01*
X80138839Y-74239418D01*
X80254092Y-73660000D01*
X80138839Y-73080582D01*
X79879282Y-72692126D01*
X89274700Y-72692126D01*
X89274700Y-73103874D01*
X89432269Y-73484280D01*
X89723420Y-73775431D01*
X90103826Y-73933000D01*
X90515574Y-73933000D01*
X90895980Y-73775431D01*
X91187131Y-73484280D01*
X91344700Y-73103874D01*
X91344700Y-72692126D01*
X91187131Y-72311720D01*
X90895980Y-72020569D01*
X90515574Y-71863000D01*
X90103826Y-71863000D01*
X89723420Y-72020569D01*
X89432269Y-72311720D01*
X89274700Y-72692126D01*
X79879282Y-72692126D01*
X79810625Y-72589375D01*
X79512239Y-72390000D01*
X79810625Y-72190625D01*
X80138839Y-71699418D01*
X80254092Y-71120000D01*
X80138839Y-70540582D01*
X79810625Y-70049375D01*
X79792381Y-70037184D01*
X79837765Y-70028157D01*
X80047809Y-69887809D01*
X80188157Y-69677765D01*
X80237440Y-69430000D01*
X80237440Y-67734127D01*
X87577980Y-67734127D01*
X87577980Y-68145875D01*
X87735549Y-68526281D01*
X88026700Y-68817432D01*
X88407106Y-68975001D01*
X88818854Y-68975001D01*
X89199260Y-68817432D01*
X89490411Y-68526281D01*
X89647980Y-68145875D01*
X89647980Y-67734127D01*
X89490411Y-67353721D01*
X89199260Y-67062570D01*
X88818854Y-66905001D01*
X88407106Y-66905001D01*
X88026700Y-67062570D01*
X87735549Y-67353721D01*
X87577980Y-67734127D01*
X80237440Y-67734127D01*
X80237440Y-67730000D01*
X80188157Y-67482235D01*
X80073072Y-67310000D01*
X80188157Y-67137765D01*
X80197184Y-67092381D01*
X80209375Y-67110625D01*
X80700582Y-67438839D01*
X81133744Y-67525000D01*
X81426256Y-67525000D01*
X81859418Y-67438839D01*
X82350625Y-67110625D01*
X82678839Y-66619418D01*
X82794092Y-66040000D01*
X82678839Y-65460582D01*
X82350625Y-64969375D01*
X81859418Y-64641161D01*
X81426256Y-64555000D01*
X81133744Y-64555000D01*
X80700582Y-64641161D01*
X80209375Y-64969375D01*
X80197184Y-64987619D01*
X80188157Y-64942235D01*
X80047809Y-64732191D01*
X79837765Y-64591843D01*
X79590000Y-64542560D01*
X77890000Y-64542560D01*
X77642235Y-64591843D01*
X77443000Y-64724969D01*
X77443000Y-64235000D01*
X83874269Y-64235000D01*
X83801089Y-64308180D01*
X83801089Y-64308180D01*
G37*
X83801089Y-64308180D02*
X83643520Y-64688586D01*
X83643520Y-65100334D01*
X83801089Y-65480740D01*
X83843459Y-65523110D01*
X83816329Y-65550240D01*
X83658760Y-65930646D01*
X83658760Y-66342394D01*
X83816329Y-66722800D01*
X84107480Y-67013951D01*
X84487886Y-67171520D01*
X84899634Y-67171520D01*
X85280040Y-67013951D01*
X85571191Y-66722800D01*
X85728760Y-66342394D01*
X85728760Y-65938266D01*
X90156080Y-65938266D01*
X90156080Y-66350014D01*
X90313649Y-66730420D01*
X90604800Y-67021571D01*
X90985206Y-67179140D01*
X91289489Y-67179140D01*
X91402191Y-67347809D01*
X91612235Y-67488157D01*
X91657619Y-67497184D01*
X91639375Y-67509375D01*
X91311161Y-68000582D01*
X91195908Y-68580000D01*
X91311161Y-69159418D01*
X91639375Y-69650625D01*
X91937761Y-69850000D01*
X91639375Y-70049375D01*
X91311161Y-70540582D01*
X91195908Y-71120000D01*
X91311161Y-71699418D01*
X91639375Y-72190625D01*
X92130582Y-72518839D01*
X92563744Y-72605000D01*
X92856256Y-72605000D01*
X93289418Y-72518839D01*
X93780625Y-72190625D01*
X93981353Y-71890214D01*
X94368642Y-72315183D01*
X94893108Y-72561486D01*
X95123000Y-72440819D01*
X95123000Y-71247000D01*
X95377000Y-71247000D01*
X95377000Y-72440819D01*
X95606892Y-72561486D01*
X96131358Y-72315183D01*
X96521645Y-71886924D01*
X96691476Y-71476890D01*
X96570155Y-71247000D01*
X95377000Y-71247000D01*
X95123000Y-71247000D01*
X95103000Y-71247000D01*
X95103000Y-70993000D01*
X95123000Y-70993000D01*
X95123000Y-70973000D01*
X95377000Y-70973000D01*
X95377000Y-70993000D01*
X96570155Y-70993000D01*
X96691476Y-70763110D01*
X96521645Y-70353076D01*
X96131358Y-69924817D01*
X96001522Y-69863843D01*
X96320625Y-69650625D01*
X96648839Y-69159418D01*
X96764092Y-68580000D01*
X96648839Y-68000582D01*
X96320625Y-67509375D01*
X96022239Y-67310000D01*
X96320625Y-67110625D01*
X96648839Y-66619418D01*
X96764092Y-66040000D01*
X96648839Y-65460582D01*
X96320625Y-64969375D01*
X95829418Y-64641161D01*
X95396256Y-64555000D01*
X95103744Y-64555000D01*
X94670582Y-64641161D01*
X94179375Y-64969375D01*
X94167184Y-64987619D01*
X94158157Y-64942235D01*
X94017809Y-64732191D01*
X93807765Y-64591843D01*
X93560000Y-64542560D01*
X91860000Y-64542560D01*
X91612235Y-64591843D01*
X91402191Y-64732191D01*
X91261843Y-64942235D01*
X91228644Y-65109140D01*
X90985206Y-65109140D01*
X90604800Y-65266709D01*
X90313649Y-65557860D01*
X90156080Y-65938266D01*
X85728760Y-65938266D01*
X85728760Y-65930646D01*
X85571191Y-65550240D01*
X85528821Y-65507870D01*
X85555951Y-65480740D01*
X85713520Y-65100334D01*
X85713520Y-64688586D01*
X85555951Y-64308180D01*
X85482771Y-64235000D01*
X100357000Y-64235000D01*
X100357000Y-67848169D01*
X100130625Y-67509375D01*
X99639418Y-67181161D01*
X99206256Y-67095000D01*
X98913744Y-67095000D01*
X98480582Y-67181161D01*
X97989375Y-67509375D01*
X97661161Y-68000582D01*
X97545908Y-68580000D01*
X97661161Y-69159418D01*
X97989375Y-69650625D01*
X98308478Y-69863843D01*
X98178642Y-69924817D01*
X97788355Y-70353076D01*
X97618524Y-70763110D01*
X97739845Y-70993000D01*
X98933000Y-70993000D01*
X98933000Y-70973000D01*
X99187000Y-70973000D01*
X99187000Y-70993000D01*
X99207000Y-70993000D01*
X99207000Y-71247000D01*
X99187000Y-71247000D01*
X99187000Y-71267000D01*
X98933000Y-71267000D01*
X98933000Y-71247000D01*
X97739845Y-71247000D01*
X97618524Y-71476890D01*
X97788355Y-71886924D01*
X98178642Y-72315183D01*
X98308478Y-72376157D01*
X97989375Y-72589375D01*
X97661161Y-73080582D01*
X97545908Y-73660000D01*
X97661161Y-74239418D01*
X97989375Y-74730625D01*
X98287761Y-74930000D01*
X97989375Y-75129375D01*
X97661161Y-75620582D01*
X97545908Y-76200000D01*
X97661161Y-76779418D01*
X97989375Y-77270625D01*
X98287761Y-77470000D01*
X97989375Y-77669375D01*
X97661161Y-78160582D01*
X97545908Y-78740000D01*
X97661161Y-79319418D01*
X97989375Y-79810625D01*
X98287761Y-80010000D01*
X97989375Y-80209375D01*
X97661161Y-80700582D01*
X97545908Y-81280000D01*
X97661161Y-81859418D01*
X97989375Y-82350625D01*
X98287761Y-82550000D01*
X97989375Y-82749375D01*
X97661161Y-83240582D01*
X97545908Y-83820000D01*
X97661161Y-84399418D01*
X97989375Y-84890625D01*
X98287761Y-85090000D01*
X97989375Y-85289375D01*
X97746490Y-85652879D01*
X97741280Y-85647669D01*
X97360874Y-85490100D01*
X96949126Y-85490100D01*
X96568720Y-85647669D01*
X96280863Y-85935526D01*
X96302780Y-85882614D01*
X96302780Y-85470866D01*
X96145211Y-85090460D01*
X95854060Y-84799309D01*
X95473654Y-84641740D01*
X95061906Y-84641740D01*
X94681500Y-84799309D01*
X94390349Y-85090460D01*
X94232780Y-85470866D01*
X94232780Y-85882614D01*
X94390349Y-86263020D01*
X94681500Y-86554171D01*
X95061906Y-86711740D01*
X95473654Y-86711740D01*
X95854060Y-86554171D01*
X96141917Y-86266314D01*
X96120000Y-86319226D01*
X96120000Y-86730974D01*
X96277569Y-87111380D01*
X96568720Y-87402531D01*
X96674884Y-87446505D01*
X96671269Y-87450120D01*
X96513700Y-87830526D01*
X96513700Y-88242274D01*
X96671269Y-88622680D01*
X96962420Y-88913831D01*
X97342826Y-89071400D01*
X97580001Y-89071400D01*
X97661161Y-89479418D01*
X97989375Y-89970625D01*
X98287761Y-90170000D01*
X97989375Y-90369375D01*
X97725224Y-90764705D01*
X97720011Y-90752120D01*
X97428860Y-90460969D01*
X97048454Y-90303400D01*
X96636706Y-90303400D01*
X96256300Y-90460969D01*
X95965149Y-90752120D01*
X95807580Y-91132526D01*
X95807580Y-91544274D01*
X95965149Y-91924680D01*
X96256300Y-92215831D01*
X96636706Y-92373400D01*
X97048454Y-92373400D01*
X97428860Y-92215831D01*
X97655207Y-91989484D01*
X97661161Y-92019418D01*
X97989375Y-92510625D01*
X98287761Y-92710000D01*
X97989375Y-92909375D01*
X97661161Y-93400582D01*
X97545908Y-93980000D01*
X97616946Y-94337135D01*
X97385680Y-94105869D01*
X97005274Y-93948300D01*
X96593526Y-93948300D01*
X96391570Y-94031953D01*
X96516140Y-93731214D01*
X96516140Y-93319466D01*
X96358571Y-92939060D01*
X96067420Y-92647909D01*
X95687014Y-92490340D01*
X95275266Y-92490340D01*
X94894860Y-92647909D01*
X94603709Y-92939060D01*
X94446140Y-93319466D01*
X94446140Y-93731214D01*
X94603709Y-94111620D01*
X94894860Y-94402771D01*
X95275266Y-94560340D01*
X95687014Y-94560340D01*
X95888970Y-94476687D01*
X95764400Y-94777426D01*
X95764400Y-95189174D01*
X95921969Y-95569580D01*
X96213120Y-95860731D01*
X96593526Y-96018300D01*
X97005274Y-96018300D01*
X97385680Y-95860731D01*
X97676831Y-95569580D01*
X97834400Y-95189174D01*
X97834400Y-94818689D01*
X97989375Y-95050625D01*
X98287761Y-95250000D01*
X97989375Y-95449375D01*
X97661161Y-95940582D01*
X97545908Y-96520000D01*
X97661161Y-97099418D01*
X97989375Y-97590625D01*
X98287761Y-97790000D01*
X97989375Y-97989375D01*
X97661161Y-98480582D01*
X97545908Y-99060000D01*
X97661161Y-99639418D01*
X97989375Y-100130625D01*
X98287761Y-100330000D01*
X97989375Y-100529375D01*
X97943604Y-100597877D01*
X97905431Y-100505720D01*
X97614280Y-100214569D01*
X97233874Y-100057000D01*
X96822126Y-100057000D01*
X96441720Y-100214569D01*
X96150569Y-100505720D01*
X95993000Y-100886126D01*
X95993000Y-101297874D01*
X96150569Y-101678280D01*
X96441720Y-101969431D01*
X96822126Y-102127000D01*
X97233874Y-102127000D01*
X97614280Y-101969431D01*
X97618544Y-101965167D01*
X97661161Y-102179418D01*
X97989375Y-102670625D01*
X98007619Y-102682816D01*
X97962235Y-102691843D01*
X97752191Y-102832191D01*
X97611843Y-103042235D01*
X97562560Y-103290000D01*
X97562560Y-104990000D01*
X97611843Y-105237765D01*
X97752191Y-105447809D01*
X97962235Y-105588157D01*
X98210000Y-105637440D01*
X99910000Y-105637440D01*
X100157765Y-105588157D01*
X100357001Y-105455031D01*
X100357001Y-106453000D01*
X94729882Y-106453000D01*
X94761000Y-106377874D01*
X94761000Y-105966126D01*
X94603431Y-105585720D01*
X94312280Y-105294569D01*
X93931874Y-105137000D01*
X93520126Y-105137000D01*
X93139720Y-105294569D01*
X92848569Y-105585720D01*
X92691000Y-105966126D01*
X92691000Y-106377874D01*
X92722118Y-106453000D01*
X92484662Y-106453000D01*
X92585000Y-106172000D01*
X92585000Y-105672000D01*
X91837500Y-105672000D01*
X91837500Y-105692000D01*
X91612500Y-105692000D01*
X91612500Y-105672000D01*
X90865000Y-105672000D01*
X90865000Y-106172000D01*
X90965338Y-106453000D01*
X86834662Y-106453000D01*
X86935000Y-106172000D01*
X86935000Y-105672000D01*
X86187500Y-105672000D01*
X86187500Y-105692000D01*
X85962500Y-105692000D01*
X85962500Y-105672000D01*
X85215000Y-105672000D01*
X85215000Y-106172000D01*
X85315338Y-106453000D01*
X78736264Y-106453000D01*
X78859673Y-106155064D01*
X78859673Y-105743316D01*
X78810665Y-105625000D01*
X78886256Y-105625000D01*
X79319418Y-105538839D01*
X79810625Y-105210625D01*
X80006150Y-104918000D01*
X85215000Y-104918000D01*
X85215000Y-105418000D01*
X85962500Y-105418000D01*
X85962500Y-104352833D01*
X86187500Y-104352833D01*
X86187500Y-105418000D01*
X86935000Y-105418000D01*
X86935000Y-104918000D01*
X90865000Y-104918000D01*
X90865000Y-105418000D01*
X91612500Y-105418000D01*
X91612500Y-104352833D01*
X91837500Y-104352833D01*
X91837500Y-105418000D01*
X92585000Y-105418000D01*
X92585000Y-104918000D01*
X92470936Y-104598560D01*
X92243310Y-104347086D01*
X91969493Y-104220486D01*
X91837500Y-104352833D01*
X91612500Y-104352833D01*
X91480507Y-104220486D01*
X91206690Y-104347086D01*
X90979064Y-104598560D01*
X90865000Y-104918000D01*
X86935000Y-104918000D01*
X86820936Y-104598560D01*
X86593310Y-104347086D01*
X86319493Y-104220486D01*
X86187500Y-104352833D01*
X85962500Y-104352833D01*
X85830507Y-104220486D01*
X85556690Y-104347086D01*
X85329064Y-104598560D01*
X85215000Y-104918000D01*
X80006150Y-104918000D01*
X80138839Y-104719418D01*
X80254092Y-104140000D01*
X80138839Y-103560582D01*
X79903931Y-103209017D01*
X86015000Y-103209017D01*
X86015000Y-103580983D01*
X86157345Y-103924635D01*
X86420365Y-104187655D01*
X86764017Y-104330000D01*
X87135983Y-104330000D01*
X87479635Y-104187655D01*
X87742655Y-103924635D01*
X87885000Y-103580983D01*
X87885000Y-103209017D01*
X89915000Y-103209017D01*
X89915000Y-103580983D01*
X90057345Y-103924635D01*
X90320365Y-104187655D01*
X90664017Y-104330000D01*
X91035983Y-104330000D01*
X91379635Y-104187655D01*
X91642655Y-103924635D01*
X91686668Y-103818379D01*
X91742720Y-103874431D01*
X92123126Y-104032000D01*
X92534874Y-104032000D01*
X92915280Y-103874431D01*
X93206431Y-103583280D01*
X93364000Y-103202874D01*
X93364000Y-102791126D01*
X93206431Y-102410720D01*
X92915280Y-102119569D01*
X92534874Y-101962000D01*
X92123126Y-101962000D01*
X91742720Y-102119569D01*
X91451569Y-102410720D01*
X91373285Y-102599715D01*
X91035983Y-102460000D01*
X90664017Y-102460000D01*
X90320365Y-102602345D01*
X90057345Y-102865365D01*
X89915000Y-103209017D01*
X87885000Y-103209017D01*
X87742655Y-102865365D01*
X87479635Y-102602345D01*
X87135983Y-102460000D01*
X86764017Y-102460000D01*
X86420365Y-102602345D01*
X86157345Y-102865365D01*
X86015000Y-103209017D01*
X79903931Y-103209017D01*
X79810625Y-103069375D01*
X79512239Y-102870000D01*
X79810625Y-102670625D01*
X80138839Y-102179418D01*
X80228904Y-101726626D01*
X81515000Y-101726626D01*
X81515000Y-102138374D01*
X81672569Y-102518780D01*
X81963720Y-102809931D01*
X82344126Y-102967500D01*
X82755874Y-102967500D01*
X83136280Y-102809931D01*
X83427431Y-102518780D01*
X83585000Y-102138374D01*
X83585000Y-101726626D01*
X83427431Y-101346220D01*
X83136280Y-101055069D01*
X82755874Y-100897500D01*
X82344126Y-100897500D01*
X81963720Y-101055069D01*
X81672569Y-101346220D01*
X81515000Y-101726626D01*
X80228904Y-101726626D01*
X80254092Y-101600000D01*
X80138839Y-101020582D01*
X79810625Y-100529375D01*
X79512239Y-100330000D01*
X79810625Y-100130625D01*
X80099293Y-99698604D01*
X80350820Y-99950131D01*
X80731226Y-100107700D01*
X81142974Y-100107700D01*
X81523380Y-99950131D01*
X81814531Y-99658980D01*
X81972100Y-99278574D01*
X81972100Y-98866826D01*
X81814531Y-98486420D01*
X81801237Y-98473126D01*
X82404000Y-98473126D01*
X82404000Y-98884874D01*
X82561569Y-99265280D01*
X82852720Y-99556431D01*
X82985824Y-99611565D01*
X82980669Y-99616720D01*
X82823100Y-99997126D01*
X82823100Y-100408874D01*
X82980669Y-100789280D01*
X83271820Y-101080431D01*
X83652226Y-101238000D01*
X84063974Y-101238000D01*
X84300263Y-101140126D01*
X93326000Y-101140126D01*
X93326000Y-101551874D01*
X93483569Y-101932280D01*
X93774720Y-102223431D01*
X94153029Y-102380131D01*
X94088000Y-102537126D01*
X94088000Y-102948874D01*
X94245569Y-103329280D01*
X94536720Y-103620431D01*
X94917126Y-103778000D01*
X95328874Y-103778000D01*
X95709280Y-103620431D01*
X96000431Y-103329280D01*
X96158000Y-102948874D01*
X96158000Y-102537126D01*
X96000431Y-102156720D01*
X95709280Y-101865569D01*
X95330971Y-101708869D01*
X95396000Y-101551874D01*
X95396000Y-101140126D01*
X95238431Y-100759720D01*
X94947280Y-100468569D01*
X94566874Y-100311000D01*
X94155126Y-100311000D01*
X93774720Y-100468569D01*
X93483569Y-100759720D01*
X93326000Y-101140126D01*
X84300263Y-101140126D01*
X84444380Y-101080431D01*
X84735531Y-100789280D01*
X84893100Y-100408874D01*
X84893100Y-99997126D01*
X84735531Y-99616720D01*
X84444380Y-99325569D01*
X84311276Y-99270435D01*
X84316431Y-99265280D01*
X84474000Y-98884874D01*
X84474000Y-98473126D01*
X84316431Y-98092720D01*
X84146974Y-97923263D01*
X86892729Y-97923263D01*
X86892729Y-98335011D01*
X87050298Y-98715417D01*
X87341449Y-99006568D01*
X87721855Y-99164137D01*
X87918340Y-99164137D01*
X87918340Y-99207454D01*
X88053621Y-99534053D01*
X87940000Y-99808360D01*
X87940000Y-100220108D01*
X88097569Y-100600514D01*
X88388720Y-100891665D01*
X88769126Y-101049234D01*
X89180874Y-101049234D01*
X89561280Y-100891665D01*
X89852431Y-100600514D01*
X90010000Y-100220108D01*
X90010000Y-99808360D01*
X89874719Y-99481761D01*
X89988340Y-99207454D01*
X89988340Y-98795706D01*
X89830771Y-98415300D01*
X89539620Y-98124149D01*
X89159214Y-97966580D01*
X88962729Y-97966580D01*
X88962729Y-97923263D01*
X88805160Y-97542857D01*
X88514009Y-97251706D01*
X88133603Y-97094137D01*
X87721855Y-97094137D01*
X87341449Y-97251706D01*
X87050298Y-97542857D01*
X86892729Y-97923263D01*
X84146974Y-97923263D01*
X84025280Y-97801569D01*
X83644874Y-97644000D01*
X83233126Y-97644000D01*
X82852720Y-97801569D01*
X82561569Y-98092720D01*
X82404000Y-98473126D01*
X81801237Y-98473126D01*
X81676911Y-98348800D01*
X81776431Y-98249280D01*
X81934000Y-97868874D01*
X81934000Y-97457126D01*
X81776431Y-97076720D01*
X81485280Y-96785569D01*
X81104874Y-96628000D01*
X80693126Y-96628000D01*
X80312720Y-96785569D01*
X80173593Y-96924696D01*
X80254092Y-96520000D01*
X80138839Y-95940582D01*
X79860613Y-95524186D01*
X88660020Y-95524186D01*
X88660020Y-95935934D01*
X88817589Y-96316340D01*
X89108740Y-96607491D01*
X89489146Y-96765060D01*
X89900894Y-96765060D01*
X89923453Y-96755716D01*
X89686269Y-96992900D01*
X89528700Y-97373306D01*
X89528700Y-97785054D01*
X89686269Y-98165460D01*
X89977420Y-98456611D01*
X90357826Y-98614180D01*
X90769574Y-98614180D01*
X91149980Y-98456611D01*
X91196965Y-98409626D01*
X93414900Y-98409626D01*
X93414900Y-98821374D01*
X93572469Y-99201780D01*
X93863620Y-99492931D01*
X94244026Y-99650500D01*
X94655774Y-99650500D01*
X95036180Y-99492931D01*
X95327331Y-99201780D01*
X95484900Y-98821374D01*
X95484900Y-98409626D01*
X95327331Y-98029220D01*
X95036180Y-97738069D01*
X94655774Y-97580500D01*
X94244026Y-97580500D01*
X93863620Y-97738069D01*
X93572469Y-98029220D01*
X93414900Y-98409626D01*
X91196965Y-98409626D01*
X91441131Y-98165460D01*
X91598700Y-97785054D01*
X91598700Y-97373306D01*
X91441131Y-96992900D01*
X91149980Y-96701749D01*
X90769574Y-96544180D01*
X90357826Y-96544180D01*
X90335267Y-96553524D01*
X90572451Y-96316340D01*
X90730020Y-95935934D01*
X90730020Y-95524186D01*
X90572451Y-95143780D01*
X90281300Y-94852629D01*
X89900894Y-94695060D01*
X89489146Y-94695060D01*
X89108740Y-94852629D01*
X88817589Y-95143780D01*
X88660020Y-95524186D01*
X79860613Y-95524186D01*
X79810625Y-95449375D01*
X79512239Y-95250000D01*
X79810625Y-95050625D01*
X80138839Y-94559418D01*
X80254092Y-93980000D01*
X80138839Y-93400582D01*
X79893831Y-93033901D01*
X80835174Y-93033901D01*
X80835174Y-93445649D01*
X80992743Y-93826055D01*
X81283894Y-94117206D01*
X81664300Y-94274775D01*
X82076048Y-94274775D01*
X82456454Y-94117206D01*
X82747605Y-93826055D01*
X82869064Y-93532826D01*
X89909700Y-93532826D01*
X89909700Y-93944574D01*
X90067269Y-94324980D01*
X90358420Y-94616131D01*
X90738826Y-94773700D01*
X91150574Y-94773700D01*
X91530980Y-94616131D01*
X91822131Y-94324980D01*
X91979700Y-93944574D01*
X91979700Y-93532826D01*
X91822131Y-93152420D01*
X91530980Y-92861269D01*
X91150574Y-92703700D01*
X90738826Y-92703700D01*
X90358420Y-92861269D01*
X90067269Y-93152420D01*
X89909700Y-93532826D01*
X82869064Y-93532826D01*
X82905174Y-93445649D01*
X82905174Y-93033901D01*
X82747605Y-92653495D01*
X82456454Y-92362344D01*
X82076048Y-92204775D01*
X81664300Y-92204775D01*
X81283894Y-92362344D01*
X80992743Y-92653495D01*
X80835174Y-93033901D01*
X79893831Y-93033901D01*
X79810625Y-92909375D01*
X79512239Y-92710000D01*
X79810625Y-92510625D01*
X80138839Y-92019418D01*
X80254092Y-91440000D01*
X80138839Y-90860582D01*
X79810625Y-90369375D01*
X79512239Y-90170000D01*
X79810625Y-89970625D01*
X80101950Y-89534626D01*
X80245000Y-89534626D01*
X80245000Y-89946374D01*
X80402569Y-90326780D01*
X80693720Y-90617931D01*
X81074126Y-90775500D01*
X81485874Y-90775500D01*
X81866280Y-90617931D01*
X82117640Y-90366571D01*
X81995010Y-90662626D01*
X81995010Y-91074374D01*
X82152579Y-91454780D01*
X82443730Y-91745931D01*
X82824136Y-91903500D01*
X83235884Y-91903500D01*
X83616290Y-91745931D01*
X83907441Y-91454780D01*
X83951494Y-91348426D01*
X86518800Y-91348426D01*
X86518800Y-91760174D01*
X86676369Y-92140580D01*
X86967520Y-92431731D01*
X87347926Y-92589300D01*
X87759674Y-92589300D01*
X88140080Y-92431731D01*
X88347600Y-92224211D01*
X88347600Y-92445974D01*
X88505169Y-92826380D01*
X88796320Y-93117531D01*
X89176726Y-93275100D01*
X89588474Y-93275100D01*
X89968880Y-93117531D01*
X90260031Y-92826380D01*
X90358233Y-92589300D01*
X90401274Y-92589300D01*
X90781680Y-92431731D01*
X91072831Y-92140580D01*
X91230400Y-91760174D01*
X91230400Y-91348426D01*
X91072831Y-90968020D01*
X90781680Y-90676869D01*
X90633500Y-90615491D01*
X90633500Y-90599126D01*
X90475931Y-90218720D01*
X90184780Y-89927569D01*
X89804374Y-89770000D01*
X89392626Y-89770000D01*
X89012220Y-89927569D01*
X88721069Y-90218720D01*
X88563500Y-90599126D01*
X88563500Y-91010874D01*
X88721069Y-91391280D01*
X88744389Y-91414600D01*
X88588800Y-91570189D01*
X88588800Y-91348426D01*
X88431231Y-90968020D01*
X88140080Y-90676869D01*
X87759674Y-90519300D01*
X87347926Y-90519300D01*
X86967520Y-90676869D01*
X86676369Y-90968020D01*
X86518800Y-91348426D01*
X83951494Y-91348426D01*
X84065010Y-91074374D01*
X84065010Y-90662626D01*
X83907441Y-90282220D01*
X83616290Y-89991069D01*
X83235884Y-89833500D01*
X82824136Y-89833500D01*
X82443730Y-89991069D01*
X82192370Y-90242429D01*
X82315000Y-89946374D01*
X82315000Y-89534626D01*
X82157431Y-89154220D01*
X81866280Y-88863069D01*
X81485874Y-88705500D01*
X81074126Y-88705500D01*
X80693720Y-88863069D01*
X80402569Y-89154220D01*
X80245000Y-89534626D01*
X80101950Y-89534626D01*
X80138839Y-89479418D01*
X80254092Y-88900000D01*
X80138839Y-88320582D01*
X79810625Y-87829375D01*
X79512239Y-87630000D01*
X79810625Y-87430625D01*
X80138839Y-86939418D01*
X80202634Y-86618693D01*
X80409847Y-86618693D01*
X80409847Y-87030441D01*
X80567416Y-87410847D01*
X80858567Y-87701998D01*
X81238973Y-87859567D01*
X81564998Y-87859567D01*
X81564998Y-88001022D01*
X81722567Y-88381428D01*
X82013718Y-88672579D01*
X82394124Y-88830148D01*
X82805872Y-88830148D01*
X83186278Y-88672579D01*
X83477429Y-88381428D01*
X83610930Y-88059126D01*
X84563000Y-88059126D01*
X84563000Y-88470874D01*
X84720569Y-88851280D01*
X85011720Y-89142431D01*
X85392126Y-89300000D01*
X85803874Y-89300000D01*
X86184280Y-89142431D01*
X86475431Y-88851280D01*
X86633000Y-88470874D01*
X86633000Y-88296700D01*
X86654774Y-88296700D01*
X87035180Y-88139131D01*
X87326331Y-87847980D01*
X87483900Y-87467574D01*
X87483900Y-87055826D01*
X87326331Y-86675420D01*
X87035180Y-86384269D01*
X86654774Y-86226700D01*
X86243026Y-86226700D01*
X85862620Y-86384269D01*
X85571469Y-86675420D01*
X85413900Y-87055826D01*
X85413900Y-87230000D01*
X85392126Y-87230000D01*
X85011720Y-87387569D01*
X84720569Y-87678720D01*
X84563000Y-88059126D01*
X83610930Y-88059126D01*
X83634998Y-88001022D01*
X83634998Y-87589274D01*
X83477429Y-87208868D01*
X83186278Y-86917717D01*
X82805872Y-86760148D01*
X82479847Y-86760148D01*
X82479847Y-86618693D01*
X82322278Y-86238287D01*
X82031127Y-85947136D01*
X81650721Y-85789567D01*
X81238973Y-85789567D01*
X80858567Y-85947136D01*
X80567416Y-86238287D01*
X80409847Y-86618693D01*
X80202634Y-86618693D01*
X80254092Y-86360000D01*
X80138839Y-85780582D01*
X79810625Y-85289375D01*
X79512239Y-85090000D01*
X79810625Y-84890625D01*
X80138839Y-84399418D01*
X80172608Y-84229645D01*
X81654657Y-84229645D01*
X81654657Y-84641393D01*
X81812226Y-85021799D01*
X82103377Y-85312950D01*
X82483783Y-85470519D01*
X82895531Y-85470519D01*
X83011203Y-85422606D01*
X86732160Y-85422606D01*
X86732160Y-85834354D01*
X86889729Y-86214760D01*
X87180880Y-86505911D01*
X87561286Y-86663480D01*
X87973034Y-86663480D01*
X88058878Y-86627922D01*
X87974220Y-86832306D01*
X87974220Y-87244054D01*
X88131789Y-87624460D01*
X88422940Y-87915611D01*
X88803346Y-88073180D01*
X89215094Y-88073180D01*
X89595500Y-87915611D01*
X89886651Y-87624460D01*
X89989132Y-87377048D01*
X90482382Y-87377048D01*
X90482382Y-87788796D01*
X90639951Y-88169202D01*
X90931102Y-88460353D01*
X91311508Y-88617922D01*
X91723256Y-88617922D01*
X92103662Y-88460353D01*
X92394813Y-88169202D01*
X92519315Y-87868626D01*
X94380100Y-87868626D01*
X94380100Y-88280374D01*
X94537669Y-88660780D01*
X94828820Y-88951931D01*
X95209226Y-89109500D01*
X95620974Y-89109500D01*
X96001380Y-88951931D01*
X96292531Y-88660780D01*
X96450100Y-88280374D01*
X96450100Y-87868626D01*
X96292531Y-87488220D01*
X96001380Y-87197069D01*
X95620974Y-87039500D01*
X95209226Y-87039500D01*
X94828820Y-87197069D01*
X94537669Y-87488220D01*
X94380100Y-87868626D01*
X92519315Y-87868626D01*
X92552382Y-87788796D01*
X92552382Y-87377048D01*
X92394813Y-86996642D01*
X92103662Y-86705491D01*
X91723256Y-86547922D01*
X91311508Y-86547922D01*
X90931102Y-86705491D01*
X90639951Y-86996642D01*
X90482382Y-87377048D01*
X89989132Y-87377048D01*
X90044220Y-87244054D01*
X90044220Y-86832306D01*
X89886651Y-86451900D01*
X89595500Y-86160749D01*
X89215094Y-86003180D01*
X88803346Y-86003180D01*
X88717502Y-86038738D01*
X88802160Y-85834354D01*
X88802160Y-85422606D01*
X88744295Y-85282906D01*
X89874140Y-85282906D01*
X89874140Y-85694654D01*
X90031709Y-86075060D01*
X90322860Y-86366211D01*
X90703266Y-86523780D01*
X91115014Y-86523780D01*
X91495420Y-86366211D01*
X91786571Y-86075060D01*
X91944140Y-85694654D01*
X91944140Y-85667800D01*
X92052274Y-85667800D01*
X92432680Y-85510231D01*
X92723831Y-85219080D01*
X92881400Y-84838674D01*
X92881400Y-84426926D01*
X92723831Y-84046520D01*
X92432680Y-83755369D01*
X92052274Y-83597800D01*
X91640526Y-83597800D01*
X91260120Y-83755369D01*
X90968969Y-84046520D01*
X90811400Y-84426926D01*
X90811400Y-84453780D01*
X90703266Y-84453780D01*
X90322860Y-84611349D01*
X90031709Y-84902500D01*
X89874140Y-85282906D01*
X88744295Y-85282906D01*
X88644591Y-85042200D01*
X88353440Y-84751049D01*
X87973034Y-84593480D01*
X87561286Y-84593480D01*
X87180880Y-84751049D01*
X86889729Y-85042200D01*
X86732160Y-85422606D01*
X83011203Y-85422606D01*
X83275937Y-85312950D01*
X83567088Y-85021799D01*
X83724657Y-84641393D01*
X83724657Y-84229645D01*
X83567088Y-83849239D01*
X83275937Y-83558088D01*
X82895531Y-83400519D01*
X82483783Y-83400519D01*
X82103377Y-83558088D01*
X81812226Y-83849239D01*
X81654657Y-84229645D01*
X80172608Y-84229645D01*
X80254092Y-83820000D01*
X80138839Y-83240582D01*
X79810625Y-82749375D01*
X79512239Y-82550000D01*
X79810625Y-82350625D01*
X80138839Y-81859418D01*
X80254092Y-81280000D01*
X80227463Y-81146126D01*
X82023000Y-81146126D01*
X82023000Y-81557874D01*
X82180569Y-81938280D01*
X82471720Y-82229431D01*
X82852126Y-82387000D01*
X83263874Y-82387000D01*
X83644280Y-82229431D01*
X83935431Y-81938280D01*
X84093000Y-81557874D01*
X84093000Y-81146126D01*
X83935431Y-80765720D01*
X83685037Y-80515326D01*
X84855100Y-80515326D01*
X84855100Y-80927074D01*
X85012669Y-81307480D01*
X85303820Y-81598631D01*
X85684226Y-81756200D01*
X86095974Y-81756200D01*
X86476380Y-81598631D01*
X86767531Y-81307480D01*
X86925100Y-80927074D01*
X86925100Y-80515326D01*
X86767531Y-80134920D01*
X86476380Y-79843769D01*
X86095974Y-79686200D01*
X85684226Y-79686200D01*
X85303820Y-79843769D01*
X85012669Y-80134920D01*
X84855100Y-80515326D01*
X83685037Y-80515326D01*
X83644280Y-80474569D01*
X83263874Y-80317000D01*
X82852126Y-80317000D01*
X82471720Y-80474569D01*
X82180569Y-80765720D01*
X82023000Y-81146126D01*
X80227463Y-81146126D01*
X80138839Y-80700582D01*
X79810625Y-80209375D01*
X79512239Y-80010000D01*
X79810625Y-79810625D01*
X80138839Y-79319418D01*
X80183254Y-79096125D01*
X81134000Y-79096125D01*
X81134000Y-79507873D01*
X81291569Y-79888279D01*
X81582720Y-80179430D01*
X81963126Y-80336999D01*
X82374874Y-80336999D01*
X82755280Y-80179430D01*
X83046431Y-79888279D01*
X83204000Y-79507873D01*
X83204000Y-79096125D01*
X83090101Y-78821146D01*
X86239400Y-78821146D01*
X86239400Y-79232894D01*
X86396969Y-79613300D01*
X86688120Y-79904451D01*
X87068526Y-80062020D01*
X87480274Y-80062020D01*
X87860680Y-79904451D01*
X88151831Y-79613300D01*
X88309400Y-79232894D01*
X88309400Y-78821146D01*
X88151831Y-78440740D01*
X87860680Y-78149589D01*
X87480274Y-77992020D01*
X87068526Y-77992020D01*
X86688120Y-78149589D01*
X86396969Y-78440740D01*
X86239400Y-78821146D01*
X83090101Y-78821146D01*
X83046431Y-78715719D01*
X82755280Y-78424568D01*
X82374874Y-78266999D01*
X81963126Y-78266999D01*
X81582720Y-78424568D01*
X81291569Y-78715719D01*
X81134000Y-79096125D01*
X80183254Y-79096125D01*
X80254092Y-78740000D01*
X80138839Y-78160582D01*
X79810625Y-77669375D01*
X79491522Y-77456157D01*
X79621358Y-77395183D01*
X79874160Y-77117785D01*
X79874160Y-77185654D01*
X80031729Y-77566060D01*
X80322880Y-77857211D01*
X80703286Y-78014780D01*
X81115034Y-78014780D01*
X81495440Y-77857211D01*
X81786591Y-77566060D01*
X81944160Y-77185654D01*
X81944160Y-76773906D01*
X81786591Y-76393500D01*
X81495440Y-76102349D01*
X81115034Y-75944780D01*
X80703286Y-75944780D01*
X80322880Y-76102349D01*
X80073307Y-76351922D01*
X80060155Y-76327000D01*
X78867000Y-76327000D01*
X78867000Y-76347000D01*
X78613000Y-76347000D01*
X78613000Y-76327000D01*
X78593000Y-76327000D01*
X78593000Y-76073000D01*
X78613000Y-76073000D01*
X78613000Y-76053000D01*
X78867000Y-76053000D01*
X78867000Y-76073000D01*
X80060155Y-76073000D01*
X80181476Y-75843110D01*
X80011645Y-75433076D01*
X79828513Y-75232126D01*
X83039000Y-75232126D01*
X83039000Y-75643874D01*
X83196569Y-76024280D01*
X83487720Y-76315431D01*
X83868126Y-76473000D01*
X84279874Y-76473000D01*
X84660280Y-76315431D01*
X84677300Y-76298411D01*
X84677300Y-76697974D01*
X84834869Y-77078380D01*
X85126020Y-77369531D01*
X85506426Y-77527100D01*
X85918174Y-77527100D01*
X86298580Y-77369531D01*
X86589731Y-77078380D01*
X86645357Y-76944086D01*
X92000120Y-76944086D01*
X92000120Y-77355834D01*
X92157689Y-77736240D01*
X92448840Y-78027391D01*
X92829246Y-78184960D01*
X93240994Y-78184960D01*
X93621400Y-78027391D01*
X93912551Y-77736240D01*
X94070120Y-77355834D01*
X94070120Y-76944086D01*
X93912551Y-76563680D01*
X93850997Y-76502126D01*
X94469000Y-76502126D01*
X94469000Y-76913874D01*
X94626569Y-77294280D01*
X94917720Y-77585431D01*
X95298126Y-77743000D01*
X95709874Y-77743000D01*
X96090280Y-77585431D01*
X96381431Y-77294280D01*
X96539000Y-76913874D01*
X96539000Y-76502126D01*
X96381431Y-76121720D01*
X96090280Y-75830569D01*
X95709874Y-75673000D01*
X95298126Y-75673000D01*
X94917720Y-75830569D01*
X94626569Y-76121720D01*
X94469000Y-76502126D01*
X93850997Y-76502126D01*
X93621400Y-76272529D01*
X93240994Y-76114960D01*
X92829246Y-76114960D01*
X92448840Y-76272529D01*
X92157689Y-76563680D01*
X92000120Y-76944086D01*
X86645357Y-76944086D01*
X86736380Y-76724338D01*
X86938660Y-76640551D01*
X87229811Y-76349400D01*
X87387380Y-75968994D01*
X87387380Y-75557246D01*
X87229811Y-75176840D01*
X86938660Y-74885689D01*
X86671254Y-74774926D01*
X91751200Y-74774926D01*
X91751200Y-75186674D01*
X91908769Y-75567080D01*
X92199920Y-75858231D01*
X92580326Y-76015800D01*
X92992074Y-76015800D01*
X93372480Y-75858231D01*
X93663631Y-75567080D01*
X93821200Y-75186674D01*
X93821200Y-74774926D01*
X93663631Y-74394520D01*
X93372480Y-74103369D01*
X92992074Y-73945800D01*
X92580326Y-73945800D01*
X92199920Y-74103369D01*
X91908769Y-74394520D01*
X91751200Y-74774926D01*
X86671254Y-74774926D01*
X86558254Y-74728120D01*
X86146506Y-74728120D01*
X85766100Y-74885689D01*
X85474949Y-75176840D01*
X85328300Y-75530882D01*
X85126020Y-75614669D01*
X85109000Y-75631689D01*
X85109000Y-75232126D01*
X84951431Y-74851720D01*
X84660280Y-74560569D01*
X84279874Y-74403000D01*
X83868126Y-74403000D01*
X83487720Y-74560569D01*
X83196569Y-74851720D01*
X83039000Y-75232126D01*
X79828513Y-75232126D01*
X79621358Y-75004817D01*
X79491522Y-74943843D01*
X79810625Y-74730625D01*
X80138839Y-74239418D01*
X80254092Y-73660000D01*
X80138839Y-73080582D01*
X79879282Y-72692126D01*
X89274700Y-72692126D01*
X89274700Y-73103874D01*
X89432269Y-73484280D01*
X89723420Y-73775431D01*
X90103826Y-73933000D01*
X90515574Y-73933000D01*
X90895980Y-73775431D01*
X91187131Y-73484280D01*
X91344700Y-73103874D01*
X91344700Y-72692126D01*
X91187131Y-72311720D01*
X90895980Y-72020569D01*
X90515574Y-71863000D01*
X90103826Y-71863000D01*
X89723420Y-72020569D01*
X89432269Y-72311720D01*
X89274700Y-72692126D01*
X79879282Y-72692126D01*
X79810625Y-72589375D01*
X79512239Y-72390000D01*
X79810625Y-72190625D01*
X80138839Y-71699418D01*
X80254092Y-71120000D01*
X80138839Y-70540582D01*
X79810625Y-70049375D01*
X79792381Y-70037184D01*
X79837765Y-70028157D01*
X80047809Y-69887809D01*
X80188157Y-69677765D01*
X80237440Y-69430000D01*
X80237440Y-67734127D01*
X87577980Y-67734127D01*
X87577980Y-68145875D01*
X87735549Y-68526281D01*
X88026700Y-68817432D01*
X88407106Y-68975001D01*
X88818854Y-68975001D01*
X89199260Y-68817432D01*
X89490411Y-68526281D01*
X89647980Y-68145875D01*
X89647980Y-67734127D01*
X89490411Y-67353721D01*
X89199260Y-67062570D01*
X88818854Y-66905001D01*
X88407106Y-66905001D01*
X88026700Y-67062570D01*
X87735549Y-67353721D01*
X87577980Y-67734127D01*
X80237440Y-67734127D01*
X80237440Y-67730000D01*
X80188157Y-67482235D01*
X80073072Y-67310000D01*
X80188157Y-67137765D01*
X80197184Y-67092381D01*
X80209375Y-67110625D01*
X80700582Y-67438839D01*
X81133744Y-67525000D01*
X81426256Y-67525000D01*
X81859418Y-67438839D01*
X82350625Y-67110625D01*
X82678839Y-66619418D01*
X82794092Y-66040000D01*
X82678839Y-65460582D01*
X82350625Y-64969375D01*
X81859418Y-64641161D01*
X81426256Y-64555000D01*
X81133744Y-64555000D01*
X80700582Y-64641161D01*
X80209375Y-64969375D01*
X80197184Y-64987619D01*
X80188157Y-64942235D01*
X80047809Y-64732191D01*
X79837765Y-64591843D01*
X79590000Y-64542560D01*
X77890000Y-64542560D01*
X77642235Y-64591843D01*
X77443000Y-64724969D01*
X77443000Y-64235000D01*
X83874269Y-64235000D01*
X83801089Y-64308180D01*
M02*
